<?xml version="1.0" encoding="utf-8" standalone="no"?>
<!DOCTYPE svg PUBLIC "-//W3C//DTD SVG 1.1//EN"
  "http://www.w3.org/Graphics/SVG/1.1/DTD/svg11.dtd">
<svg xmlns:xlink="http://www.w3.org/1999/xlink" width="1116pt" height="396pt" viewBox="0 0 1116 396" xmlns="http://www.w3.org/2000/svg" version="1.1">
 <metadata>
  <rdf:RDF xmlns:dc="http://purl.org/dc/elements/1.1/" xmlns:cc="http://creativecommons.org/ns#" xmlns:rdf="http://www.w3.org/1999/02/22-rdf-syntax-ns#">
   <cc:Work>
    <dc:type rdf:resource="http://purl.org/dc/dcmitype/StillImage"/>
    <dc:date>2026-03-19T12:05:00.514744</dc:date>
    <dc:format>image/svg+xml</dc:format>
    <dc:creator>
     <cc:Agent>
      <dc:title>Matplotlib v3.10.0, https://matplotlib.org/</dc:title>
     </cc:Agent>
    </dc:creator>
   </cc:Work>
  </rdf:RDF>
 </metadata>
 <defs>
  <style type="text/css">*{stroke-linejoin: round; stroke-linecap: butt}</style>
 </defs>
 <g id="figure_1">
  <g id="patch_1">
   <path d="M 0 396 
L 1116 396 
L 1116 0 
L 0 0 
L 0 396 
z
" style="fill: none"/>
  </g>
  <g id="axes_1">
   <g id="patch_2">
    <path d="M 54.748513 353.420149 
L 547.146254 353.420149 
L 547.146254 23.213303 
L 54.748513 23.213303 
L 54.748513 353.420149 
z
" style="fill: none"/>
   </g>
   <g id="matplotlib.axis_1">
    <g id="xtick_1">
     <g id="line2d_1">
      <path d="M 77.130228 353.420149 
L 77.130228 23.213303 
" clip-path="url(#pa27a4faa01)" style="fill: none; stroke: #2f3a46; stroke-opacity: 0.3; stroke-width: 0.5; stroke-linecap: round"/>
     </g>
     <g id="line2d_2">
      <defs>
       <path id="me6acb8fa8f" d="M 0 0 
L 0 3 
" style="stroke: #e6edf3; stroke-width: 0.5"/>
      </defs>
      <g>
       <use xlink:href="#me6acb8fa8f" x="77.130228" y="23.213303" style="fill: #e6edf3; stroke: #e6edf3; stroke-width: 0.5"/>
      </g>
     </g>
     <g id="text_1">
      <!-- $\mathdefault{0}$ -->
      <g style="fill: #e6edf3" transform="translate(73.474952 367.810797) scale(0.16 -0.16)">
       <defs>
        <path id="LMRoman17-Regular-30" d="M 2688 2025 
C 2688 2416 2682 3080 2413 3591 
C 2176 4039 1798 4198 1466 4198 
C 1158 4198 768 4058 525 3597 
C 269 3118 243 2524 243 2025 
C 243 1661 250 1106 448 619 
C 723 -39 1216 -128 1466 -128 
C 1760 -128 2208 -7 2470 600 
C 2662 1042 2688 1559 2688 2025 
z
M 2278 2096 
C 2278 1680 2278 1169 2202 792 
C 2067 95 1690 -26 1466 -26 
C 1056 -26 813 325 723 812 
C 653 1188 653 1738 653 2096 
C 653 2588 653 2997 736 3387 
C 858 3929 1216 4096 1466 4096 
C 1728 4096 2067 3923 2189 3400 
C 2272 3036 2278 2607 2278 2096 
z
" transform="scale(0.015625)"/>
       </defs>
       <use xlink:href="#LMRoman17-Regular-30" transform="scale(0.996264)"/>
      </g>
     </g>
    </g>
    <g id="xtick_2">
     <g id="line2d_3">
      <path d="M 166.65709 353.420149 
L 166.65709 23.213303 
" clip-path="url(#pa27a4faa01)" style="fill: none; stroke: #2f3a46; stroke-opacity: 0.3; stroke-width: 0.5; stroke-linecap: round"/>
     </g>
     <g id="line2d_4">
      <g>
       <use xlink:href="#me6acb8fa8f" x="166.65709" y="23.213303" style="fill: #e6edf3; stroke: #e6edf3; stroke-width: 0.5"/>
      </g>
     </g>
     <g id="text_2">
      <!-- $\mathdefault{20}$ -->
      <g style="fill: #e6edf3" transform="translate(159.346538 367.810797) scale(0.16 -0.16)">
       <defs>
        <path id="LMRoman17-Regular-32" d="M 2669 989 
L 2554 989 
C 2490 536 2438 459 2413 420 
C 2381 369 1920 369 1830 369 
L 602 369 
L 1824 1597 
C 2214 1967 2669 2402 2669 3035 
C 2669 3790 2067 4224 1395 4224 
C 691 4224 262 3604 262 3030 
C 262 2780 448 2748 525 2748 
C 589 2748 781 2787 781 3010 
C 781 3207 614 3264 525 3264 
C 486 3264 448 3258 422 3245 
C 544 3790 915 4058 1306 4058 
C 1862 4058 2227 3617 2227 3035 
C 2227 2479 1901 2000 1536 1584 
L 262 146 
L 262 0 
L 2515 0 
L 2669 989 
z
" transform="scale(0.015625)"/>
       </defs>
       <use xlink:href="#LMRoman17-Regular-32" transform="scale(0.996264)"/>
       <use xlink:href="#LMRoman17-Regular-30" transform="translate(45.690948 0) scale(0.996264)"/>
      </g>
     </g>
    </g>
    <g id="xtick_3">
     <g id="line2d_5">
      <path d="M 256.183952 353.420149 
L 256.183952 23.213303 
" clip-path="url(#pa27a4faa01)" style="fill: none; stroke: #2f3a46; stroke-opacity: 0.3; stroke-width: 0.5; stroke-linecap: round"/>
     </g>
     <g id="line2d_6">
      <g>
       <use xlink:href="#me6acb8fa8f" x="256.183952" y="23.213303" style="fill: #e6edf3; stroke: #e6edf3; stroke-width: 0.5"/>
      </g>
     </g>
     <g id="text_3">
      <!-- $\mathdefault{40}$ -->
      <g style="fill: #e6edf3" transform="translate(248.8734 367.810797) scale(0.16 -0.16)">
       <defs>
        <path id="LMRoman17-Regular-34" d="M 2803 1114 
L 2803 1280 
L 2150 1280 
L 2150 4154 
C 2150 4288 2144 4288 2029 4288 
L 128 1280 
L 128 1114 
L 1779 1114 
L 1779 487 
C 1779 255 1766 192 1318 192 
L 1197 192 
L 1197 32 
C 1402 32 1747 32 1965 32 
C 2182 32 2528 32 2733 32 
L 2733 192 
L 2611 192 
C 2163 192 2150 255 2150 487 
L 2150 1114 
L 2803 1114 
z
M 1798 1280 
L 256 1280 
L 1798 3734 
L 1798 1280 
z
" transform="scale(0.015625)"/>
       </defs>
       <use xlink:href="#LMRoman17-Regular-34" transform="scale(0.996264)"/>
       <use xlink:href="#LMRoman17-Regular-30" transform="translate(45.690948 0) scale(0.996264)"/>
      </g>
     </g>
    </g>
    <g id="xtick_4">
     <g id="line2d_7">
      <path d="M 345.710815 353.420149 
L 345.710815 23.213303 
" clip-path="url(#pa27a4faa01)" style="fill: none; stroke: #2f3a46; stroke-opacity: 0.3; stroke-width: 0.5; stroke-linecap: round"/>
     </g>
     <g id="line2d_8">
      <g>
       <use xlink:href="#me6acb8fa8f" x="345.710815" y="23.213303" style="fill: #e6edf3; stroke: #e6edf3; stroke-width: 0.5"/>
      </g>
     </g>
     <g id="text_4">
      <!-- $\mathdefault{60}$ -->
      <g style="fill: #e6edf3" transform="translate(338.400262 367.810797) scale(0.16 -0.16)">
       <defs>
        <path id="LMRoman17-Regular-36" d="M 2688 1283 
C 2688 2081 2170 2662 1517 2662 
C 1126 2662 838 2407 678 1960 
L 678 2176 
C 678 3690 1395 4032 1811 4032 
C 1946 4032 2272 4009 2400 3776 
C 2298 3776 2106 3776 2106 3553 
C 2106 3381 2246 3323 2336 3323 
C 2394 3323 2566 3348 2566 3560 
C 2566 3954 2246 4179 1805 4179 
C 1043 4179 243 3390 243 1984 
C 243 253 966 -128 1478 -128 
C 2099 -128 2688 427 2688 1283 
z
M 2253 1289 
C 2253 944 2253 690 2118 434 
C 1978 171 1773 25 1478 25 
C 691 25 691 1200 691 1436 
C 691 1896 909 2560 1504 2560 
C 1613 2560 1926 2560 2138 2120 
C 2253 1870 2253 1609 2253 1289 
z
" transform="scale(0.015625)"/>
       </defs>
       <use xlink:href="#LMRoman17-Regular-36" transform="scale(0.996264)"/>
       <use xlink:href="#LMRoman17-Regular-30" transform="translate(45.690948 0) scale(0.996264)"/>
      </g>
     </g>
    </g>
    <g id="xtick_5">
     <g id="line2d_9">
      <path d="M 435.237677 353.420149 
L 435.237677 23.213303 
" clip-path="url(#pa27a4faa01)" style="fill: none; stroke: #2f3a46; stroke-opacity: 0.3; stroke-width: 0.5; stroke-linecap: round"/>
     </g>
     <g id="line2d_10">
      <g>
       <use xlink:href="#me6acb8fa8f" x="435.237677" y="23.213303" style="fill: #e6edf3; stroke: #e6edf3; stroke-width: 0.5"/>
      </g>
     </g>
     <g id="text_5">
      <!-- $\mathdefault{80}$ -->
      <g style="fill: #e6edf3" transform="translate(427.927124 367.810797) scale(0.16 -0.16)">
       <defs>
        <path id="LMRoman17-Regular-38" d="M 2720 1011 
C 2720 1590 2330 1858 2074 2029 
C 1984 2092 1933 2124 1741 2264 
C 2144 2468 2554 2773 2554 3263 
C 2554 3842 1990 4179 1472 4179 
C 890 4179 378 3759 378 3180 
C 378 3021 416 2747 666 2505 
C 730 2442 998 2251 1171 2130 
C 883 1983 211 1634 211 934 
C 211 279 838 -128 1459 -128 
C 2144 -128 2720 362 2720 1011 
z
M 2336 3262 
C 2336 2669 1670 2331 1638 2331 
C 1638 2331 1626 2331 1574 2370 
L 902 2822 
C 851 2854 595 3051 595 3351 
C 595 3739 998 4032 1459 4032 
C 1965 4032 2336 3676 2336 3262 
z
M 2483 851 
C 2483 381 2010 25 1472 25 
C 890 25 448 438 448 940 
C 448 1443 838 1862 1280 2060 
L 2080 1519 
C 2176 1449 2483 1240 2483 851 
z
" transform="scale(0.015625)"/>
       </defs>
       <use xlink:href="#LMRoman17-Regular-38" transform="scale(0.996264)"/>
       <use xlink:href="#LMRoman17-Regular-30" transform="translate(45.690948 0) scale(0.996264)"/>
      </g>
     </g>
    </g>
    <g id="xtick_6">
     <g id="line2d_11">
      <path d="M 524.764539 353.420149 
L 524.764539 23.213303 
" clip-path="url(#pa27a4faa01)" style="fill: none; stroke: #2f3a46; stroke-opacity: 0.3; stroke-width: 0.5; stroke-linecap: round"/>
     </g>
     <g id="line2d_12">
      <g>
       <use xlink:href="#me6acb8fa8f" x="524.764539" y="23.213303" style="fill: #e6edf3; stroke: #e6edf3; stroke-width: 0.5"/>
      </g>
     </g>
     <g id="text_6">
      <!-- $\mathdefault{100}$ -->
      <g style="fill: #e6edf3" transform="translate(513.79871 367.810797) scale(0.16 -0.16)">
       <defs>
        <path id="LMRoman17-Regular-31" d="M 2458 0 
L 2458 160 
L 2266 160 
C 1715 160 1702 230 1702 458 
L 1702 4058 
C 1702 4192 1696 4192 1606 4192 
C 1357 3916 979 3827 621 3827 
C 602 3827 570 3827 563 3808 
C 557 3795 557 3782 557 3648 
C 755 3648 1088 3686 1344 3839 
L 1344 461 
C 1344 236 1331 160 781 160 
L 589 160 
L 589 0 
L 1523 0 
L 2458 0 
z
" transform="scale(0.015625)"/>
       </defs>
       <use xlink:href="#LMRoman17-Regular-31" transform="scale(0.996264)"/>
       <use xlink:href="#LMRoman17-Regular-30" transform="translate(45.690948 0) scale(0.996264)"/>
       <use xlink:href="#LMRoman17-Regular-30" transform="translate(91.381897 0) scale(0.996264)"/>
      </g>
     </g>
    </g>
    <g id="xtick_7">
     <g id="line2d_13">
      <defs>
       <path id="mf7ff4e3753" d="M 0 0 
L 0 1.5 
" style="stroke: #e6edf3; stroke-width: 0.5"/>
      </defs>
      <g>
       <use xlink:href="#mf7ff4e3753" x="54.748513" y="23.213303" style="fill: #e6edf3; stroke: #e6edf3; stroke-width: 0.5"/>
      </g>
     </g>
    </g>
    <g id="xtick_8">
     <g id="line2d_14">
      <g>
       <use xlink:href="#mf7ff4e3753" x="99.511944" y="23.213303" style="fill: #e6edf3; stroke: #e6edf3; stroke-width: 0.5"/>
      </g>
     </g>
    </g>
    <g id="xtick_9">
     <g id="line2d_15">
      <g>
       <use xlink:href="#mf7ff4e3753" x="121.893659" y="23.213303" style="fill: #e6edf3; stroke: #e6edf3; stroke-width: 0.5"/>
      </g>
     </g>
    </g>
    <g id="xtick_10">
     <g id="line2d_16">
      <g>
       <use xlink:href="#mf7ff4e3753" x="144.275375" y="23.213303" style="fill: #e6edf3; stroke: #e6edf3; stroke-width: 0.5"/>
      </g>
     </g>
    </g>
    <g id="xtick_11">
     <g id="line2d_17">
      <g>
       <use xlink:href="#mf7ff4e3753" x="189.038806" y="23.213303" style="fill: #e6edf3; stroke: #e6edf3; stroke-width: 0.5"/>
      </g>
     </g>
    </g>
    <g id="xtick_12">
     <g id="line2d_18">
      <g>
       <use xlink:href="#mf7ff4e3753" x="211.420521" y="23.213303" style="fill: #e6edf3; stroke: #e6edf3; stroke-width: 0.5"/>
      </g>
     </g>
    </g>
    <g id="xtick_13">
     <g id="line2d_19">
      <g>
       <use xlink:href="#mf7ff4e3753" x="233.802237" y="23.213303" style="fill: #e6edf3; stroke: #e6edf3; stroke-width: 0.5"/>
      </g>
     </g>
    </g>
    <g id="xtick_14">
     <g id="line2d_20">
      <g>
       <use xlink:href="#mf7ff4e3753" x="278.565668" y="23.213303" style="fill: #e6edf3; stroke: #e6edf3; stroke-width: 0.5"/>
      </g>
     </g>
    </g>
    <g id="xtick_15">
     <g id="line2d_21">
      <g>
       <use xlink:href="#mf7ff4e3753" x="300.947383" y="23.213303" style="fill: #e6edf3; stroke: #e6edf3; stroke-width: 0.5"/>
      </g>
     </g>
    </g>
    <g id="xtick_16">
     <g id="line2d_22">
      <g>
       <use xlink:href="#mf7ff4e3753" x="323.329099" y="23.213303" style="fill: #e6edf3; stroke: #e6edf3; stroke-width: 0.5"/>
      </g>
     </g>
    </g>
    <g id="xtick_17">
     <g id="line2d_23">
      <g>
       <use xlink:href="#mf7ff4e3753" x="368.09253" y="23.213303" style="fill: #e6edf3; stroke: #e6edf3; stroke-width: 0.5"/>
      </g>
     </g>
    </g>
    <g id="xtick_18">
     <g id="line2d_24">
      <g>
       <use xlink:href="#mf7ff4e3753" x="390.474246" y="23.213303" style="fill: #e6edf3; stroke: #e6edf3; stroke-width: 0.5"/>
      </g>
     </g>
    </g>
    <g id="xtick_19">
     <g id="line2d_25">
      <g>
       <use xlink:href="#mf7ff4e3753" x="412.855961" y="23.213303" style="fill: #e6edf3; stroke: #e6edf3; stroke-width: 0.5"/>
      </g>
     </g>
    </g>
    <g id="xtick_20">
     <g id="line2d_26">
      <g>
       <use xlink:href="#mf7ff4e3753" x="457.619392" y="23.213303" style="fill: #e6edf3; stroke: #e6edf3; stroke-width: 0.5"/>
      </g>
     </g>
    </g>
    <g id="xtick_21">
     <g id="line2d_27">
      <g>
       <use xlink:href="#mf7ff4e3753" x="480.001108" y="23.213303" style="fill: #e6edf3; stroke: #e6edf3; stroke-width: 0.5"/>
      </g>
     </g>
    </g>
    <g id="xtick_22">
     <g id="line2d_28">
      <g>
       <use xlink:href="#mf7ff4e3753" x="502.382823" y="23.213303" style="fill: #e6edf3; stroke: #e6edf3; stroke-width: 0.5"/>
      </g>
     </g>
    </g>
    <g id="xtick_23">
     <g id="line2d_29">
      <g>
       <use xlink:href="#mf7ff4e3753" x="547.146254" y="23.213303" style="fill: #e6edf3; stroke: #e6edf3; stroke-width: 0.5"/>
      </g>
     </g>
    </g>
    <g id="text_7">
     <!-- \% Active Features Removed -->
     <g style="fill: #e6edf3" transform="translate(188.758838 388.524503) scale(0.2 -0.2)">
      <defs>
       <path id="LMRoman17-Regular-25" d="M 4134 4685 
C 4134 4761 4077 4800 4026 4800 
C 3962 4800 3936 4756 3891 4706 
C 3520 4190 3008 4134 2746 4134 
C 2106 4134 1715 4494 1594 4607 
C 1510 4682 1389 4800 1171 4800 
C 736 4800 294 4296 294 3519 
C 294 2743 730 2240 1171 2240 
C 1600 2240 1965 2778 1965 3527 
C 1965 3969 1830 4270 1811 4308 
C 2202 4064 2586 4032 2752 4032 
C 3162 4032 3456 4183 3616 4289 
L 3622 4283 
L 858 -84 
C 800 -174 800 -187 800 -206 
C 800 -276 858 -320 915 -320 
C 973 -320 992 -289 1037 -218 
L 4083 4577 
C 4128 4647 4134 4653 4134 4685 
z
M 4640 959 
C 4640 1698 4275 2240 3846 2240 
C 3411 2240 2970 1736 2970 959 
C 2970 183 3405 -320 3846 -320 
C 4275 -320 4640 215 4640 959 
z
M 1850 3519 
C 1850 2845 1530 2342 1178 2342 
C 1011 2342 595 2494 595 3519 
C 595 4551 1011 4698 1178 4698 
C 1530 4698 1850 4194 1850 3519 
z
M 4525 959 
C 4525 285 4205 -218 3853 -218 
C 3686 -218 3270 -66 3270 959 
C 3270 1991 3686 2138 3853 2138 
C 4205 2138 4525 1634 4525 959 
z
" transform="scale(0.015625)"/>
       <path id="LMRoman17-Regular-41" d="M 4282 -13 
L 4282 153 
C 3942 153 3827 153 3744 387 
L 2323 4378 
C 2291 4461 2278 4480 2214 4480 
C 2150 4480 2138 4461 2106 4378 
L 749 566 
C 627 223 371 153 147 153 
L 147 -13 
C 262 0 518 0 640 0 
C 800 0 1056 0 1210 -13 
L 1210 153 
C 909 153 864 361 864 439 
C 864 497 877 530 890 569 
L 1229 1536 
L 2906 1536 
L 3290 442 
C 3322 365 3322 352 3322 327 
C 3322 153 3046 153 2925 153 
L 2925 0 
C 3110 0 3443 0 3642 0 
C 3808 0 4128 0 4282 -13 
z
M 2848 1702 
L 1286 1702 
L 2067 3874 
L 2848 1702 
z
" transform="scale(0.015625)"/>
       <path id="LMRoman17-Regular-63" d="M 2458 748 
C 2458 774 2451 793 2406 793 
C 2362 793 2355 787 2330 703 
C 2163 180 1798 51 1523 51 
C 1114 51 621 427 621 1369 
C 621 2338 1094 2688 1472 2688 
C 1722 2688 2093 2573 2234 2240 
C 2112 2240 1933 2240 1933 2017 
C 1933 1838 2080 1787 2163 1787 
C 2208 1787 2394 1807 2394 2024 
C 2394 2467 1958 2803 1466 2803 
C 787 2803 211 2178 211 1363 
C 211 516 813 -64 1466 -64 
C 2259 -64 2458 677 2458 748 
z
" transform="scale(0.015625)"/>
       <path id="LMRoman17-Regular-74" d="M 1965 777 
L 1965 1140 
L 1850 1140 
L 1850 783 
C 1850 344 1677 51 1408 51 
C 1222 51 966 178 966 758 
L 966 2560 
L 1862 2560 
L 1862 2725 
L 966 2725 
L 966 3904 
L 851 3904 
C 838 3245 614 2668 70 2668 
L 70 2560 
L 627 2560 
L 627 771 
C 627 650 627 -64 1370 -64 
C 1747 -64 1965 306 1965 777 
z
" transform="scale(0.015625)"/>
       <path id="LMRoman17-Regular-69" d="M 1370 -13 
L 1370 153 
C 992 153 979 191 979 420 
L 979 2778 
L 243 2708 
L 243 2542 
C 602 2542 653 2503 653 2198 
L 653 427 
C 653 184 627 153 218 153 
L 218 -13 
C 371 0 646 0 806 0 
C 960 0 1222 0 1370 -13 
z
M 1056 3835 
C 1056 3988 934 4096 800 4096 
C 646 4096 538 3975 538 3835 
C 538 3682 659 3574 794 3574 
C 947 3574 1056 3695 1056 3835 
z
" transform="scale(0.015625)"/>
       <path id="LMRoman17-Regular-76" d="M 3034 2560 
L 3034 2719 
L 2630 2719 
C 2496 2719 2285 2719 2157 2725 
L 2157 2560 
C 2317 2547 2406 2471 2406 2305 
C 2406 2248 2406 2235 2368 2146 
L 1664 375 
L 902 2286 
C 864 2369 864 2381 864 2407 
C 864 2560 1075 2560 1171 2560 
L 1171 2725 
C 1018 2719 736 2719 576 2719 
C 403 2719 205 2719 64 2725 
L 64 2560 
C 307 2560 442 2560 518 2362 
L 1446 44 
C 1485 -51 1491 -64 1549 -64 
C 1606 -64 1613 -51 1651 44 
L 2502 2163 
C 2560 2304 2662 2560 3034 2560 
z
" transform="scale(0.015625)"/>
       <path id="LMRoman17-Regular-65" d="M 2464 1576 
C 2464 2238 2118 2816 1389 2816 
C 710 2816 173 2169 173 1383 
C 173 551 781 -64 1459 -64 
C 2176 -64 2458 606 2458 739 
C 2458 784 2406 784 2406 784 
C 2362 784 2355 771 2330 695 
C 2189 265 1837 51 1504 51 
C 1229 51 954 203 781 480 
C 582 803 582 1176 582 1472 
L 2438 1472 
C 2464 1498 2464 1511 2464 1576 
z
M 2118 1568 
L 589 1568 
C 634 2505 1126 2714 1382 2714 
C 1818 2714 2112 2297 2118 1568 
z
" transform="scale(0.015625)"/>
       <path id="LMRoman17-Regular-46" d="M 3635 2916 
L 3482 4325 
L 326 4325 
L 326 4160 
C 768 4160 838 4160 838 3874 
L 838 446 
C 838 160 768 160 326 160 
L 326 0 
C 512 0 870 0 1069 0 
C 1331 0 1638 0 1901 0 
L 1901 160 
L 1760 160 
C 1274 160 1261 223 1261 452 
L 1261 2075 
L 1837 2075 
C 2432 2075 2490 1865 2490 1332 
L 2605 1332 
L 2605 2987 
L 2490 2987 
C 2490 2450 2432 2240 1837 2240 
L 1261 2240 
L 1261 3911 
C 1261 4128 1274 4160 1530 4160 
L 2355 4160 
C 3322 4160 3430 3765 3520 2916 
L 3635 2916 
z
" transform="scale(0.015625)"/>
       <path id="LMRoman17-Regular-61" d="M 2874 567 
L 2874 920 
L 2758 920 
L 2758 562 
C 2758 178 2586 128 2502 128 
C 2240 128 2240 458 2240 738 
L 2240 1653 
C 2240 2072 2240 2294 1971 2543 
C 1734 2752 1459 2816 1242 2816 
C 736 2816 371 2407 371 1971 
C 371 1728 563 1728 602 1728 
C 685 1728 832 1778 832 1954 
C 832 2112 710 2181 602 2181 
C 576 2181 544 2174 525 2168 
C 659 2592 1005 2714 1229 2714 
C 1549 2714 1901 2429 1901 1885 
L 1901 1600 
C 1523 1600 1069 1549 710 1357 
C 307 1133 192 813 192 570 
C 192 77 768 -64 1107 -64 
C 1459 -64 1786 139 1926 511 
C 1939 233 2118 -18 2400 -18 
C 2534 -18 2874 70 2874 567 
z
M 1901 870 
C 1901 317 1504 38 1152 38 
C 832 38 582 275 582 570 
C 582 761 666 1100 1037 1305 
C 1344 1478 1696 1504 1901 1504 
L 1901 870 
z
" transform="scale(0.015625)"/>
       <path id="LMRoman17-Regular-75" d="M 3091 -63 
L 3091 128 
C 2714 128 2656 166 2656 473 
L 2656 2763 
L 1882 2693 
L 1882 2528 
C 2259 2528 2317 2489 2317 2186 
L 2317 1032 
C 2317 500 2029 38 1555 38 
C 1030 38 986 348 986 678 
L 986 2763 
L 211 2693 
L 211 2528 
C 467 2528 640 2528 646 2274 
L 646 1058 
C 646 633 646 361 813 183 
C 896 101 1056 -64 1517 -64 
C 2061 -64 2272 377 2323 506 
L 2330 506 
L 2330 -63 
L 3091 -63 
z
" transform="scale(0.015625)"/>
       <path id="LMRoman17-Regular-72" d="M 2131 2458 
C 2131 2663 1926 2790 1709 2790 
C 1222 2790 1011 2317 947 2093 
L 941 2093 
L 941 2790 
L 198 2720 
L 198 2554 
C 576 2554 634 2515 634 2208 
L 634 428 
C 634 184 608 153 198 153 
L 198 -13 
C 352 0 646 0 813 0 
C 998 0 1325 0 1498 -13 
L 1498 153 
C 1037 153 960 153 960 440 
L 960 1497 
C 960 2112 1222 2688 1702 2688 
C 1747 2688 1792 2682 1837 2662 
C 1837 2662 1696 2617 1696 2452 
C 1696 2298 1818 2234 1914 2234 
C 1990 2234 2131 2279 2131 2458 
z
" transform="scale(0.015625)"/>
       <path id="LMRoman17-Regular-73" d="M 2131 784 
C 2131 1112 1958 1285 1875 1362 
C 1683 1561 1459 1606 1190 1657 
C 838 1735 390 1825 390 2217 
C 390 2383 480 2737 1126 2737 
C 1811 2737 1850 2094 1862 1888 
C 1869 1856 1901 1849 1920 1849 
C 1978 1849 1978 1869 1978 1978 
L 1978 2697 
C 1978 2813 1971 2819 1933 2819 
C 1907 2819 1901 2813 1824 2717 
C 1805 2691 1747 2626 1728 2601 
C 1523 2819 1235 2819 1126 2819 
C 416 2819 160 2447 160 2076 
C 160 1498 813 1365 998 1325 
C 1402 1243 1542 1217 1677 1101 
C 1760 1025 1901 884 1901 654 
C 1901 384 1747 38 1158 38 
C 602 38 403 460 288 1021 
C 269 1110 269 1117 218 1117 
C 166 1117 160 1110 160 983 
L 160 63 
C 160 -51 166 -58 205 -58 
C 237 -58 243 -51 275 0 
L 448 276 
C 576 103 800 -64 1158 -64 
C 1792 -64 2131 283 2131 784 
z
" transform="scale(0.015625)"/>
       <path id="LMRoman17-Regular-52" d="M 4365 503 
C 4365 540 4365 585 4307 585 
C 4256 585 4250 547 4250 522 
C 4218 112 4032 -26 3834 -26 
C 3482 -26 3443 377 3405 768 
C 3386 903 3373 998 3360 1139 
C 3322 1459 3270 1927 2509 2157 
C 3117 2277 3629 2684 3629 3191 
C 3629 3787 2950 4326 2054 4326 
L 333 4326 
L 333 4160 
C 774 4160 845 4160 845 3873 
L 845 415 
C 845 128 774 128 333 128 
L 333 -26 
C 518 -26 851 -26 1050 -26 
C 1248 -26 1581 -26 1766 -26 
L 1766 128 
C 1325 128 1254 128 1254 417 
L 1254 2112 
L 2003 2112 
C 2368 2112 2573 1964 2662 1881 
C 2918 1632 2918 1459 2918 1024 
C 2918 595 2918 377 3110 160 
C 3354 -102 3680 -128 3821 -128 
C 4294 -128 4365 396 4365 503 
z
M 3142 3190 
C 3142 2372 2464 2214 1984 2214 
L 1254 2214 
L 1254 3913 
C 1254 4129 1267 4160 1523 4160 
L 1990 4160 
C 2522 4160 3142 3977 3142 3190 
z
" transform="scale(0.015625)"/>
       <path id="LMRoman17-Regular-6d" d="M 4762 -13 
L 4762 153 
C 4352 153 4326 178 4326 428 
L 4326 1933 
C 4326 2252 4269 2790 3507 2790 
C 3072 2790 2771 2496 2656 2151 
L 2650 2151 
C 2573 2676 2195 2790 1837 2790 
C 1331 2790 1069 2400 973 2144 
L 966 2144 
L 966 2790 
L 211 2720 
L 211 2554 
C 589 2554 646 2515 646 2208 
L 646 428 
C 646 184 621 153 211 153 
L 211 -13 
C 365 0 646 0 813 0 
C 979 0 1267 0 1421 -13 
L 1421 153 
C 1011 153 986 178 986 428 
L 986 1658 
C 986 2247 1344 2688 1792 2688 
C 2266 2688 2317 2266 2317 1958 
L 2317 428 
C 2317 184 2291 153 1882 153 
L 1882 -13 
C 2035 0 2317 0 2483 0 
C 2650 0 2938 0 3091 -13 
L 3091 153 
C 2682 153 2656 178 2656 428 
L 2656 1658 
C 2656 2247 3014 2688 3462 2688 
C 3936 2688 3987 2266 3987 1958 
L 3987 428 
C 3987 184 3962 153 3552 153 
L 3552 -13 
C 3706 0 3987 0 4154 0 
C 4320 0 4608 0 4762 -13 
z
" transform="scale(0.015625)"/>
       <path id="LMRoman17-Regular-6f" d="M 2758 1356 
C 2758 2176 2163 2816 1466 2816 
C 768 2816 173 2176 173 1356 
C 173 551 768 -64 1466 -64 
C 2163 -64 2758 551 2758 1356 
z
M 2349 1408 
C 2349 1158 2336 775 2163 467 
C 1984 173 1709 51 1466 51 
C 1165 51 909 230 762 480 
C 602 767 582 1126 582 1408 
C 582 1677 595 2010 762 2298 
C 890 2509 1139 2714 1466 2714 
C 1754 2714 1997 2554 2150 2330 
C 2349 2029 2349 1607 2349 1408 
z
" transform="scale(0.015625)"/>
       <path id="LMRoman17-Regular-64" d="M 3066 -63 
L 3066 128 
C 2688 128 2630 166 2630 473 
L 2630 4396 
L 1869 4326 
L 1869 4160 
C 2246 4160 2304 4122 2304 3820 
L 2304 2345 
C 2278 2377 2016 2790 1498 2790 
C 845 2790 211 2208 211 1364 
C 211 525 806 -64 1434 -64 
C 1978 -64 2259 337 2291 380 
L 2291 -63 
L 3066 -63 
z
M 2291 755 
C 2291 563 2176 390 2029 262 
C 1811 70 1594 38 1472 38 
C 1286 38 621 134 621 1356 
C 621 2612 1363 2688 1530 2688 
C 1824 2688 2061 2522 2208 2291 
C 2291 2157 2291 2138 2291 2023 
L 2291 755 
z
" transform="scale(0.015625)"/>
      </defs>
      <use xlink:href="#LMRoman17-Regular-25" transform="scale(0.996264)"/>
      <use xlink:href="#LMRoman17-Regular-41" transform="translate(106.998308 0) scale(0.996264)"/>
      <use xlink:href="#LMRoman17-Regular-63" transform="translate(173.465532 0) scale(0.996264)"/>
      <use xlink:href="#LMRoman17-Regular-74" transform="translate(213.950341 0) scale(0.996264)"/>
      <use xlink:href="#LMRoman17-Regular-69" transform="translate(249.231869 0) scale(0.996264)"/>
      <use xlink:href="#LMRoman17-Regular-76" transform="translate(274.103885 0) scale(0.996264)"/>
      <use xlink:href="#LMRoman17-Regular-65" transform="translate(319.792645 0) scale(0.996264)"/>
      <use xlink:href="#LMRoman17-Regular-46" transform="translate(390.353603 0) scale(0.996264)"/>
      <use xlink:href="#LMRoman17-Regular-65" transform="translate(442.529996 0) scale(0.996264)"/>
      <use xlink:href="#LMRoman17-Regular-61" transform="translate(483.014805 0) scale(0.996264)"/>
      <use xlink:href="#LMRoman17-Regular-74" transform="translate(528.705754 0) scale(0.996264)"/>
      <use xlink:href="#LMRoman17-Regular-75" transform="translate(563.987282 0) scale(0.996264)"/>
      <use xlink:href="#LMRoman17-Regular-72" transform="translate(614.884369 0) scale(0.996264)"/>
      <use xlink:href="#LMRoman17-Regular-65" transform="translate(650.165897 0) scale(0.996264)"/>
      <use xlink:href="#LMRoman17-Regular-73" transform="translate(690.650706 0) scale(0.996264)"/>
      <use xlink:href="#LMRoman17-Regular-52" transform="translate(756.530093 0) scale(0.996264)"/>
      <use xlink:href="#LMRoman17-Regular-65" transform="translate(824.319872 0) scale(0.996264)"/>
      <use xlink:href="#LMRoman17-Regular-6d" transform="translate(864.804681 0) scale(0.996264)"/>
      <use xlink:href="#LMRoman17-Regular-6f" transform="translate(941.72684 0) scale(0.996264)"/>
      <use xlink:href="#LMRoman17-Regular-76" transform="translate(984.815335 0) scale(0.996264)"/>
      <use xlink:href="#LMRoman17-Regular-65" transform="translate(1030.504094 0) scale(0.996264)"/>
      <use xlink:href="#LMRoman17-Regular-64" transform="translate(1070.988903 0) scale(0.996264)"/>
     </g>
    </g>
   </g>
   <g id="matplotlib.axis_2">
    <g id="ytick_1">
     <g id="line2d_30">
      <path d="M 54.748513 338.410747 
L 547.146254 338.410747 
" clip-path="url(#pa27a4faa01)" style="fill: none; stroke: #2f3a46; stroke-opacity: 0.3; stroke-width: 0.5; stroke-linecap: round"/>
     </g>
     <g id="line2d_31">
      <defs>
       <path id="mb15a3e3de0" d="M 0 0 
L -3 0 
" style="stroke: #e6edf3; stroke-width: 0.5"/>
      </defs>
      <g>
       <use xlink:href="#mb15a3e3de0" x="547.146254" y="338.410747" style="fill: #e6edf3; stroke: #e6edf3; stroke-width: 0.5"/>
      </g>
     </g>
     <g id="text_8">
      <!-- $\mathdefault{0.0}$ -->
      <g style="fill: #e6edf3" transform="translate(32.29186 343.856071) scale(0.16 -0.16)">
       <defs>
        <path id="LMMathItalic12-Regular-3a" d="M 1178 307 
C 1178 492 1024 619 870 619 
C 685 619 557 466 557 313 
C 557 128 710 0 864 0 
C 1050 0 1178 153 1178 307 
z
" transform="scale(0.015625)"/>
       </defs>
       <use xlink:href="#LMRoman17-Regular-30" transform="scale(0.996264)"/>
       <use xlink:href="#LMMathItalic12-Regular-3a" transform="translate(45.690948 0) scale(0.996264)"/>
       <use xlink:href="#LMRoman17-Regular-30" transform="translate(72.788125 0) scale(0.996264)"/>
      </g>
     </g>
    </g>
    <g id="ytick_2">
     <g id="line2d_32">
      <path d="M 54.748513 272.657616 
L 547.146254 272.657616 
" clip-path="url(#pa27a4faa01)" style="fill: none; stroke: #2f3a46; stroke-opacity: 0.3; stroke-width: 0.5; stroke-linecap: round"/>
     </g>
     <g id="line2d_33">
      <g>
       <use xlink:href="#mb15a3e3de0" x="547.146254" y="272.657616" style="fill: #e6edf3; stroke: #e6edf3; stroke-width: 0.5"/>
      </g>
     </g>
     <g id="text_9">
      <!-- $\mathdefault{0.2}$ -->
      <g style="fill: #e6edf3" transform="translate(32.29186 278.10294) scale(0.16 -0.16)">
       <use xlink:href="#LMRoman17-Regular-30" transform="scale(0.996264)"/>
       <use xlink:href="#LMMathItalic12-Regular-3a" transform="translate(45.690948 0) scale(0.996264)"/>
       <use xlink:href="#LMRoman17-Regular-32" transform="translate(72.788125 0) scale(0.996264)"/>
      </g>
     </g>
    </g>
    <g id="ytick_3">
     <g id="line2d_34">
      <path d="M 54.748513 206.904485 
L 547.146254 206.904485 
" clip-path="url(#pa27a4faa01)" style="fill: none; stroke: #2f3a46; stroke-opacity: 0.3; stroke-width: 0.5; stroke-linecap: round"/>
     </g>
     <g id="line2d_35">
      <g>
       <use xlink:href="#mb15a3e3de0" x="547.146254" y="206.904485" style="fill: #e6edf3; stroke: #e6edf3; stroke-width: 0.5"/>
      </g>
     </g>
     <g id="text_10">
      <!-- $\mathdefault{0.4}$ -->
      <g style="fill: #e6edf3" transform="translate(32.29186 212.349809) scale(0.16 -0.16)">
       <use xlink:href="#LMRoman17-Regular-30" transform="scale(0.996264)"/>
       <use xlink:href="#LMMathItalic12-Regular-3a" transform="translate(45.690948 0) scale(0.996264)"/>
       <use xlink:href="#LMRoman17-Regular-34" transform="translate(72.788125 0) scale(0.996264)"/>
      </g>
     </g>
    </g>
    <g id="ytick_4">
     <g id="line2d_36">
      <path d="M 54.748513 141.151355 
L 547.146254 141.151355 
" clip-path="url(#pa27a4faa01)" style="fill: none; stroke: #2f3a46; stroke-opacity: 0.3; stroke-width: 0.5; stroke-linecap: round"/>
     </g>
     <g id="line2d_37">
      <g>
       <use xlink:href="#mb15a3e3de0" x="547.146254" y="141.151355" style="fill: #e6edf3; stroke: #e6edf3; stroke-width: 0.5"/>
      </g>
     </g>
     <g id="text_11">
      <!-- $\mathdefault{0.6}$ -->
      <g style="fill: #e6edf3" transform="translate(32.29186 146.596679) scale(0.16 -0.16)">
       <use xlink:href="#LMRoman17-Regular-30" transform="scale(0.996264)"/>
       <use xlink:href="#LMMathItalic12-Regular-3a" transform="translate(45.690948 0) scale(0.996264)"/>
       <use xlink:href="#LMRoman17-Regular-36" transform="translate(72.788125 0) scale(0.996264)"/>
      </g>
     </g>
    </g>
    <g id="ytick_5">
     <g id="line2d_38">
      <path d="M 54.748513 75.398224 
L 547.146254 75.398224 
" clip-path="url(#pa27a4faa01)" style="fill: none; stroke: #2f3a46; stroke-opacity: 0.3; stroke-width: 0.5; stroke-linecap: round"/>
     </g>
     <g id="line2d_39">
      <g>
       <use xlink:href="#mb15a3e3de0" x="547.146254" y="75.398224" style="fill: #e6edf3; stroke: #e6edf3; stroke-width: 0.5"/>
      </g>
     </g>
     <g id="text_12">
      <!-- $\mathdefault{0.8}$ -->
      <g style="fill: #e6edf3" transform="translate(32.29186 80.843548) scale(0.16 -0.16)">
       <use xlink:href="#LMRoman17-Regular-30" transform="scale(0.996264)"/>
       <use xlink:href="#LMMathItalic12-Regular-3a" transform="translate(45.690948 0) scale(0.996264)"/>
       <use xlink:href="#LMRoman17-Regular-38" transform="translate(72.788125 0) scale(0.996264)"/>
      </g>
     </g>
    </g>
    <g id="ytick_6">
     <g id="line2d_40">
      <defs>
       <path id="m6bdeba983f" d="M 0 0 
L -1.5 0 
" style="stroke: #e6edf3; stroke-width: 0.5"/>
      </defs>
      <g>
       <use xlink:href="#m6bdeba983f" x="547.146254" y="321.972464" style="fill: #e6edf3; stroke: #e6edf3; stroke-width: 0.5"/>
      </g>
     </g>
    </g>
    <g id="ytick_7">
     <g id="line2d_41">
      <g>
       <use xlink:href="#m6bdeba983f" x="547.146254" y="305.534182" style="fill: #e6edf3; stroke: #e6edf3; stroke-width: 0.5"/>
      </g>
     </g>
    </g>
    <g id="ytick_8">
     <g id="line2d_42">
      <g>
       <use xlink:href="#m6bdeba983f" x="547.146254" y="289.095899" style="fill: #e6edf3; stroke: #e6edf3; stroke-width: 0.5"/>
      </g>
     </g>
    </g>
    <g id="ytick_9">
     <g id="line2d_43">
      <g>
       <use xlink:href="#m6bdeba983f" x="547.146254" y="256.219333" style="fill: #e6edf3; stroke: #e6edf3; stroke-width: 0.5"/>
      </g>
     </g>
    </g>
    <g id="ytick_10">
     <g id="line2d_44">
      <g>
       <use xlink:href="#m6bdeba983f" x="547.146254" y="239.781051" style="fill: #e6edf3; stroke: #e6edf3; stroke-width: 0.5"/>
      </g>
     </g>
    </g>
    <g id="ytick_11">
     <g id="line2d_45">
      <g>
       <use xlink:href="#m6bdeba983f" x="547.146254" y="223.342768" style="fill: #e6edf3; stroke: #e6edf3; stroke-width: 0.5"/>
      </g>
     </g>
    </g>
    <g id="ytick_12">
     <g id="line2d_46">
      <g>
       <use xlink:href="#m6bdeba983f" x="547.146254" y="190.466203" style="fill: #e6edf3; stroke: #e6edf3; stroke-width: 0.5"/>
      </g>
     </g>
    </g>
    <g id="ytick_13">
     <g id="line2d_47">
      <g>
       <use xlink:href="#m6bdeba983f" x="547.146254" y="174.02792" style="fill: #e6edf3; stroke: #e6edf3; stroke-width: 0.5"/>
      </g>
     </g>
    </g>
    <g id="ytick_14">
     <g id="line2d_48">
      <g>
       <use xlink:href="#m6bdeba983f" x="547.146254" y="157.589637" style="fill: #e6edf3; stroke: #e6edf3; stroke-width: 0.5"/>
      </g>
     </g>
    </g>
    <g id="ytick_15">
     <g id="line2d_49">
      <g>
       <use xlink:href="#m6bdeba983f" x="547.146254" y="124.713072" style="fill: #e6edf3; stroke: #e6edf3; stroke-width: 0.5"/>
      </g>
     </g>
    </g>
    <g id="ytick_16">
     <g id="line2d_50">
      <g>
       <use xlink:href="#m6bdeba983f" x="547.146254" y="108.274789" style="fill: #e6edf3; stroke: #e6edf3; stroke-width: 0.5"/>
      </g>
     </g>
    </g>
    <g id="ytick_17">
     <g id="line2d_51">
      <g>
       <use xlink:href="#m6bdeba983f" x="547.146254" y="91.836507" style="fill: #e6edf3; stroke: #e6edf3; stroke-width: 0.5"/>
      </g>
     </g>
    </g>
    <g id="ytick_18">
     <g id="line2d_52">
      <g>
       <use xlink:href="#m6bdeba983f" x="547.146254" y="58.959941" style="fill: #e6edf3; stroke: #e6edf3; stroke-width: 0.5"/>
      </g>
     </g>
    </g>
    <g id="ytick_19">
     <g id="line2d_53">
      <g>
       <use xlink:href="#m6bdeba983f" x="547.146254" y="42.521659" style="fill: #e6edf3; stroke: #e6edf3; stroke-width: 0.5"/>
      </g>
     </g>
    </g>
    <g id="ytick_20">
     <g id="line2d_54">
      <g>
       <use xlink:href="#m6bdeba983f" x="547.146254" y="26.083376" style="fill: #e6edf3; stroke: #e6edf3; stroke-width: 0.5"/>
      </g>
     </g>
    </g>
    <g id="text_13">
     <!-- Global Gap Norm $\|\vec{\Delta}\|$ -->
     <g style="fill: #e6edf3" transform="translate(23.31054 281.023177) rotate(-90) scale(0.2 -0.2)">
      <defs>
       <path id="LMRoman17-Regular-47" d="M 4390 1505 
L 4390 1670 
C 4237 1664 3891 1664 3718 1664 
L 2797 1664 
L 2797 1505 
L 2989 1505 
C 3539 1505 3552 1434 3552 1201 
L 3552 774 
C 3552 63 2720 63 2522 63 
C 1862 63 781 511 781 2160 
C 781 3808 1843 4250 2464 4250 
C 3187 4250 3712 3626 3834 2741 
C 3846 2664 3846 2651 3904 2651 
C 3974 2651 3974 2664 3974 2779 
L 3974 4288 
C 3974 4402 3968 4409 3930 4409 
C 3904 4409 3898 4402 3853 4326 
L 3571 3791 
C 3258 4187 2874 4416 2381 4416 
C 1286 4416 294 3456 294 2148 
C 294 845 1267 -128 2394 -128 
C 2912 -128 3418 56 3616 417 
C 3725 158 3904 -20 3936 -20 
C 3968 -20 3974 -13 3974 100 
L 3974 1233 
C 3974 1473 3994 1505 4390 1505 
z
" transform="scale(0.015625)"/>
       <path id="LMRoman17-Regular-6c" d="M 1414 -13 
L 1414 153 
C 1005 153 979 178 979 426 
L 979 4396 
L 218 4326 
L 218 4160 
C 595 4160 653 4122 653 3817 
L 653 426 
C 653 184 627 153 218 153 
L 218 -13 
C 371 0 653 0 813 0 
C 979 0 1261 0 1414 -13 
z
" transform="scale(0.015625)"/>
       <path id="LMRoman17-Regular-62" d="M 3053 1370 
C 3053 2188 2477 2790 1830 2790 
C 1434 2790 1152 2579 960 2330 
L 960 4396 
L 198 4326 
L 198 4160 
C 576 4160 634 4122 634 3817 
L 634 -13 
L 749 -13 
L 934 441 
C 1120 141 1395 -64 1766 -64 
C 2406 -64 3053 500 3053 1370 
z
M 2643 1376 
C 2643 108 1888 38 1734 38 
C 1536 38 1248 114 1043 486 
C 973 608 973 621 973 735 
L 973 2004 
C 973 2118 973 2138 1062 2272 
C 1312 2657 1670 2688 1792 2688 
C 1984 2688 2643 2585 2643 1376 
z
" transform="scale(0.015625)"/>
       <path id="LMRoman17-Regular-70" d="M 3053 1388 
C 3053 2191 2496 2802 1837 2802 
C 1453 2802 1139 2592 960 2338 
L 960 2802 
L 198 2732 
L 198 2567 
C 576 2567 634 2528 634 2223 
L 634 -789 
C 634 -1031 608 -1063 198 -1063 
L 198 -1228 
C 352 -1216 634 -1216 800 -1216 
C 966 -1216 1254 -1216 1408 -1228 
L 1408 -1063 
C 998 -1063 973 -1037 973 -789 
L 973 402 
C 1158 134 1427 -38 1766 -38 
C 2406 -38 3053 523 3053 1388 
z
M 2643 1382 
C 2643 656 2234 64 1728 64 
C 1498 64 1248 172 1056 472 
C 973 612 973 650 973 752 
L 973 2012 
C 973 2102 973 2235 1222 2471 
C 1254 2497 1472 2688 1792 2688 
C 2259 2688 2643 2108 2643 1382 
z
" transform="scale(0.015625)"/>
       <path id="LMRoman17-Regular-4e" d="M 4102 4160 
L 4102 4326 
C 3955 4313 3686 4313 3526 4313 
C 3366 4313 3098 4313 2950 4326 
L 2950 4160 
C 3462 4160 3462 3862 3462 3703 
L 3462 763 
L 1312 4243 
C 1267 4313 1261 4313 1139 4313 
L 326 4313 
L 326 4160 
L 448 4160 
C 704 4160 819 4129 838 4122 
L 838 610 
C 838 451 838 153 326 153 
L 326 -13 
C 474 0 742 0 902 0 
C 1062 0 1331 0 1478 -13 
L 1478 153 
C 966 153 966 451 966 610 
L 966 4033 
C 1011 3995 1011 3982 1056 3919 
L 3430 76 
C 3475 0 3494 0 3526 0 
C 3590 0 3590 19 3590 139 
L 3590 3705 
C 3590 3863 3590 4160 4102 4160 
z
" transform="scale(0.015625)"/>
       <path id="LMMathSymbols10-Regular-6b" d="M 1103 -1395 
L 1103 4595 
C 1103 4685 1103 4800 975 4800 
C 847 4800 847 4666 847 4570 
L 847 -1370 
C 847 -1466 847 -1600 975 -1600 
C 1103 -1600 1103 -1485 1103 -1395 
z
M 2351 -1370 
L 2351 4570 
C 2351 4666 2351 4800 2223 4800 
C 2095 4800 2095 4685 2095 4595 
L 2095 -1395 
C 2095 -1485 2095 -1600 2223 -1600 
C 2351 -1600 2351 -1466 2351 -1370 
z
" transform="scale(0.015625)"/>
       <path id="LMMathItalic12-Regular-7e" d="M 3942 3956 
C 3942 4014 3891 4046 3853 4078 
C 3674 4200 3629 4372 3610 4449 
C 3590 4500 3571 4577 3482 4577 
C 3443 4577 3366 4552 3366 4456 
C 3366 4398 3405 4244 3526 4072 
L 1376 4072 
C 1267 4072 1158 4072 1158 3950 
C 1158 3835 1274 3835 1376 3835 
L 3424 3835 
C 3347 3764 3110 3540 3110 3451 
C 3110 3387 3168 3329 3232 3329 
C 3290 3329 3315 3368 3360 3432 
C 3514 3624 3686 3745 3834 3828 
C 3898 3867 3942 3886 3942 3956 
z
" transform="scale(0.015625)"/>
       <path id="LMRoman17-Regular-1" d="M 4698 32 
C 4698 32 4672 96 4666 109 
L 2598 4403 
C 2547 4512 2522 4512 2470 4512 
C 2394 4512 2387 4499 2342 4409 
L 269 109 
C 262 96 237 32 237 32 
C 237 6 243 0 358 0 
L 4576 0 
C 4691 0 4698 6 4698 32 
z
M 4083 358 
L 531 358 
L 2310 4027 
L 4083 358 
z
" transform="scale(0.015625)"/>
      </defs>
      <use xlink:href="#LMRoman17-Regular-47" transform="scale(0.996264)"/>
      <use xlink:href="#LMRoman17-Regular-6c" transform="translate(72.356015 0) scale(0.996264)"/>
      <use xlink:href="#LMRoman17-Regular-6f" transform="translate(97.228031 0) scale(0.996264)"/>
      <use xlink:href="#LMRoman17-Regular-62" transform="translate(142.918979 0) scale(0.996264)"/>
      <use xlink:href="#LMRoman17-Regular-61" transform="translate(193.816067 0) scale(0.996264)"/>
      <use xlink:href="#LMRoman17-Regular-6c" transform="translate(239.507015 0) scale(0.996264)"/>
      <use xlink:href="#LMRoman17-Regular-47" transform="translate(294.45518 0) scale(0.996264)"/>
      <use xlink:href="#LMRoman17-Regular-61" transform="translate(366.811195 0) scale(0.996264)"/>
      <use xlink:href="#LMRoman17-Regular-70" transform="translate(412.502143 0) scale(0.996264)"/>
      <use xlink:href="#LMRoman17-Regular-4e" transform="translate(493.47538 0) scale(0.996264)"/>
      <use xlink:href="#LMRoman17-Regular-6f" transform="translate(562.545058 0) scale(0.996264)"/>
      <use xlink:href="#LMRoman17-Regular-72" transform="translate(608.236006 0) scale(0.996264)"/>
      <use xlink:href="#LMRoman17-Regular-6d" transform="translate(643.517534 0) scale(0.996264)"/>
      <use xlink:href="#LMMathSymbols10-Regular-6b" transform="translate(750.515842 0) scale(0.996264)"/>
      <use xlink:href="#LMMathItalic12-Regular-7e" transform="translate(806.740638 27.541267) scale(0.996264)"/>
      <use xlink:href="#LMRoman17-Regular-1" transform="translate(800.329225 0) scale(0.996264)"/>
      <use xlink:href="#LMMathSymbols10-Regular-6b" transform="translate(877.251384 0) scale(0.996264)"/>
     </g>
    </g>
   </g>
   <g id="line2d_55">
    <path d="M 77.130228 38.222705 
L 99.511944 139.626918 
L 121.893659 174.694712 
L 144.275375 202.104796 
L 166.65709 221.718579 
L 189.038806 236.820352 
L 211.420521 252.147136 
L 233.802237 269.601953 
L 256.183952 283.715855 
L 278.565668 293.447376 
L 300.947383 302.060582 
L 323.329099 308.381472 
L 345.710815 315.687514 
L 368.09253 320.362505 
L 390.474246 324.901858 
L 412.855961 329.579745 
L 435.237677 332.128114 
L 457.619392 333.952217 
L 480.001108 335.665353 
L 502.382823 337.608603 
L 524.764539 338.410747 
" clip-path="url(#pa27a4faa01)" style="fill: none; stroke: #0088cc; stroke-width: 2; stroke-linecap: round"/>
    <defs>
     <path id="me4565da787" d="M -2.5 2.5 
L 2.5 2.5 
L 2.5 -2.5 
L -2.5 -2.5 
z
" style="stroke: #0088cc; stroke-linejoin: miter"/>
    </defs>
    <g clip-path="url(#pa27a4faa01)">
     <use xlink:href="#me4565da787" x="77.130228" y="38.222705" style="fill: #0088cc; stroke: #0088cc; stroke-linejoin: miter"/>
     <use xlink:href="#me4565da787" x="99.511944" y="139.626918" style="fill: #0088cc; stroke: #0088cc; stroke-linejoin: miter"/>
     <use xlink:href="#me4565da787" x="121.893659" y="174.694712" style="fill: #0088cc; stroke: #0088cc; stroke-linejoin: miter"/>
     <use xlink:href="#me4565da787" x="144.275375" y="202.104796" style="fill: #0088cc; stroke: #0088cc; stroke-linejoin: miter"/>
     <use xlink:href="#me4565da787" x="166.65709" y="221.718579" style="fill: #0088cc; stroke: #0088cc; stroke-linejoin: miter"/>
     <use xlink:href="#me4565da787" x="189.038806" y="236.820352" style="fill: #0088cc; stroke: #0088cc; stroke-linejoin: miter"/>
     <use xlink:href="#me4565da787" x="211.420521" y="252.147136" style="fill: #0088cc; stroke: #0088cc; stroke-linejoin: miter"/>
     <use xlink:href="#me4565da787" x="233.802237" y="269.601953" style="fill: #0088cc; stroke: #0088cc; stroke-linejoin: miter"/>
     <use xlink:href="#me4565da787" x="256.183952" y="283.715855" style="fill: #0088cc; stroke: #0088cc; stroke-linejoin: miter"/>
     <use xlink:href="#me4565da787" x="278.565668" y="293.447376" style="fill: #0088cc; stroke: #0088cc; stroke-linejoin: miter"/>
     <use xlink:href="#me4565da787" x="300.947383" y="302.060582" style="fill: #0088cc; stroke: #0088cc; stroke-linejoin: miter"/>
     <use xlink:href="#me4565da787" x="323.329099" y="308.381472" style="fill: #0088cc; stroke: #0088cc; stroke-linejoin: miter"/>
     <use xlink:href="#me4565da787" x="345.710815" y="315.687514" style="fill: #0088cc; stroke: #0088cc; stroke-linejoin: miter"/>
     <use xlink:href="#me4565da787" x="368.09253" y="320.362505" style="fill: #0088cc; stroke: #0088cc; stroke-linejoin: miter"/>
     <use xlink:href="#me4565da787" x="390.474246" y="324.901858" style="fill: #0088cc; stroke: #0088cc; stroke-linejoin: miter"/>
     <use xlink:href="#me4565da787" x="412.855961" y="329.579745" style="fill: #0088cc; stroke: #0088cc; stroke-linejoin: miter"/>
     <use xlink:href="#me4565da787" x="435.237677" y="332.128114" style="fill: #0088cc; stroke: #0088cc; stroke-linejoin: miter"/>
     <use xlink:href="#me4565da787" x="457.619392" y="333.952217" style="fill: #0088cc; stroke: #0088cc; stroke-linejoin: miter"/>
     <use xlink:href="#me4565da787" x="480.001108" y="335.665353" style="fill: #0088cc; stroke: #0088cc; stroke-linejoin: miter"/>
     <use xlink:href="#me4565da787" x="502.382823" y="337.608603" style="fill: #0088cc; stroke: #0088cc; stroke-linejoin: miter"/>
     <use xlink:href="#me4565da787" x="524.764539" y="338.410747" style="fill: #0088cc; stroke: #0088cc; stroke-linejoin: miter"/>
    </g>
   </g>
   <g id="line2d_56">
    <path d="M 77.130228 38.222705 
L 99.511944 57.739352 
L 121.893659 63.212899 
L 144.275375 68.42227 
L 166.65709 73.293967 
L 189.038806 97.903153 
L 211.420521 106.096549 
L 233.802237 112.481822 
L 256.183952 120.123588 
L 278.565668 149.448886 
L 300.947383 159.724408 
L 323.329099 169.736501 
L 345.710815 181.810254 
L 368.09253 192.018175 
L 390.474246 202.947936 
L 412.855961 242.15482 
L 435.237677 254.610488 
L 457.619392 265.759884 
L 480.001108 307.8886 
L 502.382823 321.252482 
L 524.764539 338.410747 
" clip-path="url(#pa27a4faa01)" style="fill: none; stroke: #999999; stroke-width: 2; stroke-linecap: round"/>
    <defs>
     <path id="m07ec2a20fb" d="M 0 -2.5 
L -2.5 2.5 
L 2.5 2.5 
z
" style="stroke: #999999; stroke-linejoin: miter"/>
    </defs>
    <g clip-path="url(#pa27a4faa01)">
     <use xlink:href="#m07ec2a20fb" x="77.130228" y="38.222705" style="fill: #999999; stroke: #999999; stroke-linejoin: miter"/>
     <use xlink:href="#m07ec2a20fb" x="99.511944" y="57.739352" style="fill: #999999; stroke: #999999; stroke-linejoin: miter"/>
     <use xlink:href="#m07ec2a20fb" x="121.893659" y="63.212899" style="fill: #999999; stroke: #999999; stroke-linejoin: miter"/>
     <use xlink:href="#m07ec2a20fb" x="144.275375" y="68.42227" style="fill: #999999; stroke: #999999; stroke-linejoin: miter"/>
     <use xlink:href="#m07ec2a20fb" x="166.65709" y="73.293967" style="fill: #999999; stroke: #999999; stroke-linejoin: miter"/>
     <use xlink:href="#m07ec2a20fb" x="189.038806" y="97.903153" style="fill: #999999; stroke: #999999; stroke-linejoin: miter"/>
     <use xlink:href="#m07ec2a20fb" x="211.420521" y="106.096549" style="fill: #999999; stroke: #999999; stroke-linejoin: miter"/>
     <use xlink:href="#m07ec2a20fb" x="233.802237" y="112.481822" style="fill: #999999; stroke: #999999; stroke-linejoin: miter"/>
     <use xlink:href="#m07ec2a20fb" x="256.183952" y="120.123588" style="fill: #999999; stroke: #999999; stroke-linejoin: miter"/>
     <use xlink:href="#m07ec2a20fb" x="278.565668" y="149.448886" style="fill: #999999; stroke: #999999; stroke-linejoin: miter"/>
     <use xlink:href="#m07ec2a20fb" x="300.947383" y="159.724408" style="fill: #999999; stroke: #999999; stroke-linejoin: miter"/>
     <use xlink:href="#m07ec2a20fb" x="323.329099" y="169.736501" style="fill: #999999; stroke: #999999; stroke-linejoin: miter"/>
     <use xlink:href="#m07ec2a20fb" x="345.710815" y="181.810254" style="fill: #999999; stroke: #999999; stroke-linejoin: miter"/>
     <use xlink:href="#m07ec2a20fb" x="368.09253" y="192.018175" style="fill: #999999; stroke: #999999; stroke-linejoin: miter"/>
     <use xlink:href="#m07ec2a20fb" x="390.474246" y="202.947936" style="fill: #999999; stroke: #999999; stroke-linejoin: miter"/>
     <use xlink:href="#m07ec2a20fb" x="412.855961" y="242.15482" style="fill: #999999; stroke: #999999; stroke-linejoin: miter"/>
     <use xlink:href="#m07ec2a20fb" x="435.237677" y="254.610488" style="fill: #999999; stroke: #999999; stroke-linejoin: miter"/>
     <use xlink:href="#m07ec2a20fb" x="457.619392" y="265.759884" style="fill: #999999; stroke: #999999; stroke-linejoin: miter"/>
     <use xlink:href="#m07ec2a20fb" x="480.001108" y="307.8886" style="fill: #999999; stroke: #999999; stroke-linejoin: miter"/>
     <use xlink:href="#m07ec2a20fb" x="502.382823" y="321.252482" style="fill: #999999; stroke: #999999; stroke-linejoin: miter"/>
     <use xlink:href="#m07ec2a20fb" x="524.764539" y="338.410747" style="fill: #999999; stroke: #999999; stroke-linejoin: miter"/>
    </g>
   </g>
   <g id="patch_3">
    <path d="M 54.748513 353.420149 
L 54.748513 23.213303 
" style="fill: none; stroke: #8b949e; stroke-width: 0.5; stroke-linejoin: miter; stroke-linecap: square"/>
   </g>
   <g id="patch_4">
    <path d="M 54.748513 353.420149 
L 547.146254 353.420149 
" style="fill: none; stroke: #8b949e; stroke-width: 0.5; stroke-linejoin: miter; stroke-linecap: square"/>
   </g>
   <g id="text_14">
    <!-- Gap Closure vs Feature Removal -->
    <g style="fill: #e6edf3" transform="translate(169.436019 17.213303) scale(0.2 -0.2)">
     <defs>
      <path id="LMRoman17-Regular-43" d="M 3974 1461 
C 3974 1524 3974 1550 3917 1550 
C 3866 1550 3866 1531 3859 1474 
C 3808 585 3168 38 2477 38 
C 1824 38 781 495 781 2147 
C 781 3805 1843 4250 2464 4250 
C 3187 4250 3712 3628 3834 2745 
C 3846 2668 3846 2655 3904 2655 
C 3974 2655 3974 2668 3974 2783 
L 3974 4289 
C 3974 4403 3968 4410 3930 4410 
C 3904 4410 3898 4403 3853 4327 
L 3571 3792 
C 3258 4187 2874 4416 2381 4416 
C 1286 4416 294 3456 294 2148 
C 294 826 1286 -128 2387 -128 
C 3366 -128 3974 730 3974 1461 
z
" transform="scale(0.015625)"/>
     </defs>
     <use xlink:href="#LMRoman17-Regular-47" transform="scale(0.996264)"/>
     <use xlink:href="#LMRoman17-Regular-61" transform="translate(72.356015 0) scale(0.996264)"/>
     <use xlink:href="#LMRoman17-Regular-70" transform="translate(118.046963 0) scale(0.996264)"/>
     <use xlink:href="#LMRoman17-Regular-43" transform="translate(199.0202 0) scale(0.996264)"/>
     <use xlink:href="#LMRoman17-Regular-6c" transform="translate(265.529989 0) scale(0.996264)"/>
     <use xlink:href="#LMRoman17-Regular-6f" transform="translate(290.402005 0) scale(0.996264)"/>
     <use xlink:href="#LMRoman17-Regular-73" transform="translate(336.092953 0) scale(0.996264)"/>
     <use xlink:href="#LMRoman17-Regular-75" transform="translate(371.896191 0) scale(0.996264)"/>
     <use xlink:href="#LMRoman17-Regular-72" transform="translate(422.793279 0) scale(0.996264)"/>
     <use xlink:href="#LMRoman17-Regular-65" transform="translate(458.074807 0) scale(0.996264)"/>
     <use xlink:href="#LMRoman17-Regular-76" transform="translate(528.635765 0) scale(0.996264)"/>
     <use xlink:href="#LMRoman17-Regular-73" transform="translate(576.926978 0) scale(0.996264)"/>
     <use xlink:href="#LMRoman17-Regular-46" transform="translate(642.806365 0) scale(0.996264)"/>
     <use xlink:href="#LMRoman17-Regular-65" transform="translate(694.982758 0) scale(0.996264)"/>
     <use xlink:href="#LMRoman17-Regular-61" transform="translate(735.467567 0) scale(0.996264)"/>
     <use xlink:href="#LMRoman17-Regular-74" transform="translate(781.158516 0) scale(0.996264)"/>
     <use xlink:href="#LMRoman17-Regular-75" transform="translate(816.440044 0) scale(0.996264)"/>
     <use xlink:href="#LMRoman17-Regular-72" transform="translate(867.337131 0) scale(0.996264)"/>
     <use xlink:href="#LMRoman17-Regular-65" transform="translate(902.618659 0) scale(0.996264)"/>
     <use xlink:href="#LMRoman17-Regular-52" transform="translate(973.179617 0) scale(0.996264)"/>
     <use xlink:href="#LMRoman17-Regular-65" transform="translate(1040.969396 0) scale(0.996264)"/>
     <use xlink:href="#LMRoman17-Regular-6d" transform="translate(1081.454206 0) scale(0.996264)"/>
     <use xlink:href="#LMRoman17-Regular-6f" transform="translate(1158.376365 0) scale(0.996264)"/>
     <use xlink:href="#LMRoman17-Regular-76" transform="translate(1201.464859 0) scale(0.996264)"/>
     <use xlink:href="#LMRoman17-Regular-61" transform="translate(1244.551256 0) scale(0.996264)"/>
     <use xlink:href="#LMRoman17-Regular-6c" transform="translate(1290.242204 0) scale(0.996264)"/>
    </g>
   </g>
   <g id="legend_1">
    <g id="line2d_57">
     <path d="M 408.376385 43.213303 
L 424.376385 43.213303 
L 440.376385 43.213303 
" style="fill: none; stroke: #0088cc; stroke-width: 2; stroke-linecap: round"/>
     <g>
      <use xlink:href="#me4565da787" x="424.376385" y="43.213303" style="fill: #0088cc; stroke: #0088cc; stroke-linejoin: miter"/>
     </g>
    </g>
    <g id="text_15">
     <!-- MSI-ordered -->
     <g style="fill: #e6edf3" transform="translate(453.176385 48.813303) scale(0.16 -0.16)">
      <defs>
       <path id="LMRoman17-Regular-4d" d="M 5094 -13 
L 5094 153 
C 4653 153 4582 153 4582 438 
L 4582 3875 
C 4582 4160 4653 4160 5094 4160 
L 5094 4326 
L 4282 4326 
C 4147 4326 4141 4320 4102 4224 
L 2720 502 
L 1338 4230 
C 1299 4326 1293 4326 1158 4326 
L 339 4326 
L 339 4160 
C 781 4160 851 4160 851 3875 
L 851 610 
C 851 451 851 153 339 153 
L 339 -13 
C 486 0 755 0 915 0 
C 1075 0 1344 0 1491 -13 
L 1491 153 
C 979 153 979 451 979 610 
L 979 4135 
L 986 4135 
L 2490 89 
C 2515 25 2528 -13 2579 -13 
C 2630 -13 2643 25 2669 89 
L 4186 4166 
L 4192 4166 
L 4192 438 
C 4192 153 4122 153 3680 153 
L 3680 -13 
C 3853 0 4198 0 4384 0 
C 4570 0 4922 0 5094 -13 
z
" transform="scale(0.015625)"/>
       <path id="LMRoman17-Regular-53" d="M 2970 1124 
C 2970 1454 2848 1708 2778 1823 
C 2509 2230 2221 2306 1914 2382 
C 1869 2402 1856 2402 1498 2490 
C 1152 2579 1005 2624 845 2796 
C 666 2992 602 3196 602 3399 
C 602 3812 934 4263 1478 4263 
C 2157 4263 2579 3786 2675 2993 
C 2694 2878 2701 2872 2746 2872 
C 2803 2872 2803 2891 2803 2999 
L 2803 4290 
C 2803 4404 2797 4411 2758 4411 
C 2720 4411 2707 4385 2682 4328 
L 2490 3907 
C 2246 4257 1875 4416 1472 4416 
C 819 4416 294 3901 294 3253 
C 294 3056 339 2776 557 2510 
C 794 2218 1018 2167 1530 2033 
C 1722 1982 2042 1899 2106 1874 
C 2470 1722 2662 1341 2662 985 
C 2662 527 2336 38 1779 38 
C 1094 38 454 419 410 1311 
C 403 1413 397 1419 352 1419 
C 301 1419 294 1413 294 1285 
L 294 -1 
C 294 -115 301 -122 339 -122 
C 384 -122 397 -90 486 108 
C 493 127 493 140 614 381 
C 934 -39 1472 -128 1779 -128 
C 2477 -128 2970 451 2970 1124 
z
" transform="scale(0.015625)"/>
       <path id="LMRoman17-Regular-49" d="M 1798 0 
L 1798 160 
C 1338 160 1261 160 1261 447 
L 1261 3905 
C 1261 4192 1338 4192 1798 4192 
L 1798 4352 
C 1594 4352 1267 4352 1050 4352 
C 832 4352 506 4352 301 4352 
L 301 4192 
C 762 4192 838 4192 838 3905 
L 838 447 
C 838 160 762 160 301 160 
L 301 0 
C 506 0 832 0 1050 0 
C 1267 0 1594 0 1798 0 
z
" transform="scale(0.015625)"/>
       <path id="LMRoman17-Regular-2d" d="M 1632 1216 
L 1632 1496 
L 26 1496 
L 26 1216 
L 1632 1216 
z
" transform="scale(0.015625)"/>
      </defs>
      <use xlink:href="#LMRoman17-Regular-4d" transform="scale(0.996264)"/>
      <use xlink:href="#LMRoman17-Regular-53" transform="translate(84.682471 0) scale(0.996264)"/>
      <use xlink:href="#LMRoman17-Regular-49" transform="translate(135.579559 0) scale(0.996264)"/>
      <use xlink:href="#LMRoman17-Regular-2d" transform="translate(168.217588 0) scale(0.996264)"/>
      <use xlink:href="#LMRoman17-Regular-6f" transform="translate(198.293828 0) scale(0.996264)"/>
      <use xlink:href="#LMRoman17-Regular-72" transform="translate(243.984776 0) scale(0.996264)"/>
      <use xlink:href="#LMRoman17-Regular-64" transform="translate(279.266304 0) scale(0.996264)"/>
      <use xlink:href="#LMRoman17-Regular-65" transform="translate(330.163392 0) scale(0.996264)"/>
      <use xlink:href="#LMRoman17-Regular-72" transform="translate(370.648201 0) scale(0.996264)"/>
      <use xlink:href="#LMRoman17-Regular-65" transform="translate(405.929729 0) scale(0.996264)"/>
      <use xlink:href="#LMRoman17-Regular-64" transform="translate(446.414538 0) scale(0.996264)"/>
     </g>
    </g>
    <g id="line2d_58">
     <path d="M 408.376385 65.513706 
L 424.376385 65.513706 
L 440.376385 65.513706 
" style="fill: none; stroke: #999999; stroke-width: 2; stroke-linecap: round"/>
     <g>
      <use xlink:href="#m07ec2a20fb" x="424.376385" y="65.513706" style="fill: #999999; stroke: #999999; stroke-linejoin: miter"/>
     </g>
    </g>
    <g id="text_16">
     <!-- Random -->
     <g style="fill: #e6edf3" transform="translate(453.176385 71.113706) scale(0.16 -0.16)">
      <defs>
       <path id="LMRoman17-Regular-6e" d="M 3091 -13 
L 3091 153 
C 2682 153 2656 178 2656 428 
L 2656 1933 
C 2656 2259 2592 2790 1837 2790 
C 1331 2790 1069 2400 973 2144 
L 966 2144 
L 966 2790 
L 211 2720 
L 211 2554 
C 589 2554 646 2515 646 2208 
L 646 428 
C 646 184 621 153 211 153 
L 211 -13 
C 365 0 646 0 813 0 
C 979 0 1267 0 1421 -13 
L 1421 153 
C 1011 153 986 178 986 428 
L 986 1658 
C 986 2247 1344 2688 1792 2688 
C 2266 2688 2317 2266 2317 1958 
L 2317 428 
C 2317 184 2291 153 1882 153 
L 1882 -13 
C 2035 0 2317 0 2483 0 
C 2650 0 2938 0 3091 -13 
z
" transform="scale(0.015625)"/>
      </defs>
      <use xlink:href="#LMRoman17-Regular-52" transform="scale(0.996264)"/>
      <use xlink:href="#LMRoman17-Regular-61" transform="translate(67.789779 0) scale(0.996264)"/>
      <use xlink:href="#LMRoman17-Regular-6e" transform="translate(113.480728 0) scale(0.996264)"/>
      <use xlink:href="#LMRoman17-Regular-64" transform="translate(164.377815 0) scale(0.996264)"/>
      <use xlink:href="#LMRoman17-Regular-6f" transform="translate(215.274903 0) scale(0.996264)"/>
      <use xlink:href="#LMRoman17-Regular-6d" transform="translate(260.965851 0) scale(0.996264)"/>
     </g>
    </g>
   </g>
  </g>
  <g id="axes_2">
   <g id="patch_5">
    <path d="M 620.002259 353.420149 
L 1112.4 353.420149 
L 1112.4 23.213303 
L 620.002259 23.213303 
L 620.002259 353.420149 
z
" style="fill: none"/>
   </g>
   <g id="matplotlib.axis_3">
    <g id="xtick_24">
     <g id="line2d_59">
      <path d="M 642.383974 353.420149 
L 642.383974 23.213303 
" clip-path="url(#pa30ae993ba)" style="fill: none; stroke: #2f3a46; stroke-opacity: 0.3; stroke-width: 0.5; stroke-linecap: round"/>
     </g>
     <g id="line2d_60">
      <g>
       <use xlink:href="#me6acb8fa8f" x="642.383974" y="23.213303" style="fill: #e6edf3; stroke: #e6edf3; stroke-width: 0.5"/>
      </g>
     </g>
     <g id="text_17">
      <!-- $\mathdefault{0}$ -->
      <g style="fill: #e6edf3" transform="translate(638.728698 367.810797) scale(0.16 -0.16)">
       <use xlink:href="#LMRoman17-Regular-30" transform="scale(0.996264)"/>
      </g>
     </g>
    </g>
    <g id="xtick_25">
     <g id="line2d_61">
      <path d="M 731.910836 353.420149 
L 731.910836 23.213303 
" clip-path="url(#pa30ae993ba)" style="fill: none; stroke: #2f3a46; stroke-opacity: 0.3; stroke-width: 0.5; stroke-linecap: round"/>
     </g>
     <g id="line2d_62">
      <g>
       <use xlink:href="#me6acb8fa8f" x="731.910836" y="23.213303" style="fill: #e6edf3; stroke: #e6edf3; stroke-width: 0.5"/>
      </g>
     </g>
     <g id="text_18">
      <!-- $\mathdefault{20}$ -->
      <g style="fill: #e6edf3" transform="translate(724.600284 367.810797) scale(0.16 -0.16)">
       <use xlink:href="#LMRoman17-Regular-32" transform="scale(0.996264)"/>
       <use xlink:href="#LMRoman17-Regular-30" transform="translate(45.690948 0) scale(0.996264)"/>
      </g>
     </g>
    </g>
    <g id="xtick_26">
     <g id="line2d_63">
      <path d="M 821.437698 353.420149 
L 821.437698 23.213303 
" clip-path="url(#pa30ae993ba)" style="fill: none; stroke: #2f3a46; stroke-opacity: 0.3; stroke-width: 0.5; stroke-linecap: round"/>
     </g>
     <g id="line2d_64">
      <g>
       <use xlink:href="#me6acb8fa8f" x="821.437698" y="23.213303" style="fill: #e6edf3; stroke: #e6edf3; stroke-width: 0.5"/>
      </g>
     </g>
     <g id="text_19">
      <!-- $\mathdefault{40}$ -->
      <g style="fill: #e6edf3" transform="translate(814.127146 367.810797) scale(0.16 -0.16)">
       <use xlink:href="#LMRoman17-Regular-34" transform="scale(0.996264)"/>
       <use xlink:href="#LMRoman17-Regular-30" transform="translate(45.690948 0) scale(0.996264)"/>
      </g>
     </g>
    </g>
    <g id="xtick_27">
     <g id="line2d_65">
      <path d="M 910.96456 353.420149 
L 910.96456 23.213303 
" clip-path="url(#pa30ae993ba)" style="fill: none; stroke: #2f3a46; stroke-opacity: 0.3; stroke-width: 0.5; stroke-linecap: round"/>
     </g>
     <g id="line2d_66">
      <g>
       <use xlink:href="#me6acb8fa8f" x="910.96456" y="23.213303" style="fill: #e6edf3; stroke: #e6edf3; stroke-width: 0.5"/>
      </g>
     </g>
     <g id="text_20">
      <!-- $\mathdefault{60}$ -->
      <g style="fill: #e6edf3" transform="translate(903.654008 367.810797) scale(0.16 -0.16)">
       <use xlink:href="#LMRoman17-Regular-36" transform="scale(0.996264)"/>
       <use xlink:href="#LMRoman17-Regular-30" transform="translate(45.690948 0) scale(0.996264)"/>
      </g>
     </g>
    </g>
    <g id="xtick_28">
     <g id="line2d_67">
      <path d="M 1000.491422 353.420149 
L 1000.491422 23.213303 
" clip-path="url(#pa30ae993ba)" style="fill: none; stroke: #2f3a46; stroke-opacity: 0.3; stroke-width: 0.5; stroke-linecap: round"/>
     </g>
     <g id="line2d_68">
      <g>
       <use xlink:href="#me6acb8fa8f" x="1000.491422" y="23.213303" style="fill: #e6edf3; stroke: #e6edf3; stroke-width: 0.5"/>
      </g>
     </g>
     <g id="text_21">
      <!-- $\mathdefault{80}$ -->
      <g style="fill: #e6edf3" transform="translate(993.18087 367.810797) scale(0.16 -0.16)">
       <use xlink:href="#LMRoman17-Regular-38" transform="scale(0.996264)"/>
       <use xlink:href="#LMRoman17-Regular-30" transform="translate(45.690948 0) scale(0.996264)"/>
      </g>
     </g>
    </g>
    <g id="xtick_29">
     <g id="line2d_69">
      <path d="M 1090.018284 353.420149 
L 1090.018284 23.213303 
" clip-path="url(#pa30ae993ba)" style="fill: none; stroke: #2f3a46; stroke-opacity: 0.3; stroke-width: 0.5; stroke-linecap: round"/>
     </g>
     <g id="line2d_70">
      <g>
       <use xlink:href="#me6acb8fa8f" x="1090.018284" y="23.213303" style="fill: #e6edf3; stroke: #e6edf3; stroke-width: 0.5"/>
      </g>
     </g>
     <g id="text_22">
      <!-- $\mathdefault{100}$ -->
      <g style="fill: #e6edf3" transform="translate(1079.052456 367.810797) scale(0.16 -0.16)">
       <use xlink:href="#LMRoman17-Regular-31" transform="scale(0.996264)"/>
       <use xlink:href="#LMRoman17-Regular-30" transform="translate(45.690948 0) scale(0.996264)"/>
       <use xlink:href="#LMRoman17-Regular-30" transform="translate(91.381897 0) scale(0.996264)"/>
      </g>
     </g>
    </g>
    <g id="xtick_30">
     <g id="line2d_71">
      <g>
       <use xlink:href="#mf7ff4e3753" x="620.002259" y="23.213303" style="fill: #e6edf3; stroke: #e6edf3; stroke-width: 0.5"/>
      </g>
     </g>
    </g>
    <g id="xtick_31">
     <g id="line2d_72">
      <g>
       <use xlink:href="#mf7ff4e3753" x="664.76569" y="23.213303" style="fill: #e6edf3; stroke: #e6edf3; stroke-width: 0.5"/>
      </g>
     </g>
    </g>
    <g id="xtick_32">
     <g id="line2d_73">
      <g>
       <use xlink:href="#mf7ff4e3753" x="687.147405" y="23.213303" style="fill: #e6edf3; stroke: #e6edf3; stroke-width: 0.5"/>
      </g>
     </g>
    </g>
    <g id="xtick_33">
     <g id="line2d_74">
      <g>
       <use xlink:href="#mf7ff4e3753" x="709.529121" y="23.213303" style="fill: #e6edf3; stroke: #e6edf3; stroke-width: 0.5"/>
      </g>
     </g>
    </g>
    <g id="xtick_34">
     <g id="line2d_75">
      <g>
       <use xlink:href="#mf7ff4e3753" x="754.292552" y="23.213303" style="fill: #e6edf3; stroke: #e6edf3; stroke-width: 0.5"/>
      </g>
     </g>
    </g>
    <g id="xtick_35">
     <g id="line2d_76">
      <g>
       <use xlink:href="#mf7ff4e3753" x="776.674267" y="23.213303" style="fill: #e6edf3; stroke: #e6edf3; stroke-width: 0.5"/>
      </g>
     </g>
    </g>
    <g id="xtick_36">
     <g id="line2d_77">
      <g>
       <use xlink:href="#mf7ff4e3753" x="799.055983" y="23.213303" style="fill: #e6edf3; stroke: #e6edf3; stroke-width: 0.5"/>
      </g>
     </g>
    </g>
    <g id="xtick_37">
     <g id="line2d_78">
      <g>
       <use xlink:href="#mf7ff4e3753" x="843.819414" y="23.213303" style="fill: #e6edf3; stroke: #e6edf3; stroke-width: 0.5"/>
      </g>
     </g>
    </g>
    <g id="xtick_38">
     <g id="line2d_79">
      <g>
       <use xlink:href="#mf7ff4e3753" x="866.201129" y="23.213303" style="fill: #e6edf3; stroke: #e6edf3; stroke-width: 0.5"/>
      </g>
     </g>
    </g>
    <g id="xtick_39">
     <g id="line2d_80">
      <g>
       <use xlink:href="#mf7ff4e3753" x="888.582845" y="23.213303" style="fill: #e6edf3; stroke: #e6edf3; stroke-width: 0.5"/>
      </g>
     </g>
    </g>
    <g id="xtick_40">
     <g id="line2d_81">
      <g>
       <use xlink:href="#mf7ff4e3753" x="933.346276" y="23.213303" style="fill: #e6edf3; stroke: #e6edf3; stroke-width: 0.5"/>
      </g>
     </g>
    </g>
    <g id="xtick_41">
     <g id="line2d_82">
      <g>
       <use xlink:href="#mf7ff4e3753" x="955.727991" y="23.213303" style="fill: #e6edf3; stroke: #e6edf3; stroke-width: 0.5"/>
      </g>
     </g>
    </g>
    <g id="xtick_42">
     <g id="line2d_83">
      <g>
       <use xlink:href="#mf7ff4e3753" x="978.109707" y="23.213303" style="fill: #e6edf3; stroke: #e6edf3; stroke-width: 0.5"/>
      </g>
     </g>
    </g>
    <g id="xtick_43">
     <g id="line2d_84">
      <g>
       <use xlink:href="#mf7ff4e3753" x="1022.873138" y="23.213303" style="fill: #e6edf3; stroke: #e6edf3; stroke-width: 0.5"/>
      </g>
     </g>
    </g>
    <g id="xtick_44">
     <g id="line2d_85">
      <g>
       <use xlink:href="#mf7ff4e3753" x="1045.254853" y="23.213303" style="fill: #e6edf3; stroke: #e6edf3; stroke-width: 0.5"/>
      </g>
     </g>
    </g>
    <g id="xtick_45">
     <g id="line2d_86">
      <g>
       <use xlink:href="#mf7ff4e3753" x="1067.636569" y="23.213303" style="fill: #e6edf3; stroke: #e6edf3; stroke-width: 0.5"/>
      </g>
     </g>
    </g>
    <g id="xtick_46">
     <g id="line2d_87">
      <g>
       <use xlink:href="#mf7ff4e3753" x="1112.4" y="23.213303" style="fill: #e6edf3; stroke: #e6edf3; stroke-width: 0.5"/>
      </g>
     </g>
    </g>
    <g id="text_23">
     <!-- \% Active Features Removed -->
     <g style="fill: #e6edf3" transform="translate(754.012584 388.524503) scale(0.2 -0.2)">
      <use xlink:href="#LMRoman17-Regular-25" transform="scale(0.996264)"/>
      <use xlink:href="#LMRoman17-Regular-41" transform="translate(106.998308 0) scale(0.996264)"/>
      <use xlink:href="#LMRoman17-Regular-63" transform="translate(173.465532 0) scale(0.996264)"/>
      <use xlink:href="#LMRoman17-Regular-74" transform="translate(213.950341 0) scale(0.996264)"/>
      <use xlink:href="#LMRoman17-Regular-69" transform="translate(249.231869 0) scale(0.996264)"/>
      <use xlink:href="#LMRoman17-Regular-76" transform="translate(274.103885 0) scale(0.996264)"/>
      <use xlink:href="#LMRoman17-Regular-65" transform="translate(319.792645 0) scale(0.996264)"/>
      <use xlink:href="#LMRoman17-Regular-46" transform="translate(390.353603 0) scale(0.996264)"/>
      <use xlink:href="#LMRoman17-Regular-65" transform="translate(442.529996 0) scale(0.996264)"/>
      <use xlink:href="#LMRoman17-Regular-61" transform="translate(483.014805 0) scale(0.996264)"/>
      <use xlink:href="#LMRoman17-Regular-74" transform="translate(528.705754 0) scale(0.996264)"/>
      <use xlink:href="#LMRoman17-Regular-75" transform="translate(563.987282 0) scale(0.996264)"/>
      <use xlink:href="#LMRoman17-Regular-72" transform="translate(614.884369 0) scale(0.996264)"/>
      <use xlink:href="#LMRoman17-Regular-65" transform="translate(650.165897 0) scale(0.996264)"/>
      <use xlink:href="#LMRoman17-Regular-73" transform="translate(690.650706 0) scale(0.996264)"/>
      <use xlink:href="#LMRoman17-Regular-52" transform="translate(756.530093 0) scale(0.996264)"/>
      <use xlink:href="#LMRoman17-Regular-65" transform="translate(824.319872 0) scale(0.996264)"/>
      <use xlink:href="#LMRoman17-Regular-6d" transform="translate(864.804681 0) scale(0.996264)"/>
      <use xlink:href="#LMRoman17-Regular-6f" transform="translate(941.72684 0) scale(0.996264)"/>
      <use xlink:href="#LMRoman17-Regular-76" transform="translate(984.815335 0) scale(0.996264)"/>
      <use xlink:href="#LMRoman17-Regular-65" transform="translate(1030.504094 0) scale(0.996264)"/>
      <use xlink:href="#LMRoman17-Regular-64" transform="translate(1070.988903 0) scale(0.996264)"/>
     </g>
    </g>
   </g>
   <g id="matplotlib.axis_4">
    <g id="ytick_21">
     <g id="line2d_88">
      <path d="M 620.002259 338.887993 
L 1112.4 338.887993 
" clip-path="url(#pa30ae993ba)" style="fill: none; stroke: #2f3a46; stroke-opacity: 0.3; stroke-width: 0.5; stroke-linecap: round"/>
     </g>
     <g id="line2d_89">
      <g>
       <use xlink:href="#mb15a3e3de0" x="1112.4" y="338.887993" style="fill: #e6edf3; stroke: #e6edf3; stroke-width: 0.5"/>
      </g>
     </g>
     <g id="text_24">
      <!-- $\mathdefault{0.00}$ -->
      <g style="fill: #e6edf3" transform="translate(590.235053 344.333317) scale(0.16 -0.16)">
       <use xlink:href="#LMRoman17-Regular-30" transform="scale(0.996264)"/>
       <use xlink:href="#LMMathItalic12-Regular-3a" transform="translate(45.690948 0) scale(0.996264)"/>
       <use xlink:href="#LMRoman17-Regular-30" transform="translate(72.788125 0) scale(0.996264)"/>
       <use xlink:href="#LMRoman17-Regular-30" transform="translate(118.479074 0) scale(0.996264)"/>
      </g>
     </g>
    </g>
    <g id="ytick_22">
     <g id="line2d_90">
      <path d="M 620.002259 301.347784 
L 1112.4 301.347784 
" clip-path="url(#pa30ae993ba)" style="fill: none; stroke: #2f3a46; stroke-opacity: 0.3; stroke-width: 0.5; stroke-linecap: round"/>
     </g>
     <g id="line2d_91">
      <g>
       <use xlink:href="#mb15a3e3de0" x="1112.4" y="301.347784" style="fill: #e6edf3; stroke: #e6edf3; stroke-width: 0.5"/>
      </g>
     </g>
     <g id="text_25">
      <!-- $\mathdefault{0.02}$ -->
      <g style="fill: #e6edf3" transform="translate(590.235053 306.793108) scale(0.16 -0.16)">
       <use xlink:href="#LMRoman17-Regular-30" transform="scale(0.996264)"/>
       <use xlink:href="#LMMathItalic12-Regular-3a" transform="translate(45.690948 0) scale(0.996264)"/>
       <use xlink:href="#LMRoman17-Regular-30" transform="translate(72.788125 0) scale(0.996264)"/>
       <use xlink:href="#LMRoman17-Regular-32" transform="translate(118.479074 0) scale(0.996264)"/>
      </g>
     </g>
    </g>
    <g id="ytick_23">
     <g id="line2d_92">
      <path d="M 620.002259 263.807575 
L 1112.4 263.807575 
" clip-path="url(#pa30ae993ba)" style="fill: none; stroke: #2f3a46; stroke-opacity: 0.3; stroke-width: 0.5; stroke-linecap: round"/>
     </g>
     <g id="line2d_93">
      <g>
       <use xlink:href="#mb15a3e3de0" x="1112.4" y="263.807575" style="fill: #e6edf3; stroke: #e6edf3; stroke-width: 0.5"/>
      </g>
     </g>
     <g id="text_26">
      <!-- $\mathdefault{0.04}$ -->
      <g style="fill: #e6edf3" transform="translate(590.235053 269.252899) scale(0.16 -0.16)">
       <use xlink:href="#LMRoman17-Regular-30" transform="scale(0.996264)"/>
       <use xlink:href="#LMMathItalic12-Regular-3a" transform="translate(45.690948 0) scale(0.996264)"/>
       <use xlink:href="#LMRoman17-Regular-30" transform="translate(72.788125 0) scale(0.996264)"/>
       <use xlink:href="#LMRoman17-Regular-34" transform="translate(118.479074 0) scale(0.996264)"/>
      </g>
     </g>
    </g>
    <g id="ytick_24">
     <g id="line2d_94">
      <path d="M 620.002259 226.267365 
L 1112.4 226.267365 
" clip-path="url(#pa30ae993ba)" style="fill: none; stroke: #2f3a46; stroke-opacity: 0.3; stroke-width: 0.5; stroke-linecap: round"/>
     </g>
     <g id="line2d_95">
      <g>
       <use xlink:href="#mb15a3e3de0" x="1112.4" y="226.267365" style="fill: #e6edf3; stroke: #e6edf3; stroke-width: 0.5"/>
      </g>
     </g>
     <g id="text_27">
      <!-- $\mathdefault{0.06}$ -->
      <g style="fill: #e6edf3" transform="translate(590.235053 231.71269) scale(0.16 -0.16)">
       <use xlink:href="#LMRoman17-Regular-30" transform="scale(0.996264)"/>
       <use xlink:href="#LMMathItalic12-Regular-3a" transform="translate(45.690948 0) scale(0.996264)"/>
       <use xlink:href="#LMRoman17-Regular-30" transform="translate(72.788125 0) scale(0.996264)"/>
       <use xlink:href="#LMRoman17-Regular-36" transform="translate(118.479074 0) scale(0.996264)"/>
      </g>
     </g>
    </g>
    <g id="ytick_25">
     <g id="line2d_96">
      <path d="M 620.002259 188.727156 
L 1112.4 188.727156 
" clip-path="url(#pa30ae993ba)" style="fill: none; stroke: #2f3a46; stroke-opacity: 0.3; stroke-width: 0.5; stroke-linecap: round"/>
     </g>
     <g id="line2d_97">
      <g>
       <use xlink:href="#mb15a3e3de0" x="1112.4" y="188.727156" style="fill: #e6edf3; stroke: #e6edf3; stroke-width: 0.5"/>
      </g>
     </g>
     <g id="text_28">
      <!-- $\mathdefault{0.08}$ -->
      <g style="fill: #e6edf3" transform="translate(590.235053 194.17248) scale(0.16 -0.16)">
       <use xlink:href="#LMRoman17-Regular-30" transform="scale(0.996264)"/>
       <use xlink:href="#LMMathItalic12-Regular-3a" transform="translate(45.690948 0) scale(0.996264)"/>
       <use xlink:href="#LMRoman17-Regular-30" transform="translate(72.788125 0) scale(0.996264)"/>
       <use xlink:href="#LMRoman17-Regular-38" transform="translate(118.479074 0) scale(0.996264)"/>
      </g>
     </g>
    </g>
    <g id="ytick_26">
     <g id="line2d_98">
      <path d="M 620.002259 151.186947 
L 1112.4 151.186947 
" clip-path="url(#pa30ae993ba)" style="fill: none; stroke: #2f3a46; stroke-opacity: 0.3; stroke-width: 0.5; stroke-linecap: round"/>
     </g>
     <g id="line2d_99">
      <g>
       <use xlink:href="#mb15a3e3de0" x="1112.4" y="151.186947" style="fill: #e6edf3; stroke: #e6edf3; stroke-width: 0.5"/>
      </g>
     </g>
     <g id="text_29">
      <!-- $\mathdefault{0.10}$ -->
      <g style="fill: #e6edf3" transform="translate(590.235053 156.632271) scale(0.16 -0.16)">
       <use xlink:href="#LMRoman17-Regular-30" transform="scale(0.996264)"/>
       <use xlink:href="#LMMathItalic12-Regular-3a" transform="translate(45.690948 0) scale(0.996264)"/>
       <use xlink:href="#LMRoman17-Regular-31" transform="translate(72.788125 0) scale(0.996264)"/>
       <use xlink:href="#LMRoman17-Regular-30" transform="translate(118.479074 0) scale(0.996264)"/>
      </g>
     </g>
    </g>
    <g id="ytick_27">
     <g id="line2d_100">
      <path d="M 620.002259 113.646738 
L 1112.4 113.646738 
" clip-path="url(#pa30ae993ba)" style="fill: none; stroke: #2f3a46; stroke-opacity: 0.3; stroke-width: 0.5; stroke-linecap: round"/>
     </g>
     <g id="line2d_101">
      <g>
       <use xlink:href="#mb15a3e3de0" x="1112.4" y="113.646738" style="fill: #e6edf3; stroke: #e6edf3; stroke-width: 0.5"/>
      </g>
     </g>
     <g id="text_30">
      <!-- $\mathdefault{0.12}$ -->
      <g style="fill: #e6edf3" transform="translate(590.235053 119.092062) scale(0.16 -0.16)">
       <use xlink:href="#LMRoman17-Regular-30" transform="scale(0.996264)"/>
       <use xlink:href="#LMMathItalic12-Regular-3a" transform="translate(45.690948 0) scale(0.996264)"/>
       <use xlink:href="#LMRoman17-Regular-31" transform="translate(72.788125 0) scale(0.996264)"/>
       <use xlink:href="#LMRoman17-Regular-32" transform="translate(118.479074 0) scale(0.996264)"/>
      </g>
     </g>
    </g>
    <g id="ytick_28">
     <g id="line2d_102">
      <path d="M 620.002259 76.106528 
L 1112.4 76.106528 
" clip-path="url(#pa30ae993ba)" style="fill: none; stroke: #2f3a46; stroke-opacity: 0.3; stroke-width: 0.5; stroke-linecap: round"/>
     </g>
     <g id="line2d_103">
      <g>
       <use xlink:href="#mb15a3e3de0" x="1112.4" y="76.106528" style="fill: #e6edf3; stroke: #e6edf3; stroke-width: 0.5"/>
      </g>
     </g>
     <g id="text_31">
      <!-- $\mathdefault{0.14}$ -->
      <g style="fill: #e6edf3" transform="translate(590.235053 81.551852) scale(0.16 -0.16)">
       <use xlink:href="#LMRoman17-Regular-30" transform="scale(0.996264)"/>
       <use xlink:href="#LMMathItalic12-Regular-3a" transform="translate(45.690948 0) scale(0.996264)"/>
       <use xlink:href="#LMRoman17-Regular-31" transform="translate(72.788125 0) scale(0.996264)"/>
       <use xlink:href="#LMRoman17-Regular-34" transform="translate(118.479074 0) scale(0.996264)"/>
      </g>
     </g>
    </g>
    <g id="ytick_29">
     <g id="line2d_104">
      <path d="M 620.002259 38.566319 
L 1112.4 38.566319 
" clip-path="url(#pa30ae993ba)" style="fill: none; stroke: #2f3a46; stroke-opacity: 0.3; stroke-width: 0.5; stroke-linecap: round"/>
     </g>
     <g id="line2d_105">
      <g>
       <use xlink:href="#mb15a3e3de0" x="1112.4" y="38.566319" style="fill: #e6edf3; stroke: #e6edf3; stroke-width: 0.5"/>
      </g>
     </g>
     <g id="text_32">
      <!-- $\mathdefault{0.16}$ -->
      <g style="fill: #e6edf3" transform="translate(590.235053 44.011643) scale(0.16 -0.16)">
       <use xlink:href="#LMRoman17-Regular-30" transform="scale(0.996264)"/>
       <use xlink:href="#LMMathItalic12-Regular-3a" transform="translate(45.690948 0) scale(0.996264)"/>
       <use xlink:href="#LMRoman17-Regular-31" transform="translate(72.788125 0) scale(0.996264)"/>
       <use xlink:href="#LMRoman17-Regular-36" transform="translate(118.479074 0) scale(0.996264)"/>
      </g>
     </g>
    </g>
    <g id="ytick_30">
     <g id="line2d_106">
      <g>
       <use xlink:href="#m6bdeba983f" x="1112.4" y="348.273046" style="fill: #e6edf3; stroke: #e6edf3; stroke-width: 0.5"/>
      </g>
     </g>
    </g>
    <g id="ytick_31">
     <g id="line2d_107">
      <g>
       <use xlink:href="#m6bdeba983f" x="1112.4" y="329.502941" style="fill: #e6edf3; stroke: #e6edf3; stroke-width: 0.5"/>
      </g>
     </g>
    </g>
    <g id="ytick_32">
     <g id="line2d_108">
      <g>
       <use xlink:href="#m6bdeba983f" x="1112.4" y="320.117889" style="fill: #e6edf3; stroke: #e6edf3; stroke-width: 0.5"/>
      </g>
     </g>
    </g>
    <g id="ytick_33">
     <g id="line2d_109">
      <g>
       <use xlink:href="#m6bdeba983f" x="1112.4" y="310.732836" style="fill: #e6edf3; stroke: #e6edf3; stroke-width: 0.5"/>
      </g>
     </g>
    </g>
    <g id="ytick_34">
     <g id="line2d_110">
      <g>
       <use xlink:href="#m6bdeba983f" x="1112.4" y="291.962732" style="fill: #e6edf3; stroke: #e6edf3; stroke-width: 0.5"/>
      </g>
     </g>
    </g>
    <g id="ytick_35">
     <g id="line2d_111">
      <g>
       <use xlink:href="#m6bdeba983f" x="1112.4" y="282.577679" style="fill: #e6edf3; stroke: #e6edf3; stroke-width: 0.5"/>
      </g>
     </g>
    </g>
    <g id="ytick_36">
     <g id="line2d_112">
      <g>
       <use xlink:href="#m6bdeba983f" x="1112.4" y="273.192627" style="fill: #e6edf3; stroke: #e6edf3; stroke-width: 0.5"/>
      </g>
     </g>
    </g>
    <g id="ytick_37">
     <g id="line2d_113">
      <g>
       <use xlink:href="#m6bdeba983f" x="1112.4" y="254.422522" style="fill: #e6edf3; stroke: #e6edf3; stroke-width: 0.5"/>
      </g>
     </g>
    </g>
    <g id="ytick_38">
     <g id="line2d_114">
      <g>
       <use xlink:href="#m6bdeba983f" x="1112.4" y="245.03747" style="fill: #e6edf3; stroke: #e6edf3; stroke-width: 0.5"/>
      </g>
     </g>
    </g>
    <g id="ytick_39">
     <g id="line2d_115">
      <g>
       <use xlink:href="#m6bdeba983f" x="1112.4" y="235.652418" style="fill: #e6edf3; stroke: #e6edf3; stroke-width: 0.5"/>
      </g>
     </g>
    </g>
    <g id="ytick_40">
     <g id="line2d_116">
      <g>
       <use xlink:href="#m6bdeba983f" x="1112.4" y="216.882313" style="fill: #e6edf3; stroke: #e6edf3; stroke-width: 0.5"/>
      </g>
     </g>
    </g>
    <g id="ytick_41">
     <g id="line2d_117">
      <g>
       <use xlink:href="#m6bdeba983f" x="1112.4" y="207.497261" style="fill: #e6edf3; stroke: #e6edf3; stroke-width: 0.5"/>
      </g>
     </g>
    </g>
    <g id="ytick_42">
     <g id="line2d_118">
      <g>
       <use xlink:href="#m6bdeba983f" x="1112.4" y="198.112208" style="fill: #e6edf3; stroke: #e6edf3; stroke-width: 0.5"/>
      </g>
     </g>
    </g>
    <g id="ytick_43">
     <g id="line2d_119">
      <g>
       <use xlink:href="#m6bdeba983f" x="1112.4" y="179.342104" style="fill: #e6edf3; stroke: #e6edf3; stroke-width: 0.5"/>
      </g>
     </g>
    </g>
    <g id="ytick_44">
     <g id="line2d_120">
      <g>
       <use xlink:href="#m6bdeba983f" x="1112.4" y="169.957052" style="fill: #e6edf3; stroke: #e6edf3; stroke-width: 0.5"/>
      </g>
     </g>
    </g>
    <g id="ytick_45">
     <g id="line2d_121">
      <g>
       <use xlink:href="#m6bdeba983f" x="1112.4" y="160.571999" style="fill: #e6edf3; stroke: #e6edf3; stroke-width: 0.5"/>
      </g>
     </g>
    </g>
    <g id="ytick_46">
     <g id="line2d_122">
      <g>
       <use xlink:href="#m6bdeba983f" x="1112.4" y="141.801895" style="fill: #e6edf3; stroke: #e6edf3; stroke-width: 0.5"/>
      </g>
     </g>
    </g>
    <g id="ytick_47">
     <g id="line2d_123">
      <g>
       <use xlink:href="#m6bdeba983f" x="1112.4" y="132.416842" style="fill: #e6edf3; stroke: #e6edf3; stroke-width: 0.5"/>
      </g>
     </g>
    </g>
    <g id="ytick_48">
     <g id="line2d_124">
      <g>
       <use xlink:href="#m6bdeba983f" x="1112.4" y="123.03179" style="fill: #e6edf3; stroke: #e6edf3; stroke-width: 0.5"/>
      </g>
     </g>
    </g>
    <g id="ytick_49">
     <g id="line2d_125">
      <g>
       <use xlink:href="#m6bdeba983f" x="1112.4" y="104.261685" style="fill: #e6edf3; stroke: #e6edf3; stroke-width: 0.5"/>
      </g>
     </g>
    </g>
    <g id="ytick_50">
     <g id="line2d_126">
      <g>
       <use xlink:href="#m6bdeba983f" x="1112.4" y="94.876633" style="fill: #e6edf3; stroke: #e6edf3; stroke-width: 0.5"/>
      </g>
     </g>
    </g>
    <g id="ytick_51">
     <g id="line2d_127">
      <g>
       <use xlink:href="#m6bdeba983f" x="1112.4" y="85.491581" style="fill: #e6edf3; stroke: #e6edf3; stroke-width: 0.5"/>
      </g>
     </g>
    </g>
    <g id="ytick_52">
     <g id="line2d_128">
      <g>
       <use xlink:href="#m6bdeba983f" x="1112.4" y="66.721476" style="fill: #e6edf3; stroke: #e6edf3; stroke-width: 0.5"/>
      </g>
     </g>
    </g>
    <g id="ytick_53">
     <g id="line2d_129">
      <g>
       <use xlink:href="#m6bdeba983f" x="1112.4" y="57.336424" style="fill: #e6edf3; stroke: #e6edf3; stroke-width: 0.5"/>
      </g>
     </g>
    </g>
    <g id="ytick_54">
     <g id="line2d_130">
      <g>
       <use xlink:href="#m6bdeba983f" x="1112.4" y="47.951371" style="fill: #e6edf3; stroke: #e6edf3; stroke-width: 0.5"/>
      </g>
     </g>
    </g>
    <g id="ytick_55">
     <g id="line2d_131">
      <g>
       <use xlink:href="#m6bdeba983f" x="1112.4" y="29.181267" style="fill: #e6edf3; stroke: #e6edf3; stroke-width: 0.5"/>
      </g>
     </g>
    </g>
    <g id="text_33">
     <!-- Avg R@1 -->
     <g style="fill: #e6edf3" transform="translate(582.359557 225.108216) rotate(-90) scale(0.2 -0.2)">
      <defs>
       <path id="LMRoman17-Regular-67" d="M 2886 2614 
C 2886 2731 2790 2854 2586 2854 
C 2330 2854 2106 2738 1926 2580 
C 1734 2753 1504 2816 1299 2816 
C 794 2816 358 2419 358 1888 
C 358 1522 570 1292 634 1228 
C 442 1004 442 743 442 711 
C 442 545 506 302 723 168 
C 390 85 128 -169 128 -486 
C 128 -943 736 -1280 1466 -1280 
C 2170 -1280 2803 -956 2803 -479 
C 2803 384 1856 384 1363 384 
C 1216 384 954 384 922 391 
C 723 423 589 602 589 825 
C 589 882 589 1024 710 1164 
C 832 1068 1043 960 1299 960 
C 1805 960 2240 1357 2240 1888 
C 2240 2054 2189 2310 1997 2509 
C 2176 2692 2438 2752 2586 2752 
C 2611 2752 2650 2752 2682 2734 
C 2656 2728 2598 2703 2598 2605 
C 2598 2527 2656 2471 2739 2471 
C 2835 2471 2886 2533 2886 2614 
z
M 1862 1889 
C 1862 1760 1862 1068 1299 1068 
C 736 1068 736 1760 736 1889 
C 736 2016 736 2708 1299 2708 
C 1862 2708 1862 2016 1862 1889 
z
M 2547 -486 
C 2547 -835 2106 -1171 1466 -1171 
C 826 -1171 384 -835 384 -486 
C 384 -289 493 -105 634 -4 
C 794 104 858 104 1293 104 
C 1818 104 2547 104 2547 -486 
z
" transform="scale(0.015625)"/>
       <path id="LMRoman17-Regular-40" d="M 4307 2120 
C 4307 3712 3194 4454 2304 4454 
C 1229 4454 294 3493 294 2196 
C 294 980 1146 -64 2336 -64 
C 3379 -64 4301 373 4301 425 
C 4301 457 4294 457 4166 457 
C 4058 457 4045 457 4013 438 
C 3782 330 3162 38 2330 38 
C 1197 38 410 1063 410 2195 
C 410 3404 1280 4352 2298 4352 
C 2758 4352 3213 4168 3622 3744 
C 4032 3300 4192 2697 4192 2094 
C 4192 1619 4179 933 3731 933 
C 3526 933 3501 1195 3501 1367 
L 3501 2908 
C 3501 3029 3494 3029 3366 3029 
L 3187 3029 
C 3187 3029 3174 3035 3142 3081 
C 2874 3481 2541 3584 2298 3584 
C 1683 3584 1101 3023 1101 2208 
C 1101 1392 1690 832 2298 832 
C 2739 832 3040 1155 3155 1353 
C 3162 997 3456 832 3706 832 
C 4237 832 4307 1440 4307 2120 
z
M 3162 1723 
C 3162 1602 3162 1596 3085 1462 
C 2886 1099 2579 933 2304 933 
C 1830 933 1440 1500 1440 2208 
C 1440 2915 1830 3482 2304 3482 
C 2573 3482 2778 3329 2880 3233 
C 3034 3087 3162 2902 3162 2692 
L 3162 1723 
z
" transform="scale(0.015625)"/>
      </defs>
      <use xlink:href="#LMRoman17-Regular-41" transform="scale(0.996264)"/>
      <use xlink:href="#LMRoman17-Regular-76" transform="translate(58.659969 0) scale(0.996264)"/>
      <use xlink:href="#LMRoman17-Regular-67" transform="translate(106.951182 0) scale(0.996264)"/>
      <use xlink:href="#LMRoman17-Regular-52" transform="translate(182.718279 0) scale(0.996264)"/>
      <use xlink:href="#LMRoman17-Regular-40" transform="translate(250.508059 0) scale(0.996264)"/>
      <use xlink:href="#LMRoman17-Regular-31" transform="translate(322.224079 0) scale(0.996264)"/>
     </g>
    </g>
   </g>
   <g id="line2d_132">
    <path d="M 642.383974 38.222705 
L 664.76569 190.464336 
L 687.147405 219.099121 
L 709.529121 209.554196 
L 731.910836 210.508684 
L 754.292552 200.247887 
L 776.674267 204.304481 
L 799.055983 200.009261 
L 821.437698 180.919404 
L 843.819414 190.464333 
L 866.201129 186.646362 
L 888.582845 193.805061 
L 910.96456 201.202376 
L 933.346276 204.781727 
L 955.727991 212.179045 
L 978.109707 224.11021 
L 1000.491422 240.813837 
L 1022.873138 256.801595 
L 1045.254853 279.948049 
L 1067.636569 306.673855 
L 1090.018284 338.410747 
" clip-path="url(#pa30ae993ba)" style="fill: none; stroke: #0088cc; stroke-width: 2; stroke-linecap: round"/>
    <g clip-path="url(#pa30ae993ba)">
     <use xlink:href="#me4565da787" x="642.383974" y="38.222705" style="fill: #0088cc; stroke: #0088cc; stroke-linejoin: miter"/>
     <use xlink:href="#me4565da787" x="664.76569" y="190.464336" style="fill: #0088cc; stroke: #0088cc; stroke-linejoin: miter"/>
     <use xlink:href="#me4565da787" x="687.147405" y="219.099121" style="fill: #0088cc; stroke: #0088cc; stroke-linejoin: miter"/>
     <use xlink:href="#me4565da787" x="709.529121" y="209.554196" style="fill: #0088cc; stroke: #0088cc; stroke-linejoin: miter"/>
     <use xlink:href="#me4565da787" x="731.910836" y="210.508684" style="fill: #0088cc; stroke: #0088cc; stroke-linejoin: miter"/>
     <use xlink:href="#me4565da787" x="754.292552" y="200.247887" style="fill: #0088cc; stroke: #0088cc; stroke-linejoin: miter"/>
     <use xlink:href="#me4565da787" x="776.674267" y="204.304481" style="fill: #0088cc; stroke: #0088cc; stroke-linejoin: miter"/>
     <use xlink:href="#me4565da787" x="799.055983" y="200.009261" style="fill: #0088cc; stroke: #0088cc; stroke-linejoin: miter"/>
     <use xlink:href="#me4565da787" x="821.437698" y="180.919404" style="fill: #0088cc; stroke: #0088cc; stroke-linejoin: miter"/>
     <use xlink:href="#me4565da787" x="843.819414" y="190.464333" style="fill: #0088cc; stroke: #0088cc; stroke-linejoin: miter"/>
     <use xlink:href="#me4565da787" x="866.201129" y="186.646362" style="fill: #0088cc; stroke: #0088cc; stroke-linejoin: miter"/>
     <use xlink:href="#me4565da787" x="888.582845" y="193.805061" style="fill: #0088cc; stroke: #0088cc; stroke-linejoin: miter"/>
     <use xlink:href="#me4565da787" x="910.96456" y="201.202376" style="fill: #0088cc; stroke: #0088cc; stroke-linejoin: miter"/>
     <use xlink:href="#me4565da787" x="933.346276" y="204.781727" style="fill: #0088cc; stroke: #0088cc; stroke-linejoin: miter"/>
     <use xlink:href="#me4565da787" x="955.727991" y="212.179045" style="fill: #0088cc; stroke: #0088cc; stroke-linejoin: miter"/>
     <use xlink:href="#me4565da787" x="978.109707" y="224.11021" style="fill: #0088cc; stroke: #0088cc; stroke-linejoin: miter"/>
     <use xlink:href="#me4565da787" x="1000.491422" y="240.813837" style="fill: #0088cc; stroke: #0088cc; stroke-linejoin: miter"/>
     <use xlink:href="#me4565da787" x="1022.873138" y="256.801595" style="fill: #0088cc; stroke: #0088cc; stroke-linejoin: miter"/>
     <use xlink:href="#me4565da787" x="1045.254853" y="279.948049" style="fill: #0088cc; stroke: #0088cc; stroke-linejoin: miter"/>
     <use xlink:href="#me4565da787" x="1067.636569" y="306.673855" style="fill: #0088cc; stroke: #0088cc; stroke-linejoin: miter"/>
     <use xlink:href="#me4565da787" x="1090.018284" y="338.410747" style="fill: #0088cc; stroke: #0088cc; stroke-linejoin: miter"/>
    </g>
   </g>
   <g id="line2d_133">
    <path d="M 642.383974 38.222705 
L 664.76569 129.806306 
L 687.147405 162.927214 
L 709.529121 202.443219 
L 731.910836 236.279998 
L 754.292552 250.836013 
L 776.674267 269.353179 
L 799.055983 282.859255 
L 821.437698 290.3043 
L 843.819414 294.647243 
L 866.201129 299.371983 
L 888.582845 304.001274 
L 910.96456 309.060088 
L 933.346276 313.832553 
L 955.727991 320.27538 
L 978.109707 318.748191 
L 1000.491422 321.802569 
L 1022.873138 325.286468 
L 1045.254853 326.050063 
L 1067.636569 331.1566 
L 1090.018284 338.410747 
" clip-path="url(#pa30ae993ba)" style="fill: none; stroke: #999999; stroke-width: 2; stroke-linecap: round"/>
    <g clip-path="url(#pa30ae993ba)">
     <use xlink:href="#m07ec2a20fb" x="642.383974" y="38.222705" style="fill: #999999; stroke: #999999; stroke-linejoin: miter"/>
     <use xlink:href="#m07ec2a20fb" x="664.76569" y="129.806306" style="fill: #999999; stroke: #999999; stroke-linejoin: miter"/>
     <use xlink:href="#m07ec2a20fb" x="687.147405" y="162.927214" style="fill: #999999; stroke: #999999; stroke-linejoin: miter"/>
     <use xlink:href="#m07ec2a20fb" x="709.529121" y="202.443219" style="fill: #999999; stroke: #999999; stroke-linejoin: miter"/>
     <use xlink:href="#m07ec2a20fb" x="731.910836" y="236.279998" style="fill: #999999; stroke: #999999; stroke-linejoin: miter"/>
     <use xlink:href="#m07ec2a20fb" x="754.292552" y="250.836013" style="fill: #999999; stroke: #999999; stroke-linejoin: miter"/>
     <use xlink:href="#m07ec2a20fb" x="776.674267" y="269.353179" style="fill: #999999; stroke: #999999; stroke-linejoin: miter"/>
     <use xlink:href="#m07ec2a20fb" x="799.055983" y="282.859255" style="fill: #999999; stroke: #999999; stroke-linejoin: miter"/>
     <use xlink:href="#m07ec2a20fb" x="821.437698" y="290.3043" style="fill: #999999; stroke: #999999; stroke-linejoin: miter"/>
     <use xlink:href="#m07ec2a20fb" x="843.819414" y="294.647243" style="fill: #999999; stroke: #999999; stroke-linejoin: miter"/>
     <use xlink:href="#m07ec2a20fb" x="866.201129" y="299.371983" style="fill: #999999; stroke: #999999; stroke-linejoin: miter"/>
     <use xlink:href="#m07ec2a20fb" x="888.582845" y="304.001274" style="fill: #999999; stroke: #999999; stroke-linejoin: miter"/>
     <use xlink:href="#m07ec2a20fb" x="910.96456" y="309.060088" style="fill: #999999; stroke: #999999; stroke-linejoin: miter"/>
     <use xlink:href="#m07ec2a20fb" x="933.346276" y="313.832553" style="fill: #999999; stroke: #999999; stroke-linejoin: miter"/>
     <use xlink:href="#m07ec2a20fb" x="955.727991" y="320.27538" style="fill: #999999; stroke: #999999; stroke-linejoin: miter"/>
     <use xlink:href="#m07ec2a20fb" x="978.109707" y="318.748191" style="fill: #999999; stroke: #999999; stroke-linejoin: miter"/>
     <use xlink:href="#m07ec2a20fb" x="1000.491422" y="321.802569" style="fill: #999999; stroke: #999999; stroke-linejoin: miter"/>
     <use xlink:href="#m07ec2a20fb" x="1022.873138" y="325.286468" style="fill: #999999; stroke: #999999; stroke-linejoin: miter"/>
     <use xlink:href="#m07ec2a20fb" x="1045.254853" y="326.050063" style="fill: #999999; stroke: #999999; stroke-linejoin: miter"/>
     <use xlink:href="#m07ec2a20fb" x="1067.636569" y="331.1566" style="fill: #999999; stroke: #999999; stroke-linejoin: miter"/>
     <use xlink:href="#m07ec2a20fb" x="1090.018284" y="338.410747" style="fill: #999999; stroke: #999999; stroke-linejoin: miter"/>
    </g>
   </g>
   <g id="patch_6">
    <path d="M 620.002259 353.420149 
L 620.002259 23.213303 
" style="fill: none; stroke: #8b949e; stroke-width: 0.5; stroke-linejoin: miter; stroke-linecap: square"/>
   </g>
   <g id="patch_7">
    <path d="M 620.002259 353.420149 
L 1112.4 353.420149 
" style="fill: none; stroke: #8b949e; stroke-width: 0.5; stroke-linejoin: miter; stroke-linecap: square"/>
   </g>
   <g id="text_34">
    <!-- Retrieval Accuracy vs Feature Removal -->
    <g style="fill: #e6edf3" transform="translate(708.945509 17.213303) scale(0.2 -0.2)">
     <defs>
      <path id="LMRoman17-Regular-79" d="M 3034 2593 
L 3034 2752 
L 2630 2752 
C 2496 2752 2285 2752 2157 2758 
L 2157 2593 
C 2400 2574 2406 2395 2406 2344 
C 2406 2281 2394 2249 2362 2171 
L 1664 449 
L 902 2312 
C 870 2389 870 2440 870 2440 
C 870 2580 1018 2593 1171 2593 
L 1171 2758 
C 1018 2752 742 2752 582 2752 
C 410 2752 205 2752 64 2758 
L 64 2593 
C 410 2593 448 2561 531 2357 
L 1485 15 
C 1197 -738 1030 -1178 627 -1178 
C 557 -1178 397 -1159 282 -1044 
C 429 -1031 493 -942 493 -833 
C 493 -725 416 -629 288 -629 
C 147 -629 77 -725 77 -840 
C 77 -1095 339 -1280 627 -1280 
C 998 -1280 1229 -922 1357 -603 
L 2496 2204 
C 2656 2593 2944 2593 3034 2593 
z
" transform="scale(0.015625)"/>
     </defs>
     <use xlink:href="#LMRoman17-Regular-52" transform="scale(0.996264)"/>
     <use xlink:href="#LMRoman17-Regular-65" transform="translate(67.789779 0) scale(0.996264)"/>
     <use xlink:href="#LMRoman17-Regular-74" transform="translate(108.274589 0) scale(0.996264)"/>
     <use xlink:href="#LMRoman17-Regular-72" transform="translate(143.556116 0) scale(0.996264)"/>
     <use xlink:href="#LMRoman17-Regular-69" transform="translate(178.837644 0) scale(0.996264)"/>
     <use xlink:href="#LMRoman17-Regular-65" transform="translate(203.709661 0) scale(0.996264)"/>
     <use xlink:href="#LMRoman17-Regular-76" transform="translate(244.19447 0) scale(0.996264)"/>
     <use xlink:href="#LMRoman17-Regular-61" transform="translate(287.280866 0) scale(0.996264)"/>
     <use xlink:href="#LMRoman17-Regular-6c" transform="translate(332.971815 0) scale(0.996264)"/>
     <use xlink:href="#LMRoman17-Regular-41" transform="translate(387.91998 0) scale(0.996264)"/>
     <use xlink:href="#LMRoman17-Regular-63" transform="translate(454.387204 0) scale(0.996264)"/>
     <use xlink:href="#LMRoman17-Regular-63" transform="translate(494.872013 0) scale(0.996264)"/>
     <use xlink:href="#LMRoman17-Regular-75" transform="translate(535.356822 0) scale(0.996264)"/>
     <use xlink:href="#LMRoman17-Regular-72" transform="translate(586.25391 0) scale(0.996264)"/>
     <use xlink:href="#LMRoman17-Regular-61" transform="translate(621.535438 0) scale(0.996264)"/>
     <use xlink:href="#LMRoman17-Regular-63" transform="translate(667.226386 0) scale(0.996264)"/>
     <use xlink:href="#LMRoman17-Regular-79" transform="translate(707.711195 0) scale(0.996264)"/>
     <use xlink:href="#LMRoman17-Regular-76" transform="translate(786.078557 0) scale(0.996264)"/>
     <use xlink:href="#LMRoman17-Regular-73" transform="translate(834.369771 0) scale(0.996264)"/>
     <use xlink:href="#LMRoman17-Regular-46" transform="translate(900.249157 0) scale(0.996264)"/>
     <use xlink:href="#LMRoman17-Regular-65" transform="translate(952.425551 0) scale(0.996264)"/>
     <use xlink:href="#LMRoman17-Regular-61" transform="translate(992.91036 0) scale(0.996264)"/>
     <use xlink:href="#LMRoman17-Regular-74" transform="translate(1038.601308 0) scale(0.996264)"/>
     <use xlink:href="#LMRoman17-Regular-75" transform="translate(1073.882836 0) scale(0.996264)"/>
     <use xlink:href="#LMRoman17-Regular-72" transform="translate(1124.779924 0) scale(0.996264)"/>
     <use xlink:href="#LMRoman17-Regular-65" transform="translate(1160.061452 0) scale(0.996264)"/>
     <use xlink:href="#LMRoman17-Regular-52" transform="translate(1230.62241 0) scale(0.996264)"/>
     <use xlink:href="#LMRoman17-Regular-65" transform="translate(1298.412189 0) scale(0.996264)"/>
     <use xlink:href="#LMRoman17-Regular-6d" transform="translate(1338.896998 0) scale(0.996264)"/>
     <use xlink:href="#LMRoman17-Regular-6f" transform="translate(1415.819157 0) scale(0.996264)"/>
     <use xlink:href="#LMRoman17-Regular-76" transform="translate(1458.907652 0) scale(0.996264)"/>
     <use xlink:href="#LMRoman17-Regular-61" transform="translate(1501.994048 0) scale(0.996264)"/>
     <use xlink:href="#LMRoman17-Regular-6c" transform="translate(1547.684997 0) scale(0.996264)"/>
    </g>
   </g>
   <g id="legend_2">
    <g id="line2d_134">
     <path d="M 973.630131 43.213303 
L 989.630131 43.213303 
L 1005.630131 43.213303 
" style="fill: none; stroke: #0088cc; stroke-width: 2; stroke-linecap: round"/>
     <g>
      <use xlink:href="#me4565da787" x="989.630131" y="43.213303" style="fill: #0088cc; stroke: #0088cc; stroke-linejoin: miter"/>
     </g>
    </g>
    <g id="text_35">
     <!-- MSI-ordered -->
     <g style="fill: #e6edf3" transform="translate(1018.430131 48.813303) scale(0.16 -0.16)">
      <use xlink:href="#LMRoman17-Regular-4d" transform="scale(0.996264)"/>
      <use xlink:href="#LMRoman17-Regular-53" transform="translate(84.682471 0) scale(0.996264)"/>
      <use xlink:href="#LMRoman17-Regular-49" transform="translate(135.579559 0) scale(0.996264)"/>
      <use xlink:href="#LMRoman17-Regular-2d" transform="translate(168.217588 0) scale(0.996264)"/>
      <use xlink:href="#LMRoman17-Regular-6f" transform="translate(198.293828 0) scale(0.996264)"/>
      <use xlink:href="#LMRoman17-Regular-72" transform="translate(243.984776 0) scale(0.996264)"/>
      <use xlink:href="#LMRoman17-Regular-64" transform="translate(279.266304 0) scale(0.996264)"/>
      <use xlink:href="#LMRoman17-Regular-65" transform="translate(330.163392 0) scale(0.996264)"/>
      <use xlink:href="#LMRoman17-Regular-72" transform="translate(370.648201 0) scale(0.996264)"/>
      <use xlink:href="#LMRoman17-Regular-65" transform="translate(405.929729 0) scale(0.996264)"/>
      <use xlink:href="#LMRoman17-Regular-64" transform="translate(446.414538 0) scale(0.996264)"/>
     </g>
    </g>
    <g id="line2d_135">
     <path d="M 973.630131 65.513706 
L 989.630131 65.513706 
L 1005.630131 65.513706 
" style="fill: none; stroke: #999999; stroke-width: 2; stroke-linecap: round"/>
     <g>
      <use xlink:href="#m07ec2a20fb" x="989.630131" y="65.513706" style="fill: #999999; stroke: #999999; stroke-linejoin: miter"/>
     </g>
    </g>
    <g id="text_36">
     <!-- Random -->
     <g style="fill: #e6edf3" transform="translate(1018.430131 71.113706) scale(0.16 -0.16)">
      <use xlink:href="#LMRoman17-Regular-52" transform="scale(0.996264)"/>
      <use xlink:href="#LMRoman17-Regular-61" transform="translate(67.789779 0) scale(0.996264)"/>
      <use xlink:href="#LMRoman17-Regular-6e" transform="translate(113.480728 0) scale(0.996264)"/>
      <use xlink:href="#LMRoman17-Regular-64" transform="translate(164.377815 0) scale(0.996264)"/>
      <use xlink:href="#LMRoman17-Regular-6f" transform="translate(215.274903 0) scale(0.996264)"/>
      <use xlink:href="#LMRoman17-Regular-6d" transform="translate(260.965851 0) scale(0.996264)"/>
     </g>
    </g>
   </g>
  </g>
 </g>
 <defs>
  <clipPath id="pa27a4faa01">
   <rect x="54.748513" y="23.213303" width="492.397741" height="330.206847"/>
  </clipPath>
  <clipPath id="pa30ae993ba">
   <rect x="620.002259" y="23.213303" width="492.397741" height="330.206847"/>
  </clipPath>
 </defs>
</svg>
