<?xml version="1.0" encoding="utf-8" standalone="no"?>
<!DOCTYPE svg PUBLIC "-//W3C//DTD SVG 1.1//EN"
  "http://www.w3.org/Graphics/SVG/1.1/DTD/svg11.dtd">
<svg xmlns:xlink="http://www.w3.org/1999/xlink" width="540pt" height="396pt" viewBox="0 0 540 396" xmlns="http://www.w3.org/2000/svg" version="1.1">
 <metadata>
  <rdf:RDF xmlns:dc="http://purl.org/dc/elements/1.1/" xmlns:cc="http://creativecommons.org/ns#" xmlns:rdf="http://www.w3.org/1999/02/22-rdf-syntax-ns#">
   <cc:Work>
    <dc:type rdf:resource="http://purl.org/dc/dcmitype/StillImage"/>
    <dc:date>2026-03-19T11:53:40.747017</dc:date>
    <dc:format>image/svg+xml</dc:format>
    <dc:creator>
     <cc:Agent>
      <dc:title>Matplotlib v3.10.0, https://matplotlib.org/</dc:title>
     </cc:Agent>
    </dc:creator>
   </cc:Work>
  </rdf:RDF>
 </metadata>
 <defs>
  <style type="text/css">*{stroke-linejoin: round; stroke-linecap: butt}</style>
 </defs>
 <g id="figure_1">
  <g id="patch_1">
   <path d="M 0 396 
L 540 396 
L 540 0 
L 0 0 
L 0 396 
z
" style="fill: none"/>
  </g>
  <g id="axes_1">
   <g id="patch_2">
    <path d="M 57.831009 353.420149 
L 536.4 353.420149 
L 536.4 23.213303 
L 57.831009 23.213303 
L 57.831009 353.420149 
z
" style="fill: none"/>
   </g>
   <g id="matplotlib.axis_1">
    <g id="xtick_1">
     <g id="line2d_1">
      <path d="M 75.143991 353.420149 
L 75.143991 23.213303 
" clip-path="url(#p6dc9162348)" style="fill: none; stroke: #2f3a46; stroke-opacity: 0.35; stroke-width: 0.5; stroke-linecap: round"/>
     </g>
     <g id="line2d_2">
      <defs>
       <path id="maaf74408da" d="M 0 0 
L 0 3 
" style="stroke: #e6edf3; stroke-width: 0.5"/>
      </defs>
      <g>
       <use xlink:href="#maaf74408da" x="75.143991" y="23.213303" style="fill: #e6edf3; stroke: #e6edf3; stroke-width: 0.5"/>
      </g>
     </g>
     <g id="text_1">
      <!-- $\mathdefault{0.0}$ -->
      <g style="fill: #e6edf3" transform="translate(65.665664 367.810797) scale(0.16 -0.16)">
       <defs>
        <path id="LMRoman17-Regular-30" d="M 2688 2025 
C 2688 2416 2682 3080 2413 3591 
C 2176 4039 1798 4198 1466 4198 
C 1158 4198 768 4058 525 3597 
C 269 3118 243 2524 243 2025 
C 243 1661 250 1106 448 619 
C 723 -39 1216 -128 1466 -128 
C 1760 -128 2208 -7 2470 600 
C 2662 1042 2688 1559 2688 2025 
z
M 2278 2096 
C 2278 1680 2278 1169 2202 792 
C 2067 95 1690 -26 1466 -26 
C 1056 -26 813 325 723 812 
C 653 1188 653 1738 653 2096 
C 653 2588 653 2997 736 3387 
C 858 3929 1216 4096 1466 4096 
C 1728 4096 2067 3923 2189 3400 
C 2272 3036 2278 2607 2278 2096 
z
" transform="scale(0.015625)"/>
        <path id="LMMathItalic12-Regular-3a" d="M 1178 307 
C 1178 492 1024 619 870 619 
C 685 619 557 466 557 313 
C 557 128 710 0 864 0 
C 1050 0 1178 153 1178 307 
z
" transform="scale(0.015625)"/>
       </defs>
       <use xlink:href="#LMRoman17-Regular-30" transform="scale(0.996264)"/>
       <use xlink:href="#LMMathItalic12-Regular-3a" transform="translate(45.690948 0) scale(0.996264)"/>
       <use xlink:href="#LMRoman17-Regular-30" transform="translate(72.788125 0) scale(0.996264)"/>
      </g>
     </g>
    </g>
    <g id="xtick_2">
     <g id="line2d_3">
      <path d="M 163.044565 353.420149 
L 163.044565 23.213303 
" clip-path="url(#p6dc9162348)" style="fill: none; stroke: #2f3a46; stroke-opacity: 0.35; stroke-width: 0.5; stroke-linecap: round"/>
     </g>
     <g id="line2d_4">
      <g>
       <use xlink:href="#maaf74408da" x="163.044565" y="23.213303" style="fill: #e6edf3; stroke: #e6edf3; stroke-width: 0.5"/>
      </g>
     </g>
     <g id="text_2">
      <!-- $\mathdefault{0.2}$ -->
      <g style="fill: #e6edf3" transform="translate(153.566239 367.810797) scale(0.16 -0.16)">
       <defs>
        <path id="LMRoman17-Regular-32" d="M 2669 989 
L 2554 989 
C 2490 536 2438 459 2413 420 
C 2381 369 1920 369 1830 369 
L 602 369 
L 1824 1597 
C 2214 1967 2669 2402 2669 3035 
C 2669 3790 2067 4224 1395 4224 
C 691 4224 262 3604 262 3030 
C 262 2780 448 2748 525 2748 
C 589 2748 781 2787 781 3010 
C 781 3207 614 3264 525 3264 
C 486 3264 448 3258 422 3245 
C 544 3790 915 4058 1306 4058 
C 1862 4058 2227 3617 2227 3035 
C 2227 2479 1901 2000 1536 1584 
L 262 146 
L 262 0 
L 2515 0 
L 2669 989 
z
" transform="scale(0.015625)"/>
       </defs>
       <use xlink:href="#LMRoman17-Regular-30" transform="scale(0.996264)"/>
       <use xlink:href="#LMMathItalic12-Regular-3a" transform="translate(45.690948 0) scale(0.996264)"/>
       <use xlink:href="#LMRoman17-Regular-32" transform="translate(72.788125 0) scale(0.996264)"/>
      </g>
     </g>
    </g>
    <g id="xtick_3">
     <g id="line2d_5">
      <path d="M 250.94514 353.420149 
L 250.94514 23.213303 
" clip-path="url(#p6dc9162348)" style="fill: none; stroke: #2f3a46; stroke-opacity: 0.35; stroke-width: 0.5; stroke-linecap: round"/>
     </g>
     <g id="line2d_6">
      <g>
       <use xlink:href="#maaf74408da" x="250.94514" y="23.213303" style="fill: #e6edf3; stroke: #e6edf3; stroke-width: 0.5"/>
      </g>
     </g>
     <g id="text_3">
      <!-- $\mathdefault{0.4}$ -->
      <g style="fill: #e6edf3" transform="translate(241.466814 367.810797) scale(0.16 -0.16)">
       <defs>
        <path id="LMRoman17-Regular-34" d="M 2803 1114 
L 2803 1280 
L 2150 1280 
L 2150 4154 
C 2150 4288 2144 4288 2029 4288 
L 128 1280 
L 128 1114 
L 1779 1114 
L 1779 487 
C 1779 255 1766 192 1318 192 
L 1197 192 
L 1197 32 
C 1402 32 1747 32 1965 32 
C 2182 32 2528 32 2733 32 
L 2733 192 
L 2611 192 
C 2163 192 2150 255 2150 487 
L 2150 1114 
L 2803 1114 
z
M 1798 1280 
L 256 1280 
L 1798 3734 
L 1798 1280 
z
" transform="scale(0.015625)"/>
       </defs>
       <use xlink:href="#LMRoman17-Regular-30" transform="scale(0.996264)"/>
       <use xlink:href="#LMMathItalic12-Regular-3a" transform="translate(45.690948 0) scale(0.996264)"/>
       <use xlink:href="#LMRoman17-Regular-34" transform="translate(72.788125 0) scale(0.996264)"/>
      </g>
     </g>
    </g>
    <g id="xtick_4">
     <g id="line2d_7">
      <path d="M 338.845715 353.420149 
L 338.845715 23.213303 
" clip-path="url(#p6dc9162348)" style="fill: none; stroke: #2f3a46; stroke-opacity: 0.35; stroke-width: 0.5; stroke-linecap: round"/>
     </g>
     <g id="line2d_8">
      <g>
       <use xlink:href="#maaf74408da" x="338.845715" y="23.213303" style="fill: #e6edf3; stroke: #e6edf3; stroke-width: 0.5"/>
      </g>
     </g>
     <g id="text_4">
      <!-- $\mathdefault{0.6}$ -->
      <g style="fill: #e6edf3" transform="translate(329.367388 367.810797) scale(0.16 -0.16)">
       <defs>
        <path id="LMRoman17-Regular-36" d="M 2688 1283 
C 2688 2081 2170 2662 1517 2662 
C 1126 2662 838 2407 678 1960 
L 678 2176 
C 678 3690 1395 4032 1811 4032 
C 1946 4032 2272 4009 2400 3776 
C 2298 3776 2106 3776 2106 3553 
C 2106 3381 2246 3323 2336 3323 
C 2394 3323 2566 3348 2566 3560 
C 2566 3954 2246 4179 1805 4179 
C 1043 4179 243 3390 243 1984 
C 243 253 966 -128 1478 -128 
C 2099 -128 2688 427 2688 1283 
z
M 2253 1289 
C 2253 944 2253 690 2118 434 
C 1978 171 1773 25 1478 25 
C 691 25 691 1200 691 1436 
C 691 1896 909 2560 1504 2560 
C 1613 2560 1926 2560 2138 2120 
C 2253 1870 2253 1609 2253 1289 
z
" transform="scale(0.015625)"/>
       </defs>
       <use xlink:href="#LMRoman17-Regular-30" transform="scale(0.996264)"/>
       <use xlink:href="#LMMathItalic12-Regular-3a" transform="translate(45.690948 0) scale(0.996264)"/>
       <use xlink:href="#LMRoman17-Regular-36" transform="translate(72.788125 0) scale(0.996264)"/>
      </g>
     </g>
    </g>
    <g id="xtick_5">
     <g id="line2d_9">
      <path d="M 426.746289 353.420149 
L 426.746289 23.213303 
" clip-path="url(#p6dc9162348)" style="fill: none; stroke: #2f3a46; stroke-opacity: 0.35; stroke-width: 0.5; stroke-linecap: round"/>
     </g>
     <g id="line2d_10">
      <g>
       <use xlink:href="#maaf74408da" x="426.746289" y="23.213303" style="fill: #e6edf3; stroke: #e6edf3; stroke-width: 0.5"/>
      </g>
     </g>
     <g id="text_5">
      <!-- $\mathdefault{0.8}$ -->
      <g style="fill: #e6edf3" transform="translate(417.267963 367.810797) scale(0.16 -0.16)">
       <defs>
        <path id="LMRoman17-Regular-38" d="M 2720 1011 
C 2720 1590 2330 1858 2074 2029 
C 1984 2092 1933 2124 1741 2264 
C 2144 2468 2554 2773 2554 3263 
C 2554 3842 1990 4179 1472 4179 
C 890 4179 378 3759 378 3180 
C 378 3021 416 2747 666 2505 
C 730 2442 998 2251 1171 2130 
C 883 1983 211 1634 211 934 
C 211 279 838 -128 1459 -128 
C 2144 -128 2720 362 2720 1011 
z
M 2336 3262 
C 2336 2669 1670 2331 1638 2331 
C 1638 2331 1626 2331 1574 2370 
L 902 2822 
C 851 2854 595 3051 595 3351 
C 595 3739 998 4032 1459 4032 
C 1965 4032 2336 3676 2336 3262 
z
M 2483 851 
C 2483 381 2010 25 1472 25 
C 890 25 448 438 448 940 
C 448 1443 838 1862 1280 2060 
L 2080 1519 
C 2176 1449 2483 1240 2483 851 
z
" transform="scale(0.015625)"/>
       </defs>
       <use xlink:href="#LMRoman17-Regular-30" transform="scale(0.996264)"/>
       <use xlink:href="#LMMathItalic12-Regular-3a" transform="translate(45.690948 0) scale(0.996264)"/>
       <use xlink:href="#LMRoman17-Regular-38" transform="translate(72.788125 0) scale(0.996264)"/>
      </g>
     </g>
    </g>
    <g id="xtick_6">
     <g id="line2d_11">
      <path d="M 514.646864 353.420149 
L 514.646864 23.213303 
" clip-path="url(#p6dc9162348)" style="fill: none; stroke: #2f3a46; stroke-opacity: 0.35; stroke-width: 0.5; stroke-linecap: round"/>
     </g>
     <g id="line2d_12">
      <g>
       <use xlink:href="#maaf74408da" x="514.646864" y="23.213303" style="fill: #e6edf3; stroke: #e6edf3; stroke-width: 0.5"/>
      </g>
     </g>
     <g id="text_6">
      <!-- $\mathdefault{1.0}$ -->
      <g style="fill: #e6edf3" transform="translate(505.168538 367.810797) scale(0.16 -0.16)">
       <defs>
        <path id="LMRoman17-Regular-31" d="M 2458 0 
L 2458 160 
L 2266 160 
C 1715 160 1702 230 1702 458 
L 1702 4058 
C 1702 4192 1696 4192 1606 4192 
C 1357 3916 979 3827 621 3827 
C 602 3827 570 3827 563 3808 
C 557 3795 557 3782 557 3648 
C 755 3648 1088 3686 1344 3839 
L 1344 461 
C 1344 236 1331 160 781 160 
L 589 160 
L 589 0 
L 1523 0 
L 2458 0 
z
" transform="scale(0.015625)"/>
       </defs>
       <use xlink:href="#LMRoman17-Regular-31" transform="scale(0.996264)"/>
       <use xlink:href="#LMMathItalic12-Regular-3a" transform="translate(45.690948 0) scale(0.996264)"/>
       <use xlink:href="#LMRoman17-Regular-30" transform="translate(72.788125 0) scale(0.996264)"/>
      </g>
     </g>
    </g>
    <g id="xtick_7">
     <g id="line2d_13">
      <defs>
       <path id="m44897ee0a2" d="M 0 0 
L 0 1.5 
" style="stroke: #e6edf3; stroke-width: 0.5"/>
      </defs>
      <g>
       <use xlink:href="#m44897ee0a2" x="97.119134" y="23.213303" style="fill: #e6edf3; stroke: #e6edf3; stroke-width: 0.5"/>
      </g>
     </g>
    </g>
    <g id="xtick_8">
     <g id="line2d_14">
      <g>
       <use xlink:href="#m44897ee0a2" x="119.094278" y="23.213303" style="fill: #e6edf3; stroke: #e6edf3; stroke-width: 0.5"/>
      </g>
     </g>
    </g>
    <g id="xtick_9">
     <g id="line2d_15">
      <g>
       <use xlink:href="#m44897ee0a2" x="141.069422" y="23.213303" style="fill: #e6edf3; stroke: #e6edf3; stroke-width: 0.5"/>
      </g>
     </g>
    </g>
    <g id="xtick_10">
     <g id="line2d_16">
      <g>
       <use xlink:href="#m44897ee0a2" x="185.019709" y="23.213303" style="fill: #e6edf3; stroke: #e6edf3; stroke-width: 0.5"/>
      </g>
     </g>
    </g>
    <g id="xtick_11">
     <g id="line2d_17">
      <g>
       <use xlink:href="#m44897ee0a2" x="206.994853" y="23.213303" style="fill: #e6edf3; stroke: #e6edf3; stroke-width: 0.5"/>
      </g>
     </g>
    </g>
    <g id="xtick_12">
     <g id="line2d_18">
      <g>
       <use xlink:href="#m44897ee0a2" x="228.969996" y="23.213303" style="fill: #e6edf3; stroke: #e6edf3; stroke-width: 0.5"/>
      </g>
     </g>
    </g>
    <g id="xtick_13">
     <g id="line2d_19">
      <g>
       <use xlink:href="#m44897ee0a2" x="272.920284" y="23.213303" style="fill: #e6edf3; stroke: #e6edf3; stroke-width: 0.5"/>
      </g>
     </g>
    </g>
    <g id="xtick_14">
     <g id="line2d_20">
      <g>
       <use xlink:href="#m44897ee0a2" x="294.895427" y="23.213303" style="fill: #e6edf3; stroke: #e6edf3; stroke-width: 0.5"/>
      </g>
     </g>
    </g>
    <g id="xtick_15">
     <g id="line2d_21">
      <g>
       <use xlink:href="#m44897ee0a2" x="316.870571" y="23.213303" style="fill: #e6edf3; stroke: #e6edf3; stroke-width: 0.5"/>
      </g>
     </g>
    </g>
    <g id="xtick_16">
     <g id="line2d_22">
      <g>
       <use xlink:href="#m44897ee0a2" x="360.820858" y="23.213303" style="fill: #e6edf3; stroke: #e6edf3; stroke-width: 0.5"/>
      </g>
     </g>
    </g>
    <g id="xtick_17">
     <g id="line2d_23">
      <g>
       <use xlink:href="#m44897ee0a2" x="382.796002" y="23.213303" style="fill: #e6edf3; stroke: #e6edf3; stroke-width: 0.5"/>
      </g>
     </g>
    </g>
    <g id="xtick_18">
     <g id="line2d_24">
      <g>
       <use xlink:href="#m44897ee0a2" x="404.771146" y="23.213303" style="fill: #e6edf3; stroke: #e6edf3; stroke-width: 0.5"/>
      </g>
     </g>
    </g>
    <g id="xtick_19">
     <g id="line2d_25">
      <g>
       <use xlink:href="#m44897ee0a2" x="448.721433" y="23.213303" style="fill: #e6edf3; stroke: #e6edf3; stroke-width: 0.5"/>
      </g>
     </g>
    </g>
    <g id="xtick_20">
     <g id="line2d_26">
      <g>
       <use xlink:href="#m44897ee0a2" x="470.696577" y="23.213303" style="fill: #e6edf3; stroke: #e6edf3; stroke-width: 0.5"/>
      </g>
     </g>
    </g>
    <g id="xtick_21">
     <g id="line2d_27">
      <g>
       <use xlink:href="#m44897ee0a2" x="492.67172" y="23.213303" style="fill: #e6edf3; stroke: #e6edf3; stroke-width: 0.5"/>
      </g>
     </g>
    </g>
    <g id="text_7">
     <!-- MSI$_k$ -->
     <g style="fill: #e6edf3" transform="translate(276.742311 388.524503) scale(0.2 -0.2)">
      <defs>
       <path id="LMRoman17-Regular-4d" d="M 5094 -13 
L 5094 153 
C 4653 153 4582 153 4582 438 
L 4582 3875 
C 4582 4160 4653 4160 5094 4160 
L 5094 4326 
L 4282 4326 
C 4147 4326 4141 4320 4102 4224 
L 2720 502 
L 1338 4230 
C 1299 4326 1293 4326 1158 4326 
L 339 4326 
L 339 4160 
C 781 4160 851 4160 851 3875 
L 851 610 
C 851 451 851 153 339 153 
L 339 -13 
C 486 0 755 0 915 0 
C 1075 0 1344 0 1491 -13 
L 1491 153 
C 979 153 979 451 979 610 
L 979 4135 
L 986 4135 
L 2490 89 
C 2515 25 2528 -13 2579 -13 
C 2630 -13 2643 25 2669 89 
L 4186 4166 
L 4192 4166 
L 4192 438 
C 4192 153 4122 153 3680 153 
L 3680 -13 
C 3853 0 4198 0 4384 0 
C 4570 0 4922 0 5094 -13 
z
" transform="scale(0.015625)"/>
       <path id="LMRoman17-Regular-53" d="M 2970 1124 
C 2970 1454 2848 1708 2778 1823 
C 2509 2230 2221 2306 1914 2382 
C 1869 2402 1856 2402 1498 2490 
C 1152 2579 1005 2624 845 2796 
C 666 2992 602 3196 602 3399 
C 602 3812 934 4263 1478 4263 
C 2157 4263 2579 3786 2675 2993 
C 2694 2878 2701 2872 2746 2872 
C 2803 2872 2803 2891 2803 2999 
L 2803 4290 
C 2803 4404 2797 4411 2758 4411 
C 2720 4411 2707 4385 2682 4328 
L 2490 3907 
C 2246 4257 1875 4416 1472 4416 
C 819 4416 294 3901 294 3253 
C 294 3056 339 2776 557 2510 
C 794 2218 1018 2167 1530 2033 
C 1722 1982 2042 1899 2106 1874 
C 2470 1722 2662 1341 2662 985 
C 2662 527 2336 38 1779 38 
C 1094 38 454 419 410 1311 
C 403 1413 397 1419 352 1419 
C 301 1419 294 1413 294 1285 
L 294 -1 
C 294 -115 301 -122 339 -122 
C 384 -122 397 -90 486 108 
C 493 127 493 140 614 381 
C 934 -39 1472 -128 1779 -128 
C 2477 -128 2970 451 2970 1124 
z
" transform="scale(0.015625)"/>
       <path id="LMRoman17-Regular-49" d="M 1798 0 
L 1798 160 
C 1338 160 1261 160 1261 447 
L 1261 3905 
C 1261 4192 1338 4192 1798 4192 
L 1798 4352 
C 1594 4352 1267 4352 1050 4352 
C 832 4352 506 4352 301 4352 
L 301 4192 
C 762 4192 838 4192 838 3905 
L 838 447 
C 838 160 762 160 301 160 
L 301 0 
C 506 0 832 0 1050 0 
C 1267 0 1594 0 1798 0 
z
" transform="scale(0.015625)"/>
       <path id="LMMathItalic12-Regular-6b" d="M 3072 913 
C 3072 945 3046 971 3008 971 
C 2950 971 2944 945 2918 843 
C 2829 511 2694 64 2368 64 
C 2240 64 2157 128 2157 370 
C 2157 492 2182 632 2208 728 
C 2234 843 2234 849 2234 926 
C 2234 1303 1894 1514 1306 1590 
C 1536 1731 1766 1980 1856 2076 
C 2221 2484 2470 2689 2765 2689 
C 2912 2689 2950 2650 2995 2612 
C 2758 2586 2669 2420 2669 2293 
C 2669 2139 2790 2088 2880 2088 
C 3053 2088 3206 2235 3206 2440 
C 3206 2625 3059 2816 2771 2816 
C 2419 2816 2131 2567 1677 2056 
C 1613 1980 1376 1737 1139 1648 
L 1798 4257 
C 1805 4283 1818 4321 1818 4352 
C 1818 4416 1741 4416 1741 4416 
L 1389 4377 
C 1280 4377 1184 4358 1069 4358 
C 915 4345 870 4339 870 4224 
C 870 4160 934 4160 998 4160 
C 1325 4160 1325 4103 1325 4040 
C 1325 4015 1325 4002 1293 3888 
L 378 248 
C 352 152 352 140 352 101 
C 352 -38 461 -64 525 -64 
C 704 -64 742 77 794 275 
C 851 511 826 422 1094 1469 
C 1555 1418 1830 1226 1830 920 
C 1830 881 1830 856 1811 760 
C 1786 664 1786 588 1786 556 
C 1786 185 2029 -64 2355 -64 
C 2650 -64 2803 204 2854 294 
C 2989 530 3072 888 3072 913 
z
" transform="scale(0.015625)"/>
      </defs>
      <use xlink:href="#LMRoman17-Regular-4d" transform="scale(0.996264)"/>
      <use xlink:href="#LMRoman17-Regular-53" transform="translate(84.682471 0) scale(0.996264)"/>
      <use xlink:href="#LMRoman17-Regular-49" transform="translate(135.579559 0) scale(0.996264)"/>
      <use xlink:href="#LMMathItalic12-Regular-6b" transform="translate(168.217588 -14.943915) scale(0.697382)"/>
     </g>
    </g>
   </g>
   <g id="matplotlib.axis_2">
    <g id="ytick_1">
     <g id="line2d_28">
      <path d="M 57.831009 353.420149 
L 536.4 353.420149 
" clip-path="url(#p6dc9162348)" style="fill: none; stroke: #2f3a46; stroke-opacity: 0.35; stroke-width: 0.5; stroke-linecap: round"/>
     </g>
     <g id="line2d_29">
      <defs>
       <path id="m491ba15552" d="M 0 0 
L -3 0 
" style="stroke: #e6edf3; stroke-width: 0.5"/>
      </defs>
      <g>
       <use xlink:href="#m491ba15552" x="536.4" y="353.420149" style="fill: #e6edf3; stroke: #e6edf3; stroke-width: 0.5"/>
      </g>
     </g>
     <g id="text_8">
      <!-- $\mathdefault{0}$ -->
      <g style="fill: #e6edf3" transform="translate(47.020456 358.865473) scale(0.16 -0.16)">
       <use xlink:href="#LMRoman17-Regular-30" transform="scale(0.996264)"/>
      </g>
     </g>
    </g>
    <g id="ytick_2">
     <g id="line2d_30">
      <path d="M 57.831009 300.962649 
L 536.4 300.962649 
" clip-path="url(#p6dc9162348)" style="fill: none; stroke: #2f3a46; stroke-opacity: 0.35; stroke-width: 0.5; stroke-linecap: round"/>
     </g>
     <g id="line2d_31">
      <g>
       <use xlink:href="#m491ba15552" x="536.4" y="300.962649" style="fill: #e6edf3; stroke: #e6edf3; stroke-width: 0.5"/>
      </g>
     </g>
     <g id="text_9">
      <!-- $\mathdefault{200}$ -->
      <g style="fill: #e6edf3" transform="translate(32.399352 306.407973) scale(0.16 -0.16)">
       <use xlink:href="#LMRoman17-Regular-32" transform="scale(0.996264)"/>
       <use xlink:href="#LMRoman17-Regular-30" transform="translate(45.690948 0) scale(0.996264)"/>
       <use xlink:href="#LMRoman17-Regular-30" transform="translate(91.381897 0) scale(0.996264)"/>
      </g>
     </g>
    </g>
    <g id="ytick_3">
     <g id="line2d_32">
      <path d="M 57.831009 248.50515 
L 536.4 248.50515 
" clip-path="url(#p6dc9162348)" style="fill: none; stroke: #2f3a46; stroke-opacity: 0.35; stroke-width: 0.5; stroke-linecap: round"/>
     </g>
     <g id="line2d_33">
      <g>
       <use xlink:href="#m491ba15552" x="536.4" y="248.50515" style="fill: #e6edf3; stroke: #e6edf3; stroke-width: 0.5"/>
      </g>
     </g>
     <g id="text_10">
      <!-- $\mathdefault{400}$ -->
      <g style="fill: #e6edf3" transform="translate(32.399352 253.950474) scale(0.16 -0.16)">
       <use xlink:href="#LMRoman17-Regular-34" transform="scale(0.996264)"/>
       <use xlink:href="#LMRoman17-Regular-30" transform="translate(45.690948 0) scale(0.996264)"/>
       <use xlink:href="#LMRoman17-Regular-30" transform="translate(91.381897 0) scale(0.996264)"/>
      </g>
     </g>
    </g>
    <g id="ytick_4">
     <g id="line2d_34">
      <path d="M 57.831009 196.04765 
L 536.4 196.04765 
" clip-path="url(#p6dc9162348)" style="fill: none; stroke: #2f3a46; stroke-opacity: 0.35; stroke-width: 0.5; stroke-linecap: round"/>
     </g>
     <g id="line2d_35">
      <g>
       <use xlink:href="#m491ba15552" x="536.4" y="196.04765" style="fill: #e6edf3; stroke: #e6edf3; stroke-width: 0.5"/>
      </g>
     </g>
     <g id="text_11">
      <!-- $\mathdefault{600}$ -->
      <g style="fill: #e6edf3" transform="translate(32.399352 201.492974) scale(0.16 -0.16)">
       <use xlink:href="#LMRoman17-Regular-36" transform="scale(0.996264)"/>
       <use xlink:href="#LMRoman17-Regular-30" transform="translate(45.690948 0) scale(0.996264)"/>
       <use xlink:href="#LMRoman17-Regular-30" transform="translate(91.381897 0) scale(0.996264)"/>
      </g>
     </g>
    </g>
    <g id="ytick_5">
     <g id="line2d_36">
      <path d="M 57.831009 143.59015 
L 536.4 143.59015 
" clip-path="url(#p6dc9162348)" style="fill: none; stroke: #2f3a46; stroke-opacity: 0.35; stroke-width: 0.5; stroke-linecap: round"/>
     </g>
     <g id="line2d_37">
      <g>
       <use xlink:href="#m491ba15552" x="536.4" y="143.59015" style="fill: #e6edf3; stroke: #e6edf3; stroke-width: 0.5"/>
      </g>
     </g>
     <g id="text_12">
      <!-- $\mathdefault{800}$ -->
      <g style="fill: #e6edf3" transform="translate(32.399352 149.035474) scale(0.16 -0.16)">
       <use xlink:href="#LMRoman17-Regular-38" transform="scale(0.996264)"/>
       <use xlink:href="#LMRoman17-Regular-30" transform="translate(45.690948 0) scale(0.996264)"/>
       <use xlink:href="#LMRoman17-Regular-30" transform="translate(91.381897 0) scale(0.996264)"/>
      </g>
     </g>
    </g>
    <g id="ytick_6">
     <g id="line2d_38">
      <path d="M 57.831009 91.13265 
L 536.4 91.13265 
" clip-path="url(#p6dc9162348)" style="fill: none; stroke: #2f3a46; stroke-opacity: 0.35; stroke-width: 0.5; stroke-linecap: round"/>
     </g>
     <g id="line2d_39">
      <g>
       <use xlink:href="#m491ba15552" x="536.4" y="91.13265" style="fill: #e6edf3; stroke: #e6edf3; stroke-width: 0.5"/>
      </g>
     </g>
     <g id="text_13">
      <!-- $\mathdefault{1000}$ -->
      <g style="fill: #e6edf3" transform="translate(25.088799 96.577974) scale(0.16 -0.16)">
       <use xlink:href="#LMRoman17-Regular-31" transform="scale(0.996264)"/>
       <use xlink:href="#LMRoman17-Regular-30" transform="translate(45.690948 0) scale(0.996264)"/>
       <use xlink:href="#LMRoman17-Regular-30" transform="translate(91.381897 0) scale(0.996264)"/>
       <use xlink:href="#LMRoman17-Regular-30" transform="translate(137.072845 0) scale(0.996264)"/>
      </g>
     </g>
    </g>
    <g id="ytick_7">
     <g id="line2d_40">
      <path d="M 57.831009 38.675151 
L 536.4 38.675151 
" clip-path="url(#p6dc9162348)" style="fill: none; stroke: #2f3a46; stroke-opacity: 0.35; stroke-width: 0.5; stroke-linecap: round"/>
     </g>
     <g id="line2d_41">
      <g>
       <use xlink:href="#m491ba15552" x="536.4" y="38.675151" style="fill: #e6edf3; stroke: #e6edf3; stroke-width: 0.5"/>
      </g>
     </g>
     <g id="text_14">
      <!-- $\mathdefault{1200}$ -->
      <g style="fill: #e6edf3" transform="translate(25.088799 44.120475) scale(0.16 -0.16)">
       <use xlink:href="#LMRoman17-Regular-31" transform="scale(0.996264)"/>
       <use xlink:href="#LMRoman17-Regular-32" transform="translate(45.690948 0) scale(0.996264)"/>
       <use xlink:href="#LMRoman17-Regular-30" transform="translate(91.381897 0) scale(0.996264)"/>
       <use xlink:href="#LMRoman17-Regular-30" transform="translate(137.072845 0) scale(0.996264)"/>
      </g>
     </g>
    </g>
    <g id="ytick_8">
     <g id="line2d_42">
      <defs>
       <path id="m4b6d99499f" d="M 0 0 
L -1.5 0 
" style="stroke: #e6edf3; stroke-width: 0.5"/>
      </defs>
      <g>
       <use xlink:href="#m4b6d99499f" x="536.4" y="340.305774" style="fill: #e6edf3; stroke: #e6edf3; stroke-width: 0.5"/>
      </g>
     </g>
    </g>
    <g id="ytick_9">
     <g id="line2d_43">
      <g>
       <use xlink:href="#m4b6d99499f" x="536.4" y="327.191399" style="fill: #e6edf3; stroke: #e6edf3; stroke-width: 0.5"/>
      </g>
     </g>
    </g>
    <g id="ytick_10">
     <g id="line2d_44">
      <g>
       <use xlink:href="#m4b6d99499f" x="536.4" y="314.077024" style="fill: #e6edf3; stroke: #e6edf3; stroke-width: 0.5"/>
      </g>
     </g>
    </g>
    <g id="ytick_11">
     <g id="line2d_45">
      <g>
       <use xlink:href="#m4b6d99499f" x="536.4" y="287.848274" style="fill: #e6edf3; stroke: #e6edf3; stroke-width: 0.5"/>
      </g>
     </g>
    </g>
    <g id="ytick_12">
     <g id="line2d_46">
      <g>
       <use xlink:href="#m4b6d99499f" x="536.4" y="274.733899" style="fill: #e6edf3; stroke: #e6edf3; stroke-width: 0.5"/>
      </g>
     </g>
    </g>
    <g id="ytick_13">
     <g id="line2d_47">
      <g>
       <use xlink:href="#m4b6d99499f" x="536.4" y="261.619524" style="fill: #e6edf3; stroke: #e6edf3; stroke-width: 0.5"/>
      </g>
     </g>
    </g>
    <g id="ytick_14">
     <g id="line2d_48">
      <g>
       <use xlink:href="#m4b6d99499f" x="536.4" y="235.390775" style="fill: #e6edf3; stroke: #e6edf3; stroke-width: 0.5"/>
      </g>
     </g>
    </g>
    <g id="ytick_15">
     <g id="line2d_49">
      <g>
       <use xlink:href="#m4b6d99499f" x="536.4" y="222.2764" style="fill: #e6edf3; stroke: #e6edf3; stroke-width: 0.5"/>
      </g>
     </g>
    </g>
    <g id="ytick_16">
     <g id="line2d_50">
      <g>
       <use xlink:href="#m4b6d99499f" x="536.4" y="209.162025" style="fill: #e6edf3; stroke: #e6edf3; stroke-width: 0.5"/>
      </g>
     </g>
    </g>
    <g id="ytick_17">
     <g id="line2d_51">
      <g>
       <use xlink:href="#m4b6d99499f" x="536.4" y="182.933275" style="fill: #e6edf3; stroke: #e6edf3; stroke-width: 0.5"/>
      </g>
     </g>
    </g>
    <g id="ytick_18">
     <g id="line2d_52">
      <g>
       <use xlink:href="#m4b6d99499f" x="536.4" y="169.8189" style="fill: #e6edf3; stroke: #e6edf3; stroke-width: 0.5"/>
      </g>
     </g>
    </g>
    <g id="ytick_19">
     <g id="line2d_53">
      <g>
       <use xlink:href="#m4b6d99499f" x="536.4" y="156.704525" style="fill: #e6edf3; stroke: #e6edf3; stroke-width: 0.5"/>
      </g>
     </g>
    </g>
    <g id="ytick_20">
     <g id="line2d_54">
      <g>
       <use xlink:href="#m4b6d99499f" x="536.4" y="130.475775" style="fill: #e6edf3; stroke: #e6edf3; stroke-width: 0.5"/>
      </g>
     </g>
    </g>
    <g id="ytick_21">
     <g id="line2d_55">
      <g>
       <use xlink:href="#m4b6d99499f" x="536.4" y="117.3614" style="fill: #e6edf3; stroke: #e6edf3; stroke-width: 0.5"/>
      </g>
     </g>
    </g>
    <g id="ytick_22">
     <g id="line2d_56">
      <g>
       <use xlink:href="#m4b6d99499f" x="536.4" y="104.247025" style="fill: #e6edf3; stroke: #e6edf3; stroke-width: 0.5"/>
      </g>
     </g>
    </g>
    <g id="ytick_23">
     <g id="line2d_57">
      <g>
       <use xlink:href="#m4b6d99499f" x="536.4" y="78.018275" style="fill: #e6edf3; stroke: #e6edf3; stroke-width: 0.5"/>
      </g>
     </g>
    </g>
    <g id="ytick_24">
     <g id="line2d_58">
      <g>
       <use xlink:href="#m4b6d99499f" x="536.4" y="64.9039" style="fill: #e6edf3; stroke: #e6edf3; stroke-width: 0.5"/>
      </g>
     </g>
    </g>
    <g id="ytick_25">
     <g id="line2d_59">
      <g>
       <use xlink:href="#m4b6d99499f" x="536.4" y="51.789526" style="fill: #e6edf3; stroke: #e6edf3; stroke-width: 0.5"/>
      </g>
     </g>
    </g>
    <g id="ytick_26">
     <g id="line2d_60">
      <g>
       <use xlink:href="#m4b6d99499f" x="536.4" y="25.560776" style="fill: #e6edf3; stroke: #e6edf3; stroke-width: 0.5"/>
      </g>
     </g>
    </g>
    <g id="text_15">
     <!-- Count -->
     <g style="fill: #e6edf3" transform="translate(17.213303 212.984118) rotate(-90) scale(0.2 -0.2)">
      <defs>
       <path id="LMRoman17-Regular-43" d="M 3974 1461 
C 3974 1524 3974 1550 3917 1550 
C 3866 1550 3866 1531 3859 1474 
C 3808 585 3168 38 2477 38 
C 1824 38 781 495 781 2147 
C 781 3805 1843 4250 2464 4250 
C 3187 4250 3712 3628 3834 2745 
C 3846 2668 3846 2655 3904 2655 
C 3974 2655 3974 2668 3974 2783 
L 3974 4289 
C 3974 4403 3968 4410 3930 4410 
C 3904 4410 3898 4403 3853 4327 
L 3571 3792 
C 3258 4187 2874 4416 2381 4416 
C 1286 4416 294 3456 294 2148 
C 294 826 1286 -128 2387 -128 
C 3366 -128 3974 730 3974 1461 
z
" transform="scale(0.015625)"/>
       <path id="LMRoman17-Regular-6f" d="M 2758 1356 
C 2758 2176 2163 2816 1466 2816 
C 768 2816 173 2176 173 1356 
C 173 551 768 -64 1466 -64 
C 2163 -64 2758 551 2758 1356 
z
M 2349 1408 
C 2349 1158 2336 775 2163 467 
C 1984 173 1709 51 1466 51 
C 1165 51 909 230 762 480 
C 602 767 582 1126 582 1408 
C 582 1677 595 2010 762 2298 
C 890 2509 1139 2714 1466 2714 
C 1754 2714 1997 2554 2150 2330 
C 2349 2029 2349 1607 2349 1408 
z
" transform="scale(0.015625)"/>
       <path id="LMRoman17-Regular-75" d="M 3091 -63 
L 3091 128 
C 2714 128 2656 166 2656 473 
L 2656 2763 
L 1882 2693 
L 1882 2528 
C 2259 2528 2317 2489 2317 2186 
L 2317 1032 
C 2317 500 2029 38 1555 38 
C 1030 38 986 348 986 678 
L 986 2763 
L 211 2693 
L 211 2528 
C 467 2528 640 2528 646 2274 
L 646 1058 
C 646 633 646 361 813 183 
C 896 101 1056 -64 1517 -64 
C 2061 -64 2272 377 2323 506 
L 2330 506 
L 2330 -63 
L 3091 -63 
z
" transform="scale(0.015625)"/>
       <path id="LMRoman17-Regular-6e" d="M 3091 -13 
L 3091 153 
C 2682 153 2656 178 2656 428 
L 2656 1933 
C 2656 2259 2592 2790 1837 2790 
C 1331 2790 1069 2400 973 2144 
L 966 2144 
L 966 2790 
L 211 2720 
L 211 2554 
C 589 2554 646 2515 646 2208 
L 646 428 
C 646 184 621 153 211 153 
L 211 -13 
C 365 0 646 0 813 0 
C 979 0 1267 0 1421 -13 
L 1421 153 
C 1011 153 986 178 986 428 
L 986 1658 
C 986 2247 1344 2688 1792 2688 
C 2266 2688 2317 2266 2317 1958 
L 2317 428 
C 2317 184 2291 153 1882 153 
L 1882 -13 
C 2035 0 2317 0 2483 0 
C 2650 0 2938 0 3091 -13 
z
" transform="scale(0.015625)"/>
       <path id="LMRoman17-Regular-74" d="M 1965 777 
L 1965 1140 
L 1850 1140 
L 1850 783 
C 1850 344 1677 51 1408 51 
C 1222 51 966 178 966 758 
L 966 2560 
L 1862 2560 
L 1862 2725 
L 966 2725 
L 966 3904 
L 851 3904 
C 838 3245 614 2668 70 2668 
L 70 2560 
L 627 2560 
L 627 771 
C 627 650 627 -64 1370 -64 
C 1747 -64 1965 306 1965 777 
z
" transform="scale(0.015625)"/>
      </defs>
      <use xlink:href="#LMRoman17-Regular-43" transform="scale(0.996264)"/>
      <use xlink:href="#LMRoman17-Regular-6f" transform="translate(66.509789 0) scale(0.996264)"/>
      <use xlink:href="#LMRoman17-Regular-75" transform="translate(112.200738 0) scale(0.996264)"/>
      <use xlink:href="#LMRoman17-Regular-6e" transform="translate(163.097825 0) scale(0.996264)"/>
      <use xlink:href="#LMRoman17-Regular-74" transform="translate(211.392459 0) scale(0.996264)"/>
     </g>
    </g>
   </g>
   <g id="patch_3">
    <path d="M 79.584145 353.420149 
L 86.83519 353.420149 
L 86.83519 338.732049 
L 79.584145 338.732049 
z
" clip-path="url(#p6dc9162348)" style="fill: #e6550d; fill-opacity: 0.6; stroke: #ffffff; stroke-width: 0.676364; stroke-linejoin: miter"/>
   </g>
   <g id="patch_4">
    <path d="M 86.83519 353.420149 
L 94.086235 353.420149 
L 94.086235 336.371462 
L 86.83519 336.371462 
z
" clip-path="url(#p6dc9162348)" style="fill: #e6550d; fill-opacity: 0.6; stroke: #ffffff; stroke-width: 0.676364; stroke-linejoin: miter"/>
   </g>
   <g id="patch_5">
    <path d="M 94.086235 353.420149 
L 101.337281 353.420149 
L 101.337281 340.830349 
L 94.086235 340.830349 
z
" clip-path="url(#p6dc9162348)" style="fill: #e6550d; fill-opacity: 0.6; stroke: #ffffff; stroke-width: 0.676364; stroke-linejoin: miter"/>
   </g>
   <g id="patch_6">
    <path d="M 101.337281 353.420149 
L 108.588326 353.420149 
L 108.588326 341.879499 
L 101.337281 341.879499 
z
" clip-path="url(#p6dc9162348)" style="fill: #e6550d; fill-opacity: 0.6; stroke: #ffffff; stroke-width: 0.676364; stroke-linejoin: miter"/>
   </g>
   <g id="patch_7">
    <path d="M 108.588326 353.420149 
L 115.839371 353.420149 
L 115.839371 341.092637 
L 108.588326 341.092637 
z
" clip-path="url(#p6dc9162348)" style="fill: #e6550d; fill-opacity: 0.6; stroke: #ffffff; stroke-width: 0.676364; stroke-linejoin: miter"/>
   </g>
   <g id="patch_8">
    <path d="M 115.839371 353.420149 
L 123.090417 353.420149 
L 123.090417 341.092637 
L 115.839371 341.092637 
z
" clip-path="url(#p6dc9162348)" style="fill: #e6550d; fill-opacity: 0.6; stroke: #ffffff; stroke-width: 0.676364; stroke-linejoin: miter"/>
   </g>
   <g id="patch_9">
    <path d="M 123.090417 353.420149 
L 130.341462 353.420149 
L 130.341462 337.158324 
L 123.090417 337.158324 
z
" clip-path="url(#p6dc9162348)" style="fill: #e6550d; fill-opacity: 0.6; stroke: #ffffff; stroke-width: 0.676364; stroke-linejoin: miter"/>
   </g>
   <g id="patch_10">
    <path d="M 130.341462 353.420149 
L 137.592507 353.420149 
L 137.592507 344.240087 
L 130.341462 344.240087 
z
" clip-path="url(#p6dc9162348)" style="fill: #e6550d; fill-opacity: 0.6; stroke: #ffffff; stroke-width: 0.676364; stroke-linejoin: miter"/>
   </g>
   <g id="patch_11">
    <path d="M 137.592507 353.420149 
L 144.843553 353.420149 
L 144.843553 338.469762 
L 137.592507 338.469762 
z
" clip-path="url(#p6dc9162348)" style="fill: #e6550d; fill-opacity: 0.6; stroke: #ffffff; stroke-width: 0.676364; stroke-linejoin: miter"/>
   </g>
   <g id="patch_12">
    <path d="M 144.843553 353.420149 
L 152.094598 353.420149 
L 152.094598 339.256624 
L 144.843553 339.256624 
z
" clip-path="url(#p6dc9162348)" style="fill: #e6550d; fill-opacity: 0.6; stroke: #ffffff; stroke-width: 0.676364; stroke-linejoin: miter"/>
   </g>
   <g id="patch_13">
    <path d="M 152.094598 353.420149 
L 159.345643 353.420149 
L 159.345643 336.633749 
L 152.094598 336.633749 
z
" clip-path="url(#p6dc9162348)" style="fill: #e6550d; fill-opacity: 0.6; stroke: #ffffff; stroke-width: 0.676364; stroke-linejoin: miter"/>
   </g>
   <g id="patch_14">
    <path d="M 159.345643 353.420149 
L 166.596689 353.420149 
L 166.596689 336.371462 
L 159.345643 336.371462 
z
" clip-path="url(#p6dc9162348)" style="fill: #e6550d; fill-opacity: 0.6; stroke: #ffffff; stroke-width: 0.676364; stroke-linejoin: miter"/>
   </g>
   <g id="patch_15">
    <path d="M 166.596689 353.420149 
L 173.847734 353.420149 
L 173.847734 341.092637 
L 166.596689 341.092637 
z
" clip-path="url(#p6dc9162348)" style="fill: #e6550d; fill-opacity: 0.6; stroke: #ffffff; stroke-width: 0.676364; stroke-linejoin: miter"/>
   </g>
   <g id="patch_16">
    <path d="M 173.847734 353.420149 
L 181.098779 353.420149 
L 181.098779 338.732049 
L 173.847734 338.732049 
z
" clip-path="url(#p6dc9162348)" style="fill: #e6550d; fill-opacity: 0.6; stroke: #ffffff; stroke-width: 0.676364; stroke-linejoin: miter"/>
   </g>
   <g id="patch_17">
    <path d="M 181.098779 353.420149 
L 188.349825 353.420149 
L 188.349825 339.781199 
L 181.098779 339.781199 
z
" clip-path="url(#p6dc9162348)" style="fill: #e6550d; fill-opacity: 0.6; stroke: #ffffff; stroke-width: 0.676364; stroke-linejoin: miter"/>
   </g>
   <g id="patch_18">
    <path d="M 188.349825 353.420149 
L 195.60087 353.420149 
L 195.60087 335.846887 
L 188.349825 335.846887 
z
" clip-path="url(#p6dc9162348)" style="fill: #e6550d; fill-opacity: 0.6; stroke: #ffffff; stroke-width: 0.676364; stroke-linejoin: miter"/>
   </g>
   <g id="patch_19">
    <path d="M 195.60087 353.420149 
L 202.851915 353.420149 
L 202.851915 339.781199 
L 195.60087 339.781199 
z
" clip-path="url(#p6dc9162348)" style="fill: #e6550d; fill-opacity: 0.6; stroke: #ffffff; stroke-width: 0.676364; stroke-linejoin: miter"/>
   </g>
   <g id="patch_20">
    <path d="M 202.851915 353.420149 
L 210.10296 353.420149 
L 210.10296 338.469762 
L 202.851915 338.469762 
z
" clip-path="url(#p6dc9162348)" style="fill: #e6550d; fill-opacity: 0.6; stroke: #ffffff; stroke-width: 0.676364; stroke-linejoin: miter"/>
   </g>
   <g id="patch_21">
    <path d="M 210.10296 353.420149 
L 217.354006 353.420149 
L 217.354006 339.518912 
L 210.10296 339.518912 
z
" clip-path="url(#p6dc9162348)" style="fill: #e6550d; fill-opacity: 0.6; stroke: #ffffff; stroke-width: 0.676364; stroke-linejoin: miter"/>
   </g>
   <g id="patch_22">
    <path d="M 217.354006 353.420149 
L 224.605051 353.420149 
L 224.605051 335.846887 
L 217.354006 335.846887 
z
" clip-path="url(#p6dc9162348)" style="fill: #e6550d; fill-opacity: 0.6; stroke: #ffffff; stroke-width: 0.676364; stroke-linejoin: miter"/>
   </g>
   <g id="patch_23">
    <path d="M 224.605051 353.420149 
L 231.856096 353.420149 
L 231.856096 341.092637 
L 224.605051 341.092637 
z
" clip-path="url(#p6dc9162348)" style="fill: #e6550d; fill-opacity: 0.6; stroke: #ffffff; stroke-width: 0.676364; stroke-linejoin: miter"/>
   </g>
   <g id="patch_24">
    <path d="M 231.856096 353.420149 
L 239.107142 353.420149 
L 239.107142 334.273162 
L 231.856096 334.273162 
z
" clip-path="url(#p6dc9162348)" style="fill: #e6550d; fill-opacity: 0.6; stroke: #ffffff; stroke-width: 0.676364; stroke-linejoin: miter"/>
   </g>
   <g id="patch_25">
    <path d="M 239.107142 353.420149 
L 246.358187 353.420149 
L 246.358187 336.109174 
L 239.107142 336.109174 
z
" clip-path="url(#p6dc9162348)" style="fill: #e6550d; fill-opacity: 0.6; stroke: #ffffff; stroke-width: 0.676364; stroke-linejoin: miter"/>
   </g>
   <g id="patch_26">
    <path d="M 246.358187 353.420149 
L 253.609232 353.420149 
L 253.609232 336.109174 
L 246.358187 336.109174 
z
" clip-path="url(#p6dc9162348)" style="fill: #e6550d; fill-opacity: 0.6; stroke: #ffffff; stroke-width: 0.676364; stroke-linejoin: miter"/>
   </g>
   <g id="patch_27">
    <path d="M 253.609232 353.420149 
L 260.860278 353.420149 
L 260.860278 336.896037 
L 253.609232 336.896037 
z
" clip-path="url(#p6dc9162348)" style="fill: #e6550d; fill-opacity: 0.6; stroke: #ffffff; stroke-width: 0.676364; stroke-linejoin: miter"/>
   </g>
   <g id="patch_28">
    <path d="M 260.860278 353.420149 
L 268.111323 353.420149 
L 268.111323 332.174862 
L 260.860278 332.174862 
z
" clip-path="url(#p6dc9162348)" style="fill: #e6550d; fill-opacity: 0.6; stroke: #ffffff; stroke-width: 0.676364; stroke-linejoin: miter"/>
   </g>
   <g id="patch_29">
    <path d="M 268.111323 353.420149 
L 275.362368 353.420149 
L 275.362368 337.158324 
L 268.111323 337.158324 
z
" clip-path="url(#p6dc9162348)" style="fill: #e6550d; fill-opacity: 0.6; stroke: #ffffff; stroke-width: 0.676364; stroke-linejoin: miter"/>
   </g>
   <g id="patch_30">
    <path d="M 275.362368 353.420149 
L 282.613414 353.420149 
L 282.613414 330.863424 
L 275.362368 330.863424 
z
" clip-path="url(#p6dc9162348)" style="fill: #e6550d; fill-opacity: 0.6; stroke: #ffffff; stroke-width: 0.676364; stroke-linejoin: miter"/>
   </g>
   <g id="patch_31">
    <path d="M 282.613414 353.420149 
L 289.864459 353.420149 
L 289.864459 331.650287 
L 282.613414 331.650287 
z
" clip-path="url(#p6dc9162348)" style="fill: #e6550d; fill-opacity: 0.6; stroke: #ffffff; stroke-width: 0.676364; stroke-linejoin: miter"/>
   </g>
   <g id="patch_32">
    <path d="M 289.864459 353.420149 
L 297.115504 353.420149 
L 297.115504 329.814274 
L 289.864459 329.814274 
z
" clip-path="url(#p6dc9162348)" style="fill: #e6550d; fill-opacity: 0.6; stroke: #ffffff; stroke-width: 0.676364; stroke-linejoin: miter"/>
   </g>
   <g id="patch_33">
    <path d="M 297.115504 353.420149 
L 304.36655 353.420149 
L 304.36655 329.551987 
L 297.115504 329.551987 
z
" clip-path="url(#p6dc9162348)" style="fill: #e6550d; fill-opacity: 0.6; stroke: #ffffff; stroke-width: 0.676364; stroke-linejoin: miter"/>
   </g>
   <g id="patch_34">
    <path d="M 304.36655 353.420149 
L 311.617595 353.420149 
L 311.617595 334.535449 
L 304.36655 334.535449 
z
" clip-path="url(#p6dc9162348)" style="fill: #e6550d; fill-opacity: 0.6; stroke: #ffffff; stroke-width: 0.676364; stroke-linejoin: miter"/>
   </g>
   <g id="patch_35">
    <path d="M 311.617595 353.420149 
L 318.86864 353.420149 
L 318.86864 335.322312 
L 311.617595 335.322312 
z
" clip-path="url(#p6dc9162348)" style="fill: #e6550d; fill-opacity: 0.6; stroke: #ffffff; stroke-width: 0.676364; stroke-linejoin: miter"/>
   </g>
   <g id="patch_36">
    <path d="M 318.86864 353.420149 
L 326.119686 353.420149 
L 326.119686 330.601137 
L 318.86864 330.601137 
z
" clip-path="url(#p6dc9162348)" style="fill: #e6550d; fill-opacity: 0.6; stroke: #ffffff; stroke-width: 0.676364; stroke-linejoin: miter"/>
   </g>
   <g id="patch_37">
    <path d="M 326.119686 353.420149 
L 333.370731 353.420149 
L 333.370731 332.699437 
L 326.119686 332.699437 
z
" clip-path="url(#p6dc9162348)" style="fill: #e6550d; fill-opacity: 0.6; stroke: #ffffff; stroke-width: 0.676364; stroke-linejoin: miter"/>
   </g>
   <g id="patch_38">
    <path d="M 333.370731 353.420149 
L 340.621776 353.420149 
L 340.621776 329.289699 
L 333.370731 329.289699 
z
" clip-path="url(#p6dc9162348)" style="fill: #e6550d; fill-opacity: 0.6; stroke: #ffffff; stroke-width: 0.676364; stroke-linejoin: miter"/>
   </g>
   <g id="patch_39">
    <path d="M 340.621776 353.420149 
L 347.872822 353.420149 
L 347.872822 329.289699 
L 340.621776 329.289699 
z
" clip-path="url(#p6dc9162348)" style="fill: #e6550d; fill-opacity: 0.6; stroke: #ffffff; stroke-width: 0.676364; stroke-linejoin: miter"/>
   </g>
   <g id="patch_40">
    <path d="M 347.872822 353.420149 
L 355.123867 353.420149 
L 355.123867 327.191399 
L 347.872822 327.191399 
z
" clip-path="url(#p6dc9162348)" style="fill: #e6550d; fill-opacity: 0.6; stroke: #ffffff; stroke-width: 0.676364; stroke-linejoin: miter"/>
   </g>
   <g id="patch_41">
    <path d="M 355.123867 353.420149 
L 362.374912 353.420149 
L 362.374912 321.945649 
L 355.123867 321.945649 
z
" clip-path="url(#p6dc9162348)" style="fill: #e6550d; fill-opacity: 0.6; stroke: #ffffff; stroke-width: 0.676364; stroke-linejoin: miter"/>
   </g>
   <g id="patch_42">
    <path d="M 362.374912 353.420149 
L 369.625958 353.420149 
L 369.625958 322.470224 
L 362.374912 322.470224 
z
" clip-path="url(#p6dc9162348)" style="fill: #e6550d; fill-opacity: 0.6; stroke: #ffffff; stroke-width: 0.676364; stroke-linejoin: miter"/>
   </g>
   <g id="patch_43">
    <path d="M 369.625958 353.420149 
L 376.877003 353.420149 
L 376.877003 326.404537 
L 369.625958 326.404537 
z
" clip-path="url(#p6dc9162348)" style="fill: #e6550d; fill-opacity: 0.6; stroke: #ffffff; stroke-width: 0.676364; stroke-linejoin: miter"/>
   </g>
   <g id="patch_44">
    <path d="M 376.877003 353.420149 
L 384.128048 353.420149 
L 384.128048 320.896499 
L 376.877003 320.896499 
z
" clip-path="url(#p6dc9162348)" style="fill: #e6550d; fill-opacity: 0.6; stroke: #ffffff; stroke-width: 0.676364; stroke-linejoin: miter"/>
   </g>
   <g id="patch_45">
    <path d="M 384.128048 353.420149 
L 391.379094 353.420149 
L 391.379094 321.683362 
L 384.128048 321.683362 
z
" clip-path="url(#p6dc9162348)" style="fill: #e6550d; fill-opacity: 0.6; stroke: #ffffff; stroke-width: 0.676364; stroke-linejoin: miter"/>
   </g>
   <g id="patch_46">
    <path d="M 391.379094 353.420149 
L 398.630139 353.420149 
L 398.630139 317.486762 
L 391.379094 317.486762 
z
" clip-path="url(#p6dc9162348)" style="fill: #e6550d; fill-opacity: 0.6; stroke: #ffffff; stroke-width: 0.676364; stroke-linejoin: miter"/>
   </g>
   <g id="patch_47">
    <path d="M 398.630139 353.420149 
L 405.881184 353.420149 
L 405.881184 320.896499 
L 398.630139 320.896499 
z
" clip-path="url(#p6dc9162348)" style="fill: #e6550d; fill-opacity: 0.6; stroke: #ffffff; stroke-width: 0.676364; stroke-linejoin: miter"/>
   </g>
   <g id="patch_48">
    <path d="M 405.881184 353.420149 
L 413.13223 353.420149 
L 413.13223 314.601599 
L 405.881184 314.601599 
z
" clip-path="url(#p6dc9162348)" style="fill: #e6550d; fill-opacity: 0.6; stroke: #ffffff; stroke-width: 0.676364; stroke-linejoin: miter"/>
   </g>
   <g id="patch_49">
    <path d="M 413.13223 353.420149 
L 420.383275 353.420149 
L 420.383275 313.290162 
L 413.13223 313.290162 
z
" clip-path="url(#p6dc9162348)" style="fill: #e6550d; fill-opacity: 0.6; stroke: #ffffff; stroke-width: 0.676364; stroke-linejoin: miter"/>
   </g>
   <g id="patch_50">
    <path d="M 420.383275 353.420149 
L 427.63432 353.420149 
L 427.63432 311.978724 
L 420.383275 311.978724 
z
" clip-path="url(#p6dc9162348)" style="fill: #e6550d; fill-opacity: 0.6; stroke: #ffffff; stroke-width: 0.676364; stroke-linejoin: miter"/>
   </g>
   <g id="patch_51">
    <path d="M 427.63432 353.420149 
L 434.885365 353.420149 
L 434.885365 314.863887 
L 427.63432 314.863887 
z
" clip-path="url(#p6dc9162348)" style="fill: #e6550d; fill-opacity: 0.6; stroke: #ffffff; stroke-width: 0.676364; stroke-linejoin: miter"/>
   </g>
   <g id="patch_52">
    <path d="M 434.885365 353.420149 
L 442.136411 353.420149 
L 442.136411 314.601599 
L 434.885365 314.601599 
z
" clip-path="url(#p6dc9162348)" style="fill: #e6550d; fill-opacity: 0.6; stroke: #ffffff; stroke-width: 0.676364; stroke-linejoin: miter"/>
   </g>
   <g id="patch_53">
    <path d="M 442.136411 353.420149 
L 449.387456 353.420149 
L 449.387456 306.470687 
L 442.136411 306.470687 
z
" clip-path="url(#p6dc9162348)" style="fill: #e6550d; fill-opacity: 0.6; stroke: #ffffff; stroke-width: 0.676364; stroke-linejoin: miter"/>
   </g>
   <g id="patch_54">
    <path d="M 449.387456 353.420149 
L 456.638501 353.420149 
L 456.638501 295.979187 
L 449.387456 295.979187 
z
" clip-path="url(#p6dc9162348)" style="fill: #e6550d; fill-opacity: 0.6; stroke: #ffffff; stroke-width: 0.676364; stroke-linejoin: miter"/>
   </g>
   <g id="patch_55">
    <path d="M 456.638501 353.420149 
L 463.889547 353.420149 
L 463.889547 297.290624 
L 456.638501 297.290624 
z
" clip-path="url(#p6dc9162348)" style="fill: #e6550d; fill-opacity: 0.6; stroke: #ffffff; stroke-width: 0.676364; stroke-linejoin: miter"/>
   </g>
   <g id="patch_56">
    <path d="M 463.889547 353.420149 
L 471.140592 353.420149 
L 471.140592 287.848274 
L 463.889547 287.848274 
z
" clip-path="url(#p6dc9162348)" style="fill: #e6550d; fill-opacity: 0.6; stroke: #ffffff; stroke-width: 0.676364; stroke-linejoin: miter"/>
   </g>
   <g id="patch_57">
    <path d="M 471.140592 353.420149 
L 478.391637 353.420149 
L 478.391637 285.225399 
L 471.140592 285.225399 
z
" clip-path="url(#p6dc9162348)" style="fill: #e6550d; fill-opacity: 0.6; stroke: #ffffff; stroke-width: 0.676364; stroke-linejoin: miter"/>
   </g>
   <g id="patch_58">
    <path d="M 478.391637 353.420149 
L 485.642683 353.420149 
L 485.642683 281.815662 
L 478.391637 281.815662 
z
" clip-path="url(#p6dc9162348)" style="fill: #e6550d; fill-opacity: 0.6; stroke: #ffffff; stroke-width: 0.676364; stroke-linejoin: miter"/>
   </g>
   <g id="patch_59">
    <path d="M 485.642683 353.420149 
L 492.893728 353.420149 
L 492.893728 253.226325 
L 485.642683 253.226325 
z
" clip-path="url(#p6dc9162348)" style="fill: #e6550d; fill-opacity: 0.6; stroke: #ffffff; stroke-width: 0.676364; stroke-linejoin: miter"/>
   </g>
   <g id="patch_60">
    <path d="M 492.893728 353.420149 
L 500.144773 353.420149 
L 500.144773 232.7679 
L 492.893728 232.7679 
z
" clip-path="url(#p6dc9162348)" style="fill: #e6550d; fill-opacity: 0.6; stroke: #ffffff; stroke-width: 0.676364; stroke-linejoin: miter"/>
   </g>
   <g id="patch_61">
    <path d="M 500.144773 353.420149 
L 507.395819 353.420149 
L 507.395819 189.228175 
L 500.144773 189.228175 
z
" clip-path="url(#p6dc9162348)" style="fill: #e6550d; fill-opacity: 0.6; stroke: #ffffff; stroke-width: 0.676364; stroke-linejoin: miter"/>
   </g>
   <g id="patch_62">
    <path d="M 507.395819 353.420149 
L 514.646864 353.420149 
L 514.646864 38.937438 
L 507.395819 38.937438 
z
" clip-path="url(#p6dc9162348)" style="fill: #e6550d; fill-opacity: 0.6; stroke: #ffffff; stroke-width: 0.676364; stroke-linejoin: miter"/>
   </g>
   <g id="patch_63">
    <path d="M 57.831009 353.420149 
L 57.831009 23.213303 
" style="fill: none; stroke: #8b949e; stroke-width: 0.5; stroke-linejoin: miter; stroke-linecap: square"/>
   </g>
   <g id="patch_64">
    <path d="M 57.831009 353.420149 
L 536.4 353.420149 
" style="fill: none; stroke: #8b949e; stroke-width: 0.5; stroke-linejoin: miter; stroke-linecap: square"/>
   </g>
   <g id="text_16">
    <!-- Distribution of Modality Specialization Index -->
    <g style="fill: #e6edf3" transform="translate(116.056918 17.213303) scale(0.2 -0.2)">
     <defs>
      <path id="LMRoman17-Regular-44" d="M 4224 2141 
C 4224 3346 3411 4352 2368 4352 
L 333 4352 
L 333 4186 
C 774 4186 845 4186 845 3900 
L 845 452 
C 845 166 774 166 333 166 
L 333 0 
L 2368 0 
C 3398 0 4224 943 4224 2141 
z
M 3750 2141 
C 3750 1242 3488 879 3366 707 
C 3213 510 2848 166 2240 166 
L 1523 166 
C 1267 166 1254 197 1254 414 
L 1254 3938 
C 1254 4155 1267 4186 1523 4186 
L 2240 4186 
C 2771 4186 3750 3874 3750 2141 
z
" transform="scale(0.015625)"/>
      <path id="LMRoman17-Regular-69" d="M 1370 -13 
L 1370 153 
C 992 153 979 191 979 420 
L 979 2778 
L 243 2708 
L 243 2542 
C 602 2542 653 2503 653 2198 
L 653 427 
C 653 184 627 153 218 153 
L 218 -13 
C 371 0 646 0 806 0 
C 960 0 1222 0 1370 -13 
z
M 1056 3835 
C 1056 3988 934 4096 800 4096 
C 646 4096 538 3975 538 3835 
C 538 3682 659 3574 794 3574 
C 947 3574 1056 3695 1056 3835 
z
" transform="scale(0.015625)"/>
      <path id="LMRoman17-Regular-73" d="M 2131 784 
C 2131 1112 1958 1285 1875 1362 
C 1683 1561 1459 1606 1190 1657 
C 838 1735 390 1825 390 2217 
C 390 2383 480 2737 1126 2737 
C 1811 2737 1850 2094 1862 1888 
C 1869 1856 1901 1849 1920 1849 
C 1978 1849 1978 1869 1978 1978 
L 1978 2697 
C 1978 2813 1971 2819 1933 2819 
C 1907 2819 1901 2813 1824 2717 
C 1805 2691 1747 2626 1728 2601 
C 1523 2819 1235 2819 1126 2819 
C 416 2819 160 2447 160 2076 
C 160 1498 813 1365 998 1325 
C 1402 1243 1542 1217 1677 1101 
C 1760 1025 1901 884 1901 654 
C 1901 384 1747 38 1158 38 
C 602 38 403 460 288 1021 
C 269 1110 269 1117 218 1117 
C 166 1117 160 1110 160 983 
L 160 63 
C 160 -51 166 -58 205 -58 
C 237 -58 243 -51 275 0 
L 448 276 
C 576 103 800 -64 1158 -64 
C 1792 -64 2131 283 2131 784 
z
" transform="scale(0.015625)"/>
      <path id="LMRoman17-Regular-72" d="M 2131 2458 
C 2131 2663 1926 2790 1709 2790 
C 1222 2790 1011 2317 947 2093 
L 941 2093 
L 941 2790 
L 198 2720 
L 198 2554 
C 576 2554 634 2515 634 2208 
L 634 428 
C 634 184 608 153 198 153 
L 198 -13 
C 352 0 646 0 813 0 
C 998 0 1325 0 1498 -13 
L 1498 153 
C 1037 153 960 153 960 440 
L 960 1497 
C 960 2112 1222 2688 1702 2688 
C 1747 2688 1792 2682 1837 2662 
C 1837 2662 1696 2617 1696 2452 
C 1696 2298 1818 2234 1914 2234 
C 1990 2234 2131 2279 2131 2458 
z
" transform="scale(0.015625)"/>
      <path id="LMRoman17-Regular-62" d="M 3053 1370 
C 3053 2188 2477 2790 1830 2790 
C 1434 2790 1152 2579 960 2330 
L 960 4396 
L 198 4326 
L 198 4160 
C 576 4160 634 4122 634 3817 
L 634 -13 
L 749 -13 
L 934 441 
C 1120 141 1395 -64 1766 -64 
C 2406 -64 3053 500 3053 1370 
z
M 2643 1376 
C 2643 108 1888 38 1734 38 
C 1536 38 1248 114 1043 486 
C 973 608 973 621 973 735 
L 973 2004 
C 973 2118 973 2138 1062 2272 
C 1312 2657 1670 2688 1792 2688 
C 1984 2688 2643 2585 2643 1376 
z
" transform="scale(0.015625)"/>
      <path id="LMRoman17-Regular-66" d="M 2003 4067 
C 2003 4308 1773 4454 1517 4454 
C 1152 4454 653 4156 653 3481 
L 653 2725 
L 141 2725 
L 141 2560 
L 653 2560 
L 653 427 
C 653 184 627 153 218 153 
L 218 -13 
C 371 0 666 0 832 0 
C 1018 0 1344 0 1517 -13 
L 1517 153 
C 1056 153 979 153 979 439 
L 979 2560 
L 1709 2560 
L 1709 2725 
L 966 2725 
L 966 3494 
C 966 4022 1235 4352 1510 4352 
C 1594 4352 1690 4327 1754 4282 
C 1702 4269 1568 4225 1568 4067 
C 1568 3901 1696 3850 1786 3850 
C 1875 3850 2003 3901 2003 4067 
z
" transform="scale(0.015625)"/>
      <path id="LMRoman17-Regular-64" d="M 3066 -63 
L 3066 128 
C 2688 128 2630 166 2630 473 
L 2630 4396 
L 1869 4326 
L 1869 4160 
C 2246 4160 2304 4122 2304 3820 
L 2304 2345 
C 2278 2377 2016 2790 1498 2790 
C 845 2790 211 2208 211 1364 
C 211 525 806 -64 1434 -64 
C 1978 -64 2259 337 2291 380 
L 2291 -63 
L 3066 -63 
z
M 2291 755 
C 2291 563 2176 390 2029 262 
C 1811 70 1594 38 1472 38 
C 1286 38 621 134 621 1356 
C 621 2612 1363 2688 1530 2688 
C 1824 2688 2061 2522 2208 2291 
C 2291 2157 2291 2138 2291 2023 
L 2291 755 
z
" transform="scale(0.015625)"/>
      <path id="LMRoman17-Regular-61" d="M 2874 567 
L 2874 920 
L 2758 920 
L 2758 562 
C 2758 178 2586 128 2502 128 
C 2240 128 2240 458 2240 738 
L 2240 1653 
C 2240 2072 2240 2294 1971 2543 
C 1734 2752 1459 2816 1242 2816 
C 736 2816 371 2407 371 1971 
C 371 1728 563 1728 602 1728 
C 685 1728 832 1778 832 1954 
C 832 2112 710 2181 602 2181 
C 576 2181 544 2174 525 2168 
C 659 2592 1005 2714 1229 2714 
C 1549 2714 1901 2429 1901 1885 
L 1901 1600 
C 1523 1600 1069 1549 710 1357 
C 307 1133 192 813 192 570 
C 192 77 768 -64 1107 -64 
C 1459 -64 1786 139 1926 511 
C 1939 233 2118 -18 2400 -18 
C 2534 -18 2874 70 2874 567 
z
M 1901 870 
C 1901 317 1504 38 1152 38 
C 832 38 582 275 582 570 
C 582 761 666 1100 1037 1305 
C 1344 1478 1696 1504 1901 1504 
L 1901 870 
z
" transform="scale(0.015625)"/>
      <path id="LMRoman17-Regular-6c" d="M 1414 -13 
L 1414 153 
C 1005 153 979 178 979 426 
L 979 4396 
L 218 4326 
L 218 4160 
C 595 4160 653 4122 653 3817 
L 653 426 
C 653 184 627 153 218 153 
L 218 -13 
C 371 0 653 0 813 0 
C 979 0 1261 0 1414 -13 
z
" transform="scale(0.015625)"/>
      <path id="LMRoman17-Regular-79" d="M 3034 2593 
L 3034 2752 
L 2630 2752 
C 2496 2752 2285 2752 2157 2758 
L 2157 2593 
C 2400 2574 2406 2395 2406 2344 
C 2406 2281 2394 2249 2362 2171 
L 1664 449 
L 902 2312 
C 870 2389 870 2440 870 2440 
C 870 2580 1018 2593 1171 2593 
L 1171 2758 
C 1018 2752 742 2752 582 2752 
C 410 2752 205 2752 64 2758 
L 64 2593 
C 410 2593 448 2561 531 2357 
L 1485 15 
C 1197 -738 1030 -1178 627 -1178 
C 557 -1178 397 -1159 282 -1044 
C 429 -1031 493 -942 493 -833 
C 493 -725 416 -629 288 -629 
C 147 -629 77 -725 77 -840 
C 77 -1095 339 -1280 627 -1280 
C 998 -1280 1229 -922 1357 -603 
L 2496 2204 
C 2656 2593 2944 2593 3034 2593 
z
" transform="scale(0.015625)"/>
      <path id="LMRoman17-Regular-70" d="M 3053 1388 
C 3053 2191 2496 2802 1837 2802 
C 1453 2802 1139 2592 960 2338 
L 960 2802 
L 198 2732 
L 198 2567 
C 576 2567 634 2528 634 2223 
L 634 -789 
C 634 -1031 608 -1063 198 -1063 
L 198 -1228 
C 352 -1216 634 -1216 800 -1216 
C 966 -1216 1254 -1216 1408 -1228 
L 1408 -1063 
C 998 -1063 973 -1037 973 -789 
L 973 402 
C 1158 134 1427 -38 1766 -38 
C 2406 -38 3053 523 3053 1388 
z
M 2643 1382 
C 2643 656 2234 64 1728 64 
C 1498 64 1248 172 1056 472 
C 973 612 973 650 973 752 
L 973 2012 
C 973 2102 973 2235 1222 2471 
C 1254 2497 1472 2688 1792 2688 
C 2259 2688 2643 2108 2643 1382 
z
" transform="scale(0.015625)"/>
      <path id="LMRoman17-Regular-65" d="M 2464 1576 
C 2464 2238 2118 2816 1389 2816 
C 710 2816 173 2169 173 1383 
C 173 551 781 -64 1459 -64 
C 2176 -64 2458 606 2458 739 
C 2458 784 2406 784 2406 784 
C 2362 784 2355 771 2330 695 
C 2189 265 1837 51 1504 51 
C 1229 51 954 203 781 480 
C 582 803 582 1176 582 1472 
L 2438 1472 
C 2464 1498 2464 1511 2464 1576 
z
M 2118 1568 
L 589 1568 
C 634 2505 1126 2714 1382 2714 
C 1818 2714 2112 2297 2118 1568 
z
" transform="scale(0.015625)"/>
      <path id="LMRoman17-Regular-63" d="M 2458 748 
C 2458 774 2451 793 2406 793 
C 2362 793 2355 787 2330 703 
C 2163 180 1798 51 1523 51 
C 1114 51 621 427 621 1369 
C 621 2338 1094 2688 1472 2688 
C 1722 2688 2093 2573 2234 2240 
C 2112 2240 1933 2240 1933 2017 
C 1933 1838 2080 1787 2163 1787 
C 2208 1787 2394 1807 2394 2024 
C 2394 2467 1958 2803 1466 2803 
C 787 2803 211 2178 211 1363 
C 211 516 813 -64 1466 -64 
C 2259 -64 2458 677 2458 748 
z
" transform="scale(0.015625)"/>
      <path id="LMRoman17-Regular-7a" d="M 2381 1152 
L 2266 1152 
C 2214 442 2131 115 1350 115 
L 531 115 
L 2310 2605 
C 2362 2670 2362 2695 2362 2695 
C 2362 2752 2336 2752 2221 2752 
L 275 2752 
L 211 1760 
L 326 1760 
C 371 2381 442 2650 1178 2650 
L 1958 2650 
L 128 96 
C 128 0 134 0 269 0 
L 2291 0 
L 2381 1152 
z
" transform="scale(0.015625)"/>
      <path id="LMRoman17-Regular-78" d="M 3091 -6 
L 3091 160 
C 2771 160 2675 172 2522 370 
L 1664 1478 
L 2253 2216 
C 2464 2458 2707 2560 2989 2560 
L 2989 2726 
L 2541 2726 
C 2368 2726 2170 2726 2022 2732 
L 2022 2566 
C 2112 2553 2163 2489 2163 2400 
C 2163 2285 2099 2215 2067 2171 
L 1594 1573 
L 1030 2306 
C 973 2376 973 2388 973 2420 
C 973 2497 1037 2560 1146 2560 
L 1146 2732 
C 992 2726 717 2726 557 2726 
C 384 2726 179 2726 38 2732 
L 38 2560 
C 384 2560 461 2534 614 2343 
L 1350 1395 
C 1363 1382 1395 1344 1395 1325 
C 1395 1299 838 619 768 530 
C 480 185 179 160 6 160 
L 6 0 
L 454 0 
C 582 0 864 0 979 -6 
L 979 160 
C 941 166 838 179 838 325 
C 838 440 890 510 947 586 
L 1478 1236 
L 2035 512 
C 2086 442 2163 346 2163 301 
C 2163 211 2086 160 1984 160 
L 1984 -6 
C 2138 0 2413 0 2573 0 
C 2746 0 2950 0 3091 -6 
z
" transform="scale(0.015625)"/>
     </defs>
     <use xlink:href="#LMRoman17-Regular-44" transform="scale(0.996264)"/>
     <use xlink:href="#LMRoman17-Regular-69" transform="translate(70.395745 0) scale(0.996264)"/>
     <use xlink:href="#LMRoman17-Regular-73" transform="translate(95.267761 0) scale(0.996264)"/>
     <use xlink:href="#LMRoman17-Regular-74" transform="translate(131.070999 0) scale(0.996264)"/>
     <use xlink:href="#LMRoman17-Regular-72" transform="translate(166.352527 0) scale(0.996264)"/>
     <use xlink:href="#LMRoman17-Regular-69" transform="translate(201.634055 0) scale(0.996264)"/>
     <use xlink:href="#LMRoman17-Regular-62" transform="translate(226.506071 0) scale(0.996264)"/>
     <use xlink:href="#LMRoman17-Regular-75" transform="translate(277.403159 0) scale(0.996264)"/>
     <use xlink:href="#LMRoman17-Regular-74" transform="translate(328.300246 0) scale(0.996264)"/>
     <use xlink:href="#LMRoman17-Regular-69" transform="translate(363.581774 0) scale(0.996264)"/>
     <use xlink:href="#LMRoman17-Regular-6f" transform="translate(388.45379 0) scale(0.996264)"/>
     <use xlink:href="#LMRoman17-Regular-6e" transform="translate(434.144739 0) scale(0.996264)"/>
     <use xlink:href="#LMRoman17-Regular-6f" transform="translate(515.117975 0) scale(0.996264)"/>
     <use xlink:href="#LMRoman17-Regular-66" transform="translate(560.808923 0) scale(0.996264)"/>
     <use xlink:href="#LMRoman17-Regular-4d" transform="translate(618.357247 0) scale(0.996264)"/>
     <use xlink:href="#LMRoman17-Regular-6f" transform="translate(703.039718 0) scale(0.996264)"/>
     <use xlink:href="#LMRoman17-Regular-64" transform="translate(751.333105 0) scale(0.996264)"/>
     <use xlink:href="#LMRoman17-Regular-61" transform="translate(802.230193 0) scale(0.996264)"/>
     <use xlink:href="#LMRoman17-Regular-6c" transform="translate(847.921141 0) scale(0.996264)"/>
     <use xlink:href="#LMRoman17-Regular-69" transform="translate(872.793157 0) scale(0.996264)"/>
     <use xlink:href="#LMRoman17-Regular-74" transform="translate(897.665173 0) scale(0.996264)"/>
     <use xlink:href="#LMRoman17-Regular-79" transform="translate(930.344247 0) scale(0.996264)"/>
     <use xlink:href="#LMRoman17-Regular-53" transform="translate(1008.711609 0) scale(0.996264)"/>
     <use xlink:href="#LMRoman17-Regular-70" transform="translate(1059.608697 0) scale(0.996264)"/>
     <use xlink:href="#LMRoman17-Regular-65" transform="translate(1113.108223 0) scale(0.996264)"/>
     <use xlink:href="#LMRoman17-Regular-63" transform="translate(1153.593032 0) scale(0.996264)"/>
     <use xlink:href="#LMRoman17-Regular-69" transform="translate(1194.077842 0) scale(0.996264)"/>
     <use xlink:href="#LMRoman17-Regular-61" transform="translate(1218.949858 0) scale(0.996264)"/>
     <use xlink:href="#LMRoman17-Regular-6c" transform="translate(1264.640806 0) scale(0.996264)"/>
     <use xlink:href="#LMRoman17-Regular-69" transform="translate(1289.512822 0) scale(0.996264)"/>
     <use xlink:href="#LMRoman17-Regular-7a" transform="translate(1314.384839 0) scale(0.996264)"/>
     <use xlink:href="#LMRoman17-Regular-61" transform="translate(1354.869648 0) scale(0.996264)"/>
     <use xlink:href="#LMRoman17-Regular-74" transform="translate(1400.560596 0) scale(0.996264)"/>
     <use xlink:href="#LMRoman17-Regular-69" transform="translate(1435.842124 0) scale(0.996264)"/>
     <use xlink:href="#LMRoman17-Regular-6f" transform="translate(1460.71414 0) scale(0.996264)"/>
     <use xlink:href="#LMRoman17-Regular-6e" transform="translate(1506.405089 0) scale(0.996264)"/>
     <use xlink:href="#LMRoman17-Regular-49" transform="translate(1587.378325 0) scale(0.996264)"/>
     <use xlink:href="#LMRoman17-Regular-6e" transform="translate(1620.016354 0) scale(0.996264)"/>
     <use xlink:href="#LMRoman17-Regular-64" transform="translate(1670.913442 0) scale(0.996264)"/>
     <use xlink:href="#LMRoman17-Regular-65" transform="translate(1721.810529 0) scale(0.996264)"/>
     <use xlink:href="#LMRoman17-Regular-78" transform="translate(1762.295338 0) scale(0.996264)"/>
    </g>
   </g>
  </g>
 </g>
 <defs>
  <clipPath id="p6dc9162348">
   <rect x="57.831009" y="23.213303" width="478.568991" height="330.206847"/>
  </clipPath>
 </defs>
</svg>
