<?xml version="1.0" encoding="utf-8" standalone="no"?>
<!DOCTYPE svg PUBLIC "-//W3C//DTD SVG 1.1//EN"
  "http://www.w3.org/Graphics/SVG/1.1/DTD/svg11.dtd">
<svg xmlns:xlink="http://www.w3.org/1999/xlink" width="539.172361pt" height="396pt" viewBox="0 0 539.172361 396" xmlns="http://www.w3.org/2000/svg" version="1.1">
 <metadata>
  <rdf:RDF xmlns:dc="http://purl.org/dc/elements/1.1/" xmlns:cc="http://creativecommons.org/ns#" xmlns:rdf="http://www.w3.org/1999/02/22-rdf-syntax-ns#">
   <cc:Work>
    <dc:type rdf:resource="http://purl.org/dc/dcmitype/StillImage"/>
    <dc:date>2026-03-19T11:53:35.445580</dc:date>
    <dc:format>image/svg+xml</dc:format>
    <dc:creator>
     <cc:Agent>
      <dc:title>Matplotlib v3.10.0, https://matplotlib.org/</dc:title>
     </cc:Agent>
    </dc:creator>
   </cc:Work>
  </rdf:RDF>
 </metadata>
 <defs>
  <style type="text/css">*{stroke-linejoin: round; stroke-linecap: butt}</style>
 </defs>
 <g id="figure_1">
  <g id="patch_1">
   <path d="M 0 396 
L 539.172361 396 
L 539.172361 0 
L 0 0 
L 0 396 
z
" style="fill: none"/>
  </g>
  <g id="axes_1">
   <g id="patch_2">
    <path d="M 57.831009 346.23381 
L 535.197349 346.23381 
L 535.197349 23.213303 
L 57.831009 23.213303 
L 57.831009 346.23381 
z
" style="fill: none"/>
   </g>
   <g id="matplotlib.axis_1">
    <g id="xtick_1">
     <g id="line2d_1">
      <path d="M 108.493143 346.23381 
L 108.493143 23.213303 
" clip-path="url(#pd05f09f0f5)" style="fill: none; stroke: #2f3a46; stroke-opacity: 0.35; stroke-width: 0.5; stroke-linecap: round"/>
     </g>
     <g id="line2d_2">
      <defs>
       <path id="m1de4824a76" d="M 0 0 
L 0 3 
" style="stroke: #e6edf3; stroke-width: 0.5"/>
      </defs>
      <g>
       <use xlink:href="#m1de4824a76" x="108.493143" y="23.213303" style="fill: #e6edf3; stroke: #e6edf3; stroke-width: 0.5"/>
      </g>
     </g>
     <g id="text_1">
      <!-- $\mathdefault{0.70}$ -->
      <g style="fill: #e6edf3" transform="translate(95.35954 360.624459) scale(0.16 -0.16)">
       <defs>
        <path id="LMRoman17-Regular-30" d="M 2688 2025 
C 2688 2416 2682 3080 2413 3591 
C 2176 4039 1798 4198 1466 4198 
C 1158 4198 768 4058 525 3597 
C 269 3118 243 2524 243 2025 
C 243 1661 250 1106 448 619 
C 723 -39 1216 -128 1466 -128 
C 1760 -128 2208 -7 2470 600 
C 2662 1042 2688 1559 2688 2025 
z
M 2278 2096 
C 2278 1680 2278 1169 2202 792 
C 2067 95 1690 -26 1466 -26 
C 1056 -26 813 325 723 812 
C 653 1188 653 1738 653 2096 
C 653 2588 653 2997 736 3387 
C 858 3929 1216 4096 1466 4096 
C 1728 4096 2067 3923 2189 3400 
C 2272 3036 2278 2607 2278 2096 
z
" transform="scale(0.015625)"/>
        <path id="LMMathItalic12-Regular-3a" d="M 1178 307 
C 1178 492 1024 619 870 619 
C 685 619 557 466 557 313 
C 557 128 710 0 864 0 
C 1050 0 1178 153 1178 307 
z
" transform="scale(0.015625)"/>
        <path id="LMRoman17-Regular-37" d="M 2886 3941 
L 2886 4081 
L 1382 4081 
C 634 4081 621 4165 595 4288 
L 480 4288 
L 294 3094 
L 410 3094 
C 429 3215 474 3540 550 3661 
C 589 3712 1062 3712 1171 3712 
L 2579 3712 
L 1869 2661 
C 1395 1954 1069 999 1069 165 
C 1069 89 1069 -128 1299 -128 
C 1530 -128 1530 89 1530 171 
L 1530 465 
C 1530 1508 1709 2196 2003 2636 
L 2886 3941 
z
" transform="scale(0.015625)"/>
       </defs>
       <use xlink:href="#LMRoman17-Regular-30" transform="scale(0.996264)"/>
       <use xlink:href="#LMMathItalic12-Regular-3a" transform="translate(45.690948 0) scale(0.996264)"/>
       <use xlink:href="#LMRoman17-Regular-37" transform="translate(72.788125 0) scale(0.996264)"/>
       <use xlink:href="#LMRoman17-Regular-30" transform="translate(118.479074 0) scale(0.996264)"/>
      </g>
     </g>
    </g>
    <g id="xtick_2">
     <g id="line2d_3">
      <path d="M 177.484079 346.23381 
L 177.484079 23.213303 
" clip-path="url(#pd05f09f0f5)" style="fill: none; stroke: #2f3a46; stroke-opacity: 0.35; stroke-width: 0.5; stroke-linecap: round"/>
     </g>
     <g id="line2d_4">
      <g>
       <use xlink:href="#m1de4824a76" x="177.484079" y="23.213303" style="fill: #e6edf3; stroke: #e6edf3; stroke-width: 0.5"/>
      </g>
     </g>
     <g id="text_2">
      <!-- $\mathdefault{0.75}$ -->
      <g style="fill: #e6edf3" transform="translate(164.350476 360.624459) scale(0.16 -0.16)">
       <defs>
        <path id="LMRoman17-Regular-35" d="M 2669 1264 
C 2669 2030 2170 2624 1549 2624 
C 1222 2624 947 2503 730 2274 
L 730 3692 
C 794 3666 1056 3584 1325 3584 
C 1920 3584 2246 3911 2432 4100 
C 2432 4157 2432 4192 2394 4192 
C 2394 4192 2374 4192 2323 4163 
C 2099 4058 1837 3973 1517 3973 
C 1325 3973 1037 3999 723 4139 
C 653 4171 634 4171 634 4171 
C 602 4171 595 4164 595 4037 
L 595 2203 
C 595 2089 595 2057 659 2057 
C 691 2057 704 2070 736 2114 
C 941 2401 1222 2522 1542 2522 
C 1766 2522 2246 2382 2246 1289 
C 2246 1085 2246 715 2054 421 
C 1894 159 1645 25 1370 25 
C 947 25 518 320 403 814 
C 429 807 480 795 506 795 
C 589 795 749 840 749 1038 
C 749 1210 627 1280 506 1280 
C 358 1280 262 1190 262 1011 
C 262 454 704 -128 1382 -128 
C 2042 -128 2669 440 2669 1264 
z
" transform="scale(0.015625)"/>
       </defs>
       <use xlink:href="#LMRoman17-Regular-30" transform="scale(0.996264)"/>
       <use xlink:href="#LMMathItalic12-Regular-3a" transform="translate(45.690948 0) scale(0.996264)"/>
       <use xlink:href="#LMRoman17-Regular-37" transform="translate(72.788125 0) scale(0.996264)"/>
       <use xlink:href="#LMRoman17-Regular-35" transform="translate(118.479074 0) scale(0.996264)"/>
      </g>
     </g>
    </g>
    <g id="xtick_3">
     <g id="line2d_5">
      <path d="M 246.475015 346.23381 
L 246.475015 23.213303 
" clip-path="url(#pd05f09f0f5)" style="fill: none; stroke: #2f3a46; stroke-opacity: 0.35; stroke-width: 0.5; stroke-linecap: round"/>
     </g>
     <g id="line2d_6">
      <g>
       <use xlink:href="#m1de4824a76" x="246.475015" y="23.213303" style="fill: #e6edf3; stroke: #e6edf3; stroke-width: 0.5"/>
      </g>
     </g>
     <g id="text_3">
      <!-- $\mathdefault{0.80}$ -->
      <g style="fill: #e6edf3" transform="translate(233.341412 360.624459) scale(0.16 -0.16)">
       <defs>
        <path id="LMRoman17-Regular-38" d="M 2720 1011 
C 2720 1590 2330 1858 2074 2029 
C 1984 2092 1933 2124 1741 2264 
C 2144 2468 2554 2773 2554 3263 
C 2554 3842 1990 4179 1472 4179 
C 890 4179 378 3759 378 3180 
C 378 3021 416 2747 666 2505 
C 730 2442 998 2251 1171 2130 
C 883 1983 211 1634 211 934 
C 211 279 838 -128 1459 -128 
C 2144 -128 2720 362 2720 1011 
z
M 2336 3262 
C 2336 2669 1670 2331 1638 2331 
C 1638 2331 1626 2331 1574 2370 
L 902 2822 
C 851 2854 595 3051 595 3351 
C 595 3739 998 4032 1459 4032 
C 1965 4032 2336 3676 2336 3262 
z
M 2483 851 
C 2483 381 2010 25 1472 25 
C 890 25 448 438 448 940 
C 448 1443 838 1862 1280 2060 
L 2080 1519 
C 2176 1449 2483 1240 2483 851 
z
" transform="scale(0.015625)"/>
       </defs>
       <use xlink:href="#LMRoman17-Regular-30" transform="scale(0.996264)"/>
       <use xlink:href="#LMMathItalic12-Regular-3a" transform="translate(45.690948 0) scale(0.996264)"/>
       <use xlink:href="#LMRoman17-Regular-38" transform="translate(72.788125 0) scale(0.996264)"/>
       <use xlink:href="#LMRoman17-Regular-30" transform="translate(118.479074 0) scale(0.996264)"/>
      </g>
     </g>
    </g>
    <g id="xtick_4">
     <g id="line2d_7">
      <path d="M 315.465951 346.23381 
L 315.465951 23.213303 
" clip-path="url(#pd05f09f0f5)" style="fill: none; stroke: #2f3a46; stroke-opacity: 0.35; stroke-width: 0.5; stroke-linecap: round"/>
     </g>
     <g id="line2d_8">
      <g>
       <use xlink:href="#m1de4824a76" x="315.465951" y="23.213303" style="fill: #e6edf3; stroke: #e6edf3; stroke-width: 0.5"/>
      </g>
     </g>
     <g id="text_4">
      <!-- $\mathdefault{0.85}$ -->
      <g style="fill: #e6edf3" transform="translate(302.332348 360.624459) scale(0.16 -0.16)">
       <use xlink:href="#LMRoman17-Regular-30" transform="scale(0.996264)"/>
       <use xlink:href="#LMMathItalic12-Regular-3a" transform="translate(45.690948 0) scale(0.996264)"/>
       <use xlink:href="#LMRoman17-Regular-38" transform="translate(72.788125 0) scale(0.996264)"/>
       <use xlink:href="#LMRoman17-Regular-35" transform="translate(118.479074 0) scale(0.996264)"/>
      </g>
     </g>
    </g>
    <g id="xtick_5">
     <g id="line2d_9">
      <path d="M 384.456887 346.23381 
L 384.456887 23.213303 
" clip-path="url(#pd05f09f0f5)" style="fill: none; stroke: #2f3a46; stroke-opacity: 0.35; stroke-width: 0.5; stroke-linecap: round"/>
     </g>
     <g id="line2d_10">
      <g>
       <use xlink:href="#m1de4824a76" x="384.456887" y="23.213303" style="fill: #e6edf3; stroke: #e6edf3; stroke-width: 0.5"/>
      </g>
     </g>
     <g id="text_5">
      <!-- $\mathdefault{0.90}$ -->
      <g style="fill: #e6edf3" transform="translate(371.323284 360.624459) scale(0.16 -0.16)">
       <defs>
        <path id="LMRoman17-Regular-39" d="M 2688 2073 
C 2688 3817 1971 4179 1485 4179 
C 851 4179 243 3628 243 2778 
C 243 1991 762 1408 1414 1408 
C 1952 1408 2189 1903 2253 2112 
L 2253 1864 
C 2253 464 1670 31 1190 31 
C 1043 31 685 31 538 294 
C 704 268 826 357 826 518 
C 826 692 685 749 595 749 
C 538 749 365 723 365 506 
C 365 71 742 -128 1203 -128 
C 1939 -128 2688 674 2688 2073 
z
M 2240 2632 
C 2240 2182 2035 1510 1427 1510 
C 1254 1510 1011 1542 813 1922 
C 678 2169 678 2461 678 2771 
C 678 3146 678 3405 858 3684 
C 947 3817 1114 4032 1485 4032 
C 2240 4032 2240 2885 2240 2632 
z
" transform="scale(0.015625)"/>
       </defs>
       <use xlink:href="#LMRoman17-Regular-30" transform="scale(0.996264)"/>
       <use xlink:href="#LMMathItalic12-Regular-3a" transform="translate(45.690948 0) scale(0.996264)"/>
       <use xlink:href="#LMRoman17-Regular-39" transform="translate(72.788125 0) scale(0.996264)"/>
       <use xlink:href="#LMRoman17-Regular-30" transform="translate(118.479074 0) scale(0.996264)"/>
      </g>
     </g>
    </g>
    <g id="xtick_6">
     <g id="line2d_11">
      <path d="M 453.447823 346.23381 
L 453.447823 23.213303 
" clip-path="url(#pd05f09f0f5)" style="fill: none; stroke: #2f3a46; stroke-opacity: 0.35; stroke-width: 0.5; stroke-linecap: round"/>
     </g>
     <g id="line2d_12">
      <g>
       <use xlink:href="#m1de4824a76" x="453.447823" y="23.213303" style="fill: #e6edf3; stroke: #e6edf3; stroke-width: 0.5"/>
      </g>
     </g>
     <g id="text_6">
      <!-- $\mathdefault{0.95}$ -->
      <g style="fill: #e6edf3" transform="translate(440.31422 360.624459) scale(0.16 -0.16)">
       <use xlink:href="#LMRoman17-Regular-30" transform="scale(0.996264)"/>
       <use xlink:href="#LMMathItalic12-Regular-3a" transform="translate(45.690948 0) scale(0.996264)"/>
       <use xlink:href="#LMRoman17-Regular-39" transform="translate(72.788125 0) scale(0.996264)"/>
       <use xlink:href="#LMRoman17-Regular-35" transform="translate(118.479074 0) scale(0.996264)"/>
      </g>
     </g>
    </g>
    <g id="xtick_7">
     <g id="line2d_13">
      <path d="M 522.438759 346.23381 
L 522.438759 23.213303 
" clip-path="url(#pd05f09f0f5)" style="fill: none; stroke: #2f3a46; stroke-opacity: 0.35; stroke-width: 0.5; stroke-linecap: round"/>
     </g>
     <g id="line2d_14">
      <g>
       <use xlink:href="#m1de4824a76" x="522.438759" y="23.213303" style="fill: #e6edf3; stroke: #e6edf3; stroke-width: 0.5"/>
      </g>
     </g>
     <g id="text_7">
      <!-- $\mathdefault{1.00}$ -->
      <g style="fill: #e6edf3" transform="translate(509.305156 360.624459) scale(0.16 -0.16)">
       <defs>
        <path id="LMRoman17-Regular-31" d="M 2458 0 
L 2458 160 
L 2266 160 
C 1715 160 1702 230 1702 458 
L 1702 4058 
C 1702 4192 1696 4192 1606 4192 
C 1357 3916 979 3827 621 3827 
C 602 3827 570 3827 563 3808 
C 557 3795 557 3782 557 3648 
C 755 3648 1088 3686 1344 3839 
L 1344 461 
C 1344 236 1331 160 781 160 
L 589 160 
L 589 0 
L 1523 0 
L 2458 0 
z
" transform="scale(0.015625)"/>
       </defs>
       <use xlink:href="#LMRoman17-Regular-31" transform="scale(0.996264)"/>
       <use xlink:href="#LMMathItalic12-Regular-3a" transform="translate(45.690948 0) scale(0.996264)"/>
       <use xlink:href="#LMRoman17-Regular-30" transform="translate(72.788125 0) scale(0.996264)"/>
       <use xlink:href="#LMRoman17-Regular-30" transform="translate(118.479074 0) scale(0.996264)"/>
      </g>
     </g>
    </g>
    <g id="xtick_8">
     <g id="line2d_15">
      <defs>
       <path id="m762581c4f6" d="M 0 0 
L 0 1.5 
" style="stroke: #e6edf3; stroke-width: 0.5"/>
      </defs>
      <g>
       <use xlink:href="#m762581c4f6" x="67.098582" y="23.213303" style="fill: #e6edf3; stroke: #e6edf3; stroke-width: 0.5"/>
      </g>
     </g>
    </g>
    <g id="xtick_9">
     <g id="line2d_16">
      <g>
       <use xlink:href="#m762581c4f6" x="80.896769" y="23.213303" style="fill: #e6edf3; stroke: #e6edf3; stroke-width: 0.5"/>
      </g>
     </g>
    </g>
    <g id="xtick_10">
     <g id="line2d_17">
      <g>
       <use xlink:href="#m762581c4f6" x="94.694956" y="23.213303" style="fill: #e6edf3; stroke: #e6edf3; stroke-width: 0.5"/>
      </g>
     </g>
    </g>
    <g id="xtick_11">
     <g id="line2d_18">
      <g>
       <use xlink:href="#m762581c4f6" x="122.29133" y="23.213303" style="fill: #e6edf3; stroke: #e6edf3; stroke-width: 0.5"/>
      </g>
     </g>
    </g>
    <g id="xtick_12">
     <g id="line2d_19">
      <g>
       <use xlink:href="#m762581c4f6" x="136.089518" y="23.213303" style="fill: #e6edf3; stroke: #e6edf3; stroke-width: 0.5"/>
      </g>
     </g>
    </g>
    <g id="xtick_13">
     <g id="line2d_20">
      <g>
       <use xlink:href="#m762581c4f6" x="149.887705" y="23.213303" style="fill: #e6edf3; stroke: #e6edf3; stroke-width: 0.5"/>
      </g>
     </g>
    </g>
    <g id="xtick_14">
     <g id="line2d_21">
      <g>
       <use xlink:href="#m762581c4f6" x="163.685892" y="23.213303" style="fill: #e6edf3; stroke: #e6edf3; stroke-width: 0.5"/>
      </g>
     </g>
    </g>
    <g id="xtick_15">
     <g id="line2d_22">
      <g>
       <use xlink:href="#m762581c4f6" x="191.282266" y="23.213303" style="fill: #e6edf3; stroke: #e6edf3; stroke-width: 0.5"/>
      </g>
     </g>
    </g>
    <g id="xtick_16">
     <g id="line2d_23">
      <g>
       <use xlink:href="#m762581c4f6" x="205.080453" y="23.213303" style="fill: #e6edf3; stroke: #e6edf3; stroke-width: 0.5"/>
      </g>
     </g>
    </g>
    <g id="xtick_17">
     <g id="line2d_24">
      <g>
       <use xlink:href="#m762581c4f6" x="218.878641" y="23.213303" style="fill: #e6edf3; stroke: #e6edf3; stroke-width: 0.5"/>
      </g>
     </g>
    </g>
    <g id="xtick_18">
     <g id="line2d_25">
      <g>
       <use xlink:href="#m762581c4f6" x="232.676828" y="23.213303" style="fill: #e6edf3; stroke: #e6edf3; stroke-width: 0.5"/>
      </g>
     </g>
    </g>
    <g id="xtick_19">
     <g id="line2d_26">
      <g>
       <use xlink:href="#m762581c4f6" x="260.273202" y="23.213303" style="fill: #e6edf3; stroke: #e6edf3; stroke-width: 0.5"/>
      </g>
     </g>
    </g>
    <g id="xtick_20">
     <g id="line2d_27">
      <g>
       <use xlink:href="#m762581c4f6" x="274.071389" y="23.213303" style="fill: #e6edf3; stroke: #e6edf3; stroke-width: 0.5"/>
      </g>
     </g>
    </g>
    <g id="xtick_21">
     <g id="line2d_28">
      <g>
       <use xlink:href="#m762581c4f6" x="287.869577" y="23.213303" style="fill: #e6edf3; stroke: #e6edf3; stroke-width: 0.5"/>
      </g>
     </g>
    </g>
    <g id="xtick_22">
     <g id="line2d_29">
      <g>
       <use xlink:href="#m762581c4f6" x="301.667764" y="23.213303" style="fill: #e6edf3; stroke: #e6edf3; stroke-width: 0.5"/>
      </g>
     </g>
    </g>
    <g id="xtick_23">
     <g id="line2d_30">
      <g>
       <use xlink:href="#m762581c4f6" x="329.264138" y="23.213303" style="fill: #e6edf3; stroke: #e6edf3; stroke-width: 0.5"/>
      </g>
     </g>
    </g>
    <g id="xtick_24">
     <g id="line2d_31">
      <g>
       <use xlink:href="#m762581c4f6" x="343.062325" y="23.213303" style="fill: #e6edf3; stroke: #e6edf3; stroke-width: 0.5"/>
      </g>
     </g>
    </g>
    <g id="xtick_25">
     <g id="line2d_32">
      <g>
       <use xlink:href="#m762581c4f6" x="356.860512" y="23.213303" style="fill: #e6edf3; stroke: #e6edf3; stroke-width: 0.5"/>
      </g>
     </g>
    </g>
    <g id="xtick_26">
     <g id="line2d_33">
      <g>
       <use xlink:href="#m762581c4f6" x="370.6587" y="23.213303" style="fill: #e6edf3; stroke: #e6edf3; stroke-width: 0.5"/>
      </g>
     </g>
    </g>
    <g id="xtick_27">
     <g id="line2d_34">
      <g>
       <use xlink:href="#m762581c4f6" x="398.255074" y="23.213303" style="fill: #e6edf3; stroke: #e6edf3; stroke-width: 0.5"/>
      </g>
     </g>
    </g>
    <g id="xtick_28">
     <g id="line2d_35">
      <g>
       <use xlink:href="#m762581c4f6" x="412.053261" y="23.213303" style="fill: #e6edf3; stroke: #e6edf3; stroke-width: 0.5"/>
      </g>
     </g>
    </g>
    <g id="xtick_29">
     <g id="line2d_36">
      <g>
       <use xlink:href="#m762581c4f6" x="425.851448" y="23.213303" style="fill: #e6edf3; stroke: #e6edf3; stroke-width: 0.5"/>
      </g>
     </g>
    </g>
    <g id="xtick_30">
     <g id="line2d_37">
      <g>
       <use xlink:href="#m762581c4f6" x="439.649636" y="23.213303" style="fill: #e6edf3; stroke: #e6edf3; stroke-width: 0.5"/>
      </g>
     </g>
    </g>
    <g id="xtick_31">
     <g id="line2d_38">
      <g>
       <use xlink:href="#m762581c4f6" x="467.24601" y="23.213303" style="fill: #e6edf3; stroke: #e6edf3; stroke-width: 0.5"/>
      </g>
     </g>
    </g>
    <g id="xtick_32">
     <g id="line2d_39">
      <g>
       <use xlink:href="#m762581c4f6" x="481.044197" y="23.213303" style="fill: #e6edf3; stroke: #e6edf3; stroke-width: 0.5"/>
      </g>
     </g>
    </g>
    <g id="xtick_33">
     <g id="line2d_40">
      <g>
       <use xlink:href="#m762581c4f6" x="494.842384" y="23.213303" style="fill: #e6edf3; stroke: #e6edf3; stroke-width: 0.5"/>
      </g>
     </g>
    </g>
    <g id="xtick_34">
     <g id="line2d_41">
      <g>
       <use xlink:href="#m762581c4f6" x="508.640571" y="23.213303" style="fill: #e6edf3; stroke: #e6edf3; stroke-width: 0.5"/>
      </g>
     </g>
    </g>
    <g id="text_8">
     <!-- $\cos(\vec{\Delta}^{(c)},\, \vec{\Delta}^{(c^\prime)})$ -->
     <g style="fill: #e6edf3" transform="translate(237.214253 387.435402) scale(0.2 -0.2)">
      <defs>
       <path id="LMRoman17-Regular-63" d="M 2458 748 
C 2458 774 2451 793 2406 793 
C 2362 793 2355 787 2330 703 
C 2163 180 1798 51 1523 51 
C 1114 51 621 427 621 1369 
C 621 2338 1094 2688 1472 2688 
C 1722 2688 2093 2573 2234 2240 
C 2112 2240 1933 2240 1933 2017 
C 1933 1838 2080 1787 2163 1787 
C 2208 1787 2394 1807 2394 2024 
C 2394 2467 1958 2803 1466 2803 
C 787 2803 211 2178 211 1363 
C 211 516 813 -64 1466 -64 
C 2259 -64 2458 677 2458 748 
z
" transform="scale(0.015625)"/>
       <path id="LMRoman17-Regular-6f" d="M 2758 1356 
C 2758 2176 2163 2816 1466 2816 
C 768 2816 173 2176 173 1356 
C 173 551 768 -64 1466 -64 
C 2163 -64 2758 551 2758 1356 
z
M 2349 1408 
C 2349 1158 2336 775 2163 467 
C 1984 173 1709 51 1466 51 
C 1165 51 909 230 762 480 
C 602 767 582 1126 582 1408 
C 582 1677 595 2010 762 2298 
C 890 2509 1139 2714 1466 2714 
C 1754 2714 1997 2554 2150 2330 
C 2349 2029 2349 1607 2349 1408 
z
" transform="scale(0.015625)"/>
       <path id="LMRoman17-Regular-73" d="M 2131 784 
C 2131 1112 1958 1285 1875 1362 
C 1683 1561 1459 1606 1190 1657 
C 838 1735 390 1825 390 2217 
C 390 2383 480 2737 1126 2737 
C 1811 2737 1850 2094 1862 1888 
C 1869 1856 1901 1849 1920 1849 
C 1978 1849 1978 1869 1978 1978 
L 1978 2697 
C 1978 2813 1971 2819 1933 2819 
C 1907 2819 1901 2813 1824 2717 
C 1805 2691 1747 2626 1728 2601 
C 1523 2819 1235 2819 1126 2819 
C 416 2819 160 2447 160 2076 
C 160 1498 813 1365 998 1325 
C 1402 1243 1542 1217 1677 1101 
C 1760 1025 1901 884 1901 654 
C 1901 384 1747 38 1158 38 
C 602 38 403 460 288 1021 
C 269 1110 269 1117 218 1117 
C 166 1117 160 1110 160 983 
L 160 63 
C 160 -51 166 -58 205 -58 
C 237 -58 243 -51 275 0 
L 448 276 
C 576 103 800 -64 1158 -64 
C 1792 -64 2131 283 2131 784 
z
" transform="scale(0.015625)"/>
       <path id="LMRoman17-Regular-28" d="M 1958 -1561 
C 1958 -1561 1958 -1542 1939 -1523 
C 1645 -1224 858 -407 858 1581 
C 858 3569 1632 4379 1946 4697 
C 1946 4697 1958 4717 1958 4736 
C 1958 4755 1939 4768 1914 4768 
C 1843 4768 1299 4296 986 3594 
C 666 2887 576 2199 576 1588 
C 576 1128 621 351 1005 -471 
C 1312 -1135 1837 -1600 1914 -1600 
C 1946 -1600 1958 -1587 1958 -1561 
z
" transform="scale(0.015625)"/>
       <path id="LMMathItalic12-Regular-7e" d="M 3942 3956 
C 3942 4014 3891 4046 3853 4078 
C 3674 4200 3629 4372 3610 4449 
C 3590 4500 3571 4577 3482 4577 
C 3443 4577 3366 4552 3366 4456 
C 3366 4398 3405 4244 3526 4072 
L 1376 4072 
C 1267 4072 1158 4072 1158 3950 
C 1158 3835 1274 3835 1376 3835 
L 3424 3835 
C 3347 3764 3110 3540 3110 3451 
C 3110 3387 3168 3329 3232 3329 
C 3290 3329 3315 3368 3360 3432 
C 3514 3624 3686 3745 3834 3828 
C 3898 3867 3942 3886 3942 3956 
z
" transform="scale(0.015625)"/>
       <path id="LMRoman17-Regular-1" d="M 4698 32 
C 4698 32 4672 96 4666 109 
L 2598 4403 
C 2547 4512 2522 4512 2470 4512 
C 2394 4512 2387 4499 2342 4409 
L 269 109 
C 262 96 237 32 237 32 
C 237 6 243 0 358 0 
L 4576 0 
C 4691 0 4698 6 4698 32 
z
M 4083 358 
L 531 358 
L 2310 4027 
L 4083 358 
z
" transform="scale(0.015625)"/>
       <path id="LMMathItalic12-Regular-63" d="M 2675 706 
C 2675 744 2637 776 2611 776 
C 2592 776 2586 770 2528 713 
C 2118 162 1510 64 1267 64 
C 826 64 685 446 685 764 
C 685 988 794 1605 1024 2039 
C 1190 2338 1536 2682 1939 2682 
C 2022 2682 2374 2682 2502 2431 
C 2381 2431 2323 2431 2234 2355 
C 2195 2323 2125 2227 2125 2125 
C 2125 1997 2221 1920 2342 1920 
C 2496 1920 2669 2044 2669 2292 
C 2669 2588 2374 2816 1933 2816 
C 1094 2816 256 1903 256 996 
C 256 441 602 -64 1254 -64 
C 2125 -64 2675 622 2675 706 
z
" transform="scale(0.015625)"/>
       <path id="LMRoman17-Regular-29" d="M 1683 1581 
C 1683 2040 1638 2817 1254 3639 
C 947 4303 422 4768 346 4768 
C 326 4768 301 4761 301 4729 
C 301 4729 307 4710 314 4697 
C 621 4378 1402 3568 1402 1584 
C 1402 -407 627 -1217 314 -1537 
C 307 -1549 301 -1568 301 -1568 
C 301 -1600 326 -1600 346 -1600 
C 416 -1600 960 -1128 1274 -426 
C 1594 281 1683 969 1683 1581 
z
" transform="scale(0.015625)"/>
       <path id="LMMathItalic12-Regular-3b" d="M 1248 -31 
C 1248 343 1126 619 864 619 
C 659 619 557 453 557 313 
C 557 172 653 0 870 0 
C 954 0 1024 26 1082 83 
C 1094 96 1107 96 1107 96 
C 1107 96 1120 5 1120 -27 
C 1120 -240 1082 -659 710 -1080 
C 640 -1157 640 -1183 640 -1183 
C 640 -1216 672 -1248 704 -1248 
C 755 -1248 1248 -771 1248 -31 
z
" transform="scale(0.015625)"/>
       <path id="LMMathSymbols10-Regular-30" d="M 1632 3066 
C 1677 3162 1677 3219 1677 3245 
C 1677 3437 1498 3578 1318 3578 
C 1062 3578 1005 3366 979 3283 
L 205 493 
C 198 467 186 435 186 403 
C 186 333 352 288 403 288 
C 403 288 448 288 486 378 
L 1632 3066 
z
" transform="scale(0.015625)"/>
      </defs>
      <use xlink:href="#LMRoman17-Regular-63" transform="scale(0.996264)"/>
      <use xlink:href="#LMRoman17-Regular-6f" transform="translate(40.484809 0) scale(0.996264)"/>
      <use xlink:href="#LMRoman17-Regular-73" transform="translate(86.175758 0) scale(0.996264)"/>
      <use xlink:href="#LMRoman17-Regular-28" transform="translate(122.120554 0) scale(0.996264)"/>
      <use xlink:href="#LMMathItalic12-Regular-7e" transform="translate(163.813495 27.541267) scale(0.996264)"/>
      <use xlink:href="#LMRoman17-Regular-1" transform="translate(157.402082 0) scale(0.996264)"/>
      <use xlink:href="#LMRoman17-Regular-28" transform="translate(234.324241 36.153639) scale(0.697382)"/>
      <use xlink:href="#LMMathItalic12-Regular-63" transform="translate(259.021194 36.153639) scale(0.697382)"/>
      <use xlink:href="#LMRoman17-Regular-29" transform="translate(288.409325 36.153639) scale(0.697382)"/>
      <use xlink:href="#LMMathItalic12-Regular-3b" transform="translate(313.604409 0) scale(0.996264)"/>
      <use xlink:href="#LMMathItalic12-Regular-7e" transform="translate(380.32181 27.541267) scale(0.996264)"/>
      <use xlink:href="#LMRoman17-Regular-1" transform="translate(373.910397 0) scale(0.996264)"/>
      <use xlink:href="#LMRoman17-Regular-28" transform="translate(450.832556 36.153639) scale(0.697382)"/>
      <use xlink:href="#LMMathItalic12-Regular-63" transform="translate(475.529508 36.153639) scale(0.697382)"/>
      <use xlink:href="#LMMathSymbols10-Regular-30" transform="translate(504.91764 61.461065) scale(0.498132)"/>
      <use xlink:href="#LMRoman17-Regular-29" transform="translate(519.114372 36.153639) scale(0.697382)"/>
      <use xlink:href="#LMRoman17-Regular-29" transform="translate(544.309456 0) scale(0.996264)"/>
     </g>
    </g>
   </g>
   <g id="matplotlib.axis_2">
    <g id="ytick_1">
     <g id="line2d_42">
      <path d="M 57.831009 346.23381 
L 535.197349 346.23381 
" clip-path="url(#pd05f09f0f5)" style="fill: none; stroke: #2f3a46; stroke-opacity: 0.35; stroke-width: 0.5; stroke-linecap: round"/>
     </g>
     <g id="line2d_43">
      <defs>
       <path id="m43c1514c8b" d="M 0 0 
L -3 0 
" style="stroke: #e6edf3; stroke-width: 0.5"/>
      </defs>
      <g>
       <use xlink:href="#m43c1514c8b" x="535.197349" y="346.23381" style="fill: #e6edf3; stroke: #e6edf3; stroke-width: 0.5"/>
      </g>
     </g>
     <g id="text_9">
      <!-- $\mathdefault{0}$ -->
      <g style="fill: #e6edf3" transform="translate(47.020456 351.679135) scale(0.16 -0.16)">
       <use xlink:href="#LMRoman17-Regular-30" transform="scale(0.996264)"/>
      </g>
     </g>
    </g>
    <g id="ytick_2">
     <g id="line2d_44">
      <path d="M 57.831009 297.40229 
L 535.197349 297.40229 
" clip-path="url(#pd05f09f0f5)" style="fill: none; stroke: #2f3a46; stroke-opacity: 0.35; stroke-width: 0.5; stroke-linecap: round"/>
     </g>
     <g id="line2d_45">
      <g>
       <use xlink:href="#m43c1514c8b" x="535.197349" y="297.40229" style="fill: #e6edf3; stroke: #e6edf3; stroke-width: 0.5"/>
      </g>
     </g>
     <g id="text_10">
      <!-- $\mathdefault{200}$ -->
      <g style="fill: #e6edf3" transform="translate(32.399352 302.847614) scale(0.16 -0.16)">
       <defs>
        <path id="LMRoman17-Regular-32" d="M 2669 989 
L 2554 989 
C 2490 536 2438 459 2413 420 
C 2381 369 1920 369 1830 369 
L 602 369 
L 1824 1597 
C 2214 1967 2669 2402 2669 3035 
C 2669 3790 2067 4224 1395 4224 
C 691 4224 262 3604 262 3030 
C 262 2780 448 2748 525 2748 
C 589 2748 781 2787 781 3010 
C 781 3207 614 3264 525 3264 
C 486 3264 448 3258 422 3245 
C 544 3790 915 4058 1306 4058 
C 1862 4058 2227 3617 2227 3035 
C 2227 2479 1901 2000 1536 1584 
L 262 146 
L 262 0 
L 2515 0 
L 2669 989 
z
" transform="scale(0.015625)"/>
       </defs>
       <use xlink:href="#LMRoman17-Regular-32" transform="scale(0.996264)"/>
       <use xlink:href="#LMRoman17-Regular-30" transform="translate(45.690948 0) scale(0.996264)"/>
       <use xlink:href="#LMRoman17-Regular-30" transform="translate(91.381897 0) scale(0.996264)"/>
      </g>
     </g>
    </g>
    <g id="ytick_3">
     <g id="line2d_46">
      <path d="M 57.831009 248.57077 
L 535.197349 248.57077 
" clip-path="url(#pd05f09f0f5)" style="fill: none; stroke: #2f3a46; stroke-opacity: 0.35; stroke-width: 0.5; stroke-linecap: round"/>
     </g>
     <g id="line2d_47">
      <g>
       <use xlink:href="#m43c1514c8b" x="535.197349" y="248.57077" style="fill: #e6edf3; stroke: #e6edf3; stroke-width: 0.5"/>
      </g>
     </g>
     <g id="text_11">
      <!-- $\mathdefault{400}$ -->
      <g style="fill: #e6edf3" transform="translate(32.399352 254.016094) scale(0.16 -0.16)">
       <defs>
        <path id="LMRoman17-Regular-34" d="M 2803 1114 
L 2803 1280 
L 2150 1280 
L 2150 4154 
C 2150 4288 2144 4288 2029 4288 
L 128 1280 
L 128 1114 
L 1779 1114 
L 1779 487 
C 1779 255 1766 192 1318 192 
L 1197 192 
L 1197 32 
C 1402 32 1747 32 1965 32 
C 2182 32 2528 32 2733 32 
L 2733 192 
L 2611 192 
C 2163 192 2150 255 2150 487 
L 2150 1114 
L 2803 1114 
z
M 1798 1280 
L 256 1280 
L 1798 3734 
L 1798 1280 
z
" transform="scale(0.015625)"/>
       </defs>
       <use xlink:href="#LMRoman17-Regular-34" transform="scale(0.996264)"/>
       <use xlink:href="#LMRoman17-Regular-30" transform="translate(45.690948 0) scale(0.996264)"/>
       <use xlink:href="#LMRoman17-Regular-30" transform="translate(91.381897 0) scale(0.996264)"/>
      </g>
     </g>
    </g>
    <g id="ytick_4">
     <g id="line2d_48">
      <path d="M 57.831009 199.739249 
L 535.197349 199.739249 
" clip-path="url(#pd05f09f0f5)" style="fill: none; stroke: #2f3a46; stroke-opacity: 0.35; stroke-width: 0.5; stroke-linecap: round"/>
     </g>
     <g id="line2d_49">
      <g>
       <use xlink:href="#m43c1514c8b" x="535.197349" y="199.739249" style="fill: #e6edf3; stroke: #e6edf3; stroke-width: 0.5"/>
      </g>
     </g>
     <g id="text_12">
      <!-- $\mathdefault{600}$ -->
      <g style="fill: #e6edf3" transform="translate(32.399352 205.184573) scale(0.16 -0.16)">
       <defs>
        <path id="LMRoman17-Regular-36" d="M 2688 1283 
C 2688 2081 2170 2662 1517 2662 
C 1126 2662 838 2407 678 1960 
L 678 2176 
C 678 3690 1395 4032 1811 4032 
C 1946 4032 2272 4009 2400 3776 
C 2298 3776 2106 3776 2106 3553 
C 2106 3381 2246 3323 2336 3323 
C 2394 3323 2566 3348 2566 3560 
C 2566 3954 2246 4179 1805 4179 
C 1043 4179 243 3390 243 1984 
C 243 253 966 -128 1478 -128 
C 2099 -128 2688 427 2688 1283 
z
M 2253 1289 
C 2253 944 2253 690 2118 434 
C 1978 171 1773 25 1478 25 
C 691 25 691 1200 691 1436 
C 691 1896 909 2560 1504 2560 
C 1613 2560 1926 2560 2138 2120 
C 2253 1870 2253 1609 2253 1289 
z
" transform="scale(0.015625)"/>
       </defs>
       <use xlink:href="#LMRoman17-Regular-36" transform="scale(0.996264)"/>
       <use xlink:href="#LMRoman17-Regular-30" transform="translate(45.690948 0) scale(0.996264)"/>
       <use xlink:href="#LMRoman17-Regular-30" transform="translate(91.381897 0) scale(0.996264)"/>
      </g>
     </g>
    </g>
    <g id="ytick_5">
     <g id="line2d_50">
      <path d="M 57.831009 150.907729 
L 535.197349 150.907729 
" clip-path="url(#pd05f09f0f5)" style="fill: none; stroke: #2f3a46; stroke-opacity: 0.35; stroke-width: 0.5; stroke-linecap: round"/>
     </g>
     <g id="line2d_51">
      <g>
       <use xlink:href="#m43c1514c8b" x="535.197349" y="150.907729" style="fill: #e6edf3; stroke: #e6edf3; stroke-width: 0.5"/>
      </g>
     </g>
     <g id="text_13">
      <!-- $\mathdefault{800}$ -->
      <g style="fill: #e6edf3" transform="translate(32.399352 156.353053) scale(0.16 -0.16)">
       <use xlink:href="#LMRoman17-Regular-38" transform="scale(0.996264)"/>
       <use xlink:href="#LMRoman17-Regular-30" transform="translate(45.690948 0) scale(0.996264)"/>
       <use xlink:href="#LMRoman17-Regular-30" transform="translate(91.381897 0) scale(0.996264)"/>
      </g>
     </g>
    </g>
    <g id="ytick_6">
     <g id="line2d_52">
      <path d="M 57.831009 102.076208 
L 535.197349 102.076208 
" clip-path="url(#pd05f09f0f5)" style="fill: none; stroke: #2f3a46; stroke-opacity: 0.35; stroke-width: 0.5; stroke-linecap: round"/>
     </g>
     <g id="line2d_53">
      <g>
       <use xlink:href="#m43c1514c8b" x="535.197349" y="102.076208" style="fill: #e6edf3; stroke: #e6edf3; stroke-width: 0.5"/>
      </g>
     </g>
     <g id="text_14">
      <!-- $\mathdefault{1000}$ -->
      <g style="fill: #e6edf3" transform="translate(25.088799 107.521532) scale(0.16 -0.16)">
       <use xlink:href="#LMRoman17-Regular-31" transform="scale(0.996264)"/>
       <use xlink:href="#LMRoman17-Regular-30" transform="translate(45.690948 0) scale(0.996264)"/>
       <use xlink:href="#LMRoman17-Regular-30" transform="translate(91.381897 0) scale(0.996264)"/>
       <use xlink:href="#LMRoman17-Regular-30" transform="translate(137.072845 0) scale(0.996264)"/>
      </g>
     </g>
    </g>
    <g id="ytick_7">
     <g id="line2d_54">
      <path d="M 57.831009 53.244688 
L 535.197349 53.244688 
" clip-path="url(#pd05f09f0f5)" style="fill: none; stroke: #2f3a46; stroke-opacity: 0.35; stroke-width: 0.5; stroke-linecap: round"/>
     </g>
     <g id="line2d_55">
      <g>
       <use xlink:href="#m43c1514c8b" x="535.197349" y="53.244688" style="fill: #e6edf3; stroke: #e6edf3; stroke-width: 0.5"/>
      </g>
     </g>
     <g id="text_15">
      <!-- $\mathdefault{1200}$ -->
      <g style="fill: #e6edf3" transform="translate(25.088799 58.690012) scale(0.16 -0.16)">
       <use xlink:href="#LMRoman17-Regular-31" transform="scale(0.996264)"/>
       <use xlink:href="#LMRoman17-Regular-32" transform="translate(45.690948 0) scale(0.996264)"/>
       <use xlink:href="#LMRoman17-Regular-30" transform="translate(91.381897 0) scale(0.996264)"/>
       <use xlink:href="#LMRoman17-Regular-30" transform="translate(137.072845 0) scale(0.996264)"/>
      </g>
     </g>
    </g>
    <g id="ytick_8">
     <g id="line2d_56">
      <defs>
       <path id="mbb82b521b8" d="M 0 0 
L -1.5 0 
" style="stroke: #e6edf3; stroke-width: 0.5"/>
      </defs>
      <g>
       <use xlink:href="#mbb82b521b8" x="535.197349" y="334.02593" style="fill: #e6edf3; stroke: #e6edf3; stroke-width: 0.5"/>
      </g>
     </g>
    </g>
    <g id="ytick_9">
     <g id="line2d_57">
      <g>
       <use xlink:href="#mbb82b521b8" x="535.197349" y="321.81805" style="fill: #e6edf3; stroke: #e6edf3; stroke-width: 0.5"/>
      </g>
     </g>
    </g>
    <g id="ytick_10">
     <g id="line2d_58">
      <g>
       <use xlink:href="#mbb82b521b8" x="535.197349" y="309.61017" style="fill: #e6edf3; stroke: #e6edf3; stroke-width: 0.5"/>
      </g>
     </g>
    </g>
    <g id="ytick_11">
     <g id="line2d_59">
      <g>
       <use xlink:href="#mbb82b521b8" x="535.197349" y="285.19441" style="fill: #e6edf3; stroke: #e6edf3; stroke-width: 0.5"/>
      </g>
     </g>
    </g>
    <g id="ytick_12">
     <g id="line2d_60">
      <g>
       <use xlink:href="#mbb82b521b8" x="535.197349" y="272.98653" style="fill: #e6edf3; stroke: #e6edf3; stroke-width: 0.5"/>
      </g>
     </g>
    </g>
    <g id="ytick_13">
     <g id="line2d_61">
      <g>
       <use xlink:href="#mbb82b521b8" x="535.197349" y="260.77865" style="fill: #e6edf3; stroke: #e6edf3; stroke-width: 0.5"/>
      </g>
     </g>
    </g>
    <g id="ytick_14">
     <g id="line2d_62">
      <g>
       <use xlink:href="#mbb82b521b8" x="535.197349" y="236.362889" style="fill: #e6edf3; stroke: #e6edf3; stroke-width: 0.5"/>
      </g>
     </g>
    </g>
    <g id="ytick_15">
     <g id="line2d_63">
      <g>
       <use xlink:href="#mbb82b521b8" x="535.197349" y="224.155009" style="fill: #e6edf3; stroke: #e6edf3; stroke-width: 0.5"/>
      </g>
     </g>
    </g>
    <g id="ytick_16">
     <g id="line2d_64">
      <g>
       <use xlink:href="#mbb82b521b8" x="535.197349" y="211.947129" style="fill: #e6edf3; stroke: #e6edf3; stroke-width: 0.5"/>
      </g>
     </g>
    </g>
    <g id="ytick_17">
     <g id="line2d_65">
      <g>
       <use xlink:href="#mbb82b521b8" x="535.197349" y="187.531369" style="fill: #e6edf3; stroke: #e6edf3; stroke-width: 0.5"/>
      </g>
     </g>
    </g>
    <g id="ytick_18">
     <g id="line2d_66">
      <g>
       <use xlink:href="#mbb82b521b8" x="535.197349" y="175.323489" style="fill: #e6edf3; stroke: #e6edf3; stroke-width: 0.5"/>
      </g>
     </g>
    </g>
    <g id="ytick_19">
     <g id="line2d_67">
      <g>
       <use xlink:href="#mbb82b521b8" x="535.197349" y="163.115609" style="fill: #e6edf3; stroke: #e6edf3; stroke-width: 0.5"/>
      </g>
     </g>
    </g>
    <g id="ytick_20">
     <g id="line2d_68">
      <g>
       <use xlink:href="#mbb82b521b8" x="535.197349" y="138.699848" style="fill: #e6edf3; stroke: #e6edf3; stroke-width: 0.5"/>
      </g>
     </g>
    </g>
    <g id="ytick_21">
     <g id="line2d_69">
      <g>
       <use xlink:href="#mbb82b521b8" x="535.197349" y="126.491968" style="fill: #e6edf3; stroke: #e6edf3; stroke-width: 0.5"/>
      </g>
     </g>
    </g>
    <g id="ytick_22">
     <g id="line2d_70">
      <g>
       <use xlink:href="#mbb82b521b8" x="535.197349" y="114.284088" style="fill: #e6edf3; stroke: #e6edf3; stroke-width: 0.5"/>
      </g>
     </g>
    </g>
    <g id="ytick_23">
     <g id="line2d_71">
      <g>
       <use xlink:href="#mbb82b521b8" x="535.197349" y="89.868328" style="fill: #e6edf3; stroke: #e6edf3; stroke-width: 0.5"/>
      </g>
     </g>
    </g>
    <g id="ytick_24">
     <g id="line2d_72">
      <g>
       <use xlink:href="#mbb82b521b8" x="535.197349" y="77.660448" style="fill: #e6edf3; stroke: #e6edf3; stroke-width: 0.5"/>
      </g>
     </g>
    </g>
    <g id="ytick_25">
     <g id="line2d_73">
      <g>
       <use xlink:href="#mbb82b521b8" x="535.197349" y="65.452568" style="fill: #e6edf3; stroke: #e6edf3; stroke-width: 0.5"/>
      </g>
     </g>
    </g>
    <g id="ytick_26">
     <g id="line2d_74">
      <g>
       <use xlink:href="#mbb82b521b8" x="535.197349" y="41.036808" style="fill: #e6edf3; stroke: #e6edf3; stroke-width: 0.5"/>
      </g>
     </g>
    </g>
    <g id="ytick_27">
     <g id="line2d_75">
      <g>
       <use xlink:href="#mbb82b521b8" x="535.197349" y="28.828927" style="fill: #e6edf3; stroke: #e6edf3; stroke-width: 0.5"/>
      </g>
     </g>
    </g>
    <g id="text_16">
     <!-- Count -->
     <g style="fill: #e6edf3" transform="translate(17.213303 209.390949) rotate(-90) scale(0.2 -0.2)">
      <defs>
       <path id="LMRoman17-Regular-43" d="M 3974 1461 
C 3974 1524 3974 1550 3917 1550 
C 3866 1550 3866 1531 3859 1474 
C 3808 585 3168 38 2477 38 
C 1824 38 781 495 781 2147 
C 781 3805 1843 4250 2464 4250 
C 3187 4250 3712 3628 3834 2745 
C 3846 2668 3846 2655 3904 2655 
C 3974 2655 3974 2668 3974 2783 
L 3974 4289 
C 3974 4403 3968 4410 3930 4410 
C 3904 4410 3898 4403 3853 4327 
L 3571 3792 
C 3258 4187 2874 4416 2381 4416 
C 1286 4416 294 3456 294 2148 
C 294 826 1286 -128 2387 -128 
C 3366 -128 3974 730 3974 1461 
z
" transform="scale(0.015625)"/>
       <path id="LMRoman17-Regular-75" d="M 3091 -63 
L 3091 128 
C 2714 128 2656 166 2656 473 
L 2656 2763 
L 1882 2693 
L 1882 2528 
C 2259 2528 2317 2489 2317 2186 
L 2317 1032 
C 2317 500 2029 38 1555 38 
C 1030 38 986 348 986 678 
L 986 2763 
L 211 2693 
L 211 2528 
C 467 2528 640 2528 646 2274 
L 646 1058 
C 646 633 646 361 813 183 
C 896 101 1056 -64 1517 -64 
C 2061 -64 2272 377 2323 506 
L 2330 506 
L 2330 -63 
L 3091 -63 
z
" transform="scale(0.015625)"/>
       <path id="LMRoman17-Regular-6e" d="M 3091 -13 
L 3091 153 
C 2682 153 2656 178 2656 428 
L 2656 1933 
C 2656 2259 2592 2790 1837 2790 
C 1331 2790 1069 2400 973 2144 
L 966 2144 
L 966 2790 
L 211 2720 
L 211 2554 
C 589 2554 646 2515 646 2208 
L 646 428 
C 646 184 621 153 211 153 
L 211 -13 
C 365 0 646 0 813 0 
C 979 0 1267 0 1421 -13 
L 1421 153 
C 1011 153 986 178 986 428 
L 986 1658 
C 986 2247 1344 2688 1792 2688 
C 2266 2688 2317 2266 2317 1958 
L 2317 428 
C 2317 184 2291 153 1882 153 
L 1882 -13 
C 2035 0 2317 0 2483 0 
C 2650 0 2938 0 3091 -13 
z
" transform="scale(0.015625)"/>
       <path id="LMRoman17-Regular-74" d="M 1965 777 
L 1965 1140 
L 1850 1140 
L 1850 783 
C 1850 344 1677 51 1408 51 
C 1222 51 966 178 966 758 
L 966 2560 
L 1862 2560 
L 1862 2725 
L 966 2725 
L 966 3904 
L 851 3904 
C 838 3245 614 2668 70 2668 
L 70 2560 
L 627 2560 
L 627 771 
C 627 650 627 -64 1370 -64 
C 1747 -64 1965 306 1965 777 
z
" transform="scale(0.015625)"/>
      </defs>
      <use xlink:href="#LMRoman17-Regular-43" transform="scale(0.996264)"/>
      <use xlink:href="#LMRoman17-Regular-6f" transform="translate(66.509789 0) scale(0.996264)"/>
      <use xlink:href="#LMRoman17-Regular-75" transform="translate(112.200738 0) scale(0.996264)"/>
      <use xlink:href="#LMRoman17-Regular-6e" transform="translate(163.097825 0) scale(0.996264)"/>
      <use xlink:href="#LMRoman17-Regular-74" transform="translate(211.392459 0) scale(0.996264)"/>
     </g>
    </g>
   </g>
   <g id="patch_3">
    <path d="M 79.529479 346.23381 
L 88.208867 346.23381 
L 88.208867 345.989653 
L 79.529479 345.989653 
z
" clip-path="url(#pd05f09f0f5)" style="fill: #8856a7; fill-opacity: 0.6; stroke: #ffffff; stroke-width: 0.811636; stroke-linejoin: miter"/>
   </g>
   <g id="patch_4">
    <path d="M 88.208867 346.23381 
L 96.888255 346.23381 
L 96.888255 346.23381 
L 88.208867 346.23381 
z
" clip-path="url(#pd05f09f0f5)" style="fill: #8856a7; fill-opacity: 0.6; stroke: #ffffff; stroke-width: 0.811636; stroke-linejoin: miter"/>
   </g>
   <g id="patch_5">
    <path d="M 96.888255 346.23381 
L 105.567643 346.23381 
L 105.567643 346.23381 
L 96.888255 346.23381 
z
" clip-path="url(#pd05f09f0f5)" style="fill: #8856a7; fill-opacity: 0.6; stroke: #ffffff; stroke-width: 0.811636; stroke-linejoin: miter"/>
   </g>
   <g id="patch_6">
    <path d="M 105.567643 346.23381 
L 114.247031 346.23381 
L 114.247031 345.25718 
L 105.567643 345.25718 
z
" clip-path="url(#pd05f09f0f5)" style="fill: #8856a7; fill-opacity: 0.6; stroke: #ffffff; stroke-width: 0.811636; stroke-linejoin: miter"/>
   </g>
   <g id="patch_7">
    <path d="M 114.247031 346.23381 
L 122.926419 346.23381 
L 122.926419 345.745495 
L 114.247031 345.745495 
z
" clip-path="url(#pd05f09f0f5)" style="fill: #8856a7; fill-opacity: 0.6; stroke: #ffffff; stroke-width: 0.811636; stroke-linejoin: miter"/>
   </g>
   <g id="patch_8">
    <path d="M 122.926419 346.23381 
L 131.605807 346.23381 
L 131.605807 345.25718 
L 122.926419 345.25718 
z
" clip-path="url(#pd05f09f0f5)" style="fill: #8856a7; fill-opacity: 0.6; stroke: #ffffff; stroke-width: 0.811636; stroke-linejoin: miter"/>
   </g>
   <g id="patch_9">
    <path d="M 131.605807 346.23381 
L 140.285195 346.23381 
L 140.285195 344.768865 
L 131.605807 344.768865 
z
" clip-path="url(#pd05f09f0f5)" style="fill: #8856a7; fill-opacity: 0.6; stroke: #ffffff; stroke-width: 0.811636; stroke-linejoin: miter"/>
   </g>
   <g id="patch_10">
    <path d="M 140.285195 346.23381 
L 148.964583 346.23381 
L 148.964583 344.524707 
L 140.285195 344.524707 
z
" clip-path="url(#pd05f09f0f5)" style="fill: #8856a7; fill-opacity: 0.6; stroke: #ffffff; stroke-width: 0.811636; stroke-linejoin: miter"/>
   </g>
   <g id="patch_11">
    <path d="M 148.964583 346.23381 
L 157.643971 346.23381 
L 157.643971 343.792234 
L 148.964583 343.792234 
z
" clip-path="url(#pd05f09f0f5)" style="fill: #8856a7; fill-opacity: 0.6; stroke: #ffffff; stroke-width: 0.811636; stroke-linejoin: miter"/>
   </g>
   <g id="patch_12">
    <path d="M 157.643971 346.23381 
L 166.323359 346.23381 
L 166.323359 342.327289 
L 157.643971 342.327289 
z
" clip-path="url(#pd05f09f0f5)" style="fill: #8856a7; fill-opacity: 0.6; stroke: #ffffff; stroke-width: 0.811636; stroke-linejoin: miter"/>
   </g>
   <g id="patch_13">
    <path d="M 166.323359 346.23381 
L 175.002747 346.23381 
L 175.002747 342.327289 
L 166.323359 342.327289 
z
" clip-path="url(#pd05f09f0f5)" style="fill: #8856a7; fill-opacity: 0.6; stroke: #ffffff; stroke-width: 0.811636; stroke-linejoin: miter"/>
   </g>
   <g id="patch_14">
    <path d="M 175.002747 346.23381 
L 183.682135 346.23381 
L 183.682135 340.618186 
L 175.002747 340.618186 
z
" clip-path="url(#pd05f09f0f5)" style="fill: #8856a7; fill-opacity: 0.6; stroke: #ffffff; stroke-width: 0.811636; stroke-linejoin: miter"/>
   </g>
   <g id="patch_15">
    <path d="M 183.682135 346.23381 
L 192.361523 346.23381 
L 192.361523 339.15324 
L 183.682135 339.15324 
z
" clip-path="url(#pd05f09f0f5)" style="fill: #8856a7; fill-opacity: 0.6; stroke: #ffffff; stroke-width: 0.811636; stroke-linejoin: miter"/>
   </g>
   <g id="patch_16">
    <path d="M 192.361523 346.23381 
L 201.040911 346.23381 
L 201.040911 340.374028 
L 192.361523 340.374028 
z
" clip-path="url(#pd05f09f0f5)" style="fill: #8856a7; fill-opacity: 0.6; stroke: #ffffff; stroke-width: 0.811636; stroke-linejoin: miter"/>
   </g>
   <g id="patch_17">
    <path d="M 201.040911 346.23381 
L 209.720299 346.23381 
L 209.720299 336.955822 
L 201.040911 336.955822 
z
" clip-path="url(#pd05f09f0f5)" style="fill: #8856a7; fill-opacity: 0.6; stroke: #ffffff; stroke-width: 0.811636; stroke-linejoin: miter"/>
   </g>
   <g id="patch_18">
    <path d="M 209.720299 346.23381 
L 218.399687 346.23381 
L 218.399687 328.410305 
L 209.720299 328.410305 
z
" clip-path="url(#pd05f09f0f5)" style="fill: #8856a7; fill-opacity: 0.6; stroke: #ffffff; stroke-width: 0.811636; stroke-linejoin: miter"/>
   </g>
   <g id="patch_19">
    <path d="M 218.399687 346.23381 
L 227.079075 346.23381 
L 227.079075 332.316827 
L 218.399687 332.316827 
z
" clip-path="url(#pd05f09f0f5)" style="fill: #8856a7; fill-opacity: 0.6; stroke: #ffffff; stroke-width: 0.811636; stroke-linejoin: miter"/>
   </g>
   <g id="patch_20">
    <path d="M 227.079075 346.23381 
L 235.758463 346.23381 
L 235.758463 329.142778 
L 227.079075 329.142778 
z
" clip-path="url(#pd05f09f0f5)" style="fill: #8856a7; fill-opacity: 0.6; stroke: #ffffff; stroke-width: 0.811636; stroke-linejoin: miter"/>
   </g>
   <g id="patch_21">
    <path d="M 235.758463 346.23381 
L 244.437851 346.23381 
L 244.437851 319.132317 
L 235.758463 319.132317 
z
" clip-path="url(#pd05f09f0f5)" style="fill: #8856a7; fill-opacity: 0.6; stroke: #ffffff; stroke-width: 0.811636; stroke-linejoin: miter"/>
   </g>
   <g id="patch_22">
    <path d="M 244.437851 346.23381 
L 253.117239 346.23381 
L 253.117239 315.469953 
L 244.437851 315.469953 
z
" clip-path="url(#pd05f09f0f5)" style="fill: #8856a7; fill-opacity: 0.6; stroke: #ffffff; stroke-width: 0.811636; stroke-linejoin: miter"/>
   </g>
   <g id="patch_23">
    <path d="M 253.117239 346.23381 
L 261.796627 346.23381 
L 261.796627 306.924436 
L 253.117239 306.924436 
z
" clip-path="url(#pd05f09f0f5)" style="fill: #8856a7; fill-opacity: 0.6; stroke: #ffffff; stroke-width: 0.811636; stroke-linejoin: miter"/>
   </g>
   <g id="patch_24">
    <path d="M 261.796627 346.23381 
L 270.476015 346.23381 
L 270.476015 300.820496 
L 261.796627 300.820496 
z
" clip-path="url(#pd05f09f0f5)" style="fill: #8856a7; fill-opacity: 0.6; stroke: #ffffff; stroke-width: 0.811636; stroke-linejoin: miter"/>
   </g>
   <g id="patch_25">
    <path d="M 270.476015 346.23381 
L 279.155403 346.23381 
L 279.155403 275.428106 
L 270.476015 275.428106 
z
" clip-path="url(#pd05f09f0f5)" style="fill: #8856a7; fill-opacity: 0.6; stroke: #ffffff; stroke-width: 0.811636; stroke-linejoin: miter"/>
   </g>
   <g id="patch_26">
    <path d="M 279.155403 346.23381 
L 287.834791 346.23381 
L 287.834791 262.976068 
L 279.155403 262.976068 
z
" clip-path="url(#pd05f09f0f5)" style="fill: #8856a7; fill-opacity: 0.6; stroke: #ffffff; stroke-width: 0.811636; stroke-linejoin: miter"/>
   </g>
   <g id="patch_27">
    <path d="M 287.834791 346.23381 
L 296.514179 346.23381 
L 296.514179 243.44346 
L 287.834791 243.44346 
z
" clip-path="url(#pd05f09f0f5)" style="fill: #8856a7; fill-opacity: 0.6; stroke: #ffffff; stroke-width: 0.811636; stroke-linejoin: miter"/>
   </g>
   <g id="patch_28">
    <path d="M 296.514179 346.23381 
L 305.193567 346.23381 
L 305.193567 215.853651 
L 296.514179 215.853651 
z
" clip-path="url(#pd05f09f0f5)" style="fill: #8856a7; fill-opacity: 0.6; stroke: #ffffff; stroke-width: 0.811636; stroke-linejoin: miter"/>
   </g>
   <g id="patch_29">
    <path d="M 305.193567 346.23381 
L 313.872955 346.23381 
L 313.872955 185.578108 
L 305.193567 185.578108 
z
" clip-path="url(#pd05f09f0f5)" style="fill: #8856a7; fill-opacity: 0.6; stroke: #ffffff; stroke-width: 0.811636; stroke-linejoin: miter"/>
   </g>
   <g id="patch_30">
    <path d="M 313.872955 346.23381 
L 322.552343 346.23381 
L 322.552343 132.351751 
L 313.872955 132.351751 
z
" clip-path="url(#pd05f09f0f5)" style="fill: #8856a7; fill-opacity: 0.6; stroke: #ffffff; stroke-width: 0.811636; stroke-linejoin: miter"/>
   </g>
   <g id="patch_31">
    <path d="M 322.552343 346.23381 
L 331.231731 346.23381 
L 331.231731 105.98273 
L 322.552343 105.98273 
z
" clip-path="url(#pd05f09f0f5)" style="fill: #8856a7; fill-opacity: 0.6; stroke: #ffffff; stroke-width: 0.811636; stroke-linejoin: miter"/>
   </g>
   <g id="patch_32">
    <path d="M 331.231731 346.23381 
L 339.911119 346.23381 
L 339.911119 80.834497 
L 331.231731 80.834497 
z
" clip-path="url(#pd05f09f0f5)" style="fill: #8856a7; fill-opacity: 0.6; stroke: #ffffff; stroke-width: 0.811636; stroke-linejoin: miter"/>
   </g>
   <g id="patch_33">
    <path d="M 339.911119 346.23381 
L 348.590507 346.23381 
L 348.590507 66.673356 
L 339.911119 66.673356 
z
" clip-path="url(#pd05f09f0f5)" style="fill: #8856a7; fill-opacity: 0.6; stroke: #ffffff; stroke-width: 0.811636; stroke-linejoin: miter"/>
   </g>
   <g id="patch_34">
    <path d="M 348.590507 346.23381 
L 357.269895 346.23381 
L 357.269895 38.595231 
L 348.590507 38.595231 
z
" clip-path="url(#pd05f09f0f5)" style="fill: #8856a7; fill-opacity: 0.6; stroke: #ffffff; stroke-width: 0.811636; stroke-linejoin: miter"/>
   </g>
   <g id="patch_35">
    <path d="M 357.269895 346.23381 
L 365.949283 346.23381 
L 365.949283 43.478384 
L 357.269895 43.478384 
z
" clip-path="url(#pd05f09f0f5)" style="fill: #8856a7; fill-opacity: 0.6; stroke: #ffffff; stroke-width: 0.811636; stroke-linejoin: miter"/>
   </g>
   <g id="patch_36">
    <path d="M 365.949283 346.23381 
L 374.628671 346.23381 
L 374.628671 47.87322 
L 365.949283 47.87322 
z
" clip-path="url(#pd05f09f0f5)" style="fill: #8856a7; fill-opacity: 0.6; stroke: #ffffff; stroke-width: 0.811636; stroke-linejoin: miter"/>
   </g>
   <g id="patch_37">
    <path d="M 374.628671 346.23381 
L 383.308059 346.23381 
L 383.308059 70.579877 
L 374.628671 70.579877 
z
" clip-path="url(#pd05f09f0f5)" style="fill: #8856a7; fill-opacity: 0.6; stroke: #ffffff; stroke-width: 0.811636; stroke-linejoin: miter"/>
   </g>
   <g id="patch_38">
    <path d="M 383.308059 346.23381 
L 391.987447 346.23381 
L 391.987447 94.263165 
L 383.308059 94.263165 
z
" clip-path="url(#pd05f09f0f5)" style="fill: #8856a7; fill-opacity: 0.6; stroke: #ffffff; stroke-width: 0.811636; stroke-linejoin: miter"/>
   </g>
   <g id="patch_39">
    <path d="M 391.987447 346.23381 
L 400.666835 346.23381 
L 400.666835 138.944006 
L 391.987447 138.944006 
z
" clip-path="url(#pd05f09f0f5)" style="fill: #8856a7; fill-opacity: 0.6; stroke: #ffffff; stroke-width: 0.811636; stroke-linejoin: miter"/>
   </g>
   <g id="patch_40">
    <path d="M 400.666835 346.23381 
L 409.346223 346.23381 
L 409.346223 160.674033 
L 400.666835 160.674033 
z
" clip-path="url(#pd05f09f0f5)" style="fill: #8856a7; fill-opacity: 0.6; stroke: #ffffff; stroke-width: 0.811636; stroke-linejoin: miter"/>
   </g>
   <g id="patch_41">
    <path d="M 409.346223 346.23381 
L 418.025611 346.23381 
L 418.025611 195.58857 
L 409.346223 195.58857 
z
" clip-path="url(#pd05f09f0f5)" style="fill: #8856a7; fill-opacity: 0.6; stroke: #ffffff; stroke-width: 0.811636; stroke-linejoin: miter"/>
   </g>
   <g id="patch_42">
    <path d="M 418.025611 346.23381 
L 426.704999 346.23381 
L 426.704999 212.92376 
L 418.025611 212.92376 
z
" clip-path="url(#pd05f09f0f5)" style="fill: #8856a7; fill-opacity: 0.6; stroke: #ffffff; stroke-width: 0.811636; stroke-linejoin: miter"/>
   </g>
   <g id="patch_43">
    <path d="M 426.704999 346.23381 
L 435.384387 346.23381 
L 435.384387 235.386259 
L 426.704999 235.386259 
z
" clip-path="url(#pd05f09f0f5)" style="fill: #8856a7; fill-opacity: 0.6; stroke: #ffffff; stroke-width: 0.811636; stroke-linejoin: miter"/>
   </g>
   <g id="patch_44">
    <path d="M 435.384387 346.23381 
L 444.063775 346.23381 
L 444.063775 252.477291 
L 435.384387 252.477291 
z
" clip-path="url(#pd05f09f0f5)" style="fill: #8856a7; fill-opacity: 0.6; stroke: #ffffff; stroke-width: 0.811636; stroke-linejoin: miter"/>
   </g>
   <g id="patch_45">
    <path d="M 444.063775 346.23381 
L 452.743163 346.23381 
L 452.743163 254.67471 
L 444.063775 254.67471 
z
" clip-path="url(#pd05f09f0f5)" style="fill: #8856a7; fill-opacity: 0.6; stroke: #ffffff; stroke-width: 0.811636; stroke-linejoin: miter"/>
   </g>
   <g id="patch_46">
    <path d="M 452.743163 346.23381 
L 461.422551 346.23381 
L 461.422551 257.360443 
L 452.743163 257.360443 
z
" clip-path="url(#pd05f09f0f5)" style="fill: #8856a7; fill-opacity: 0.6; stroke: #ffffff; stroke-width: 0.811636; stroke-linejoin: miter"/>
   </g>
   <g id="patch_47">
    <path d="M 461.422551 346.23381 
L 470.101939 346.23381 
L 470.101939 229.770634 
L 461.422551 229.770634 
z
" clip-path="url(#pd05f09f0f5)" style="fill: #8856a7; fill-opacity: 0.6; stroke: #ffffff; stroke-width: 0.811636; stroke-linejoin: miter"/>
   </g>
   <g id="patch_48">
    <path d="M 470.101939 346.23381 
L 478.781327 346.23381 
L 478.781327 230.014792 
L 470.101939 230.014792 
z
" clip-path="url(#pd05f09f0f5)" style="fill: #8856a7; fill-opacity: 0.6; stroke: #ffffff; stroke-width: 0.811636; stroke-linejoin: miter"/>
   </g>
   <g id="patch_49">
    <path d="M 478.781327 346.23381 
L 487.460715 346.23381 
L 487.460715 232.21221 
L 478.781327 232.21221 
z
" clip-path="url(#pd05f09f0f5)" style="fill: #8856a7; fill-opacity: 0.6; stroke: #ffffff; stroke-width: 0.811636; stroke-linejoin: miter"/>
   </g>
   <g id="patch_50">
    <path d="M 487.460715 346.23381 
L 496.140103 346.23381 
L 496.140103 240.757726 
L 487.460715 240.757726 
z
" clip-path="url(#pd05f09f0f5)" style="fill: #8856a7; fill-opacity: 0.6; stroke: #ffffff; stroke-width: 0.811636; stroke-linejoin: miter"/>
   </g>
   <g id="patch_51">
    <path d="M 496.140103 346.23381 
L 504.819491 346.23381 
L 504.819491 248.814927 
L 496.140103 248.814927 
z
" clip-path="url(#pd05f09f0f5)" style="fill: #8856a7; fill-opacity: 0.6; stroke: #ffffff; stroke-width: 0.811636; stroke-linejoin: miter"/>
   </g>
   <g id="patch_52">
    <path d="M 504.819491 346.23381 
L 513.498879 346.23381 
L 513.498879 317.667371 
L 504.819491 317.667371 
z
" clip-path="url(#pd05f09f0f5)" style="fill: #8856a7; fill-opacity: 0.6; stroke: #ffffff; stroke-width: 0.811636; stroke-linejoin: miter"/>
   </g>
   <g id="line2d_76">
    <path d="M 79.529479 346.13778 
L 96.975485 346.088102 
L 107.879239 345.708199 
L 118.782992 345.411504 
L 131.867497 345.064301 
L 142.771251 344.493632 
L 151.494254 343.798314 
L 162.398007 342.655588 
L 182.024764 340.476081 
L 190.747767 339.718768 
L 195.109269 339.044926 
L 197.290019 338.539929 
L 199.47077 337.903931 
L 203.832272 336.283855 
L 210.374524 333.573152 
L 214.736025 332.084988 
L 225.639779 329.050143 
L 227.82053 328.227015 
L 230.001281 327.259992 
L 232.182032 326.141957 
L 234.362782 324.87636 
L 238.724284 321.962448 
L 243.085785 318.7055 
L 249.628038 313.557262 
L 253.989539 309.844311 
L 256.17029 307.761637 
L 258.351041 305.437259 
L 260.531791 302.808918 
L 262.712542 299.835298 
L 264.893293 296.507445 
L 267.074044 292.853949 
L 271.435545 284.837269 
L 280.158548 267.821285 
L 284.52005 258.885427 
L 286.7008 254.110137 
L 288.881551 249.033235 
L 291.062302 243.588811 
L 293.243053 237.716592 
L 295.423803 231.361491 
L 297.604554 224.475747 
L 299.785305 217.024771 
L 301.966056 208.996058 
L 304.146806 200.409407 
L 308.508308 181.85272 
L 317.231311 143.431832 
L 319.412062 134.586344 
L 321.592812 126.296064 
L 323.773563 118.591573 
L 325.954314 111.448955 
L 328.135065 104.803913 
L 332.496566 92.655648 
L 336.858068 81.487758 
L 341.219569 70.984169 
L 343.40032 66.042072 
L 345.581071 61.415608 
L 347.761821 57.218689 
L 349.942572 53.568667 
L 352.123323 50.565591 
L 354.304074 48.277102 
L 356.484825 46.734348 
L 358.665575 45.9399 
L 360.846326 45.88339 
L 363.027077 46.557104 
L 365.207828 47.964148 
L 367.388578 50.115897 
L 369.569329 53.021082 
L 371.75008 56.672978 
L 373.930831 61.041646 
L 376.111581 66.07497 
L 378.292332 71.707396 
L 380.473083 77.871297 
L 382.653834 84.504852 
L 387.015335 98.958809 
L 391.376837 114.573123 
L 402.28059 154.344822 
L 406.642092 169.246918 
L 411.003593 183.070397 
L 413.184344 189.456382 
L 415.365095 195.461748 
L 419.726596 206.482114 
L 424.088098 216.723259 
L 428.449599 226.632085 
L 430.63035 231.378678 
L 432.811101 235.843378 
L 434.991852 239.902121 
L 437.172602 243.454672 
L 439.353353 246.441505 
L 441.534104 248.841426 
L 443.714855 250.653531 
L 445.895605 251.874437 
L 448.076356 252.483957 
L 450.257107 252.448228 
L 452.437858 251.740806 
L 454.618608 250.373263 
L 456.799359 248.421757 
L 458.98011 246.036973 
L 463.341611 240.845979 
L 465.522362 238.508026 
L 467.703113 236.590662 
L 469.883864 235.188413 
L 472.064614 234.313478 
L 474.245365 233.912797 
L 476.426116 233.89944 
L 478.606867 234.188689 
L 480.787618 234.729363 
L 482.968368 235.524234 
L 485.149119 236.637966 
L 487.32987 238.194485 
L 489.510621 240.366375 
L 491.691371 243.356907 
L 493.872122 247.373061 
L 496.052873 252.588128 
L 498.233624 259.096629 
L 500.414374 266.870625 
L 502.595125 275.731218 
L 511.318128 314.079534 
L 513.498879 322.10005 
L 513.498879 322.10005 
" clip-path="url(#pd05f09f0f5)" style="fill: none; stroke: #8856a7; stroke-linecap: round"/>
   </g>
   <g id="patch_53">
    <path d="M 57.831009 346.23381 
L 57.831009 23.213303 
" style="fill: none; stroke: #8b949e; stroke-width: 0.5; stroke-linejoin: miter; stroke-linecap: square"/>
   </g>
   <g id="patch_54">
    <path d="M 57.831009 346.23381 
L 535.197349 346.23381 
" style="fill: none; stroke: #8b949e; stroke-width: 0.5; stroke-linejoin: miter; stroke-linecap: square"/>
   </g>
   <g id="text_17">
    <!-- Distribution of Pairwise Cosine Similarities -->
    <g style="fill: #e6edf3" transform="translate(124.415804 17.213303) scale(0.2 -0.2)">
     <defs>
      <path id="LMRoman17-Regular-44" d="M 4224 2141 
C 4224 3346 3411 4352 2368 4352 
L 333 4352 
L 333 4186 
C 774 4186 845 4186 845 3900 
L 845 452 
C 845 166 774 166 333 166 
L 333 0 
L 2368 0 
C 3398 0 4224 943 4224 2141 
z
M 3750 2141 
C 3750 1242 3488 879 3366 707 
C 3213 510 2848 166 2240 166 
L 1523 166 
C 1267 166 1254 197 1254 414 
L 1254 3938 
C 1254 4155 1267 4186 1523 4186 
L 2240 4186 
C 2771 4186 3750 3874 3750 2141 
z
" transform="scale(0.015625)"/>
      <path id="LMRoman17-Regular-69" d="M 1370 -13 
L 1370 153 
C 992 153 979 191 979 420 
L 979 2778 
L 243 2708 
L 243 2542 
C 602 2542 653 2503 653 2198 
L 653 427 
C 653 184 627 153 218 153 
L 218 -13 
C 371 0 646 0 806 0 
C 960 0 1222 0 1370 -13 
z
M 1056 3835 
C 1056 3988 934 4096 800 4096 
C 646 4096 538 3975 538 3835 
C 538 3682 659 3574 794 3574 
C 947 3574 1056 3695 1056 3835 
z
" transform="scale(0.015625)"/>
      <path id="LMRoman17-Regular-72" d="M 2131 2458 
C 2131 2663 1926 2790 1709 2790 
C 1222 2790 1011 2317 947 2093 
L 941 2093 
L 941 2790 
L 198 2720 
L 198 2554 
C 576 2554 634 2515 634 2208 
L 634 428 
C 634 184 608 153 198 153 
L 198 -13 
C 352 0 646 0 813 0 
C 998 0 1325 0 1498 -13 
L 1498 153 
C 1037 153 960 153 960 440 
L 960 1497 
C 960 2112 1222 2688 1702 2688 
C 1747 2688 1792 2682 1837 2662 
C 1837 2662 1696 2617 1696 2452 
C 1696 2298 1818 2234 1914 2234 
C 1990 2234 2131 2279 2131 2458 
z
" transform="scale(0.015625)"/>
      <path id="LMRoman17-Regular-62" d="M 3053 1370 
C 3053 2188 2477 2790 1830 2790 
C 1434 2790 1152 2579 960 2330 
L 960 4396 
L 198 4326 
L 198 4160 
C 576 4160 634 4122 634 3817 
L 634 -13 
L 749 -13 
L 934 441 
C 1120 141 1395 -64 1766 -64 
C 2406 -64 3053 500 3053 1370 
z
M 2643 1376 
C 2643 108 1888 38 1734 38 
C 1536 38 1248 114 1043 486 
C 973 608 973 621 973 735 
L 973 2004 
C 973 2118 973 2138 1062 2272 
C 1312 2657 1670 2688 1792 2688 
C 1984 2688 2643 2585 2643 1376 
z
" transform="scale(0.015625)"/>
      <path id="LMRoman17-Regular-66" d="M 2003 4067 
C 2003 4308 1773 4454 1517 4454 
C 1152 4454 653 4156 653 3481 
L 653 2725 
L 141 2725 
L 141 2560 
L 653 2560 
L 653 427 
C 653 184 627 153 218 153 
L 218 -13 
C 371 0 666 0 832 0 
C 1018 0 1344 0 1517 -13 
L 1517 153 
C 1056 153 979 153 979 439 
L 979 2560 
L 1709 2560 
L 1709 2725 
L 966 2725 
L 966 3494 
C 966 4022 1235 4352 1510 4352 
C 1594 4352 1690 4327 1754 4282 
C 1702 4269 1568 4225 1568 4067 
C 1568 3901 1696 3850 1786 3850 
C 1875 3850 2003 3901 2003 4067 
z
" transform="scale(0.015625)"/>
      <path id="LMRoman17-Regular-50" d="M 3718 3184 
C 3718 3791 3130 4352 2291 4352 
L 333 4352 
L 333 4186 
C 774 4186 845 4186 845 3899 
L 845 446 
C 845 160 774 160 333 160 
L 333 0 
C 518 0 858 0 1056 0 
C 1254 0 1594 0 1779 0 
L 1779 160 
C 1338 160 1267 160 1267 446 
L 1267 2042 
L 2291 2042 
C 3117 2042 3718 2578 3718 3184 
z
M 3232 3184 
C 3232 2604 2950 2176 2170 2176 
L 1254 2176 
L 1254 3938 
C 1254 4155 1267 4186 1523 4186 
L 2170 4186 
C 2995 4186 3232 3714 3232 3184 
z
" transform="scale(0.015625)"/>
      <path id="LMRoman17-Regular-61" d="M 2874 567 
L 2874 920 
L 2758 920 
L 2758 562 
C 2758 178 2586 128 2502 128 
C 2240 128 2240 458 2240 738 
L 2240 1653 
C 2240 2072 2240 2294 1971 2543 
C 1734 2752 1459 2816 1242 2816 
C 736 2816 371 2407 371 1971 
C 371 1728 563 1728 602 1728 
C 685 1728 832 1778 832 1954 
C 832 2112 710 2181 602 2181 
C 576 2181 544 2174 525 2168 
C 659 2592 1005 2714 1229 2714 
C 1549 2714 1901 2429 1901 1885 
L 1901 1600 
C 1523 1600 1069 1549 710 1357 
C 307 1133 192 813 192 570 
C 192 77 768 -64 1107 -64 
C 1459 -64 1786 139 1926 511 
C 1939 233 2118 -18 2400 -18 
C 2534 -18 2874 70 2874 567 
z
M 1901 870 
C 1901 317 1504 38 1152 38 
C 832 38 582 275 582 570 
C 582 761 666 1100 1037 1305 
C 1344 1478 1696 1504 1901 1504 
L 1901 870 
z
" transform="scale(0.015625)"/>
      <path id="LMRoman17-Regular-77" d="M 4205 2560 
L 4205 2726 
C 4077 2726 3949 2726 3821 2726 
C 3699 2726 3424 2726 3315 2732 
L 3315 2560 
C 3514 2560 3622 2442 3622 2280 
C 3622 2235 3610 2178 3597 2134 
L 2995 401 
L 2342 2274 
C 2330 2319 2310 2370 2310 2395 
C 2310 2560 2528 2560 2630 2560 
L 2630 2732 
C 2483 2726 2214 2726 2061 2726 
C 1901 2726 1734 2726 1587 2732 
L 1587 2560 
C 1939 2560 1939 2547 2074 2147 
L 1485 445 
L 851 2280 
C 819 2363 819 2376 819 2395 
C 819 2560 1037 2560 1139 2560 
L 1139 2732 
C 986 2726 717 2726 557 2726 
C 416 2726 198 2726 64 2732 
L 64 2560 
C 346 2560 416 2541 486 2331 
L 1274 44 
C 1299 -39 1318 -58 1370 -58 
C 1414 -58 1440 -45 1472 50 
L 2131 1974 
L 2797 50 
C 2829 -45 2854 -58 2899 -58 
C 2950 -58 2970 -39 2995 44 
L 3725 2182 
C 3853 2560 4109 2560 4205 2560 
z
" transform="scale(0.015625)"/>
      <path id="LMRoman17-Regular-65" d="M 2464 1576 
C 2464 2238 2118 2816 1389 2816 
C 710 2816 173 2169 173 1383 
C 173 551 781 -64 1459 -64 
C 2176 -64 2458 606 2458 739 
C 2458 784 2406 784 2406 784 
C 2362 784 2355 771 2330 695 
C 2189 265 1837 51 1504 51 
C 1229 51 954 203 781 480 
C 582 803 582 1176 582 1472 
L 2438 1472 
C 2464 1498 2464 1511 2464 1576 
z
M 2118 1568 
L 589 1568 
C 634 2505 1126 2714 1382 2714 
C 1818 2714 2112 2297 2118 1568 
z
" transform="scale(0.015625)"/>
      <path id="LMRoman17-Regular-53" d="M 2970 1124 
C 2970 1454 2848 1708 2778 1823 
C 2509 2230 2221 2306 1914 2382 
C 1869 2402 1856 2402 1498 2490 
C 1152 2579 1005 2624 845 2796 
C 666 2992 602 3196 602 3399 
C 602 3812 934 4263 1478 4263 
C 2157 4263 2579 3786 2675 2993 
C 2694 2878 2701 2872 2746 2872 
C 2803 2872 2803 2891 2803 2999 
L 2803 4290 
C 2803 4404 2797 4411 2758 4411 
C 2720 4411 2707 4385 2682 4328 
L 2490 3907 
C 2246 4257 1875 4416 1472 4416 
C 819 4416 294 3901 294 3253 
C 294 3056 339 2776 557 2510 
C 794 2218 1018 2167 1530 2033 
C 1722 1982 2042 1899 2106 1874 
C 2470 1722 2662 1341 2662 985 
C 2662 527 2336 38 1779 38 
C 1094 38 454 419 410 1311 
C 403 1413 397 1419 352 1419 
C 301 1419 294 1413 294 1285 
L 294 -1 
C 294 -115 301 -122 339 -122 
C 384 -122 397 -90 486 108 
C 493 127 493 140 614 381 
C 934 -39 1472 -128 1779 -128 
C 2477 -128 2970 451 2970 1124 
z
" transform="scale(0.015625)"/>
      <path id="LMRoman17-Regular-6d" d="M 4762 -13 
L 4762 153 
C 4352 153 4326 178 4326 428 
L 4326 1933 
C 4326 2252 4269 2790 3507 2790 
C 3072 2790 2771 2496 2656 2151 
L 2650 2151 
C 2573 2676 2195 2790 1837 2790 
C 1331 2790 1069 2400 973 2144 
L 966 2144 
L 966 2790 
L 211 2720 
L 211 2554 
C 589 2554 646 2515 646 2208 
L 646 428 
C 646 184 621 153 211 153 
L 211 -13 
C 365 0 646 0 813 0 
C 979 0 1267 0 1421 -13 
L 1421 153 
C 1011 153 986 178 986 428 
L 986 1658 
C 986 2247 1344 2688 1792 2688 
C 2266 2688 2317 2266 2317 1958 
L 2317 428 
C 2317 184 2291 153 1882 153 
L 1882 -13 
C 2035 0 2317 0 2483 0 
C 2650 0 2938 0 3091 -13 
L 3091 153 
C 2682 153 2656 178 2656 428 
L 2656 1658 
C 2656 2247 3014 2688 3462 2688 
C 3936 2688 3987 2266 3987 1958 
L 3987 428 
C 3987 184 3962 153 3552 153 
L 3552 -13 
C 3706 0 3987 0 4154 0 
C 4320 0 4608 0 4762 -13 
z
" transform="scale(0.015625)"/>
      <path id="LMRoman17-Regular-6c" d="M 1414 -13 
L 1414 153 
C 1005 153 979 178 979 426 
L 979 4396 
L 218 4326 
L 218 4160 
C 595 4160 653 4122 653 3817 
L 653 426 
C 653 184 627 153 218 153 
L 218 -13 
C 371 0 653 0 813 0 
C 979 0 1261 0 1414 -13 
z
" transform="scale(0.015625)"/>
     </defs>
     <use xlink:href="#LMRoman17-Regular-44" transform="scale(0.996264)"/>
     <use xlink:href="#LMRoman17-Regular-69" transform="translate(70.395745 0) scale(0.996264)"/>
     <use xlink:href="#LMRoman17-Regular-73" transform="translate(95.267761 0) scale(0.996264)"/>
     <use xlink:href="#LMRoman17-Regular-74" transform="translate(131.070999 0) scale(0.996264)"/>
     <use xlink:href="#LMRoman17-Regular-72" transform="translate(166.352527 0) scale(0.996264)"/>
     <use xlink:href="#LMRoman17-Regular-69" transform="translate(201.634055 0) scale(0.996264)"/>
     <use xlink:href="#LMRoman17-Regular-62" transform="translate(226.506071 0) scale(0.996264)"/>
     <use xlink:href="#LMRoman17-Regular-75" transform="translate(277.403159 0) scale(0.996264)"/>
     <use xlink:href="#LMRoman17-Regular-74" transform="translate(328.300246 0) scale(0.996264)"/>
     <use xlink:href="#LMRoman17-Regular-69" transform="translate(363.581774 0) scale(0.996264)"/>
     <use xlink:href="#LMRoman17-Regular-6f" transform="translate(388.45379 0) scale(0.996264)"/>
     <use xlink:href="#LMRoman17-Regular-6e" transform="translate(434.144739 0) scale(0.996264)"/>
     <use xlink:href="#LMRoman17-Regular-6f" transform="translate(515.117975 0) scale(0.996264)"/>
     <use xlink:href="#LMRoman17-Regular-66" transform="translate(560.808923 0) scale(0.996264)"/>
     <use xlink:href="#LMRoman17-Regular-50" transform="translate(618.357247 0) scale(0.996264)"/>
     <use xlink:href="#LMRoman17-Regular-61" transform="translate(678.338342 0) scale(0.996264)"/>
     <use xlink:href="#LMRoman17-Regular-69" transform="translate(724.02929 0) scale(0.996264)"/>
     <use xlink:href="#LMRoman17-Regular-72" transform="translate(748.901306 0) scale(0.996264)"/>
     <use xlink:href="#LMRoman17-Regular-77" transform="translate(784.182834 0) scale(0.996264)"/>
     <use xlink:href="#LMRoman17-Regular-69" transform="translate(850.692624 0) scale(0.996264)"/>
     <use xlink:href="#LMRoman17-Regular-73" transform="translate(875.56464 0) scale(0.996264)"/>
     <use xlink:href="#LMRoman17-Regular-65" transform="translate(911.367878 0) scale(0.996264)"/>
     <use xlink:href="#LMRoman17-Regular-43" transform="translate(981.928836 0) scale(0.996264)"/>
     <use xlink:href="#LMRoman17-Regular-6f" transform="translate(1048.438625 0) scale(0.996264)"/>
     <use xlink:href="#LMRoman17-Regular-73" transform="translate(1094.129573 0) scale(0.996264)"/>
     <use xlink:href="#LMRoman17-Regular-69" transform="translate(1129.932811 0) scale(0.996264)"/>
     <use xlink:href="#LMRoman17-Regular-6e" transform="translate(1154.804827 0) scale(0.996264)"/>
     <use xlink:href="#LMRoman17-Regular-65" transform="translate(1205.701915 0) scale(0.996264)"/>
     <use xlink:href="#LMRoman17-Regular-53" transform="translate(1276.262873 0) scale(0.996264)"/>
     <use xlink:href="#LMRoman17-Regular-69" transform="translate(1327.15996 0) scale(0.996264)"/>
     <use xlink:href="#LMRoman17-Regular-6d" transform="translate(1352.031977 0) scale(0.996264)"/>
     <use xlink:href="#LMRoman17-Regular-69" transform="translate(1428.954136 0) scale(0.996264)"/>
     <use xlink:href="#LMRoman17-Regular-6c" transform="translate(1453.826152 0) scale(0.996264)"/>
     <use xlink:href="#LMRoman17-Regular-61" transform="translate(1478.698168 0) scale(0.996264)"/>
     <use xlink:href="#LMRoman17-Regular-72" transform="translate(1524.389116 0) scale(0.996264)"/>
     <use xlink:href="#LMRoman17-Regular-69" transform="translate(1559.670644 0) scale(0.996264)"/>
     <use xlink:href="#LMRoman17-Regular-74" transform="translate(1584.54266 0) scale(0.996264)"/>
     <use xlink:href="#LMRoman17-Regular-69" transform="translate(1619.824188 0) scale(0.996264)"/>
     <use xlink:href="#LMRoman17-Regular-65" transform="translate(1644.696205 0) scale(0.996264)"/>
     <use xlink:href="#LMRoman17-Regular-73" transform="translate(1685.181014 0) scale(0.996264)"/>
    </g>
   </g>
  </g>
 </g>
 <defs>
  <clipPath id="pd05f09f0f5">
   <rect x="57.831009" y="23.213303" width="477.36634" height="323.020508"/>
  </clipPath>
 </defs>
</svg>
