<?xml version="1.0" encoding="utf-8" standalone="no"?>
<!DOCTYPE svg PUBLIC "-//W3C//DTD SVG 1.1//EN"
  "http://www.w3.org/Graphics/SVG/1.1/DTD/svg11.dtd">
<svg xmlns:xlink="http://www.w3.org/1999/xlink" width="739.384615pt" height="296.307692pt" viewBox="0 0 739.384615 296.307692" xmlns="http://www.w3.org/2000/svg" version="1.1">
 <metadata>
  <rdf:RDF xmlns:dc="http://purl.org/dc/elements/1.1/" xmlns:cc="http://creativecommons.org/ns#" xmlns:rdf="http://www.w3.org/1999/02/22-rdf-syntax-ns#">
   <cc:Work>
    <dc:type rdf:resource="http://purl.org/dc/dcmitype/StillImage"/>
    <dc:date>2026-03-20T12:53:22.824669</dc:date>
    <dc:format>image/svg+xml</dc:format>
    <dc:creator>
     <cc:Agent>
      <dc:title>Matplotlib v3.10.0, https://matplotlib.org/</dc:title>
     </cc:Agent>
    </dc:creator>
   </cc:Work>
  </rdf:RDF>
 </metadata>
 <defs>
  <style type="text/css">*{stroke-linejoin: round; stroke-linecap: butt}</style>
 </defs>
 <g id="figure_1">
  <g id="patch_1">
   <path d="M 0 296.307692 
L 739.384615 296.307692 
L 739.384615 0 
L 0 0 
L 0 296.307692 
z
" style="fill: none"/>
  </g>
  <g id="axes_1">
   <g id="patch_2">
    <path d="M 47.545452 275.216641 
L 735.784615 275.216641 
L 735.784615 23.213303 
L 47.545452 23.213303 
L 47.545452 275.216641 
z
" style="fill: none"/>
   </g>
   <g id="matplotlib.axis_1">
    <g id="xtick_1">
     <g id="line2d_1">
      <path d="M 119.633744 275.216641 
L 119.633744 23.213303 
" clip-path="url(#p557b75b9a0)" style="fill: none; stroke: #2f3a46; stroke-opacity: 0.35; stroke-width: 0.5; stroke-linecap: round"/>
     </g>
     <g id="line2d_2">
      <defs>
       <path id="mbd55229513" d="M 0 0 
L 0 3 
" style="stroke: #e6edf3; stroke-width: 0.5"/>
      </defs>
      <g>
       <use xlink:href="#mbd55229513" x="119.633744" y="23.213303" style="fill: #e6edf3; stroke: #e6edf3; stroke-width: 0.5"/>
      </g>
     </g>
     <g id="text_1">
      <!-- I2T R@1 -->
      <g style="fill: #e6edf3" transform="translate(90.824808 289.607289) scale(0.16 -0.16)">
       <defs>
        <path id="LMRoman17-Regular-49" d="M 1798 0 
L 1798 160 
C 1338 160 1261 160 1261 447 
L 1261 3905 
C 1261 4192 1338 4192 1798 4192 
L 1798 4352 
C 1594 4352 1267 4352 1050 4352 
C 832 4352 506 4352 301 4352 
L 301 4192 
C 762 4192 838 4192 838 3905 
L 838 447 
C 838 160 762 160 301 160 
L 301 0 
C 506 0 832 0 1050 0 
C 1267 0 1594 0 1798 0 
z
" transform="scale(0.015625)"/>
        <path id="LMRoman17-Regular-32" d="M 2669 989 
L 2554 989 
C 2490 536 2438 459 2413 420 
C 2381 369 1920 369 1830 369 
L 602 369 
L 1824 1597 
C 2214 1967 2669 2402 2669 3035 
C 2669 3790 2067 4224 1395 4224 
C 691 4224 262 3604 262 3030 
C 262 2780 448 2748 525 2748 
C 589 2748 781 2787 781 3010 
C 781 3207 614 3264 525 3264 
C 486 3264 448 3258 422 3245 
C 544 3790 915 4058 1306 4058 
C 1862 4058 2227 3617 2227 3035 
C 2227 2479 1901 2000 1536 1584 
L 262 146 
L 262 0 
L 2515 0 
L 2669 989 
z
" transform="scale(0.015625)"/>
        <path id="LMRoman17-Regular-54" d="M 4090 2918 
L 3981 4326 
L 288 4326 
L 179 2918 
L 294 2918 
C 378 3976 467 4160 1453 4160 
C 1568 4160 1754 4160 1805 4154 
C 1926 4135 1926 4058 1926 3912 
L 1926 459 
C 1926 230 1907 160 1376 160 
L 1197 160 
L 1197 0 
L 2138 0 
L 3078 0 
L 3078 160 
L 2899 160 
C 2368 160 2349 230 2349 459 
L 2349 3912 
C 2349 4052 2349 4129 2464 4154 
C 2515 4160 2701 4160 2816 4160 
C 3795 4160 3891 3976 3974 2918 
L 4090 2918 
z
" transform="scale(0.015625)"/>
        <path id="LMRoman17-Regular-52" d="M 4365 503 
C 4365 540 4365 585 4307 585 
C 4256 585 4250 547 4250 522 
C 4218 112 4032 -26 3834 -26 
C 3482 -26 3443 377 3405 768 
C 3386 903 3373 998 3360 1139 
C 3322 1459 3270 1927 2509 2157 
C 3117 2277 3629 2684 3629 3191 
C 3629 3787 2950 4326 2054 4326 
L 333 4326 
L 333 4160 
C 774 4160 845 4160 845 3873 
L 845 415 
C 845 128 774 128 333 128 
L 333 -26 
C 518 -26 851 -26 1050 -26 
C 1248 -26 1581 -26 1766 -26 
L 1766 128 
C 1325 128 1254 128 1254 417 
L 1254 2112 
L 2003 2112 
C 2368 2112 2573 1964 2662 1881 
C 2918 1632 2918 1459 2918 1024 
C 2918 595 2918 377 3110 160 
C 3354 -102 3680 -128 3821 -128 
C 4294 -128 4365 396 4365 503 
z
M 3142 3190 
C 3142 2372 2464 2214 1984 2214 
L 1254 2214 
L 1254 3913 
C 1254 4129 1267 4160 1523 4160 
L 1990 4160 
C 2522 4160 3142 3977 3142 3190 
z
" transform="scale(0.015625)"/>
        <path id="LMRoman17-Regular-40" d="M 4307 2120 
C 4307 3712 3194 4454 2304 4454 
C 1229 4454 294 3493 294 2196 
C 294 980 1146 -64 2336 -64 
C 3379 -64 4301 373 4301 425 
C 4301 457 4294 457 4166 457 
C 4058 457 4045 457 4013 438 
C 3782 330 3162 38 2330 38 
C 1197 38 410 1063 410 2195 
C 410 3404 1280 4352 2298 4352 
C 2758 4352 3213 4168 3622 3744 
C 4032 3300 4192 2697 4192 2094 
C 4192 1619 4179 933 3731 933 
C 3526 933 3501 1195 3501 1367 
L 3501 2908 
C 3501 3029 3494 3029 3366 3029 
L 3187 3029 
C 3187 3029 3174 3035 3142 3081 
C 2874 3481 2541 3584 2298 3584 
C 1683 3584 1101 3023 1101 2208 
C 1101 1392 1690 832 2298 832 
C 2739 832 3040 1155 3155 1353 
C 3162 997 3456 832 3706 832 
C 4237 832 4307 1440 4307 2120 
z
M 3162 1723 
C 3162 1602 3162 1596 3085 1462 
C 2886 1099 2579 933 2304 933 
C 1830 933 1440 1500 1440 2208 
C 1440 2915 1830 3482 2304 3482 
C 2573 3482 2778 3329 2880 3233 
C 3034 3087 3162 2902 3162 2692 
L 3162 1723 
z
" transform="scale(0.015625)"/>
        <path id="LMRoman17-Regular-31" d="M 2458 0 
L 2458 160 
L 2266 160 
C 1715 160 1702 230 1702 458 
L 1702 4058 
C 1702 4192 1696 4192 1606 4192 
C 1357 3916 979 3827 621 3827 
C 602 3827 570 3827 563 3808 
C 557 3795 557 3782 557 3648 
C 755 3648 1088 3686 1344 3839 
L 1344 461 
C 1344 236 1331 160 781 160 
L 589 160 
L 589 0 
L 1523 0 
L 2458 0 
z
" transform="scale(0.015625)"/>
       </defs>
       <use xlink:href="#LMRoman17-Regular-49" transform="scale(0.996264)"/>
       <use xlink:href="#LMRoman17-Regular-32" transform="translate(32.638029 0) scale(0.996264)"/>
       <use xlink:href="#LMRoman17-Regular-54" transform="translate(78.328978 0) scale(0.996264)"/>
       <use xlink:href="#LMRoman17-Regular-52" transform="translate(174.914916 0) scale(0.996264)"/>
       <use xlink:href="#LMRoman17-Regular-40" transform="translate(242.704695 0) scale(0.996264)"/>
       <use xlink:href="#LMRoman17-Regular-31" transform="translate(314.420715 0) scale(0.996264)"/>
      </g>
     </g>
    </g>
    <g id="xtick_2">
     <g id="line2d_3">
      <path d="M 228.44626 275.216641 
L 228.44626 23.213303 
" clip-path="url(#p557b75b9a0)" style="fill: none; stroke: #2f3a46; stroke-opacity: 0.35; stroke-width: 0.5; stroke-linecap: round"/>
     </g>
     <g id="line2d_4">
      <g>
       <use xlink:href="#mbd55229513" x="228.44626" y="23.213303" style="fill: #e6edf3; stroke: #e6edf3; stroke-width: 0.5"/>
      </g>
     </g>
     <g id="text_2">
      <!-- I2T R@5 -->
      <g style="fill: #e6edf3" transform="translate(199.637324 289.607289) scale(0.16 -0.16)">
       <defs>
        <path id="LMRoman17-Regular-35" d="M 2669 1264 
C 2669 2030 2170 2624 1549 2624 
C 1222 2624 947 2503 730 2274 
L 730 3692 
C 794 3666 1056 3584 1325 3584 
C 1920 3584 2246 3911 2432 4100 
C 2432 4157 2432 4192 2394 4192 
C 2394 4192 2374 4192 2323 4163 
C 2099 4058 1837 3973 1517 3973 
C 1325 3973 1037 3999 723 4139 
C 653 4171 634 4171 634 4171 
C 602 4171 595 4164 595 4037 
L 595 2203 
C 595 2089 595 2057 659 2057 
C 691 2057 704 2070 736 2114 
C 941 2401 1222 2522 1542 2522 
C 1766 2522 2246 2382 2246 1289 
C 2246 1085 2246 715 2054 421 
C 1894 159 1645 25 1370 25 
C 947 25 518 320 403 814 
C 429 807 480 795 506 795 
C 589 795 749 840 749 1038 
C 749 1210 627 1280 506 1280 
C 358 1280 262 1190 262 1011 
C 262 454 704 -128 1382 -128 
C 2042 -128 2669 440 2669 1264 
z
" transform="scale(0.015625)"/>
       </defs>
       <use xlink:href="#LMRoman17-Regular-49" transform="scale(0.996264)"/>
       <use xlink:href="#LMRoman17-Regular-32" transform="translate(32.638029 0) scale(0.996264)"/>
       <use xlink:href="#LMRoman17-Regular-54" transform="translate(78.328978 0) scale(0.996264)"/>
       <use xlink:href="#LMRoman17-Regular-52" transform="translate(174.914916 0) scale(0.996264)"/>
       <use xlink:href="#LMRoman17-Regular-40" transform="translate(242.704695 0) scale(0.996264)"/>
       <use xlink:href="#LMRoman17-Regular-35" transform="translate(314.420715 0) scale(0.996264)"/>
      </g>
     </g>
    </g>
    <g id="xtick_3">
     <g id="line2d_5">
      <path d="M 337.258776 275.216641 
L 337.258776 23.213303 
" clip-path="url(#p557b75b9a0)" style="fill: none; stroke: #2f3a46; stroke-opacity: 0.35; stroke-width: 0.5; stroke-linecap: round"/>
     </g>
     <g id="line2d_6">
      <g>
       <use xlink:href="#mbd55229513" x="337.258776" y="23.213303" style="fill: #e6edf3; stroke: #e6edf3; stroke-width: 0.5"/>
      </g>
     </g>
     <g id="text_3">
      <!-- I2T R@10 -->
      <g style="fill: #e6edf3" transform="translate(304.794564 289.607289) scale(0.16 -0.16)">
       <defs>
        <path id="LMRoman17-Regular-30" d="M 2688 2025 
C 2688 2416 2682 3080 2413 3591 
C 2176 4039 1798 4198 1466 4198 
C 1158 4198 768 4058 525 3597 
C 269 3118 243 2524 243 2025 
C 243 1661 250 1106 448 619 
C 723 -39 1216 -128 1466 -128 
C 1760 -128 2208 -7 2470 600 
C 2662 1042 2688 1559 2688 2025 
z
M 2278 2096 
C 2278 1680 2278 1169 2202 792 
C 2067 95 1690 -26 1466 -26 
C 1056 -26 813 325 723 812 
C 653 1188 653 1738 653 2096 
C 653 2588 653 2997 736 3387 
C 858 3929 1216 4096 1466 4096 
C 1728 4096 2067 3923 2189 3400 
C 2272 3036 2278 2607 2278 2096 
z
" transform="scale(0.015625)"/>
       </defs>
       <use xlink:href="#LMRoman17-Regular-49" transform="scale(0.996264)"/>
       <use xlink:href="#LMRoman17-Regular-32" transform="translate(32.638029 0) scale(0.996264)"/>
       <use xlink:href="#LMRoman17-Regular-54" transform="translate(78.328978 0) scale(0.996264)"/>
       <use xlink:href="#LMRoman17-Regular-52" transform="translate(174.914916 0) scale(0.996264)"/>
       <use xlink:href="#LMRoman17-Regular-40" transform="translate(242.704695 0) scale(0.996264)"/>
       <use xlink:href="#LMRoman17-Regular-31" transform="translate(314.420715 0) scale(0.996264)"/>
       <use xlink:href="#LMRoman17-Regular-30" transform="translate(360.111663 0) scale(0.996264)"/>
      </g>
     </g>
    </g>
    <g id="xtick_4">
     <g id="line2d_7">
      <path d="M 446.071292 275.216641 
L 446.071292 23.213303 
" clip-path="url(#p557b75b9a0)" style="fill: none; stroke: #2f3a46; stroke-opacity: 0.35; stroke-width: 0.5; stroke-linecap: round"/>
     </g>
     <g id="line2d_8">
      <g>
       <use xlink:href="#mbd55229513" x="446.071292" y="23.213303" style="fill: #e6edf3; stroke: #e6edf3; stroke-width: 0.5"/>
      </g>
     </g>
     <g id="text_4">
      <!-- T2I R@1 -->
      <g style="fill: #e6edf3" transform="translate(417.262356 289.607289) scale(0.16 -0.16)">
       <use xlink:href="#LMRoman17-Regular-54" transform="scale(0.996264)"/>
       <use xlink:href="#LMRoman17-Regular-32" transform="translate(66.509789 0) scale(0.996264)"/>
       <use xlink:href="#LMRoman17-Regular-49" transform="translate(112.200738 0) scale(0.996264)"/>
       <use xlink:href="#LMRoman17-Regular-52" transform="translate(174.914916 0) scale(0.996264)"/>
       <use xlink:href="#LMRoman17-Regular-40" transform="translate(242.704695 0) scale(0.996264)"/>
       <use xlink:href="#LMRoman17-Regular-31" transform="translate(314.420715 0) scale(0.996264)"/>
      </g>
     </g>
    </g>
    <g id="xtick_5">
     <g id="line2d_9">
      <path d="M 554.883808 275.216641 
L 554.883808 23.213303 
" clip-path="url(#p557b75b9a0)" style="fill: none; stroke: #2f3a46; stroke-opacity: 0.35; stroke-width: 0.5; stroke-linecap: round"/>
     </g>
     <g id="line2d_10">
      <g>
       <use xlink:href="#mbd55229513" x="554.883808" y="23.213303" style="fill: #e6edf3; stroke: #e6edf3; stroke-width: 0.5"/>
      </g>
     </g>
     <g id="text_5">
      <!-- T2I R@5 -->
      <g style="fill: #e6edf3" transform="translate(526.074872 289.607289) scale(0.16 -0.16)">
       <use xlink:href="#LMRoman17-Regular-54" transform="scale(0.996264)"/>
       <use xlink:href="#LMRoman17-Regular-32" transform="translate(66.509789 0) scale(0.996264)"/>
       <use xlink:href="#LMRoman17-Regular-49" transform="translate(112.200738 0) scale(0.996264)"/>
       <use xlink:href="#LMRoman17-Regular-52" transform="translate(174.914916 0) scale(0.996264)"/>
       <use xlink:href="#LMRoman17-Regular-40" transform="translate(242.704695 0) scale(0.996264)"/>
       <use xlink:href="#LMRoman17-Regular-35" transform="translate(314.420715 0) scale(0.996264)"/>
      </g>
     </g>
    </g>
    <g id="xtick_6">
     <g id="line2d_11">
      <path d="M 663.696324 275.216641 
L 663.696324 23.213303 
" clip-path="url(#p557b75b9a0)" style="fill: none; stroke: #2f3a46; stroke-opacity: 0.35; stroke-width: 0.5; stroke-linecap: round"/>
     </g>
     <g id="line2d_12">
      <g>
       <use xlink:href="#mbd55229513" x="663.696324" y="23.213303" style="fill: #e6edf3; stroke: #e6edf3; stroke-width: 0.5"/>
      </g>
     </g>
     <g id="text_6">
      <!-- T2I R@10 -->
      <g style="fill: #e6edf3" transform="translate(631.232112 289.607289) scale(0.16 -0.16)">
       <use xlink:href="#LMRoman17-Regular-54" transform="scale(0.996264)"/>
       <use xlink:href="#LMRoman17-Regular-32" transform="translate(66.509789 0) scale(0.996264)"/>
       <use xlink:href="#LMRoman17-Regular-49" transform="translate(112.200738 0) scale(0.996264)"/>
       <use xlink:href="#LMRoman17-Regular-52" transform="translate(174.914916 0) scale(0.996264)"/>
       <use xlink:href="#LMRoman17-Regular-40" transform="translate(242.704695 0) scale(0.996264)"/>
       <use xlink:href="#LMRoman17-Regular-31" transform="translate(314.420715 0) scale(0.996264)"/>
       <use xlink:href="#LMRoman17-Regular-30" transform="translate(360.111663 0) scale(0.996264)"/>
      </g>
     </g>
    </g>
    <g id="xtick_7">
     <g id="line2d_13">
      <defs>
       <path id="m432bc7b6b3" d="M 0 0 
L 0 1.5 
" style="stroke: #e6edf3; stroke-width: 0.5"/>
      </defs>
      <g>
       <use xlink:href="#m432bc7b6b3" x="54.346235" y="23.213303" style="fill: #e6edf3; stroke: #e6edf3; stroke-width: 0.5"/>
      </g>
     </g>
    </g>
    <g id="xtick_8">
     <g id="line2d_14">
      <g>
       <use xlink:href="#m432bc7b6b3" x="76.108738" y="23.213303" style="fill: #e6edf3; stroke: #e6edf3; stroke-width: 0.5"/>
      </g>
     </g>
    </g>
    <g id="xtick_9">
     <g id="line2d_15">
      <g>
       <use xlink:href="#m432bc7b6b3" x="97.871241" y="23.213303" style="fill: #e6edf3; stroke: #e6edf3; stroke-width: 0.5"/>
      </g>
     </g>
    </g>
    <g id="xtick_10">
     <g id="line2d_16">
      <g>
       <use xlink:href="#m432bc7b6b3" x="141.396247" y="23.213303" style="fill: #e6edf3; stroke: #e6edf3; stroke-width: 0.5"/>
      </g>
     </g>
    </g>
    <g id="xtick_11">
     <g id="line2d_17">
      <g>
       <use xlink:href="#m432bc7b6b3" x="163.15875" y="23.213303" style="fill: #e6edf3; stroke: #e6edf3; stroke-width: 0.5"/>
      </g>
     </g>
    </g>
    <g id="xtick_12">
     <g id="line2d_18">
      <g>
       <use xlink:href="#m432bc7b6b3" x="184.921254" y="23.213303" style="fill: #e6edf3; stroke: #e6edf3; stroke-width: 0.5"/>
      </g>
     </g>
    </g>
    <g id="xtick_13">
     <g id="line2d_19">
      <g>
       <use xlink:href="#m432bc7b6b3" x="206.683757" y="23.213303" style="fill: #e6edf3; stroke: #e6edf3; stroke-width: 0.5"/>
      </g>
     </g>
    </g>
    <g id="xtick_14">
     <g id="line2d_20">
      <g>
       <use xlink:href="#m432bc7b6b3" x="250.208763" y="23.213303" style="fill: #e6edf3; stroke: #e6edf3; stroke-width: 0.5"/>
      </g>
     </g>
    </g>
    <g id="xtick_15">
     <g id="line2d_21">
      <g>
       <use xlink:href="#m432bc7b6b3" x="271.971266" y="23.213303" style="fill: #e6edf3; stroke: #e6edf3; stroke-width: 0.5"/>
      </g>
     </g>
    </g>
    <g id="xtick_16">
     <g id="line2d_22">
      <g>
       <use xlink:href="#m432bc7b6b3" x="293.73377" y="23.213303" style="fill: #e6edf3; stroke: #e6edf3; stroke-width: 0.5"/>
      </g>
     </g>
    </g>
    <g id="xtick_17">
     <g id="line2d_23">
      <g>
       <use xlink:href="#m432bc7b6b3" x="315.496273" y="23.213303" style="fill: #e6edf3; stroke: #e6edf3; stroke-width: 0.5"/>
      </g>
     </g>
    </g>
    <g id="xtick_18">
     <g id="line2d_24">
      <g>
       <use xlink:href="#m432bc7b6b3" x="359.021279" y="23.213303" style="fill: #e6edf3; stroke: #e6edf3; stroke-width: 0.5"/>
      </g>
     </g>
    </g>
    <g id="xtick_19">
     <g id="line2d_25">
      <g>
       <use xlink:href="#m432bc7b6b3" x="380.783782" y="23.213303" style="fill: #e6edf3; stroke: #e6edf3; stroke-width: 0.5"/>
      </g>
     </g>
    </g>
    <g id="xtick_20">
     <g id="line2d_26">
      <g>
       <use xlink:href="#m432bc7b6b3" x="402.546285" y="23.213303" style="fill: #e6edf3; stroke: #e6edf3; stroke-width: 0.5"/>
      </g>
     </g>
    </g>
    <g id="xtick_21">
     <g id="line2d_27">
      <g>
       <use xlink:href="#m432bc7b6b3" x="424.308789" y="23.213303" style="fill: #e6edf3; stroke: #e6edf3; stroke-width: 0.5"/>
      </g>
     </g>
    </g>
    <g id="xtick_22">
     <g id="line2d_28">
      <g>
       <use xlink:href="#m432bc7b6b3" x="467.833795" y="23.213303" style="fill: #e6edf3; stroke: #e6edf3; stroke-width: 0.5"/>
      </g>
     </g>
    </g>
    <g id="xtick_23">
     <g id="line2d_29">
      <g>
       <use xlink:href="#m432bc7b6b3" x="489.596298" y="23.213303" style="fill: #e6edf3; stroke: #e6edf3; stroke-width: 0.5"/>
      </g>
     </g>
    </g>
    <g id="xtick_24">
     <g id="line2d_30">
      <g>
       <use xlink:href="#m432bc7b6b3" x="511.358801" y="23.213303" style="fill: #e6edf3; stroke: #e6edf3; stroke-width: 0.5"/>
      </g>
     </g>
    </g>
    <g id="xtick_25">
     <g id="line2d_31">
      <g>
       <use xlink:href="#m432bc7b6b3" x="533.121305" y="23.213303" style="fill: #e6edf3; stroke: #e6edf3; stroke-width: 0.5"/>
      </g>
     </g>
    </g>
    <g id="xtick_26">
     <g id="line2d_32">
      <g>
       <use xlink:href="#m432bc7b6b3" x="576.646311" y="23.213303" style="fill: #e6edf3; stroke: #e6edf3; stroke-width: 0.5"/>
      </g>
     </g>
    </g>
    <g id="xtick_27">
     <g id="line2d_33">
      <g>
       <use xlink:href="#m432bc7b6b3" x="598.408814" y="23.213303" style="fill: #e6edf3; stroke: #e6edf3; stroke-width: 0.5"/>
      </g>
     </g>
    </g>
    <g id="xtick_28">
     <g id="line2d_34">
      <g>
       <use xlink:href="#m432bc7b6b3" x="620.171317" y="23.213303" style="fill: #e6edf3; stroke: #e6edf3; stroke-width: 0.5"/>
      </g>
     </g>
    </g>
    <g id="xtick_29">
     <g id="line2d_35">
      <g>
       <use xlink:href="#m432bc7b6b3" x="641.93382" y="23.213303" style="fill: #e6edf3; stroke: #e6edf3; stroke-width: 0.5"/>
      </g>
     </g>
    </g>
    <g id="xtick_30">
     <g id="line2d_36">
      <g>
       <use xlink:href="#m432bc7b6b3" x="685.458827" y="23.213303" style="fill: #e6edf3; stroke: #e6edf3; stroke-width: 0.5"/>
      </g>
     </g>
    </g>
    <g id="xtick_31">
     <g id="line2d_37">
      <g>
       <use xlink:href="#m432bc7b6b3" x="707.22133" y="23.213303" style="fill: #e6edf3; stroke: #e6edf3; stroke-width: 0.5"/>
      </g>
     </g>
    </g>
    <g id="xtick_32">
     <g id="line2d_38">
      <g>
       <use xlink:href="#m432bc7b6b3" x="728.983833" y="23.213303" style="fill: #e6edf3; stroke: #e6edf3; stroke-width: 0.5"/>
      </g>
     </g>
    </g>
   </g>
   <g id="matplotlib.axis_2">
    <g id="ytick_1">
     <g id="line2d_39">
      <path d="M 47.545452 275.216641 
L 735.784615 275.216641 
" clip-path="url(#p557b75b9a0)" style="fill: none; stroke: #2f3a46; stroke-opacity: 0.3; stroke-width: 0.5; stroke-linecap: round"/>
     </g>
     <g id="line2d_40">
      <defs>
       <path id="mba57cd4893" d="M 0 0 
L -3 0 
" style="stroke: #e6edf3; stroke-width: 0.5"/>
      </defs>
      <g>
       <use xlink:href="#mba57cd4893" x="735.784615" y="275.216641" style="fill: #e6edf3; stroke: #e6edf3; stroke-width: 0.5"/>
      </g>
     </g>
     <g id="text_7">
      <!-- $\mathdefault{0.0}$ -->
      <g style="fill: #e6edf3" transform="translate(25.088799 280.661965) scale(0.16 -0.16)">
       <defs>
        <path id="LMMathItalic12-Regular-3a" d="M 1178 307 
C 1178 492 1024 619 870 619 
C 685 619 557 466 557 313 
C 557 128 710 0 864 0 
C 1050 0 1178 153 1178 307 
z
" transform="scale(0.015625)"/>
       </defs>
       <use xlink:href="#LMRoman17-Regular-30" transform="scale(0.996264)"/>
       <use xlink:href="#LMMathItalic12-Regular-3a" transform="translate(45.690948 0) scale(0.996264)"/>
       <use xlink:href="#LMRoman17-Regular-30" transform="translate(72.788125 0) scale(0.996264)"/>
      </g>
     </g>
    </g>
    <g id="ytick_2">
     <g id="line2d_41">
      <path d="M 47.545452 204.53656 
L 735.784615 204.53656 
" clip-path="url(#p557b75b9a0)" style="fill: none; stroke: #2f3a46; stroke-opacity: 0.3; stroke-width: 0.5; stroke-linecap: round"/>
     </g>
     <g id="line2d_42">
      <g>
       <use xlink:href="#mba57cd4893" x="735.784615" y="204.53656" style="fill: #e6edf3; stroke: #e6edf3; stroke-width: 0.5"/>
      </g>
     </g>
     <g id="text_8">
      <!-- $\mathdefault{0.2}$ -->
      <g style="fill: #e6edf3" transform="translate(25.088799 209.981884) scale(0.16 -0.16)">
       <use xlink:href="#LMRoman17-Regular-30" transform="scale(0.996264)"/>
       <use xlink:href="#LMMathItalic12-Regular-3a" transform="translate(45.690948 0) scale(0.996264)"/>
       <use xlink:href="#LMRoman17-Regular-32" transform="translate(72.788125 0) scale(0.996264)"/>
      </g>
     </g>
    </g>
    <g id="ytick_3">
     <g id="line2d_43">
      <path d="M 47.545452 133.856479 
L 735.784615 133.856479 
" clip-path="url(#p557b75b9a0)" style="fill: none; stroke: #2f3a46; stroke-opacity: 0.3; stroke-width: 0.5; stroke-linecap: round"/>
     </g>
     <g id="line2d_44">
      <g>
       <use xlink:href="#mba57cd4893" x="735.784615" y="133.856479" style="fill: #e6edf3; stroke: #e6edf3; stroke-width: 0.5"/>
      </g>
     </g>
     <g id="text_9">
      <!-- $\mathdefault{0.4}$ -->
      <g style="fill: #e6edf3" transform="translate(25.088799 139.301803) scale(0.16 -0.16)">
       <defs>
        <path id="LMRoman17-Regular-34" d="M 2803 1114 
L 2803 1280 
L 2150 1280 
L 2150 4154 
C 2150 4288 2144 4288 2029 4288 
L 128 1280 
L 128 1114 
L 1779 1114 
L 1779 487 
C 1779 255 1766 192 1318 192 
L 1197 192 
L 1197 32 
C 1402 32 1747 32 1965 32 
C 2182 32 2528 32 2733 32 
L 2733 192 
L 2611 192 
C 2163 192 2150 255 2150 487 
L 2150 1114 
L 2803 1114 
z
M 1798 1280 
L 256 1280 
L 1798 3734 
L 1798 1280 
z
" transform="scale(0.015625)"/>
       </defs>
       <use xlink:href="#LMRoman17-Regular-30" transform="scale(0.996264)"/>
       <use xlink:href="#LMMathItalic12-Regular-3a" transform="translate(45.690948 0) scale(0.996264)"/>
       <use xlink:href="#LMRoman17-Regular-34" transform="translate(72.788125 0) scale(0.996264)"/>
      </g>
     </g>
    </g>
    <g id="ytick_4">
     <g id="line2d_45">
      <path d="M 47.545452 63.176399 
L 735.784615 63.176399 
" clip-path="url(#p557b75b9a0)" style="fill: none; stroke: #2f3a46; stroke-opacity: 0.3; stroke-width: 0.5; stroke-linecap: round"/>
     </g>
     <g id="line2d_46">
      <g>
       <use xlink:href="#mba57cd4893" x="735.784615" y="63.176399" style="fill: #e6edf3; stroke: #e6edf3; stroke-width: 0.5"/>
      </g>
     </g>
     <g id="text_10">
      <!-- $\mathdefault{0.6}$ -->
      <g style="fill: #e6edf3" transform="translate(25.088799 68.621723) scale(0.16 -0.16)">
       <defs>
        <path id="LMRoman17-Regular-36" d="M 2688 1283 
C 2688 2081 2170 2662 1517 2662 
C 1126 2662 838 2407 678 1960 
L 678 2176 
C 678 3690 1395 4032 1811 4032 
C 1946 4032 2272 4009 2400 3776 
C 2298 3776 2106 3776 2106 3553 
C 2106 3381 2246 3323 2336 3323 
C 2394 3323 2566 3348 2566 3560 
C 2566 3954 2246 4179 1805 4179 
C 1043 4179 243 3390 243 1984 
C 243 253 966 -128 1478 -128 
C 2099 -128 2688 427 2688 1283 
z
M 2253 1289 
C 2253 944 2253 690 2118 434 
C 1978 171 1773 25 1478 25 
C 691 25 691 1200 691 1436 
C 691 1896 909 2560 1504 2560 
C 1613 2560 1926 2560 2138 2120 
C 2253 1870 2253 1609 2253 1289 
z
" transform="scale(0.015625)"/>
       </defs>
       <use xlink:href="#LMRoman17-Regular-30" transform="scale(0.996264)"/>
       <use xlink:href="#LMMathItalic12-Regular-3a" transform="translate(45.690948 0) scale(0.996264)"/>
       <use xlink:href="#LMRoman17-Regular-36" transform="translate(72.788125 0) scale(0.996264)"/>
      </g>
     </g>
    </g>
    <g id="ytick_5">
     <g id="line2d_47">
      <defs>
       <path id="mbf701fc10b" d="M 0 0 
L -1.5 0 
" style="stroke: #e6edf3; stroke-width: 0.5"/>
      </defs>
      <g>
       <use xlink:href="#mbf701fc10b" x="735.784615" y="257.546621" style="fill: #e6edf3; stroke: #e6edf3; stroke-width: 0.5"/>
      </g>
     </g>
    </g>
    <g id="ytick_6">
     <g id="line2d_48">
      <g>
       <use xlink:href="#mbf701fc10b" x="735.784615" y="239.8766" style="fill: #e6edf3; stroke: #e6edf3; stroke-width: 0.5"/>
      </g>
     </g>
    </g>
    <g id="ytick_7">
     <g id="line2d_49">
      <g>
       <use xlink:href="#mbf701fc10b" x="735.784615" y="222.20658" style="fill: #e6edf3; stroke: #e6edf3; stroke-width: 0.5"/>
      </g>
     </g>
    </g>
    <g id="ytick_8">
     <g id="line2d_50">
      <g>
       <use xlink:href="#mbf701fc10b" x="735.784615" y="186.86654" style="fill: #e6edf3; stroke: #e6edf3; stroke-width: 0.5"/>
      </g>
     </g>
    </g>
    <g id="ytick_9">
     <g id="line2d_51">
      <g>
       <use xlink:href="#mbf701fc10b" x="735.784615" y="169.19652" style="fill: #e6edf3; stroke: #e6edf3; stroke-width: 0.5"/>
      </g>
     </g>
    </g>
    <g id="ytick_10">
     <g id="line2d_52">
      <g>
       <use xlink:href="#mbf701fc10b" x="735.784615" y="151.5265" style="fill: #e6edf3; stroke: #e6edf3; stroke-width: 0.5"/>
      </g>
     </g>
    </g>
    <g id="ytick_11">
     <g id="line2d_53">
      <g>
       <use xlink:href="#mbf701fc10b" x="735.784615" y="116.186459" style="fill: #e6edf3; stroke: #e6edf3; stroke-width: 0.5"/>
      </g>
     </g>
    </g>
    <g id="ytick_12">
     <g id="line2d_54">
      <g>
       <use xlink:href="#mbf701fc10b" x="735.784615" y="98.516439" style="fill: #e6edf3; stroke: #e6edf3; stroke-width: 0.5"/>
      </g>
     </g>
    </g>
    <g id="ytick_13">
     <g id="line2d_55">
      <g>
       <use xlink:href="#mbf701fc10b" x="735.784615" y="80.846419" style="fill: #e6edf3; stroke: #e6edf3; stroke-width: 0.5"/>
      </g>
     </g>
    </g>
    <g id="ytick_14">
     <g id="line2d_56">
      <g>
       <use xlink:href="#mbf701fc10b" x="735.784615" y="45.506379" style="fill: #e6edf3; stroke: #e6edf3; stroke-width: 0.5"/>
      </g>
     </g>
    </g>
    <g id="ytick_15">
     <g id="line2d_57">
      <g>
       <use xlink:href="#mbf701fc10b" x="735.784615" y="27.836358" style="fill: #e6edf3; stroke: #e6edf3; stroke-width: 0.5"/>
      </g>
     </g>
    </g>
    <g id="text_11">
     <!-- Recall -->
     <g style="fill: #e6edf3" transform="translate(17.213303 173.6344) rotate(-90) scale(0.2 -0.2)">
      <defs>
       <path id="LMRoman17-Regular-65" d="M 2464 1576 
C 2464 2238 2118 2816 1389 2816 
C 710 2816 173 2169 173 1383 
C 173 551 781 -64 1459 -64 
C 2176 -64 2458 606 2458 739 
C 2458 784 2406 784 2406 784 
C 2362 784 2355 771 2330 695 
C 2189 265 1837 51 1504 51 
C 1229 51 954 203 781 480 
C 582 803 582 1176 582 1472 
L 2438 1472 
C 2464 1498 2464 1511 2464 1576 
z
M 2118 1568 
L 589 1568 
C 634 2505 1126 2714 1382 2714 
C 1818 2714 2112 2297 2118 1568 
z
" transform="scale(0.015625)"/>
       <path id="LMRoman17-Regular-63" d="M 2458 748 
C 2458 774 2451 793 2406 793 
C 2362 793 2355 787 2330 703 
C 2163 180 1798 51 1523 51 
C 1114 51 621 427 621 1369 
C 621 2338 1094 2688 1472 2688 
C 1722 2688 2093 2573 2234 2240 
C 2112 2240 1933 2240 1933 2017 
C 1933 1838 2080 1787 2163 1787 
C 2208 1787 2394 1807 2394 2024 
C 2394 2467 1958 2803 1466 2803 
C 787 2803 211 2178 211 1363 
C 211 516 813 -64 1466 -64 
C 2259 -64 2458 677 2458 748 
z
" transform="scale(0.015625)"/>
       <path id="LMRoman17-Regular-61" d="M 2874 567 
L 2874 920 
L 2758 920 
L 2758 562 
C 2758 178 2586 128 2502 128 
C 2240 128 2240 458 2240 738 
L 2240 1653 
C 2240 2072 2240 2294 1971 2543 
C 1734 2752 1459 2816 1242 2816 
C 736 2816 371 2407 371 1971 
C 371 1728 563 1728 602 1728 
C 685 1728 832 1778 832 1954 
C 832 2112 710 2181 602 2181 
C 576 2181 544 2174 525 2168 
C 659 2592 1005 2714 1229 2714 
C 1549 2714 1901 2429 1901 1885 
L 1901 1600 
C 1523 1600 1069 1549 710 1357 
C 307 1133 192 813 192 570 
C 192 77 768 -64 1107 -64 
C 1459 -64 1786 139 1926 511 
C 1939 233 2118 -18 2400 -18 
C 2534 -18 2874 70 2874 567 
z
M 1901 870 
C 1901 317 1504 38 1152 38 
C 832 38 582 275 582 570 
C 582 761 666 1100 1037 1305 
C 1344 1478 1696 1504 1901 1504 
L 1901 870 
z
" transform="scale(0.015625)"/>
       <path id="LMRoman17-Regular-6c" d="M 1414 -13 
L 1414 153 
C 1005 153 979 178 979 426 
L 979 4396 
L 218 4326 
L 218 4160 
C 595 4160 653 4122 653 3817 
L 653 426 
C 653 184 627 153 218 153 
L 218 -13 
C 371 0 653 0 813 0 
C 979 0 1261 0 1414 -13 
z
" transform="scale(0.015625)"/>
      </defs>
      <use xlink:href="#LMRoman17-Regular-52" transform="scale(0.996264)"/>
      <use xlink:href="#LMRoman17-Regular-65" transform="translate(67.789779 0) scale(0.996264)"/>
      <use xlink:href="#LMRoman17-Regular-63" transform="translate(108.274589 0) scale(0.996264)"/>
      <use xlink:href="#LMRoman17-Regular-61" transform="translate(148.759398 0) scale(0.996264)"/>
      <use xlink:href="#LMRoman17-Regular-6c" transform="translate(194.450346 0) scale(0.996264)"/>
      <use xlink:href="#LMRoman17-Regular-6c" transform="translate(219.322362 0) scale(0.996264)"/>
     </g>
    </g>
   </g>
   <g id="patch_3">
    <path d="M 78.829051 275.216641 
L 106.03218 275.216641 
L 106.03218 172.242614 
L 78.829051 172.242614 
z
" clip-path="url(#p557b75b9a0)" style="fill: #4c72b0; stroke: #000000; stroke-width: 0.5; stroke-linejoin: miter"/>
   </g>
   <g id="patch_4">
    <path d="M 187.641567 275.216641 
L 214.844696 275.216641 
L 214.844696 83.196138 
L 187.641567 83.196138 
z
" clip-path="url(#p557b75b9a0)" style="fill: #4c72b0; stroke: #000000; stroke-width: 0.5; stroke-linejoin: miter"/>
   </g>
   <g id="patch_5">
    <path d="M 296.454082 275.216641 
L 323.657211 275.216641 
L 323.657211 43.300428 
L 296.454082 43.300428 
z
" clip-path="url(#p557b75b9a0)" style="fill: #4c72b0; stroke: #000000; stroke-width: 0.5; stroke-linejoin: miter"/>
   </g>
   <g id="patch_6">
    <path d="M 405.266598 275.216641 
L 432.469727 275.216641 
L 432.469727 178.173048 
L 405.266598 178.173048 
z
" clip-path="url(#p557b75b9a0)" style="fill: #4c72b0; stroke: #000000; stroke-width: 0.5; stroke-linejoin: miter"/>
   </g>
   <g id="patch_7">
    <path d="M 514.079114 275.216641 
L 541.282243 275.216641 
L 541.282243 89.935262 
L 514.079114 89.935262 
z
" clip-path="url(#p557b75b9a0)" style="fill: #4c72b0; stroke: #000000; stroke-width: 0.5; stroke-linejoin: miter"/>
   </g>
   <g id="patch_8">
    <path d="M 622.89163 275.216641 
L 650.094759 275.216641 
L 650.094759 49.230872 
L 622.89163 49.230872 
z
" clip-path="url(#p557b75b9a0)" style="fill: #4c72b0; stroke: #000000; stroke-width: 0.5; stroke-linejoin: miter"/>
   </g>
   <g id="patch_9">
    <path d="M 106.03218 275.216641 
L 133.235309 275.216641 
L 133.235309 171.433913 
L 106.03218 171.433913 
z
" clip-path="url(#p557b75b9a0)" style="fill: #dd8452; stroke: #000000; stroke-width: 0.5; stroke-linejoin: miter"/>
   </g>
   <g id="patch_10">
    <path d="M 214.844696 275.216641 
L 242.047825 275.216641 
L 242.047825 80.230916 
L 214.844696 80.230916 
z
" clip-path="url(#p557b75b9a0)" style="fill: #dd8452; stroke: #000000; stroke-width: 0.5; stroke-linejoin: miter"/>
   </g>
   <g id="patch_11">
    <path d="M 323.657211 275.216641 
L 350.86034 275.216641 
L 350.86034 42.401887 
L 323.657211 42.401887 
z
" clip-path="url(#p557b75b9a0)" style="fill: #dd8452; stroke: #000000; stroke-width: 0.5; stroke-linejoin: miter"/>
   </g>
   <g id="patch_12">
    <path d="M 432.469727 275.216641 
L 459.672856 275.216641 
L 459.672856 177.004938 
L 432.469727 177.004938 
z
" clip-path="url(#p557b75b9a0)" style="fill: #dd8452; stroke: #000000; stroke-width: 0.5; stroke-linejoin: miter"/>
   </g>
   <g id="patch_13">
    <path d="M 541.282243 275.216641 
L 568.485372 275.216641 
L 568.485372 90.294682 
L 541.282243 90.294682 
z
" clip-path="url(#p557b75b9a0)" style="fill: #dd8452; stroke: #000000; stroke-width: 0.5; stroke-linejoin: miter"/>
   </g>
   <g id="patch_14">
    <path d="M 650.094759 275.216641 
L 677.297888 275.216641 
L 677.297888 50.398993 
L 650.094759 50.398993 
z
" clip-path="url(#p557b75b9a0)" style="fill: #dd8452; stroke: #000000; stroke-width: 0.5; stroke-linejoin: miter"/>
   </g>
   <g id="patch_15">
    <path d="M 133.235309 275.216641 
L 160.438438 275.216641 
L 160.438438 169.277392 
L 133.235309 169.277392 
z
" clip-path="url(#p557b75b9a0)" style="fill: #55a868; stroke: #000000; stroke-width: 0.5; stroke-linejoin: miter"/>
   </g>
   <g id="patch_16">
    <path d="M 242.047825 275.216641 
L 269.250953 275.216641 
L 269.250953 74.480171 
L 242.047825 74.480171 
z
" clip-path="url(#p557b75b9a0)" style="fill: #55a868; stroke: #000000; stroke-width: 0.5; stroke-linejoin: miter"/>
   </g>
   <g id="patch_17">
    <path d="M 350.86034 275.216641 
L 378.063469 275.216641 
L 378.063469 35.213461 
L 350.86034 35.213461 
z
" clip-path="url(#p557b75b9a0)" style="fill: #55a868; stroke: #000000; stroke-width: 0.5; stroke-linejoin: miter"/>
   </g>
   <g id="patch_18">
    <path d="M 459.672856 275.216641 
L 486.875985 275.216641 
L 486.875985 174.219425 
L 459.672856 174.219425 
z
" clip-path="url(#p557b75b9a0)" style="fill: #55a868; stroke: #000000; stroke-width: 0.5; stroke-linejoin: miter"/>
   </g>
   <g id="patch_19">
    <path d="M 568.485372 275.216641 
L 595.688501 275.216641 
L 595.688501 83.645397 
L 568.485372 83.645397 
z
" clip-path="url(#p557b75b9a0)" style="fill: #55a868; stroke: #000000; stroke-width: 0.5; stroke-linejoin: miter"/>
   </g>
   <g id="patch_20">
    <path d="M 677.297888 275.216641 
L 704.501017 275.216641 
L 704.501017 42.042467 
L 677.297888 42.042467 
z
" clip-path="url(#p557b75b9a0)" style="fill: #55a868; stroke: #000000; stroke-width: 0.5; stroke-linejoin: miter"/>
   </g>
   <g id="patch_21">
    <path d="M 47.545452 275.216641 
L 47.545452 23.213303 
" style="fill: none; stroke: #8b949e; stroke-width: 0.5; stroke-linejoin: miter; stroke-linecap: square"/>
   </g>
   <g id="patch_22">
    <path d="M 47.545452 275.216641 
L 735.784615 275.216641 
" style="fill: none; stroke: #8b949e; stroke-width: 0.5; stroke-linejoin: miter; stroke-linecap: square"/>
   </g>
   <g id="text_12">
    <!-- .291 -->
    <g style="fill: #e6edf3" transform="translate(80.290905 168.470385) scale(0.14 -0.14)">
     <defs>
      <path id="LMRoman17-Regular-2e" d="M 1062 261 
C 1062 420 934 522 800 522 
C 672 522 538 420 538 261 
C 538 102 666 0 800 0 
C 928 0 1062 102 1062 261 
z
" transform="scale(0.015625)"/>
      <path id="LMRoman17-Regular-39" d="M 2688 2073 
C 2688 3817 1971 4179 1485 4179 
C 851 4179 243 3628 243 2778 
C 243 1991 762 1408 1414 1408 
C 1952 1408 2189 1903 2253 2112 
L 2253 1864 
C 2253 464 1670 31 1190 31 
C 1043 31 685 31 538 294 
C 704 268 826 357 826 518 
C 826 692 685 749 595 749 
C 538 749 365 723 365 506 
C 365 71 742 -128 1203 -128 
C 1939 -128 2688 674 2688 2073 
z
M 2240 2632 
C 2240 2182 2035 1510 1427 1510 
C 1254 1510 1011 1542 813 1922 
C 678 2169 678 2461 678 2771 
C 678 3146 678 3405 858 3684 
C 947 3817 1114 4032 1485 4032 
C 2240 4032 2240 2885 2240 2632 
z
" transform="scale(0.015625)"/>
     </defs>
     <use xlink:href="#LMRoman17-Regular-2e" transform="scale(0.996264)"/>
     <use xlink:href="#LMRoman17-Regular-32" transform="translate(24.872016 0) scale(0.996264)"/>
     <use xlink:href="#LMRoman17-Regular-39" transform="translate(70.562965 0) scale(0.996264)"/>
     <use xlink:href="#LMRoman17-Regular-31" transform="translate(116.253913 0) scale(0.996264)"/>
    </g>
   </g>
   <g id="text_13">
    <!-- .543 -->
    <g style="fill: #e6edf3" transform="translate(189.103421 79.423908) scale(0.14 -0.14)">
     <defs>
      <path id="LMRoman17-Regular-33" d="M 2720 1085 
C 2720 1707 2208 2157 1600 2227 
C 2086 2328 2554 2756 2554 3329 
C 2554 3820 2048 4179 1472 4179 
C 890 4179 378 3829 378 3329 
C 378 3110 544 3072 627 3072 
C 762 3072 877 3155 877 3321 
C 877 3486 762 3569 627 3569 
C 602 3569 570 3569 544 3557 
C 730 3959 1235 4032 1459 4032 
C 1683 4032 2106 3925 2106 3320 
C 2106 3143 2080 2828 1862 2550 
C 1670 2304 1453 2304 1242 2284 
C 1210 2284 1062 2269 1037 2269 
C 992 2263 966 2257 966 2208 
C 966 2163 973 2157 1101 2157 
L 1414 2157 
C 1984 2157 2234 1662 2234 1090 
C 2234 320 1824 25 1453 25 
C 1114 25 563 194 390 693 
C 422 680 454 680 486 680 
C 640 680 755 782 755 948 
C 755 1133 614 1216 486 1216 
C 378 1216 211 1165 211 926 
C 211 335 787 -128 1466 -128 
C 2176 -128 2720 430 2720 1085 
z
" transform="scale(0.015625)"/>
     </defs>
     <use xlink:href="#LMRoman17-Regular-2e" transform="scale(0.996264)"/>
     <use xlink:href="#LMRoman17-Regular-35" transform="translate(24.872016 0) scale(0.996264)"/>
     <use xlink:href="#LMRoman17-Regular-34" transform="translate(70.562965 0) scale(0.996264)"/>
     <use xlink:href="#LMRoman17-Regular-33" transform="translate(116.253913 0) scale(0.996264)"/>
    </g>
   </g>
   <g id="text_14">
    <!-- .656 -->
    <g style="fill: #e6edf3" transform="translate(297.915937 39.528198) scale(0.14 -0.14)">
     <use xlink:href="#LMRoman17-Regular-2e" transform="scale(0.996264)"/>
     <use xlink:href="#LMRoman17-Regular-36" transform="translate(24.872016 0) scale(0.996264)"/>
     <use xlink:href="#LMRoman17-Regular-35" transform="translate(70.562965 0) scale(0.996264)"/>
     <use xlink:href="#LMRoman17-Regular-36" transform="translate(116.253913 0) scale(0.996264)"/>
    </g>
   </g>
   <g id="text_15">
    <!-- .275 -->
    <g style="fill: #e6edf3" transform="translate(406.728453 174.400819) scale(0.14 -0.14)">
     <defs>
      <path id="LMRoman17-Regular-37" d="M 2886 3941 
L 2886 4081 
L 1382 4081 
C 634 4081 621 4165 595 4288 
L 480 4288 
L 294 3094 
L 410 3094 
C 429 3215 474 3540 550 3661 
C 589 3712 1062 3712 1171 3712 
L 2579 3712 
L 1869 2661 
C 1395 1954 1069 999 1069 165 
C 1069 89 1069 -128 1299 -128 
C 1530 -128 1530 89 1530 171 
L 1530 465 
C 1530 1508 1709 2196 2003 2636 
L 2886 3941 
z
" transform="scale(0.015625)"/>
     </defs>
     <use xlink:href="#LMRoman17-Regular-2e" transform="scale(0.996264)"/>
     <use xlink:href="#LMRoman17-Regular-32" transform="translate(24.872016 0) scale(0.996264)"/>
     <use xlink:href="#LMRoman17-Regular-37" transform="translate(70.562965 0) scale(0.996264)"/>
     <use xlink:href="#LMRoman17-Regular-35" transform="translate(116.253913 0) scale(0.996264)"/>
    </g>
   </g>
   <g id="text_16">
    <!-- .524 -->
    <g style="fill: #e6edf3" transform="translate(515.540969 86.163033) scale(0.14 -0.14)">
     <use xlink:href="#LMRoman17-Regular-2e" transform="scale(0.996264)"/>
     <use xlink:href="#LMRoman17-Regular-35" transform="translate(24.872016 0) scale(0.996264)"/>
     <use xlink:href="#LMRoman17-Regular-32" transform="translate(70.562965 0) scale(0.996264)"/>
     <use xlink:href="#LMRoman17-Regular-34" transform="translate(116.253913 0) scale(0.996264)"/>
    </g>
   </g>
   <g id="text_17">
    <!-- .639 -->
    <g style="fill: #e6edf3" transform="translate(624.353484 45.458643) scale(0.14 -0.14)">
     <use xlink:href="#LMRoman17-Regular-2e" transform="scale(0.996264)"/>
     <use xlink:href="#LMRoman17-Regular-36" transform="translate(24.872016 0) scale(0.996264)"/>
     <use xlink:href="#LMRoman17-Regular-33" transform="translate(70.562965 0) scale(0.996264)"/>
     <use xlink:href="#LMRoman17-Regular-39" transform="translate(116.253913 0) scale(0.996264)"/>
    </g>
   </g>
   <g id="text_18">
    <!-- .294 -->
    <g style="fill: #e6edf3" transform="translate(107.494034 167.661684) scale(0.14 -0.14)">
     <use xlink:href="#LMRoman17-Regular-2e" transform="scale(0.996264)"/>
     <use xlink:href="#LMRoman17-Regular-32" transform="translate(24.872016 0) scale(0.996264)"/>
     <use xlink:href="#LMRoman17-Regular-39" transform="translate(70.562965 0) scale(0.996264)"/>
     <use xlink:href="#LMRoman17-Regular-34" transform="translate(116.253913 0) scale(0.996264)"/>
    </g>
   </g>
   <g id="text_19">
    <!-- .552 -->
    <g style="fill: #e6edf3" transform="translate(216.30655 76.458686) scale(0.14 -0.14)">
     <use xlink:href="#LMRoman17-Regular-2e" transform="scale(0.996264)"/>
     <use xlink:href="#LMRoman17-Regular-35" transform="translate(24.872016 0) scale(0.996264)"/>
     <use xlink:href="#LMRoman17-Regular-35" transform="translate(70.562965 0) scale(0.996264)"/>
     <use xlink:href="#LMRoman17-Regular-32" transform="translate(116.253913 0) scale(0.996264)"/>
    </g>
   </g>
   <g id="text_20">
    <!-- .659 -->
    <g style="fill: #e6edf3" transform="translate(325.119066 38.629658) scale(0.14 -0.14)">
     <use xlink:href="#LMRoman17-Regular-2e" transform="scale(0.996264)"/>
     <use xlink:href="#LMRoman17-Regular-36" transform="translate(24.872016 0) scale(0.996264)"/>
     <use xlink:href="#LMRoman17-Regular-35" transform="translate(70.562965 0) scale(0.996264)"/>
     <use xlink:href="#LMRoman17-Regular-39" transform="translate(116.253913 0) scale(0.996264)"/>
    </g>
   </g>
   <g id="text_21">
    <!-- .278 -->
    <g style="fill: #e6edf3" transform="translate(433.931582 173.232708) scale(0.14 -0.14)">
     <defs>
      <path id="LMRoman17-Regular-38" d="M 2720 1011 
C 2720 1590 2330 1858 2074 2029 
C 1984 2092 1933 2124 1741 2264 
C 2144 2468 2554 2773 2554 3263 
C 2554 3842 1990 4179 1472 4179 
C 890 4179 378 3759 378 3180 
C 378 3021 416 2747 666 2505 
C 730 2442 998 2251 1171 2130 
C 883 1983 211 1634 211 934 
C 211 279 838 -128 1459 -128 
C 2144 -128 2720 362 2720 1011 
z
M 2336 3262 
C 2336 2669 1670 2331 1638 2331 
C 1638 2331 1626 2331 1574 2370 
L 902 2822 
C 851 2854 595 3051 595 3351 
C 595 3739 998 4032 1459 4032 
C 1965 4032 2336 3676 2336 3262 
z
M 2483 851 
C 2483 381 2010 25 1472 25 
C 890 25 448 438 448 940 
C 448 1443 838 1862 1280 2060 
L 2080 1519 
C 2176 1449 2483 1240 2483 851 
z
" transform="scale(0.015625)"/>
     </defs>
     <use xlink:href="#LMRoman17-Regular-2e" transform="scale(0.996264)"/>
     <use xlink:href="#LMRoman17-Regular-32" transform="translate(24.872016 0) scale(0.996264)"/>
     <use xlink:href="#LMRoman17-Regular-37" transform="translate(70.562965 0) scale(0.996264)"/>
     <use xlink:href="#LMRoman17-Regular-38" transform="translate(116.253913 0) scale(0.996264)"/>
    </g>
   </g>
   <g id="text_22">
    <!-- .523 -->
    <g style="fill: #e6edf3" transform="translate(542.744098 86.522453) scale(0.14 -0.14)">
     <use xlink:href="#LMRoman17-Regular-2e" transform="scale(0.996264)"/>
     <use xlink:href="#LMRoman17-Regular-35" transform="translate(24.872016 0) scale(0.996264)"/>
     <use xlink:href="#LMRoman17-Regular-32" transform="translate(70.562965 0) scale(0.996264)"/>
     <use xlink:href="#LMRoman17-Regular-33" transform="translate(116.253913 0) scale(0.996264)"/>
    </g>
   </g>
   <g id="text_23">
    <!-- .636 -->
    <g style="fill: #e6edf3" transform="translate(651.556613 46.626764) scale(0.14 -0.14)">
     <use xlink:href="#LMRoman17-Regular-2e" transform="scale(0.996264)"/>
     <use xlink:href="#LMRoman17-Regular-36" transform="translate(24.872016 0) scale(0.996264)"/>
     <use xlink:href="#LMRoman17-Regular-33" transform="translate(70.562965 0) scale(0.996264)"/>
     <use xlink:href="#LMRoman17-Regular-36" transform="translate(116.253913 0) scale(0.996264)"/>
    </g>
   </g>
   <g id="text_24">
    <!-- .300 -->
    <g style="fill: #e6edf3" transform="translate(134.697163 165.505162) scale(0.14 -0.14)">
     <use xlink:href="#LMRoman17-Regular-2e" transform="scale(0.996264)"/>
     <use xlink:href="#LMRoman17-Regular-33" transform="translate(24.872016 0) scale(0.996264)"/>
     <use xlink:href="#LMRoman17-Regular-30" transform="translate(70.562965 0) scale(0.996264)"/>
     <use xlink:href="#LMRoman17-Regular-30" transform="translate(116.253913 0) scale(0.996264)"/>
    </g>
   </g>
   <g id="text_25">
    <!-- .568 -->
    <g style="fill: #e6edf3" transform="translate(243.509679 70.707941) scale(0.14 -0.14)">
     <use xlink:href="#LMRoman17-Regular-2e" transform="scale(0.996264)"/>
     <use xlink:href="#LMRoman17-Regular-35" transform="translate(24.872016 0) scale(0.996264)"/>
     <use xlink:href="#LMRoman17-Regular-36" transform="translate(70.562965 0) scale(0.996264)"/>
     <use xlink:href="#LMRoman17-Regular-38" transform="translate(116.253913 0) scale(0.996264)"/>
    </g>
   </g>
   <g id="text_26">
    <!-- .679 -->
    <g style="fill: #e6edf3" transform="translate(352.322195 31.441232) scale(0.14 -0.14)">
     <use xlink:href="#LMRoman17-Regular-2e" transform="scale(0.996264)"/>
     <use xlink:href="#LMRoman17-Regular-36" transform="translate(24.872016 0) scale(0.996264)"/>
     <use xlink:href="#LMRoman17-Regular-37" transform="translate(70.562965 0) scale(0.996264)"/>
     <use xlink:href="#LMRoman17-Regular-39" transform="translate(116.253913 0) scale(0.996264)"/>
    </g>
   </g>
   <g id="text_27">
    <!-- .286 -->
    <g style="fill: #e6edf3" transform="translate(461.134711 170.447196) scale(0.14 -0.14)">
     <use xlink:href="#LMRoman17-Regular-2e" transform="scale(0.996264)"/>
     <use xlink:href="#LMRoman17-Regular-32" transform="translate(24.872016 0) scale(0.996264)"/>
     <use xlink:href="#LMRoman17-Regular-38" transform="translate(70.562965 0) scale(0.996264)"/>
     <use xlink:href="#LMRoman17-Regular-36" transform="translate(116.253913 0) scale(0.996264)"/>
    </g>
   </g>
   <g id="text_28">
    <!-- .542 -->
    <g style="fill: #e6edf3" transform="translate(569.947227 79.873168) scale(0.14 -0.14)">
     <use xlink:href="#LMRoman17-Regular-2e" transform="scale(0.996264)"/>
     <use xlink:href="#LMRoman17-Regular-35" transform="translate(24.872016 0) scale(0.996264)"/>
     <use xlink:href="#LMRoman17-Regular-34" transform="translate(70.562965 0) scale(0.996264)"/>
     <use xlink:href="#LMRoman17-Regular-32" transform="translate(116.253913 0) scale(0.996264)"/>
    </g>
   </g>
   <g id="text_29">
    <!-- .660 -->
    <g style="fill: #e6edf3" transform="translate(678.759742 38.270238) scale(0.14 -0.14)">
     <use xlink:href="#LMRoman17-Regular-2e" transform="scale(0.996264)"/>
     <use xlink:href="#LMRoman17-Regular-36" transform="translate(24.872016 0) scale(0.996264)"/>
     <use xlink:href="#LMRoman17-Regular-36" transform="translate(70.562965 0) scale(0.996264)"/>
     <use xlink:href="#LMRoman17-Regular-30" transform="translate(116.253913 0) scale(0.996264)"/>
    </g>
   </g>
   <g id="text_30">
    <!-- Retrieval Performance: Baseline vs Gap Correction -->
    <g style="fill: #e6edf3" transform="translate(187.266505 17.213303) scale(0.2 -0.2)">
     <defs>
      <path id="LMRoman17-Regular-74" d="M 1965 777 
L 1965 1140 
L 1850 1140 
L 1850 783 
C 1850 344 1677 51 1408 51 
C 1222 51 966 178 966 758 
L 966 2560 
L 1862 2560 
L 1862 2725 
L 966 2725 
L 966 3904 
L 851 3904 
C 838 3245 614 2668 70 2668 
L 70 2560 
L 627 2560 
L 627 771 
C 627 650 627 -64 1370 -64 
C 1747 -64 1965 306 1965 777 
z
" transform="scale(0.015625)"/>
      <path id="LMRoman17-Regular-72" d="M 2131 2458 
C 2131 2663 1926 2790 1709 2790 
C 1222 2790 1011 2317 947 2093 
L 941 2093 
L 941 2790 
L 198 2720 
L 198 2554 
C 576 2554 634 2515 634 2208 
L 634 428 
C 634 184 608 153 198 153 
L 198 -13 
C 352 0 646 0 813 0 
C 998 0 1325 0 1498 -13 
L 1498 153 
C 1037 153 960 153 960 440 
L 960 1497 
C 960 2112 1222 2688 1702 2688 
C 1747 2688 1792 2682 1837 2662 
C 1837 2662 1696 2617 1696 2452 
C 1696 2298 1818 2234 1914 2234 
C 1990 2234 2131 2279 2131 2458 
z
" transform="scale(0.015625)"/>
      <path id="LMRoman17-Regular-69" d="M 1370 -13 
L 1370 153 
C 992 153 979 191 979 420 
L 979 2778 
L 243 2708 
L 243 2542 
C 602 2542 653 2503 653 2198 
L 653 427 
C 653 184 627 153 218 153 
L 218 -13 
C 371 0 646 0 806 0 
C 960 0 1222 0 1370 -13 
z
M 1056 3835 
C 1056 3988 934 4096 800 4096 
C 646 4096 538 3975 538 3835 
C 538 3682 659 3574 794 3574 
C 947 3574 1056 3695 1056 3835 
z
" transform="scale(0.015625)"/>
      <path id="LMRoman17-Regular-76" d="M 3034 2560 
L 3034 2719 
L 2630 2719 
C 2496 2719 2285 2719 2157 2725 
L 2157 2560 
C 2317 2547 2406 2471 2406 2305 
C 2406 2248 2406 2235 2368 2146 
L 1664 375 
L 902 2286 
C 864 2369 864 2381 864 2407 
C 864 2560 1075 2560 1171 2560 
L 1171 2725 
C 1018 2719 736 2719 576 2719 
C 403 2719 205 2719 64 2725 
L 64 2560 
C 307 2560 442 2560 518 2362 
L 1446 44 
C 1485 -51 1491 -64 1549 -64 
C 1606 -64 1613 -51 1651 44 
L 2502 2163 
C 2560 2304 2662 2560 3034 2560 
z
" transform="scale(0.015625)"/>
      <path id="LMRoman17-Regular-50" d="M 3718 3184 
C 3718 3791 3130 4352 2291 4352 
L 333 4352 
L 333 4186 
C 774 4186 845 4186 845 3899 
L 845 446 
C 845 160 774 160 333 160 
L 333 0 
C 518 0 858 0 1056 0 
C 1254 0 1594 0 1779 0 
L 1779 160 
C 1338 160 1267 160 1267 446 
L 1267 2042 
L 2291 2042 
C 3117 2042 3718 2578 3718 3184 
z
M 3232 3184 
C 3232 2604 2950 2176 2170 2176 
L 1254 2176 
L 1254 3938 
C 1254 4155 1267 4186 1523 4186 
L 2170 4186 
C 2995 4186 3232 3714 3232 3184 
z
" transform="scale(0.015625)"/>
      <path id="LMRoman17-Regular-66" d="M 2003 4067 
C 2003 4308 1773 4454 1517 4454 
C 1152 4454 653 4156 653 3481 
L 653 2725 
L 141 2725 
L 141 2560 
L 653 2560 
L 653 427 
C 653 184 627 153 218 153 
L 218 -13 
C 371 0 666 0 832 0 
C 1018 0 1344 0 1517 -13 
L 1517 153 
C 1056 153 979 153 979 439 
L 979 2560 
L 1709 2560 
L 1709 2725 
L 966 2725 
L 966 3494 
C 966 4022 1235 4352 1510 4352 
C 1594 4352 1690 4327 1754 4282 
C 1702 4269 1568 4225 1568 4067 
C 1568 3901 1696 3850 1786 3850 
C 1875 3850 2003 3901 2003 4067 
z
" transform="scale(0.015625)"/>
      <path id="LMRoman17-Regular-6f" d="M 2758 1356 
C 2758 2176 2163 2816 1466 2816 
C 768 2816 173 2176 173 1356 
C 173 551 768 -64 1466 -64 
C 2163 -64 2758 551 2758 1356 
z
M 2349 1408 
C 2349 1158 2336 775 2163 467 
C 1984 173 1709 51 1466 51 
C 1165 51 909 230 762 480 
C 602 767 582 1126 582 1408 
C 582 1677 595 2010 762 2298 
C 890 2509 1139 2714 1466 2714 
C 1754 2714 1997 2554 2150 2330 
C 2349 2029 2349 1607 2349 1408 
z
" transform="scale(0.015625)"/>
      <path id="LMRoman17-Regular-6d" d="M 4762 -13 
L 4762 153 
C 4352 153 4326 178 4326 428 
L 4326 1933 
C 4326 2252 4269 2790 3507 2790 
C 3072 2790 2771 2496 2656 2151 
L 2650 2151 
C 2573 2676 2195 2790 1837 2790 
C 1331 2790 1069 2400 973 2144 
L 966 2144 
L 966 2790 
L 211 2720 
L 211 2554 
C 589 2554 646 2515 646 2208 
L 646 428 
C 646 184 621 153 211 153 
L 211 -13 
C 365 0 646 0 813 0 
C 979 0 1267 0 1421 -13 
L 1421 153 
C 1011 153 986 178 986 428 
L 986 1658 
C 986 2247 1344 2688 1792 2688 
C 2266 2688 2317 2266 2317 1958 
L 2317 428 
C 2317 184 2291 153 1882 153 
L 1882 -13 
C 2035 0 2317 0 2483 0 
C 2650 0 2938 0 3091 -13 
L 3091 153 
C 2682 153 2656 178 2656 428 
L 2656 1658 
C 2656 2247 3014 2688 3462 2688 
C 3936 2688 3987 2266 3987 1958 
L 3987 428 
C 3987 184 3962 153 3552 153 
L 3552 -13 
C 3706 0 3987 0 4154 0 
C 4320 0 4608 0 4762 -13 
z
" transform="scale(0.015625)"/>
      <path id="LMRoman17-Regular-6e" d="M 3091 -13 
L 3091 153 
C 2682 153 2656 178 2656 428 
L 2656 1933 
C 2656 2259 2592 2790 1837 2790 
C 1331 2790 1069 2400 973 2144 
L 966 2144 
L 966 2790 
L 211 2720 
L 211 2554 
C 589 2554 646 2515 646 2208 
L 646 428 
C 646 184 621 153 211 153 
L 211 -13 
C 365 0 646 0 813 0 
C 979 0 1267 0 1421 -13 
L 1421 153 
C 1011 153 986 178 986 428 
L 986 1658 
C 986 2247 1344 2688 1792 2688 
C 2266 2688 2317 2266 2317 1958 
L 2317 428 
C 2317 184 2291 153 1882 153 
L 1882 -13 
C 2035 0 2317 0 2483 0 
C 2650 0 2938 0 3091 -13 
z
" transform="scale(0.015625)"/>
      <path id="LMRoman17-Regular-3a" d="M 1062 2491 
C 1062 2650 934 2752 800 2752 
C 672 2752 538 2650 538 2491 
C 538 2332 666 2230 800 2230 
C 928 2230 1062 2332 1062 2491 
z
M 1062 261 
C 1062 420 934 522 800 522 
C 672 522 538 420 538 261 
C 538 102 666 0 800 0 
C 928 0 1062 102 1062 261 
z
" transform="scale(0.015625)"/>
      <path id="LMRoman17-Regular-42" d="M 3885 1164 
C 3885 1741 3360 2233 2675 2233 
C 3290 2356 3718 2771 3718 3264 
C 3718 3802 3194 4352 2368 4352 
L 333 4352 
L 333 4186 
C 774 4186 845 4186 845 3900 
L 845 452 
C 845 166 774 166 333 166 
L 333 0 
L 2534 0 
C 3354 0 3885 583 3885 1164 
z
M 3251 3277 
C 3251 2791 2861 2304 2170 2304 
L 1248 2304 
L 1248 3937 
C 1248 4155 1261 4186 1517 4186 
L 2336 4186 
C 2970 4186 3251 3674 3251 3277 
z
M 3411 1162 
C 3411 699 3046 166 2349 166 
L 1517 166 
C 1261 166 1248 197 1248 413 
L 1248 2202 
L 2432 2202 
C 3091 2202 3411 1625 3411 1162 
z
" transform="scale(0.015625)"/>
      <path id="LMRoman17-Regular-73" d="M 2131 784 
C 2131 1112 1958 1285 1875 1362 
C 1683 1561 1459 1606 1190 1657 
C 838 1735 390 1825 390 2217 
C 390 2383 480 2737 1126 2737 
C 1811 2737 1850 2094 1862 1888 
C 1869 1856 1901 1849 1920 1849 
C 1978 1849 1978 1869 1978 1978 
L 1978 2697 
C 1978 2813 1971 2819 1933 2819 
C 1907 2819 1901 2813 1824 2717 
C 1805 2691 1747 2626 1728 2601 
C 1523 2819 1235 2819 1126 2819 
C 416 2819 160 2447 160 2076 
C 160 1498 813 1365 998 1325 
C 1402 1243 1542 1217 1677 1101 
C 1760 1025 1901 884 1901 654 
C 1901 384 1747 38 1158 38 
C 602 38 403 460 288 1021 
C 269 1110 269 1117 218 1117 
C 166 1117 160 1110 160 983 
L 160 63 
C 160 -51 166 -58 205 -58 
C 237 -58 243 -51 275 0 
L 448 276 
C 576 103 800 -64 1158 -64 
C 1792 -64 2131 283 2131 784 
z
" transform="scale(0.015625)"/>
      <path id="LMRoman17-Regular-47" d="M 4390 1505 
L 4390 1670 
C 4237 1664 3891 1664 3718 1664 
L 2797 1664 
L 2797 1505 
L 2989 1505 
C 3539 1505 3552 1434 3552 1201 
L 3552 774 
C 3552 63 2720 63 2522 63 
C 1862 63 781 511 781 2160 
C 781 3808 1843 4250 2464 4250 
C 3187 4250 3712 3626 3834 2741 
C 3846 2664 3846 2651 3904 2651 
C 3974 2651 3974 2664 3974 2779 
L 3974 4288 
C 3974 4402 3968 4409 3930 4409 
C 3904 4409 3898 4402 3853 4326 
L 3571 3791 
C 3258 4187 2874 4416 2381 4416 
C 1286 4416 294 3456 294 2148 
C 294 845 1267 -128 2394 -128 
C 2912 -128 3418 56 3616 417 
C 3725 158 3904 -20 3936 -20 
C 3968 -20 3974 -13 3974 100 
L 3974 1233 
C 3974 1473 3994 1505 4390 1505 
z
" transform="scale(0.015625)"/>
      <path id="LMRoman17-Regular-70" d="M 3053 1388 
C 3053 2191 2496 2802 1837 2802 
C 1453 2802 1139 2592 960 2338 
L 960 2802 
L 198 2732 
L 198 2567 
C 576 2567 634 2528 634 2223 
L 634 -789 
C 634 -1031 608 -1063 198 -1063 
L 198 -1228 
C 352 -1216 634 -1216 800 -1216 
C 966 -1216 1254 -1216 1408 -1228 
L 1408 -1063 
C 998 -1063 973 -1037 973 -789 
L 973 402 
C 1158 134 1427 -38 1766 -38 
C 2406 -38 3053 523 3053 1388 
z
M 2643 1382 
C 2643 656 2234 64 1728 64 
C 1498 64 1248 172 1056 472 
C 973 612 973 650 973 752 
L 973 2012 
C 973 2102 973 2235 1222 2471 
C 1254 2497 1472 2688 1792 2688 
C 2259 2688 2643 2108 2643 1382 
z
" transform="scale(0.015625)"/>
      <path id="LMRoman17-Regular-43" d="M 3974 1461 
C 3974 1524 3974 1550 3917 1550 
C 3866 1550 3866 1531 3859 1474 
C 3808 585 3168 38 2477 38 
C 1824 38 781 495 781 2147 
C 781 3805 1843 4250 2464 4250 
C 3187 4250 3712 3628 3834 2745 
C 3846 2668 3846 2655 3904 2655 
C 3974 2655 3974 2668 3974 2783 
L 3974 4289 
C 3974 4403 3968 4410 3930 4410 
C 3904 4410 3898 4403 3853 4327 
L 3571 3792 
C 3258 4187 2874 4416 2381 4416 
C 1286 4416 294 3456 294 2148 
C 294 826 1286 -128 2387 -128 
C 3366 -128 3974 730 3974 1461 
z
" transform="scale(0.015625)"/>
     </defs>
     <use xlink:href="#LMRoman17-Regular-52" transform="scale(0.996264)"/>
     <use xlink:href="#LMRoman17-Regular-65" transform="translate(67.789779 0) scale(0.996264)"/>
     <use xlink:href="#LMRoman17-Regular-74" transform="translate(108.274589 0) scale(0.996264)"/>
     <use xlink:href="#LMRoman17-Regular-72" transform="translate(143.556116 0) scale(0.996264)"/>
     <use xlink:href="#LMRoman17-Regular-69" transform="translate(178.837644 0) scale(0.996264)"/>
     <use xlink:href="#LMRoman17-Regular-65" transform="translate(203.709661 0) scale(0.996264)"/>
     <use xlink:href="#LMRoman17-Regular-76" transform="translate(244.19447 0) scale(0.996264)"/>
     <use xlink:href="#LMRoman17-Regular-61" transform="translate(287.280866 0) scale(0.996264)"/>
     <use xlink:href="#LMRoman17-Regular-6c" transform="translate(332.971815 0) scale(0.996264)"/>
     <use xlink:href="#LMRoman17-Regular-50" transform="translate(387.91998 0) scale(0.996264)"/>
     <use xlink:href="#LMRoman17-Regular-65" transform="translate(447.901075 0) scale(0.996264)"/>
     <use xlink:href="#LMRoman17-Regular-72" transform="translate(488.385884 0) scale(0.996264)"/>
     <use xlink:href="#LMRoman17-Regular-66" transform="translate(523.667412 0) scale(0.996264)"/>
     <use xlink:href="#LMRoman17-Regular-6f" transform="translate(551.139586 0) scale(0.996264)"/>
     <use xlink:href="#LMRoman17-Regular-72" transform="translate(596.830535 0) scale(0.996264)"/>
     <use xlink:href="#LMRoman17-Regular-6d" transform="translate(632.112063 0) scale(0.996264)"/>
     <use xlink:href="#LMRoman17-Regular-61" transform="translate(709.034222 0) scale(0.996264)"/>
     <use xlink:href="#LMRoman17-Regular-6e" transform="translate(754.72517 0) scale(0.996264)"/>
     <use xlink:href="#LMRoman17-Regular-63" transform="translate(805.622258 0) scale(0.996264)"/>
     <use xlink:href="#LMRoman17-Regular-65" transform="translate(846.107067 0) scale(0.996264)"/>
     <use xlink:href="#LMRoman17-Regular-3a" transform="translate(886.591876 0) scale(0.996264)"/>
     <use xlink:href="#LMRoman17-Regular-42" transform="translate(951.949735 0) scale(0.996264)"/>
     <use xlink:href="#LMRoman17-Regular-61" transform="translate(1017.139341 0) scale(0.996264)"/>
     <use xlink:href="#LMRoman17-Regular-73" transform="translate(1062.830289 0) scale(0.996264)"/>
     <use xlink:href="#LMRoman17-Regular-65" transform="translate(1098.633527 0) scale(0.996264)"/>
     <use xlink:href="#LMRoman17-Regular-6c" transform="translate(1139.118336 0) scale(0.996264)"/>
     <use xlink:href="#LMRoman17-Regular-69" transform="translate(1163.990352 0) scale(0.996264)"/>
     <use xlink:href="#LMRoman17-Regular-6e" transform="translate(1188.862369 0) scale(0.996264)"/>
     <use xlink:href="#LMRoman17-Regular-65" transform="translate(1239.759456 0) scale(0.996264)"/>
     <use xlink:href="#LMRoman17-Regular-76" transform="translate(1310.320414 0) scale(0.996264)"/>
     <use xlink:href="#LMRoman17-Regular-73" transform="translate(1358.611627 0) scale(0.996264)"/>
     <use xlink:href="#LMRoman17-Regular-47" transform="translate(1424.491014 0) scale(0.996264)"/>
     <use xlink:href="#LMRoman17-Regular-61" transform="translate(1496.847029 0) scale(0.996264)"/>
     <use xlink:href="#LMRoman17-Regular-70" transform="translate(1542.537977 0) scale(0.996264)"/>
     <use xlink:href="#LMRoman17-Regular-43" transform="translate(1623.511213 0) scale(0.996264)"/>
     <use xlink:href="#LMRoman17-Regular-6f" transform="translate(1690.021003 0) scale(0.996264)"/>
     <use xlink:href="#LMRoman17-Regular-72" transform="translate(1735.711951 0) scale(0.996264)"/>
     <use xlink:href="#LMRoman17-Regular-72" transform="translate(1770.993479 0) scale(0.996264)"/>
     <use xlink:href="#LMRoman17-Regular-65" transform="translate(1806.275007 0) scale(0.996264)"/>
     <use xlink:href="#LMRoman17-Regular-63" transform="translate(1846.759816 0) scale(0.996264)"/>
     <use xlink:href="#LMRoman17-Regular-74" transform="translate(1887.244625 0) scale(0.996264)"/>
     <use xlink:href="#LMRoman17-Regular-69" transform="translate(1922.526153 0) scale(0.996264)"/>
     <use xlink:href="#LMRoman17-Regular-6f" transform="translate(1947.398169 0) scale(0.996264)"/>
     <use xlink:href="#LMRoman17-Regular-6e" transform="translate(1993.089118 0) scale(0.996264)"/>
    </g>
   </g>
   <g id="legend_1">
    <g id="patch_23">
     <path d="M 61.945452 48.813303 
L 93.945452 48.813303 
L 93.945452 37.613303 
L 61.945452 37.613303 
z
" style="fill: #4c72b0; stroke: #000000; stroke-width: 0.5; stroke-linejoin: miter"/>
    </g>
    <g id="text_31">
     <!-- Baseline -->
     <g style="fill: #e6edf3" transform="translate(106.745452 48.813303) scale(0.16 -0.16)">
      <use xlink:href="#LMRoman17-Regular-42" transform="scale(0.996264)"/>
      <use xlink:href="#LMRoman17-Regular-61" transform="translate(65.189606 0) scale(0.996264)"/>
      <use xlink:href="#LMRoman17-Regular-73" transform="translate(110.880554 0) scale(0.996264)"/>
      <use xlink:href="#LMRoman17-Regular-65" transform="translate(146.683792 0) scale(0.996264)"/>
      <use xlink:href="#LMRoman17-Regular-6c" transform="translate(187.168601 0) scale(0.996264)"/>
      <use xlink:href="#LMRoman17-Regular-69" transform="translate(212.040617 0) scale(0.996264)"/>
      <use xlink:href="#LMRoman17-Regular-6e" transform="translate(236.912634 0) scale(0.996264)"/>
      <use xlink:href="#LMRoman17-Regular-65" transform="translate(287.809721 0) scale(0.996264)"/>
     </g>
    </g>
    <g id="patch_24">
     <path d="M 61.945452 72.581731 
L 93.945452 72.581731 
L 93.945452 61.381731 
L 61.945452 61.381731 
z
" style="fill: #dd8452; stroke: #000000; stroke-width: 0.5; stroke-linejoin: miter"/>
    </g>
    <g id="text_32">
     <!-- Global $\vec{\Delta}$ -->
     <g style="fill: #e6edf3" transform="translate(106.745452 72.581731) scale(0.16 -0.16)">
      <defs>
       <path id="LMRoman17-Regular-62" d="M 3053 1370 
C 3053 2188 2477 2790 1830 2790 
C 1434 2790 1152 2579 960 2330 
L 960 4396 
L 198 4326 
L 198 4160 
C 576 4160 634 4122 634 3817 
L 634 -13 
L 749 -13 
L 934 441 
C 1120 141 1395 -64 1766 -64 
C 2406 -64 3053 500 3053 1370 
z
M 2643 1376 
C 2643 108 1888 38 1734 38 
C 1536 38 1248 114 1043 486 
C 973 608 973 621 973 735 
L 973 2004 
C 973 2118 973 2138 1062 2272 
C 1312 2657 1670 2688 1792 2688 
C 1984 2688 2643 2585 2643 1376 
z
" transform="scale(0.015625)"/>
       <path id="LMMathItalic12-Regular-7e" d="M 3942 3956 
C 3942 4014 3891 4046 3853 4078 
C 3674 4200 3629 4372 3610 4449 
C 3590 4500 3571 4577 3482 4577 
C 3443 4577 3366 4552 3366 4456 
C 3366 4398 3405 4244 3526 4072 
L 1376 4072 
C 1267 4072 1158 4072 1158 3950 
C 1158 3835 1274 3835 1376 3835 
L 3424 3835 
C 3347 3764 3110 3540 3110 3451 
C 3110 3387 3168 3329 3232 3329 
C 3290 3329 3315 3368 3360 3432 
C 3514 3624 3686 3745 3834 3828 
C 3898 3867 3942 3886 3942 3956 
z
" transform="scale(0.015625)"/>
       <path id="LMRoman17-Regular-1" d="M 4698 32 
C 4698 32 4672 96 4666 109 
L 2598 4403 
C 2547 4512 2522 4512 2470 4512 
C 2394 4512 2387 4499 2342 4409 
L 269 109 
C 262 96 237 32 237 32 
C 237 6 243 0 358 0 
L 4576 0 
C 4691 0 4698 6 4698 32 
z
M 4083 358 
L 531 358 
L 2310 4027 
L 4083 358 
z
" transform="scale(0.015625)"/>
      </defs>
      <use xlink:href="#LMRoman17-Regular-47" transform="scale(0.996264)"/>
      <use xlink:href="#LMRoman17-Regular-6c" transform="translate(72.356015 0) scale(0.996264)"/>
      <use xlink:href="#LMRoman17-Regular-6f" transform="translate(97.228031 0) scale(0.996264)"/>
      <use xlink:href="#LMRoman17-Regular-62" transform="translate(142.918979 0) scale(0.996264)"/>
      <use xlink:href="#LMRoman17-Regular-61" transform="translate(193.816067 0) scale(0.996264)"/>
      <use xlink:href="#LMRoman17-Regular-6c" transform="translate(239.507015 0) scale(0.996264)"/>
      <use xlink:href="#LMMathItalic12-Regular-7e" transform="translate(300.866593 27.541267) scale(0.996264)"/>
      <use xlink:href="#LMRoman17-Regular-1" transform="translate(294.45518 0) scale(0.996264)"/>
     </g>
    </g>
    <g id="patch_25">
     <path d="M 61.945452 99.450564 
L 93.945452 99.450564 
L 93.945452 88.250564 
L 61.945452 88.250564 
z
" style="fill: #55a868; stroke: #000000; stroke-width: 0.5; stroke-linejoin: miter"/>
    </g>
    <g id="text_33">
     <!-- Concept $\vec{\Delta}^{(c)}$ -->
     <g style="fill: #e6edf3" transform="translate(106.745452 99.450564) scale(0.16 -0.16)">
      <defs>
       <path id="LMRoman17-Regular-28" d="M 1958 -1561 
C 1958 -1561 1958 -1542 1939 -1523 
C 1645 -1224 858 -407 858 1581 
C 858 3569 1632 4379 1946 4697 
C 1946 4697 1958 4717 1958 4736 
C 1958 4755 1939 4768 1914 4768 
C 1843 4768 1299 4296 986 3594 
C 666 2887 576 2199 576 1588 
C 576 1128 621 351 1005 -471 
C 1312 -1135 1837 -1600 1914 -1600 
C 1946 -1600 1958 -1587 1958 -1561 
z
" transform="scale(0.015625)"/>
       <path id="LMMathItalic12-Regular-63" d="M 2675 706 
C 2675 744 2637 776 2611 776 
C 2592 776 2586 770 2528 713 
C 2118 162 1510 64 1267 64 
C 826 64 685 446 685 764 
C 685 988 794 1605 1024 2039 
C 1190 2338 1536 2682 1939 2682 
C 2022 2682 2374 2682 2502 2431 
C 2381 2431 2323 2431 2234 2355 
C 2195 2323 2125 2227 2125 2125 
C 2125 1997 2221 1920 2342 1920 
C 2496 1920 2669 2044 2669 2292 
C 2669 2588 2374 2816 1933 2816 
C 1094 2816 256 1903 256 996 
C 256 441 602 -64 1254 -64 
C 2125 -64 2675 622 2675 706 
z
" transform="scale(0.015625)"/>
       <path id="LMRoman17-Regular-29" d="M 1683 1581 
C 1683 2040 1638 2817 1254 3639 
C 947 4303 422 4768 346 4768 
C 326 4768 301 4761 301 4729 
C 301 4729 307 4710 314 4697 
C 621 4378 1402 3568 1402 1584 
C 1402 -407 627 -1217 314 -1537 
C 307 -1549 301 -1568 301 -1568 
C 301 -1600 326 -1600 346 -1600 
C 416 -1600 960 -1128 1274 -426 
C 1594 281 1683 969 1683 1581 
z
" transform="scale(0.015625)"/>
      </defs>
      <use xlink:href="#LMRoman17-Regular-43" transform="scale(0.996264)"/>
      <use xlink:href="#LMRoman17-Regular-6f" transform="translate(66.509789 0) scale(0.996264)"/>
      <use xlink:href="#LMRoman17-Regular-6e" transform="translate(112.200738 0) scale(0.996264)"/>
      <use xlink:href="#LMRoman17-Regular-63" transform="translate(163.097825 0) scale(0.996264)"/>
      <use xlink:href="#LMRoman17-Regular-65" transform="translate(203.582634 0) scale(0.996264)"/>
      <use xlink:href="#LMRoman17-Regular-70" transform="translate(244.067444 0) scale(0.996264)"/>
      <use xlink:href="#LMRoman17-Regular-74" transform="translate(294.964531 0) scale(0.996264)"/>
      <use xlink:href="#LMMathItalic12-Regular-7e" transform="translate(366.73362 27.541267) scale(0.996264)"/>
      <use xlink:href="#LMRoman17-Regular-1" transform="translate(360.322208 0) scale(0.996264)"/>
      <use xlink:href="#LMRoman17-Regular-28" transform="translate(437.244367 36.153639) scale(0.697382)"/>
      <use xlink:href="#LMMathItalic12-Regular-63" transform="translate(461.941319 36.153639) scale(0.697382)"/>
      <use xlink:href="#LMRoman17-Regular-29" transform="translate(491.329451 36.153639) scale(0.697382)"/>
     </g>
    </g>
   </g>
  </g>
 </g>
 <defs>
  <clipPath id="p557b75b9a0">
   <rect x="47.545452" y="23.213303" width="688.239163" height="252.003338"/>
  </clipPath>
 </defs>
</svg>
