<?xml version="1.0" encoding="utf-8" standalone="no"?>
<!DOCTYPE svg PUBLIC "-//W3C//DTD SVG 1.1//EN"
  "http://www.w3.org/Graphics/SVG/1.1/DTD/svg11.dtd">
<svg xmlns:xlink="http://www.w3.org/1999/xlink" width="619.310552pt" height="324pt" viewBox="0 0 619.310552 324" xmlns="http://www.w3.org/2000/svg" version="1.1">
 <metadata>
  <rdf:RDF xmlns:dc="http://purl.org/dc/elements/1.1/" xmlns:cc="http://creativecommons.org/ns#" xmlns:rdf="http://www.w3.org/1999/02/22-rdf-syntax-ns#">
   <cc:Work>
    <dc:type rdf:resource="http://purl.org/dc/dcmitype/StillImage"/>
    <dc:date>2026-03-19T11:53:05.424489</dc:date>
    <dc:format>image/svg+xml</dc:format>
    <dc:creator>
     <cc:Agent>
      <dc:title>Matplotlib v3.10.0, https://matplotlib.org/</dc:title>
     </cc:Agent>
    </dc:creator>
   </cc:Work>
  </rdf:RDF>
 </metadata>
 <defs>
  <style type="text/css">*{stroke-linejoin: round; stroke-linecap: butt}</style>
 </defs>
 <g id="figure_1">
  <g id="patch_1">
   <path d="M 0 324 
L 619.310552 324 
L 619.310552 0 
L 0 0 
L 0 324 
z
" style="fill: none"/>
  </g>
  <g id="axes_1">
   <g id="patch_2">
    <path d="M 64.567861 279.018845 
L 615.710552 279.018845 
L 615.710552 23.213303 
L 64.567861 23.213303 
L 64.567861 279.018845 
z
" style="fill: none"/>
   </g>
   <g id="matplotlib.axis_1">
    <g id="xtick_1">
     <g id="line2d_1">
      <path d="M 89.619802 279.018845 
L 89.619802 23.213303 
" clip-path="url(#p23a921889a)" style="fill: none; stroke: #2f3a46; stroke-opacity: 0.3; stroke-width: 0.5; stroke-linecap: round"/>
     </g>
     <g id="line2d_2">
      <defs>
       <path id="m01d74088ff" d="M 0 0 
L 0 3 
" style="stroke: #e6edf3; stroke-width: 0.5"/>
      </defs>
      <g>
       <use xlink:href="#m01d74088ff" x="89.619802" y="23.213303" style="fill: #e6edf3; stroke: #e6edf3; stroke-width: 0.5"/>
      </g>
     </g>
     <g id="text_1">
      <!-- $\mathdefault{0.0}$ -->
      <g style="fill: #e6edf3" transform="translate(80.141475 293.409493) scale(0.16 -0.16)">
       <defs>
        <path id="LMRoman17-Regular-30" d="M 2688 2025 
C 2688 2416 2682 3080 2413 3591 
C 2176 4039 1798 4198 1466 4198 
C 1158 4198 768 4058 525 3597 
C 269 3118 243 2524 243 2025 
C 243 1661 250 1106 448 619 
C 723 -39 1216 -128 1466 -128 
C 1760 -128 2208 -7 2470 600 
C 2662 1042 2688 1559 2688 2025 
z
M 2278 2096 
C 2278 1680 2278 1169 2202 792 
C 2067 95 1690 -26 1466 -26 
C 1056 -26 813 325 723 812 
C 653 1188 653 1738 653 2096 
C 653 2588 653 2997 736 3387 
C 858 3929 1216 4096 1466 4096 
C 1728 4096 2067 3923 2189 3400 
C 2272 3036 2278 2607 2278 2096 
z
" transform="scale(0.015625)"/>
        <path id="LMMathItalic12-Regular-3a" d="M 1178 307 
C 1178 492 1024 619 870 619 
C 685 619 557 466 557 313 
C 557 128 710 0 864 0 
C 1050 0 1178 153 1178 307 
z
" transform="scale(0.015625)"/>
       </defs>
       <use xlink:href="#LMRoman17-Regular-30" transform="scale(0.996264)"/>
       <use xlink:href="#LMMathItalic12-Regular-3a" transform="translate(45.690948 0) scale(0.996264)"/>
       <use xlink:href="#LMRoman17-Regular-30" transform="translate(72.788125 0) scale(0.996264)"/>
      </g>
     </g>
    </g>
    <g id="xtick_2">
     <g id="line2d_3">
      <path d="M 189.827564 279.018845 
L 189.827564 23.213303 
" clip-path="url(#p23a921889a)" style="fill: none; stroke: #2f3a46; stroke-opacity: 0.3; stroke-width: 0.5; stroke-linecap: round"/>
     </g>
     <g id="line2d_4">
      <g>
       <use xlink:href="#m01d74088ff" x="189.827564" y="23.213303" style="fill: #e6edf3; stroke: #e6edf3; stroke-width: 0.5"/>
      </g>
     </g>
     <g id="text_2">
      <!-- $\mathdefault{0.2}$ -->
      <g style="fill: #e6edf3" transform="translate(180.349237 293.409493) scale(0.16 -0.16)">
       <defs>
        <path id="LMRoman17-Regular-32" d="M 2669 989 
L 2554 989 
C 2490 536 2438 459 2413 420 
C 2381 369 1920 369 1830 369 
L 602 369 
L 1824 1597 
C 2214 1967 2669 2402 2669 3035 
C 2669 3790 2067 4224 1395 4224 
C 691 4224 262 3604 262 3030 
C 262 2780 448 2748 525 2748 
C 589 2748 781 2787 781 3010 
C 781 3207 614 3264 525 3264 
C 486 3264 448 3258 422 3245 
C 544 3790 915 4058 1306 4058 
C 1862 4058 2227 3617 2227 3035 
C 2227 2479 1901 2000 1536 1584 
L 262 146 
L 262 0 
L 2515 0 
L 2669 989 
z
" transform="scale(0.015625)"/>
       </defs>
       <use xlink:href="#LMRoman17-Regular-30" transform="scale(0.996264)"/>
       <use xlink:href="#LMMathItalic12-Regular-3a" transform="translate(45.690948 0) scale(0.996264)"/>
       <use xlink:href="#LMRoman17-Regular-32" transform="translate(72.788125 0) scale(0.996264)"/>
      </g>
     </g>
    </g>
    <g id="xtick_3">
     <g id="line2d_5">
      <path d="M 290.035326 279.018845 
L 290.035326 23.213303 
" clip-path="url(#p23a921889a)" style="fill: none; stroke: #2f3a46; stroke-opacity: 0.3; stroke-width: 0.5; stroke-linecap: round"/>
     </g>
     <g id="line2d_6">
      <g>
       <use xlink:href="#m01d74088ff" x="290.035326" y="23.213303" style="fill: #e6edf3; stroke: #e6edf3; stroke-width: 0.5"/>
      </g>
     </g>
     <g id="text_3">
      <!-- $\mathdefault{0.4}$ -->
      <g style="fill: #e6edf3" transform="translate(280.556999 293.409493) scale(0.16 -0.16)">
       <defs>
        <path id="LMRoman17-Regular-34" d="M 2803 1114 
L 2803 1280 
L 2150 1280 
L 2150 4154 
C 2150 4288 2144 4288 2029 4288 
L 128 1280 
L 128 1114 
L 1779 1114 
L 1779 487 
C 1779 255 1766 192 1318 192 
L 1197 192 
L 1197 32 
C 1402 32 1747 32 1965 32 
C 2182 32 2528 32 2733 32 
L 2733 192 
L 2611 192 
C 2163 192 2150 255 2150 487 
L 2150 1114 
L 2803 1114 
z
M 1798 1280 
L 256 1280 
L 1798 3734 
L 1798 1280 
z
" transform="scale(0.015625)"/>
       </defs>
       <use xlink:href="#LMRoman17-Regular-30" transform="scale(0.996264)"/>
       <use xlink:href="#LMMathItalic12-Regular-3a" transform="translate(45.690948 0) scale(0.996264)"/>
       <use xlink:href="#LMRoman17-Regular-34" transform="translate(72.788125 0) scale(0.996264)"/>
      </g>
     </g>
    </g>
    <g id="xtick_4">
     <g id="line2d_7">
      <path d="M 390.243088 279.018845 
L 390.243088 23.213303 
" clip-path="url(#p23a921889a)" style="fill: none; stroke: #2f3a46; stroke-opacity: 0.3; stroke-width: 0.5; stroke-linecap: round"/>
     </g>
     <g id="line2d_8">
      <g>
       <use xlink:href="#m01d74088ff" x="390.243088" y="23.213303" style="fill: #e6edf3; stroke: #e6edf3; stroke-width: 0.5"/>
      </g>
     </g>
     <g id="text_4">
      <!-- $\mathdefault{0.6}$ -->
      <g style="fill: #e6edf3" transform="translate(380.764761 293.409493) scale(0.16 -0.16)">
       <defs>
        <path id="LMRoman17-Regular-36" d="M 2688 1283 
C 2688 2081 2170 2662 1517 2662 
C 1126 2662 838 2407 678 1960 
L 678 2176 
C 678 3690 1395 4032 1811 4032 
C 1946 4032 2272 4009 2400 3776 
C 2298 3776 2106 3776 2106 3553 
C 2106 3381 2246 3323 2336 3323 
C 2394 3323 2566 3348 2566 3560 
C 2566 3954 2246 4179 1805 4179 
C 1043 4179 243 3390 243 1984 
C 243 253 966 -128 1478 -128 
C 2099 -128 2688 427 2688 1283 
z
M 2253 1289 
C 2253 944 2253 690 2118 434 
C 1978 171 1773 25 1478 25 
C 691 25 691 1200 691 1436 
C 691 1896 909 2560 1504 2560 
C 1613 2560 1926 2560 2138 2120 
C 2253 1870 2253 1609 2253 1289 
z
" transform="scale(0.015625)"/>
       </defs>
       <use xlink:href="#LMRoman17-Regular-30" transform="scale(0.996264)"/>
       <use xlink:href="#LMMathItalic12-Regular-3a" transform="translate(45.690948 0) scale(0.996264)"/>
       <use xlink:href="#LMRoman17-Regular-36" transform="translate(72.788125 0) scale(0.996264)"/>
      </g>
     </g>
    </g>
    <g id="xtick_5">
     <g id="line2d_9">
      <path d="M 490.45085 279.018845 
L 490.45085 23.213303 
" clip-path="url(#p23a921889a)" style="fill: none; stroke: #2f3a46; stroke-opacity: 0.3; stroke-width: 0.5; stroke-linecap: round"/>
     </g>
     <g id="line2d_10">
      <g>
       <use xlink:href="#m01d74088ff" x="490.45085" y="23.213303" style="fill: #e6edf3; stroke: #e6edf3; stroke-width: 0.5"/>
      </g>
     </g>
     <g id="text_5">
      <!-- $\mathdefault{0.8}$ -->
      <g style="fill: #e6edf3" transform="translate(480.972523 293.409493) scale(0.16 -0.16)">
       <defs>
        <path id="LMRoman17-Regular-38" d="M 2720 1011 
C 2720 1590 2330 1858 2074 2029 
C 1984 2092 1933 2124 1741 2264 
C 2144 2468 2554 2773 2554 3263 
C 2554 3842 1990 4179 1472 4179 
C 890 4179 378 3759 378 3180 
C 378 3021 416 2747 666 2505 
C 730 2442 998 2251 1171 2130 
C 883 1983 211 1634 211 934 
C 211 279 838 -128 1459 -128 
C 2144 -128 2720 362 2720 1011 
z
M 2336 3262 
C 2336 2669 1670 2331 1638 2331 
C 1638 2331 1626 2331 1574 2370 
L 902 2822 
C 851 2854 595 3051 595 3351 
C 595 3739 998 4032 1459 4032 
C 1965 4032 2336 3676 2336 3262 
z
M 2483 851 
C 2483 381 2010 25 1472 25 
C 890 25 448 438 448 940 
C 448 1443 838 1862 1280 2060 
L 2080 1519 
C 2176 1449 2483 1240 2483 851 
z
" transform="scale(0.015625)"/>
       </defs>
       <use xlink:href="#LMRoman17-Regular-30" transform="scale(0.996264)"/>
       <use xlink:href="#LMMathItalic12-Regular-3a" transform="translate(45.690948 0) scale(0.996264)"/>
       <use xlink:href="#LMRoman17-Regular-38" transform="translate(72.788125 0) scale(0.996264)"/>
      </g>
     </g>
    </g>
    <g id="xtick_6">
     <g id="line2d_11">
      <path d="M 590.658612 279.018845 
L 590.658612 23.213303 
" clip-path="url(#p23a921889a)" style="fill: none; stroke: #2f3a46; stroke-opacity: 0.3; stroke-width: 0.5; stroke-linecap: round"/>
     </g>
     <g id="line2d_12">
      <g>
       <use xlink:href="#m01d74088ff" x="590.658612" y="23.213303" style="fill: #e6edf3; stroke: #e6edf3; stroke-width: 0.5"/>
      </g>
     </g>
     <g id="text_6">
      <!-- $\mathdefault{1.0}$ -->
      <g style="fill: #e6edf3" transform="translate(581.180285 293.409493) scale(0.16 -0.16)">
       <defs>
        <path id="LMRoman17-Regular-31" d="M 2458 0 
L 2458 160 
L 2266 160 
C 1715 160 1702 230 1702 458 
L 1702 4058 
C 1702 4192 1696 4192 1606 4192 
C 1357 3916 979 3827 621 3827 
C 602 3827 570 3827 563 3808 
C 557 3795 557 3782 557 3648 
C 755 3648 1088 3686 1344 3839 
L 1344 461 
C 1344 236 1331 160 781 160 
L 589 160 
L 589 0 
L 1523 0 
L 2458 0 
z
" transform="scale(0.015625)"/>
       </defs>
       <use xlink:href="#LMRoman17-Regular-31" transform="scale(0.996264)"/>
       <use xlink:href="#LMMathItalic12-Regular-3a" transform="translate(45.690948 0) scale(0.996264)"/>
       <use xlink:href="#LMRoman17-Regular-30" transform="translate(72.788125 0) scale(0.996264)"/>
      </g>
     </g>
    </g>
    <g id="xtick_7">
     <g id="line2d_13">
      <defs>
       <path id="medeca296c6" d="M 0 0 
L 0 1.5 
" style="stroke: #e6edf3; stroke-width: 0.5"/>
      </defs>
      <g>
       <use xlink:href="#medeca296c6" x="64.567861" y="23.213303" style="fill: #e6edf3; stroke: #e6edf3; stroke-width: 0.5"/>
      </g>
     </g>
    </g>
    <g id="xtick_8">
     <g id="line2d_14">
      <g>
       <use xlink:href="#medeca296c6" x="114.671742" y="23.213303" style="fill: #e6edf3; stroke: #e6edf3; stroke-width: 0.5"/>
      </g>
     </g>
    </g>
    <g id="xtick_9">
     <g id="line2d_15">
      <g>
       <use xlink:href="#medeca296c6" x="139.723683" y="23.213303" style="fill: #e6edf3; stroke: #e6edf3; stroke-width: 0.5"/>
      </g>
     </g>
    </g>
    <g id="xtick_10">
     <g id="line2d_16">
      <g>
       <use xlink:href="#medeca296c6" x="164.775623" y="23.213303" style="fill: #e6edf3; stroke: #e6edf3; stroke-width: 0.5"/>
      </g>
     </g>
    </g>
    <g id="xtick_11">
     <g id="line2d_17">
      <g>
       <use xlink:href="#medeca296c6" x="214.879504" y="23.213303" style="fill: #e6edf3; stroke: #e6edf3; stroke-width: 0.5"/>
      </g>
     </g>
    </g>
    <g id="xtick_12">
     <g id="line2d_18">
      <g>
       <use xlink:href="#medeca296c6" x="239.931445" y="23.213303" style="fill: #e6edf3; stroke: #e6edf3; stroke-width: 0.5"/>
      </g>
     </g>
    </g>
    <g id="xtick_13">
     <g id="line2d_19">
      <g>
       <use xlink:href="#medeca296c6" x="264.983385" y="23.213303" style="fill: #e6edf3; stroke: #e6edf3; stroke-width: 0.5"/>
      </g>
     </g>
    </g>
    <g id="xtick_14">
     <g id="line2d_20">
      <g>
       <use xlink:href="#medeca296c6" x="315.087266" y="23.213303" style="fill: #e6edf3; stroke: #e6edf3; stroke-width: 0.5"/>
      </g>
     </g>
    </g>
    <g id="xtick_15">
     <g id="line2d_21">
      <g>
       <use xlink:href="#medeca296c6" x="340.139207" y="23.213303" style="fill: #e6edf3; stroke: #e6edf3; stroke-width: 0.5"/>
      </g>
     </g>
    </g>
    <g id="xtick_16">
     <g id="line2d_22">
      <g>
       <use xlink:href="#medeca296c6" x="365.191147" y="23.213303" style="fill: #e6edf3; stroke: #e6edf3; stroke-width: 0.5"/>
      </g>
     </g>
    </g>
    <g id="xtick_17">
     <g id="line2d_23">
      <g>
       <use xlink:href="#medeca296c6" x="415.295028" y="23.213303" style="fill: #e6edf3; stroke: #e6edf3; stroke-width: 0.5"/>
      </g>
     </g>
    </g>
    <g id="xtick_18">
     <g id="line2d_24">
      <g>
       <use xlink:href="#medeca296c6" x="440.346969" y="23.213303" style="fill: #e6edf3; stroke: #e6edf3; stroke-width: 0.5"/>
      </g>
     </g>
    </g>
    <g id="xtick_19">
     <g id="line2d_25">
      <g>
       <use xlink:href="#medeca296c6" x="465.398909" y="23.213303" style="fill: #e6edf3; stroke: #e6edf3; stroke-width: 0.5"/>
      </g>
     </g>
    </g>
    <g id="xtick_20">
     <g id="line2d_26">
      <g>
       <use xlink:href="#medeca296c6" x="515.50279" y="23.213303" style="fill: #e6edf3; stroke: #e6edf3; stroke-width: 0.5"/>
      </g>
     </g>
    </g>
    <g id="xtick_21">
     <g id="line2d_27">
      <g>
       <use xlink:href="#medeca296c6" x="540.554731" y="23.213303" style="fill: #e6edf3; stroke: #e6edf3; stroke-width: 0.5"/>
      </g>
     </g>
    </g>
    <g id="xtick_22">
     <g id="line2d_28">
      <g>
       <use xlink:href="#medeca296c6" x="565.606671" y="23.213303" style="fill: #e6edf3; stroke: #e6edf3; stroke-width: 0.5"/>
      </g>
     </g>
    </g>
    <g id="xtick_23">
     <g id="line2d_29">
      <g>
       <use xlink:href="#medeca296c6" x="615.710552" y="23.213303" style="fill: #e6edf3; stroke: #e6edf3; stroke-width: 0.5"/>
      </g>
     </g>
    </g>
    <g id="text_7">
     <!-- $\alpha$ (shift fraction) -->
     <g style="fill: #e6edf3" transform="translate(272.799894 315.435402) scale(0.2 -0.2)">
      <defs>
       <path id="LMMathItalic12-Regular-b" d="M 3661 377 
C 3661 434 3616 434 3597 434 
C 3546 434 3539 415 3520 364 
C 3462 204 3315 64 3162 64 
C 2963 64 2963 473 2963 862 
C 3616 1641 3770 2452 3770 2452 
C 3770 2510 3718 2510 3699 2510 
C 3642 2510 3635 2491 3610 2376 
C 3526 2095 3360 1597 2963 1073 
L 2963 1616 
C 2963 2235 2611 2816 1933 2816 
C 1094 2816 256 1903 256 996 
C 256 441 602 -64 1254 -64 
C 1651 -64 2125 89 2579 472 
C 2669 115 2867 -64 3142 -64 
C 3488 -64 3661 294 3661 377 
z
M 2560 626 
C 1997 121 1491 64 1267 64 
C 813 64 685 466 685 766 
C 685 1041 826 1692 1024 2044 
C 1286 2491 1645 2689 1933 2689 
C 2554 2689 2554 1878 2554 1341 
L 2547 856 
C 2547 728 2554 696 2560 626 
z
" transform="scale(0.015625)"/>
       <path id="LMRoman17-Regular-28" d="M 1958 -1561 
C 1958 -1561 1958 -1542 1939 -1523 
C 1645 -1224 858 -407 858 1581 
C 858 3569 1632 4379 1946 4697 
C 1946 4697 1958 4717 1958 4736 
C 1958 4755 1939 4768 1914 4768 
C 1843 4768 1299 4296 986 3594 
C 666 2887 576 2199 576 1588 
C 576 1128 621 351 1005 -471 
C 1312 -1135 1837 -1600 1914 -1600 
C 1946 -1600 1958 -1587 1958 -1561 
z
" transform="scale(0.015625)"/>
       <path id="LMRoman17-Regular-73" d="M 2131 784 
C 2131 1112 1958 1285 1875 1362 
C 1683 1561 1459 1606 1190 1657 
C 838 1735 390 1825 390 2217 
C 390 2383 480 2737 1126 2737 
C 1811 2737 1850 2094 1862 1888 
C 1869 1856 1901 1849 1920 1849 
C 1978 1849 1978 1869 1978 1978 
L 1978 2697 
C 1978 2813 1971 2819 1933 2819 
C 1907 2819 1901 2813 1824 2717 
C 1805 2691 1747 2626 1728 2601 
C 1523 2819 1235 2819 1126 2819 
C 416 2819 160 2447 160 2076 
C 160 1498 813 1365 998 1325 
C 1402 1243 1542 1217 1677 1101 
C 1760 1025 1901 884 1901 654 
C 1901 384 1747 38 1158 38 
C 602 38 403 460 288 1021 
C 269 1110 269 1117 218 1117 
C 166 1117 160 1110 160 983 
L 160 63 
C 160 -51 166 -58 205 -58 
C 237 -58 243 -51 275 0 
L 448 276 
C 576 103 800 -64 1158 -64 
C 1792 -64 2131 283 2131 784 
z
" transform="scale(0.015625)"/>
       <path id="LMRoman17-Regular-68" d="M 3091 -13 
L 3091 153 
C 2682 153 2656 178 2656 428 
L 2656 1933 
C 2656 2259 2592 2790 1837 2790 
C 1312 2790 1056 2368 979 2157 
L 973 2157 
L 973 4396 
L 211 4326 
L 211 4160 
C 589 4160 646 4122 646 3817 
L 646 426 
C 646 184 621 153 211 153 
L 211 -13 
C 365 0 646 0 813 0 
C 979 0 1267 0 1421 -13 
L 1421 153 
C 1011 153 986 178 986 428 
L 986 1658 
C 986 2247 1344 2688 1792 2688 
C 2266 2688 2317 2266 2317 1958 
L 2317 428 
C 2317 184 2291 153 1882 153 
L 1882 -13 
C 2035 0 2317 0 2483 0 
C 2650 0 2938 0 3091 -13 
z
" transform="scale(0.015625)"/>
       <path id="LMRoman17-Regular-69" d="M 1370 -13 
L 1370 153 
C 992 153 979 191 979 420 
L 979 2778 
L 243 2708 
L 243 2542 
C 602 2542 653 2503 653 2198 
L 653 427 
C 653 184 627 153 218 153 
L 218 -13 
C 371 0 646 0 806 0 
C 960 0 1222 0 1370 -13 
z
M 1056 3835 
C 1056 3988 934 4096 800 4096 
C 646 4096 538 3975 538 3835 
C 538 3682 659 3574 794 3574 
C 947 3574 1056 3695 1056 3835 
z
" transform="scale(0.015625)"/>
       <path id="LMRoman17-Regular-66" d="M 2003 4067 
C 2003 4308 1773 4454 1517 4454 
C 1152 4454 653 4156 653 3481 
L 653 2725 
L 141 2725 
L 141 2560 
L 653 2560 
L 653 427 
C 653 184 627 153 218 153 
L 218 -13 
C 371 0 666 0 832 0 
C 1018 0 1344 0 1517 -13 
L 1517 153 
C 1056 153 979 153 979 439 
L 979 2560 
L 1709 2560 
L 1709 2725 
L 966 2725 
L 966 3494 
C 966 4022 1235 4352 1510 4352 
C 1594 4352 1690 4327 1754 4282 
C 1702 4269 1568 4225 1568 4067 
C 1568 3901 1696 3850 1786 3850 
C 1875 3850 2003 3901 2003 4067 
z
" transform="scale(0.015625)"/>
       <path id="LMRoman17-Regular-74" d="M 1965 777 
L 1965 1140 
L 1850 1140 
L 1850 783 
C 1850 344 1677 51 1408 51 
C 1222 51 966 178 966 758 
L 966 2560 
L 1862 2560 
L 1862 2725 
L 966 2725 
L 966 3904 
L 851 3904 
C 838 3245 614 2668 70 2668 
L 70 2560 
L 627 2560 
L 627 771 
C 627 650 627 -64 1370 -64 
C 1747 -64 1965 306 1965 777 
z
" transform="scale(0.015625)"/>
       <path id="LMRoman17-Regular-72" d="M 2131 2458 
C 2131 2663 1926 2790 1709 2790 
C 1222 2790 1011 2317 947 2093 
L 941 2093 
L 941 2790 
L 198 2720 
L 198 2554 
C 576 2554 634 2515 634 2208 
L 634 428 
C 634 184 608 153 198 153 
L 198 -13 
C 352 0 646 0 813 0 
C 998 0 1325 0 1498 -13 
L 1498 153 
C 1037 153 960 153 960 440 
L 960 1497 
C 960 2112 1222 2688 1702 2688 
C 1747 2688 1792 2682 1837 2662 
C 1837 2662 1696 2617 1696 2452 
C 1696 2298 1818 2234 1914 2234 
C 1990 2234 2131 2279 2131 2458 
z
" transform="scale(0.015625)"/>
       <path id="LMRoman17-Regular-61" d="M 2874 567 
L 2874 920 
L 2758 920 
L 2758 562 
C 2758 178 2586 128 2502 128 
C 2240 128 2240 458 2240 738 
L 2240 1653 
C 2240 2072 2240 2294 1971 2543 
C 1734 2752 1459 2816 1242 2816 
C 736 2816 371 2407 371 1971 
C 371 1728 563 1728 602 1728 
C 685 1728 832 1778 832 1954 
C 832 2112 710 2181 602 2181 
C 576 2181 544 2174 525 2168 
C 659 2592 1005 2714 1229 2714 
C 1549 2714 1901 2429 1901 1885 
L 1901 1600 
C 1523 1600 1069 1549 710 1357 
C 307 1133 192 813 192 570 
C 192 77 768 -64 1107 -64 
C 1459 -64 1786 139 1926 511 
C 1939 233 2118 -18 2400 -18 
C 2534 -18 2874 70 2874 567 
z
M 1901 870 
C 1901 317 1504 38 1152 38 
C 832 38 582 275 582 570 
C 582 761 666 1100 1037 1305 
C 1344 1478 1696 1504 1901 1504 
L 1901 870 
z
" transform="scale(0.015625)"/>
       <path id="LMRoman17-Regular-63" d="M 2458 748 
C 2458 774 2451 793 2406 793 
C 2362 793 2355 787 2330 703 
C 2163 180 1798 51 1523 51 
C 1114 51 621 427 621 1369 
C 621 2338 1094 2688 1472 2688 
C 1722 2688 2093 2573 2234 2240 
C 2112 2240 1933 2240 1933 2017 
C 1933 1838 2080 1787 2163 1787 
C 2208 1787 2394 1807 2394 2024 
C 2394 2467 1958 2803 1466 2803 
C 787 2803 211 2178 211 1363 
C 211 516 813 -64 1466 -64 
C 2259 -64 2458 677 2458 748 
z
" transform="scale(0.015625)"/>
       <path id="LMRoman17-Regular-6f" d="M 2758 1356 
C 2758 2176 2163 2816 1466 2816 
C 768 2816 173 2176 173 1356 
C 173 551 768 -64 1466 -64 
C 2163 -64 2758 551 2758 1356 
z
M 2349 1408 
C 2349 1158 2336 775 2163 467 
C 1984 173 1709 51 1466 51 
C 1165 51 909 230 762 480 
C 602 767 582 1126 582 1408 
C 582 1677 595 2010 762 2298 
C 890 2509 1139 2714 1466 2714 
C 1754 2714 1997 2554 2150 2330 
C 2349 2029 2349 1607 2349 1408 
z
" transform="scale(0.015625)"/>
       <path id="LMRoman17-Regular-6e" d="M 3091 -13 
L 3091 153 
C 2682 153 2656 178 2656 428 
L 2656 1933 
C 2656 2259 2592 2790 1837 2790 
C 1331 2790 1069 2400 973 2144 
L 966 2144 
L 966 2790 
L 211 2720 
L 211 2554 
C 589 2554 646 2515 646 2208 
L 646 428 
C 646 184 621 153 211 153 
L 211 -13 
C 365 0 646 0 813 0 
C 979 0 1267 0 1421 -13 
L 1421 153 
C 1011 153 986 178 986 428 
L 986 1658 
C 986 2247 1344 2688 1792 2688 
C 2266 2688 2317 2266 2317 1958 
L 2317 428 
C 2317 184 2291 153 1882 153 
L 1882 -13 
C 2035 0 2317 0 2483 0 
C 2650 0 2938 0 3091 -13 
z
" transform="scale(0.015625)"/>
       <path id="LMRoman17-Regular-29" d="M 1683 1581 
C 1683 2040 1638 2817 1254 3639 
C 947 4303 422 4768 346 4768 
C 326 4768 301 4761 301 4729 
C 301 4729 307 4710 314 4697 
C 621 4378 1402 3568 1402 1584 
C 1402 -407 627 -1217 314 -1537 
C 307 -1549 301 -1568 301 -1568 
C 301 -1600 326 -1600 346 -1600 
C 416 -1600 960 -1128 1274 -426 
C 1594 281 1683 969 1683 1581 
z
" transform="scale(0.015625)"/>
      </defs>
      <use xlink:href="#LMMathItalic12-Regular-b" transform="scale(0.996264)"/>
      <use xlink:href="#LMRoman17-Regular-28" transform="translate(92.757172 0) scale(0.996264)"/>
      <use xlink:href="#LMRoman17-Regular-73" transform="translate(128.038699 0) scale(0.996264)"/>
      <use xlink:href="#LMRoman17-Regular-68" transform="translate(163.841937 0) scale(0.996264)"/>
      <use xlink:href="#LMRoman17-Regular-69" transform="translate(214.739025 0) scale(0.996264)"/>
      <use xlink:href="#LMRoman17-Regular-66" transform="translate(239.611041 0) scale(0.996264)"/>
      <use xlink:href="#LMRoman17-Regular-74" transform="translate(267.083216 0) scale(0.996264)"/>
      <use xlink:href="#LMRoman17-Regular-66" transform="translate(332.440892 0) scale(0.996264)"/>
      <use xlink:href="#LMRoman17-Regular-72" transform="translate(359.913067 0) scale(0.996264)"/>
      <use xlink:href="#LMRoman17-Regular-61" transform="translate(395.194595 0) scale(0.996264)"/>
      <use xlink:href="#LMRoman17-Regular-63" transform="translate(440.885543 0) scale(0.996264)"/>
      <use xlink:href="#LMRoman17-Regular-74" transform="translate(481.370353 0) scale(0.996264)"/>
      <use xlink:href="#LMRoman17-Regular-69" transform="translate(516.65188 0) scale(0.996264)"/>
      <use xlink:href="#LMRoman17-Regular-6f" transform="translate(541.523897 0) scale(0.996264)"/>
      <use xlink:href="#LMRoman17-Regular-6e" transform="translate(587.214845 0) scale(0.996264)"/>
      <use xlink:href="#LMRoman17-Regular-29" transform="translate(638.111933 0) scale(0.996264)"/>
     </g>
    </g>
   </g>
   <g id="matplotlib.axis_2">
    <g id="ytick_1">
     <g id="line2d_30">
      <path d="M 64.567861 241.899788 
L 615.710552 241.899788 
" clip-path="url(#p23a921889a)" style="fill: none; stroke: #2f3a46; stroke-opacity: 0.3; stroke-width: 0.5; stroke-linecap: round"/>
     </g>
     <g id="line2d_31">
      <defs>
       <path id="m4bc889aaa4" d="M 0 0 
L -3 0 
" style="stroke: #e6edf3; stroke-width: 0.5"/>
      </defs>
      <g>
       <use xlink:href="#m4bc889aaa4" x="615.710552" y="241.899788" style="fill: #e6edf3; stroke: #e6edf3; stroke-width: 0.5"/>
      </g>
     </g>
     <g id="text_8">
      <!-- $\mathdefault{0.175}$ -->
      <g style="fill: #e6edf3" transform="translate(27.490103 247.345112) scale(0.16 -0.16)">
       <defs>
        <path id="LMRoman17-Regular-37" d="M 2886 3941 
L 2886 4081 
L 1382 4081 
C 634 4081 621 4165 595 4288 
L 480 4288 
L 294 3094 
L 410 3094 
C 429 3215 474 3540 550 3661 
C 589 3712 1062 3712 1171 3712 
L 2579 3712 
L 1869 2661 
C 1395 1954 1069 999 1069 165 
C 1069 89 1069 -128 1299 -128 
C 1530 -128 1530 89 1530 171 
L 1530 465 
C 1530 1508 1709 2196 2003 2636 
L 2886 3941 
z
" transform="scale(0.015625)"/>
        <path id="LMRoman17-Regular-35" d="M 2669 1264 
C 2669 2030 2170 2624 1549 2624 
C 1222 2624 947 2503 730 2274 
L 730 3692 
C 794 3666 1056 3584 1325 3584 
C 1920 3584 2246 3911 2432 4100 
C 2432 4157 2432 4192 2394 4192 
C 2394 4192 2374 4192 2323 4163 
C 2099 4058 1837 3973 1517 3973 
C 1325 3973 1037 3999 723 4139 
C 653 4171 634 4171 634 4171 
C 602 4171 595 4164 595 4037 
L 595 2203 
C 595 2089 595 2057 659 2057 
C 691 2057 704 2070 736 2114 
C 941 2401 1222 2522 1542 2522 
C 1766 2522 2246 2382 2246 1289 
C 2246 1085 2246 715 2054 421 
C 1894 159 1645 25 1370 25 
C 947 25 518 320 403 814 
C 429 807 480 795 506 795 
C 589 795 749 840 749 1038 
C 749 1210 627 1280 506 1280 
C 358 1280 262 1190 262 1011 
C 262 454 704 -128 1382 -128 
C 2042 -128 2669 440 2669 1264 
z
" transform="scale(0.015625)"/>
       </defs>
       <use xlink:href="#LMRoman17-Regular-30" transform="scale(0.996264)"/>
       <use xlink:href="#LMMathItalic12-Regular-3a" transform="translate(45.690948 0) scale(0.996264)"/>
       <use xlink:href="#LMRoman17-Regular-31" transform="translate(72.788125 0) scale(0.996264)"/>
       <use xlink:href="#LMRoman17-Regular-37" transform="translate(118.479074 0) scale(0.996264)"/>
       <use xlink:href="#LMRoman17-Regular-35" transform="translate(164.170022 0) scale(0.996264)"/>
      </g>
     </g>
    </g>
    <g id="ytick_2">
     <g id="line2d_32">
      <path d="M 64.567861 198.138009 
L 615.710552 198.138009 
" clip-path="url(#p23a921889a)" style="fill: none; stroke: #2f3a46; stroke-opacity: 0.3; stroke-width: 0.5; stroke-linecap: round"/>
     </g>
     <g id="line2d_33">
      <g>
       <use xlink:href="#m4bc889aaa4" x="615.710552" y="198.138009" style="fill: #e6edf3; stroke: #e6edf3; stroke-width: 0.5"/>
      </g>
     </g>
     <g id="text_9">
      <!-- $\mathdefault{0.200}$ -->
      <g style="fill: #e6edf3" transform="translate(27.490103 203.583333) scale(0.16 -0.16)">
       <use xlink:href="#LMRoman17-Regular-30" transform="scale(0.996264)"/>
       <use xlink:href="#LMMathItalic12-Regular-3a" transform="translate(45.690948 0) scale(0.996264)"/>
       <use xlink:href="#LMRoman17-Regular-32" transform="translate(72.788125 0) scale(0.996264)"/>
       <use xlink:href="#LMRoman17-Regular-30" transform="translate(118.479074 0) scale(0.996264)"/>
       <use xlink:href="#LMRoman17-Regular-30" transform="translate(164.170022 0) scale(0.996264)"/>
      </g>
     </g>
    </g>
    <g id="ytick_3">
     <g id="line2d_34">
      <path d="M 64.567861 154.376231 
L 615.710552 154.376231 
" clip-path="url(#p23a921889a)" style="fill: none; stroke: #2f3a46; stroke-opacity: 0.3; stroke-width: 0.5; stroke-linecap: round"/>
     </g>
     <g id="line2d_35">
      <g>
       <use xlink:href="#m4bc889aaa4" x="615.710552" y="154.376231" style="fill: #e6edf3; stroke: #e6edf3; stroke-width: 0.5"/>
      </g>
     </g>
     <g id="text_10">
      <!-- $\mathdefault{0.225}$ -->
      <g style="fill: #e6edf3" transform="translate(27.490103 159.821555) scale(0.16 -0.16)">
       <use xlink:href="#LMRoman17-Regular-30" transform="scale(0.996264)"/>
       <use xlink:href="#LMMathItalic12-Regular-3a" transform="translate(45.690948 0) scale(0.996264)"/>
       <use xlink:href="#LMRoman17-Regular-32" transform="translate(72.788125 0) scale(0.996264)"/>
       <use xlink:href="#LMRoman17-Regular-32" transform="translate(118.479074 0) scale(0.996264)"/>
       <use xlink:href="#LMRoman17-Regular-35" transform="translate(164.170022 0) scale(0.996264)"/>
      </g>
     </g>
    </g>
    <g id="ytick_4">
     <g id="line2d_36">
      <path d="M 64.567861 110.614452 
L 615.710552 110.614452 
" clip-path="url(#p23a921889a)" style="fill: none; stroke: #2f3a46; stroke-opacity: 0.3; stroke-width: 0.5; stroke-linecap: round"/>
     </g>
     <g id="line2d_37">
      <g>
       <use xlink:href="#m4bc889aaa4" x="615.710552" y="110.614452" style="fill: #e6edf3; stroke: #e6edf3; stroke-width: 0.5"/>
      </g>
     </g>
     <g id="text_11">
      <!-- $\mathdefault{0.250}$ -->
      <g style="fill: #e6edf3" transform="translate(27.490103 116.059776) scale(0.16 -0.16)">
       <use xlink:href="#LMRoman17-Regular-30" transform="scale(0.996264)"/>
       <use xlink:href="#LMMathItalic12-Regular-3a" transform="translate(45.690948 0) scale(0.996264)"/>
       <use xlink:href="#LMRoman17-Regular-32" transform="translate(72.788125 0) scale(0.996264)"/>
       <use xlink:href="#LMRoman17-Regular-35" transform="translate(118.479074 0) scale(0.996264)"/>
       <use xlink:href="#LMRoman17-Regular-30" transform="translate(164.170022 0) scale(0.996264)"/>
      </g>
     </g>
    </g>
    <g id="ytick_5">
     <g id="line2d_38">
      <path d="M 64.567861 66.852674 
L 615.710552 66.852674 
" clip-path="url(#p23a921889a)" style="fill: none; stroke: #2f3a46; stroke-opacity: 0.3; stroke-width: 0.5; stroke-linecap: round"/>
     </g>
     <g id="line2d_39">
      <g>
       <use xlink:href="#m4bc889aaa4" x="615.710552" y="66.852674" style="fill: #e6edf3; stroke: #e6edf3; stroke-width: 0.5"/>
      </g>
     </g>
     <g id="text_12">
      <!-- $\mathdefault{0.275}$ -->
      <g style="fill: #e6edf3" transform="translate(27.490103 72.297998) scale(0.16 -0.16)">
       <use xlink:href="#LMRoman17-Regular-30" transform="scale(0.996264)"/>
       <use xlink:href="#LMMathItalic12-Regular-3a" transform="translate(45.690948 0) scale(0.996264)"/>
       <use xlink:href="#LMRoman17-Regular-32" transform="translate(72.788125 0) scale(0.996264)"/>
       <use xlink:href="#LMRoman17-Regular-37" transform="translate(118.479074 0) scale(0.996264)"/>
       <use xlink:href="#LMRoman17-Regular-35" transform="translate(164.170022 0) scale(0.996264)"/>
      </g>
     </g>
    </g>
    <g id="ytick_6">
     <g id="line2d_40">
      <defs>
       <path id="me1ec497d6d" d="M 0 0 
L -1.5 0 
" style="stroke: #e6edf3; stroke-width: 0.5"/>
      </defs>
      <g>
       <use xlink:href="#me1ec497d6d" x="615.710552" y="276.909211" style="fill: #e6edf3; stroke: #e6edf3; stroke-width: 0.5"/>
      </g>
     </g>
    </g>
    <g id="ytick_7">
     <g id="line2d_41">
      <g>
       <use xlink:href="#me1ec497d6d" x="615.710552" y="268.156855" style="fill: #e6edf3; stroke: #e6edf3; stroke-width: 0.5"/>
      </g>
     </g>
    </g>
    <g id="ytick_8">
     <g id="line2d_42">
      <g>
       <use xlink:href="#me1ec497d6d" x="615.710552" y="259.404499" style="fill: #e6edf3; stroke: #e6edf3; stroke-width: 0.5"/>
      </g>
     </g>
    </g>
    <g id="ytick_9">
     <g id="line2d_43">
      <g>
       <use xlink:href="#me1ec497d6d" x="615.710552" y="250.652144" style="fill: #e6edf3; stroke: #e6edf3; stroke-width: 0.5"/>
      </g>
     </g>
    </g>
    <g id="ytick_10">
     <g id="line2d_44">
      <g>
       <use xlink:href="#me1ec497d6d" x="615.710552" y="233.147432" style="fill: #e6edf3; stroke: #e6edf3; stroke-width: 0.5"/>
      </g>
     </g>
    </g>
    <g id="ytick_11">
     <g id="line2d_45">
      <g>
       <use xlink:href="#me1ec497d6d" x="615.710552" y="224.395077" style="fill: #e6edf3; stroke: #e6edf3; stroke-width: 0.5"/>
      </g>
     </g>
    </g>
    <g id="ytick_12">
     <g id="line2d_46">
      <g>
       <use xlink:href="#me1ec497d6d" x="615.710552" y="215.642721" style="fill: #e6edf3; stroke: #e6edf3; stroke-width: 0.5"/>
      </g>
     </g>
    </g>
    <g id="ytick_13">
     <g id="line2d_47">
      <g>
       <use xlink:href="#me1ec497d6d" x="615.710552" y="206.890365" style="fill: #e6edf3; stroke: #e6edf3; stroke-width: 0.5"/>
      </g>
     </g>
    </g>
    <g id="ytick_14">
     <g id="line2d_48">
      <g>
       <use xlink:href="#me1ec497d6d" x="615.710552" y="189.385654" style="fill: #e6edf3; stroke: #e6edf3; stroke-width: 0.5"/>
      </g>
     </g>
    </g>
    <g id="ytick_15">
     <g id="line2d_49">
      <g>
       <use xlink:href="#me1ec497d6d" x="615.710552" y="180.633298" style="fill: #e6edf3; stroke: #e6edf3; stroke-width: 0.5"/>
      </g>
     </g>
    </g>
    <g id="ytick_16">
     <g id="line2d_50">
      <g>
       <use xlink:href="#me1ec497d6d" x="615.710552" y="171.880942" style="fill: #e6edf3; stroke: #e6edf3; stroke-width: 0.5"/>
      </g>
     </g>
    </g>
    <g id="ytick_17">
     <g id="line2d_51">
      <g>
       <use xlink:href="#me1ec497d6d" x="615.710552" y="163.128587" style="fill: #e6edf3; stroke: #e6edf3; stroke-width: 0.5"/>
      </g>
     </g>
    </g>
    <g id="ytick_18">
     <g id="line2d_52">
      <g>
       <use xlink:href="#me1ec497d6d" x="615.710552" y="145.623875" style="fill: #e6edf3; stroke: #e6edf3; stroke-width: 0.5"/>
      </g>
     </g>
    </g>
    <g id="ytick_19">
     <g id="line2d_53">
      <g>
       <use xlink:href="#me1ec497d6d" x="615.710552" y="136.871519" style="fill: #e6edf3; stroke: #e6edf3; stroke-width: 0.5"/>
      </g>
     </g>
    </g>
    <g id="ytick_20">
     <g id="line2d_54">
      <g>
       <use xlink:href="#me1ec497d6d" x="615.710552" y="128.119164" style="fill: #e6edf3; stroke: #e6edf3; stroke-width: 0.5"/>
      </g>
     </g>
    </g>
    <g id="ytick_21">
     <g id="line2d_55">
      <g>
       <use xlink:href="#me1ec497d6d" x="615.710552" y="119.366808" style="fill: #e6edf3; stroke: #e6edf3; stroke-width: 0.5"/>
      </g>
     </g>
    </g>
    <g id="ytick_22">
     <g id="line2d_56">
      <g>
       <use xlink:href="#me1ec497d6d" x="615.710552" y="101.862097" style="fill: #e6edf3; stroke: #e6edf3; stroke-width: 0.5"/>
      </g>
     </g>
    </g>
    <g id="ytick_23">
     <g id="line2d_57">
      <g>
       <use xlink:href="#me1ec497d6d" x="615.710552" y="93.109741" style="fill: #e6edf3; stroke: #e6edf3; stroke-width: 0.5"/>
      </g>
     </g>
    </g>
    <g id="ytick_24">
     <g id="line2d_58">
      <g>
       <use xlink:href="#me1ec497d6d" x="615.710552" y="84.357385" style="fill: #e6edf3; stroke: #e6edf3; stroke-width: 0.5"/>
      </g>
     </g>
    </g>
    <g id="ytick_25">
     <g id="line2d_59">
      <g>
       <use xlink:href="#me1ec497d6d" x="615.710552" y="75.60503" style="fill: #e6edf3; stroke: #e6edf3; stroke-width: 0.5"/>
      </g>
     </g>
    </g>
    <g id="ytick_26">
     <g id="line2d_60">
      <g>
       <use xlink:href="#me1ec497d6d" x="615.710552" y="58.100318" style="fill: #e6edf3; stroke: #e6edf3; stroke-width: 0.5"/>
      </g>
     </g>
    </g>
    <g id="ytick_27">
     <g id="line2d_61">
      <g>
       <use xlink:href="#me1ec497d6d" x="615.710552" y="49.347962" style="fill: #e6edf3; stroke: #e6edf3; stroke-width: 0.5"/>
      </g>
     </g>
    </g>
    <g id="ytick_28">
     <g id="line2d_62">
      <g>
       <use xlink:href="#me1ec497d6d" x="615.710552" y="40.595607" style="fill: #e6edf3; stroke: #e6edf3; stroke-width: 0.5"/>
      </g>
     </g>
    </g>
    <g id="ytick_29">
     <g id="line2d_63">
      <g>
       <use xlink:href="#me1ec497d6d" x="615.710552" y="31.843251" style="fill: #e6edf3; stroke: #e6edf3; stroke-width: 0.5"/>
      </g>
     </g>
    </g>
    <g id="text_13">
     <!-- Avg R@1 (test) -->
     <g style="fill: #e6edf3" transform="translate(18.525505 212.656583) rotate(-90) scale(0.2 -0.2)">
      <defs>
       <path id="LMRoman17-Regular-41" d="M 4282 -13 
L 4282 153 
C 3942 153 3827 153 3744 387 
L 2323 4378 
C 2291 4461 2278 4480 2214 4480 
C 2150 4480 2138 4461 2106 4378 
L 749 566 
C 627 223 371 153 147 153 
L 147 -13 
C 262 0 518 0 640 0 
C 800 0 1056 0 1210 -13 
L 1210 153 
C 909 153 864 361 864 439 
C 864 497 877 530 890 569 
L 1229 1536 
L 2906 1536 
L 3290 442 
C 3322 365 3322 352 3322 327 
C 3322 153 3046 153 2925 153 
L 2925 0 
C 3110 0 3443 0 3642 0 
C 3808 0 4128 0 4282 -13 
z
M 2848 1702 
L 1286 1702 
L 2067 3874 
L 2848 1702 
z
" transform="scale(0.015625)"/>
       <path id="LMRoman17-Regular-76" d="M 3034 2560 
L 3034 2719 
L 2630 2719 
C 2496 2719 2285 2719 2157 2725 
L 2157 2560 
C 2317 2547 2406 2471 2406 2305 
C 2406 2248 2406 2235 2368 2146 
L 1664 375 
L 902 2286 
C 864 2369 864 2381 864 2407 
C 864 2560 1075 2560 1171 2560 
L 1171 2725 
C 1018 2719 736 2719 576 2719 
C 403 2719 205 2719 64 2725 
L 64 2560 
C 307 2560 442 2560 518 2362 
L 1446 44 
C 1485 -51 1491 -64 1549 -64 
C 1606 -64 1613 -51 1651 44 
L 2502 2163 
C 2560 2304 2662 2560 3034 2560 
z
" transform="scale(0.015625)"/>
       <path id="LMRoman17-Regular-67" d="M 2886 2614 
C 2886 2731 2790 2854 2586 2854 
C 2330 2854 2106 2738 1926 2580 
C 1734 2753 1504 2816 1299 2816 
C 794 2816 358 2419 358 1888 
C 358 1522 570 1292 634 1228 
C 442 1004 442 743 442 711 
C 442 545 506 302 723 168 
C 390 85 128 -169 128 -486 
C 128 -943 736 -1280 1466 -1280 
C 2170 -1280 2803 -956 2803 -479 
C 2803 384 1856 384 1363 384 
C 1216 384 954 384 922 391 
C 723 423 589 602 589 825 
C 589 882 589 1024 710 1164 
C 832 1068 1043 960 1299 960 
C 1805 960 2240 1357 2240 1888 
C 2240 2054 2189 2310 1997 2509 
C 2176 2692 2438 2752 2586 2752 
C 2611 2752 2650 2752 2682 2734 
C 2656 2728 2598 2703 2598 2605 
C 2598 2527 2656 2471 2739 2471 
C 2835 2471 2886 2533 2886 2614 
z
M 1862 1889 
C 1862 1760 1862 1068 1299 1068 
C 736 1068 736 1760 736 1889 
C 736 2016 736 2708 1299 2708 
C 1862 2708 1862 2016 1862 1889 
z
M 2547 -486 
C 2547 -835 2106 -1171 1466 -1171 
C 826 -1171 384 -835 384 -486 
C 384 -289 493 -105 634 -4 
C 794 104 858 104 1293 104 
C 1818 104 2547 104 2547 -486 
z
" transform="scale(0.015625)"/>
       <path id="LMRoman17-Regular-52" d="M 4365 503 
C 4365 540 4365 585 4307 585 
C 4256 585 4250 547 4250 522 
C 4218 112 4032 -26 3834 -26 
C 3482 -26 3443 377 3405 768 
C 3386 903 3373 998 3360 1139 
C 3322 1459 3270 1927 2509 2157 
C 3117 2277 3629 2684 3629 3191 
C 3629 3787 2950 4326 2054 4326 
L 333 4326 
L 333 4160 
C 774 4160 845 4160 845 3873 
L 845 415 
C 845 128 774 128 333 128 
L 333 -26 
C 518 -26 851 -26 1050 -26 
C 1248 -26 1581 -26 1766 -26 
L 1766 128 
C 1325 128 1254 128 1254 417 
L 1254 2112 
L 2003 2112 
C 2368 2112 2573 1964 2662 1881 
C 2918 1632 2918 1459 2918 1024 
C 2918 595 2918 377 3110 160 
C 3354 -102 3680 -128 3821 -128 
C 4294 -128 4365 396 4365 503 
z
M 3142 3190 
C 3142 2372 2464 2214 1984 2214 
L 1254 2214 
L 1254 3913 
C 1254 4129 1267 4160 1523 4160 
L 1990 4160 
C 2522 4160 3142 3977 3142 3190 
z
" transform="scale(0.015625)"/>
       <path id="LMRoman17-Regular-40" d="M 4307 2120 
C 4307 3712 3194 4454 2304 4454 
C 1229 4454 294 3493 294 2196 
C 294 980 1146 -64 2336 -64 
C 3379 -64 4301 373 4301 425 
C 4301 457 4294 457 4166 457 
C 4058 457 4045 457 4013 438 
C 3782 330 3162 38 2330 38 
C 1197 38 410 1063 410 2195 
C 410 3404 1280 4352 2298 4352 
C 2758 4352 3213 4168 3622 3744 
C 4032 3300 4192 2697 4192 2094 
C 4192 1619 4179 933 3731 933 
C 3526 933 3501 1195 3501 1367 
L 3501 2908 
C 3501 3029 3494 3029 3366 3029 
L 3187 3029 
C 3187 3029 3174 3035 3142 3081 
C 2874 3481 2541 3584 2298 3584 
C 1683 3584 1101 3023 1101 2208 
C 1101 1392 1690 832 2298 832 
C 2739 832 3040 1155 3155 1353 
C 3162 997 3456 832 3706 832 
C 4237 832 4307 1440 4307 2120 
z
M 3162 1723 
C 3162 1602 3162 1596 3085 1462 
C 2886 1099 2579 933 2304 933 
C 1830 933 1440 1500 1440 2208 
C 1440 2915 1830 3482 2304 3482 
C 2573 3482 2778 3329 2880 3233 
C 3034 3087 3162 2902 3162 2692 
L 3162 1723 
z
" transform="scale(0.015625)"/>
       <path id="LMRoman17-Regular-65" d="M 2464 1576 
C 2464 2238 2118 2816 1389 2816 
C 710 2816 173 2169 173 1383 
C 173 551 781 -64 1459 -64 
C 2176 -64 2458 606 2458 739 
C 2458 784 2406 784 2406 784 
C 2362 784 2355 771 2330 695 
C 2189 265 1837 51 1504 51 
C 1229 51 954 203 781 480 
C 582 803 582 1176 582 1472 
L 2438 1472 
C 2464 1498 2464 1511 2464 1576 
z
M 2118 1568 
L 589 1568 
C 634 2505 1126 2714 1382 2714 
C 1818 2714 2112 2297 2118 1568 
z
" transform="scale(0.015625)"/>
      </defs>
      <use xlink:href="#LMRoman17-Regular-41" transform="scale(0.996264)"/>
      <use xlink:href="#LMRoman17-Regular-76" transform="translate(58.659969 0) scale(0.996264)"/>
      <use xlink:href="#LMRoman17-Regular-67" transform="translate(106.951182 0) scale(0.996264)"/>
      <use xlink:href="#LMRoman17-Regular-52" transform="translate(182.718279 0) scale(0.996264)"/>
      <use xlink:href="#LMRoman17-Regular-40" transform="translate(250.508059 0) scale(0.996264)"/>
      <use xlink:href="#LMRoman17-Regular-31" transform="translate(322.224079 0) scale(0.996264)"/>
      <use xlink:href="#LMRoman17-Regular-28" transform="translate(397.991176 0) scale(0.996264)"/>
      <use xlink:href="#LMRoman17-Regular-74" transform="translate(433.272704 0) scale(0.996264)"/>
      <use xlink:href="#LMRoman17-Regular-65" transform="translate(468.554231 0) scale(0.996264)"/>
      <use xlink:href="#LMRoman17-Regular-73" transform="translate(509.039041 0) scale(0.996264)"/>
      <use xlink:href="#LMRoman17-Regular-74" transform="translate(544.842278 0) scale(0.996264)"/>
      <use xlink:href="#LMRoman17-Regular-29" transform="translate(580.123806 0) scale(0.996264)"/>
     </g>
    </g>
   </g>
   <g id="line2d_64">
    <path d="M 89.619802 53.756408 
L 114.671742 49.750733 
L 139.723683 47.97047 
L 164.775623 50.640903 
L 189.827564 55.314174 
L 214.879504 60.877563 
L 239.931445 66.886051 
L 264.983385 80.238243 
L 290.035326 92.70029 
L 315.087266 110.058106 
L 340.139207 125.413122 
L 365.191147 138.097706 
L 390.243088 153.230173 
L 415.295028 170.365466 
L 440.346969 183.495108 
L 465.398909 196.624764 
L 490.45085 211.534695 
L 515.50279 227.55732 
L 540.554731 240.241891 
L 565.606671 250.478577 
L 590.658612 267.39132 
" clip-path="url(#p23a921889a)" style="fill: none; stroke: #0c5da5; stroke-linecap: round"/>
    <defs>
     <path id="m052b2ff7a9" d="M 0 2 
C 0.530406 2 1.03916 1.789267 1.414214 1.414214 
C 1.789267 1.03916 2 0.530406 2 0 
C 2 -0.530406 1.789267 -1.03916 1.414214 -1.414214 
C 1.03916 -1.789267 0.530406 -2 0 -2 
C -0.530406 -2 -1.03916 -1.789267 -1.414214 -1.414214 
C -1.789267 -1.03916 -2 -0.530406 -2 0 
C -2 0.530406 -1.789267 1.03916 -1.414214 1.414214 
C -1.03916 1.789267 -0.530406 2 0 2 
z
" style="stroke: #0c5da5"/>
    </defs>
    <g clip-path="url(#p23a921889a)">
     <use xlink:href="#m052b2ff7a9" x="89.619802" y="53.756408" style="fill: #0c5da5; stroke: #0c5da5"/>
     <use xlink:href="#m052b2ff7a9" x="114.671742" y="49.750733" style="fill: #0c5da5; stroke: #0c5da5"/>
     <use xlink:href="#m052b2ff7a9" x="139.723683" y="47.97047" style="fill: #0c5da5; stroke: #0c5da5"/>
     <use xlink:href="#m052b2ff7a9" x="164.775623" y="50.640903" style="fill: #0c5da5; stroke: #0c5da5"/>
     <use xlink:href="#m052b2ff7a9" x="189.827564" y="55.314174" style="fill: #0c5da5; stroke: #0c5da5"/>
     <use xlink:href="#m052b2ff7a9" x="214.879504" y="60.877563" style="fill: #0c5da5; stroke: #0c5da5"/>
     <use xlink:href="#m052b2ff7a9" x="239.931445" y="66.886051" style="fill: #0c5da5; stroke: #0c5da5"/>
     <use xlink:href="#m052b2ff7a9" x="264.983385" y="80.238243" style="fill: #0c5da5; stroke: #0c5da5"/>
     <use xlink:href="#m052b2ff7a9" x="290.035326" y="92.70029" style="fill: #0c5da5; stroke: #0c5da5"/>
     <use xlink:href="#m052b2ff7a9" x="315.087266" y="110.058106" style="fill: #0c5da5; stroke: #0c5da5"/>
     <use xlink:href="#m052b2ff7a9" x="340.139207" y="125.413122" style="fill: #0c5da5; stroke: #0c5da5"/>
     <use xlink:href="#m052b2ff7a9" x="365.191147" y="138.097706" style="fill: #0c5da5; stroke: #0c5da5"/>
     <use xlink:href="#m052b2ff7a9" x="390.243088" y="153.230173" style="fill: #0c5da5; stroke: #0c5da5"/>
     <use xlink:href="#m052b2ff7a9" x="415.295028" y="170.365466" style="fill: #0c5da5; stroke: #0c5da5"/>
     <use xlink:href="#m052b2ff7a9" x="440.346969" y="183.495108" style="fill: #0c5da5; stroke: #0c5da5"/>
     <use xlink:href="#m052b2ff7a9" x="465.398909" y="196.624764" style="fill: #0c5da5; stroke: #0c5da5"/>
     <use xlink:href="#m052b2ff7a9" x="490.45085" y="211.534695" style="fill: #0c5da5; stroke: #0c5da5"/>
     <use xlink:href="#m052b2ff7a9" x="515.50279" y="227.55732" style="fill: #0c5da5; stroke: #0c5da5"/>
     <use xlink:href="#m052b2ff7a9" x="540.554731" y="240.241891" style="fill: #0c5da5; stroke: #0c5da5"/>
     <use xlink:href="#m052b2ff7a9" x="565.606671" y="250.478577" style="fill: #0c5da5; stroke: #0c5da5"/>
     <use xlink:href="#m052b2ff7a9" x="590.658612" y="267.39132" style="fill: #0c5da5; stroke: #0c5da5"/>
    </g>
   </g>
   <g id="line2d_65">
    <path d="M 89.619802 53.756408 
L 114.671742 43.519722 
L 139.723683 41.294361 
L 164.775623 34.840827 
L 189.827564 38.401405 
L 214.879504 39.959144 
L 239.931445 49.083163 
L 264.983385 56.426841 
L 290.035326 69.779033 
L 315.087266 85.134037 
L 340.139207 107.832745 
L 365.191147 124.745527 
L 390.243088 136.985012 
L 415.295028 157.235823 
L 440.346969 177.931706 
L 465.398909 195.067011 
L 490.45085 214.87275 
L 515.50279 230.227753 
L 540.554731 240.464427 
L 565.606671 255.81943 
L 590.658612 265.388509 
" clip-path="url(#p23a921889a)" style="fill: none; stroke: #00b945; stroke-linecap: round"/>
    <defs>
     <path id="mf42421aec4" d="M -2 2 
L 2 2 
L 2 -2 
L -2 -2 
z
" style="stroke: #00b945; stroke-linejoin: miter"/>
    </defs>
    <g clip-path="url(#p23a921889a)">
     <use xlink:href="#mf42421aec4" x="89.619802" y="53.756408" style="fill: #00b945; stroke: #00b945; stroke-linejoin: miter"/>
     <use xlink:href="#mf42421aec4" x="114.671742" y="43.519722" style="fill: #00b945; stroke: #00b945; stroke-linejoin: miter"/>
     <use xlink:href="#mf42421aec4" x="139.723683" y="41.294361" style="fill: #00b945; stroke: #00b945; stroke-linejoin: miter"/>
     <use xlink:href="#mf42421aec4" x="164.775623" y="34.840827" style="fill: #00b945; stroke: #00b945; stroke-linejoin: miter"/>
     <use xlink:href="#mf42421aec4" x="189.827564" y="38.401405" style="fill: #00b945; stroke: #00b945; stroke-linejoin: miter"/>
     <use xlink:href="#mf42421aec4" x="214.879504" y="39.959144" style="fill: #00b945; stroke: #00b945; stroke-linejoin: miter"/>
     <use xlink:href="#mf42421aec4" x="239.931445" y="49.083163" style="fill: #00b945; stroke: #00b945; stroke-linejoin: miter"/>
     <use xlink:href="#mf42421aec4" x="264.983385" y="56.426841" style="fill: #00b945; stroke: #00b945; stroke-linejoin: miter"/>
     <use xlink:href="#mf42421aec4" x="290.035326" y="69.779033" style="fill: #00b945; stroke: #00b945; stroke-linejoin: miter"/>
     <use xlink:href="#mf42421aec4" x="315.087266" y="85.134037" style="fill: #00b945; stroke: #00b945; stroke-linejoin: miter"/>
     <use xlink:href="#mf42421aec4" x="340.139207" y="107.832745" style="fill: #00b945; stroke: #00b945; stroke-linejoin: miter"/>
     <use xlink:href="#mf42421aec4" x="365.191147" y="124.745527" style="fill: #00b945; stroke: #00b945; stroke-linejoin: miter"/>
     <use xlink:href="#mf42421aec4" x="390.243088" y="136.985012" style="fill: #00b945; stroke: #00b945; stroke-linejoin: miter"/>
     <use xlink:href="#mf42421aec4" x="415.295028" y="157.235823" style="fill: #00b945; stroke: #00b945; stroke-linejoin: miter"/>
     <use xlink:href="#mf42421aec4" x="440.346969" y="177.931706" style="fill: #00b945; stroke: #00b945; stroke-linejoin: miter"/>
     <use xlink:href="#mf42421aec4" x="465.398909" y="195.067011" style="fill: #00b945; stroke: #00b945; stroke-linejoin: miter"/>
     <use xlink:href="#mf42421aec4" x="490.45085" y="214.87275" style="fill: #00b945; stroke: #00b945; stroke-linejoin: miter"/>
     <use xlink:href="#mf42421aec4" x="515.50279" y="230.227753" style="fill: #00b945; stroke: #00b945; stroke-linejoin: miter"/>
     <use xlink:href="#mf42421aec4" x="540.554731" y="240.464427" style="fill: #00b945; stroke: #00b945; stroke-linejoin: miter"/>
     <use xlink:href="#mf42421aec4" x="565.606671" y="255.81943" style="fill: #00b945; stroke: #00b945; stroke-linejoin: miter"/>
     <use xlink:href="#mf42421aec4" x="590.658612" y="265.388509" style="fill: #00b945; stroke: #00b945; stroke-linejoin: miter"/>
    </g>
   </g>
   <g id="line2d_66">
    <path d="M 64.567861 52.866264 
L 615.710552 52.866264 
" clip-path="url(#p23a921889a)" style="fill: none; stroke-dasharray: 3.7,1.6; stroke-dashoffset: 0; stroke: #808080"/>
   </g>
   <g id="patch_3">
    <path d="M 64.567861 279.018845 
L 64.567861 23.213303 
" style="fill: none; stroke: #8b949e; stroke-width: 0.5; stroke-linejoin: miter; stroke-linecap: square"/>
   </g>
   <g id="patch_4">
    <path d="M 64.567861 279.018845 
L 615.710552 279.018845 
" style="fill: none; stroke: #8b949e; stroke-width: 0.5; stroke-linejoin: miter; stroke-linecap: square"/>
   </g>
   <g id="text_14">
    <!-- Retrieval Performance vs Shift Magnitude -->
    <g style="fill: #e6edf3" transform="translate(172.166413 17.213303) scale(0.2 -0.2)">
     <defs>
      <path id="LMRoman17-Regular-6c" d="M 1414 -13 
L 1414 153 
C 1005 153 979 178 979 426 
L 979 4396 
L 218 4326 
L 218 4160 
C 595 4160 653 4122 653 3817 
L 653 426 
C 653 184 627 153 218 153 
L 218 -13 
C 371 0 653 0 813 0 
C 979 0 1261 0 1414 -13 
z
" transform="scale(0.015625)"/>
      <path id="LMRoman17-Regular-50" d="M 3718 3184 
C 3718 3791 3130 4352 2291 4352 
L 333 4352 
L 333 4186 
C 774 4186 845 4186 845 3899 
L 845 446 
C 845 160 774 160 333 160 
L 333 0 
C 518 0 858 0 1056 0 
C 1254 0 1594 0 1779 0 
L 1779 160 
C 1338 160 1267 160 1267 446 
L 1267 2042 
L 2291 2042 
C 3117 2042 3718 2578 3718 3184 
z
M 3232 3184 
C 3232 2604 2950 2176 2170 2176 
L 1254 2176 
L 1254 3938 
C 1254 4155 1267 4186 1523 4186 
L 2170 4186 
C 2995 4186 3232 3714 3232 3184 
z
" transform="scale(0.015625)"/>
      <path id="LMRoman17-Regular-6d" d="M 4762 -13 
L 4762 153 
C 4352 153 4326 178 4326 428 
L 4326 1933 
C 4326 2252 4269 2790 3507 2790 
C 3072 2790 2771 2496 2656 2151 
L 2650 2151 
C 2573 2676 2195 2790 1837 2790 
C 1331 2790 1069 2400 973 2144 
L 966 2144 
L 966 2790 
L 211 2720 
L 211 2554 
C 589 2554 646 2515 646 2208 
L 646 428 
C 646 184 621 153 211 153 
L 211 -13 
C 365 0 646 0 813 0 
C 979 0 1267 0 1421 -13 
L 1421 153 
C 1011 153 986 178 986 428 
L 986 1658 
C 986 2247 1344 2688 1792 2688 
C 2266 2688 2317 2266 2317 1958 
L 2317 428 
C 2317 184 2291 153 1882 153 
L 1882 -13 
C 2035 0 2317 0 2483 0 
C 2650 0 2938 0 3091 -13 
L 3091 153 
C 2682 153 2656 178 2656 428 
L 2656 1658 
C 2656 2247 3014 2688 3462 2688 
C 3936 2688 3987 2266 3987 1958 
L 3987 428 
C 3987 184 3962 153 3552 153 
L 3552 -13 
C 3706 0 3987 0 4154 0 
C 4320 0 4608 0 4762 -13 
z
" transform="scale(0.015625)"/>
      <path id="LMRoman17-Regular-53" d="M 2970 1124 
C 2970 1454 2848 1708 2778 1823 
C 2509 2230 2221 2306 1914 2382 
C 1869 2402 1856 2402 1498 2490 
C 1152 2579 1005 2624 845 2796 
C 666 2992 602 3196 602 3399 
C 602 3812 934 4263 1478 4263 
C 2157 4263 2579 3786 2675 2993 
C 2694 2878 2701 2872 2746 2872 
C 2803 2872 2803 2891 2803 2999 
L 2803 4290 
C 2803 4404 2797 4411 2758 4411 
C 2720 4411 2707 4385 2682 4328 
L 2490 3907 
C 2246 4257 1875 4416 1472 4416 
C 819 4416 294 3901 294 3253 
C 294 3056 339 2776 557 2510 
C 794 2218 1018 2167 1530 2033 
C 1722 1982 2042 1899 2106 1874 
C 2470 1722 2662 1341 2662 985 
C 2662 527 2336 38 1779 38 
C 1094 38 454 419 410 1311 
C 403 1413 397 1419 352 1419 
C 301 1419 294 1413 294 1285 
L 294 -1 
C 294 -115 301 -122 339 -122 
C 384 -122 397 -90 486 108 
C 493 127 493 140 614 381 
C 934 -39 1472 -128 1779 -128 
C 2477 -128 2970 451 2970 1124 
z
" transform="scale(0.015625)"/>
      <path id="LMRoman17-Regular-4d" d="M 5094 -13 
L 5094 153 
C 4653 153 4582 153 4582 438 
L 4582 3875 
C 4582 4160 4653 4160 5094 4160 
L 5094 4326 
L 4282 4326 
C 4147 4326 4141 4320 4102 4224 
L 2720 502 
L 1338 4230 
C 1299 4326 1293 4326 1158 4326 
L 339 4326 
L 339 4160 
C 781 4160 851 4160 851 3875 
L 851 610 
C 851 451 851 153 339 153 
L 339 -13 
C 486 0 755 0 915 0 
C 1075 0 1344 0 1491 -13 
L 1491 153 
C 979 153 979 451 979 610 
L 979 4135 
L 986 4135 
L 2490 89 
C 2515 25 2528 -13 2579 -13 
C 2630 -13 2643 25 2669 89 
L 4186 4166 
L 4192 4166 
L 4192 438 
C 4192 153 4122 153 3680 153 
L 3680 -13 
C 3853 0 4198 0 4384 0 
C 4570 0 4922 0 5094 -13 
z
" transform="scale(0.015625)"/>
      <path id="LMRoman17-Regular-75" d="M 3091 -63 
L 3091 128 
C 2714 128 2656 166 2656 473 
L 2656 2763 
L 1882 2693 
L 1882 2528 
C 2259 2528 2317 2489 2317 2186 
L 2317 1032 
C 2317 500 2029 38 1555 38 
C 1030 38 986 348 986 678 
L 986 2763 
L 211 2693 
L 211 2528 
C 467 2528 640 2528 646 2274 
L 646 1058 
C 646 633 646 361 813 183 
C 896 101 1056 -64 1517 -64 
C 2061 -64 2272 377 2323 506 
L 2330 506 
L 2330 -63 
L 3091 -63 
z
" transform="scale(0.015625)"/>
      <path id="LMRoman17-Regular-64" d="M 3066 -63 
L 3066 128 
C 2688 128 2630 166 2630 473 
L 2630 4396 
L 1869 4326 
L 1869 4160 
C 2246 4160 2304 4122 2304 3820 
L 2304 2345 
C 2278 2377 2016 2790 1498 2790 
C 845 2790 211 2208 211 1364 
C 211 525 806 -64 1434 -64 
C 1978 -64 2259 337 2291 380 
L 2291 -63 
L 3066 -63 
z
M 2291 755 
C 2291 563 2176 390 2029 262 
C 1811 70 1594 38 1472 38 
C 1286 38 621 134 621 1356 
C 621 2612 1363 2688 1530 2688 
C 1824 2688 2061 2522 2208 2291 
C 2291 2157 2291 2138 2291 2023 
L 2291 755 
z
" transform="scale(0.015625)"/>
     </defs>
     <use xlink:href="#LMRoman17-Regular-52" transform="scale(0.996264)"/>
     <use xlink:href="#LMRoman17-Regular-65" transform="translate(67.789779 0) scale(0.996264)"/>
     <use xlink:href="#LMRoman17-Regular-74" transform="translate(108.274589 0) scale(0.996264)"/>
     <use xlink:href="#LMRoman17-Regular-72" transform="translate(143.556116 0) scale(0.996264)"/>
     <use xlink:href="#LMRoman17-Regular-69" transform="translate(178.837644 0) scale(0.996264)"/>
     <use xlink:href="#LMRoman17-Regular-65" transform="translate(203.709661 0) scale(0.996264)"/>
     <use xlink:href="#LMRoman17-Regular-76" transform="translate(244.19447 0) scale(0.996264)"/>
     <use xlink:href="#LMRoman17-Regular-61" transform="translate(287.280866 0) scale(0.996264)"/>
     <use xlink:href="#LMRoman17-Regular-6c" transform="translate(332.971815 0) scale(0.996264)"/>
     <use xlink:href="#LMRoman17-Regular-50" transform="translate(387.91998 0) scale(0.996264)"/>
     <use xlink:href="#LMRoman17-Regular-65" transform="translate(447.901075 0) scale(0.996264)"/>
     <use xlink:href="#LMRoman17-Regular-72" transform="translate(488.385884 0) scale(0.996264)"/>
     <use xlink:href="#LMRoman17-Regular-66" transform="translate(523.667412 0) scale(0.996264)"/>
     <use xlink:href="#LMRoman17-Regular-6f" transform="translate(551.139586 0) scale(0.996264)"/>
     <use xlink:href="#LMRoman17-Regular-72" transform="translate(596.830535 0) scale(0.996264)"/>
     <use xlink:href="#LMRoman17-Regular-6d" transform="translate(632.112063 0) scale(0.996264)"/>
     <use xlink:href="#LMRoman17-Regular-61" transform="translate(709.034222 0) scale(0.996264)"/>
     <use xlink:href="#LMRoman17-Regular-6e" transform="translate(754.72517 0) scale(0.996264)"/>
     <use xlink:href="#LMRoman17-Regular-63" transform="translate(805.622258 0) scale(0.996264)"/>
     <use xlink:href="#LMRoman17-Regular-65" transform="translate(846.107067 0) scale(0.996264)"/>
     <use xlink:href="#LMRoman17-Regular-76" transform="translate(916.668025 0) scale(0.996264)"/>
     <use xlink:href="#LMRoman17-Regular-73" transform="translate(964.959238 0) scale(0.996264)"/>
     <use xlink:href="#LMRoman17-Regular-53" transform="translate(1030.838625 0) scale(0.996264)"/>
     <use xlink:href="#LMRoman17-Regular-68" transform="translate(1081.735712 0) scale(0.996264)"/>
     <use xlink:href="#LMRoman17-Regular-69" transform="translate(1132.6328 0) scale(0.996264)"/>
     <use xlink:href="#LMRoman17-Regular-66" transform="translate(1157.504816 0) scale(0.996264)"/>
     <use xlink:href="#LMRoman17-Regular-74" transform="translate(1184.976991 0) scale(0.996264)"/>
     <use xlink:href="#LMRoman17-Regular-4d" transform="translate(1250.334667 0) scale(0.996264)"/>
     <use xlink:href="#LMRoman17-Regular-61" transform="translate(1335.017138 0) scale(0.996264)"/>
     <use xlink:href="#LMRoman17-Regular-67" transform="translate(1380.708087 0) scale(0.996264)"/>
     <use xlink:href="#LMRoman17-Regular-6e" transform="translate(1426.399035 0) scale(0.996264)"/>
     <use xlink:href="#LMRoman17-Regular-69" transform="translate(1477.296123 0) scale(0.996264)"/>
     <use xlink:href="#LMRoman17-Regular-74" transform="translate(1502.168139 0) scale(0.996264)"/>
     <use xlink:href="#LMRoman17-Regular-75" transform="translate(1537.449667 0) scale(0.996264)"/>
     <use xlink:href="#LMRoman17-Regular-64" transform="translate(1588.346754 0) scale(0.996264)"/>
     <use xlink:href="#LMRoman17-Regular-65" transform="translate(1639.243842 0) scale(0.996264)"/>
    </g>
   </g>
   <g id="legend_1">
    <g id="line2d_67">
     <path d="M 78.967861 204.266249 
L 94.967861 204.266249 
L 110.967861 204.266249 
" style="fill: none; stroke: #0c5da5; stroke-linecap: round"/>
     <g>
      <use xlink:href="#m052b2ff7a9" x="94.967861" y="204.266249" style="fill: #0c5da5; stroke: #0c5da5"/>
     </g>
    </g>
    <g id="text_15">
     <!-- Global $\vec{\Delta}$ -->
     <g style="fill: #e6edf3" transform="translate(123.767861 209.866249) scale(0.16 -0.16)">
      <defs>
       <path id="LMRoman17-Regular-47" d="M 4390 1505 
L 4390 1670 
C 4237 1664 3891 1664 3718 1664 
L 2797 1664 
L 2797 1505 
L 2989 1505 
C 3539 1505 3552 1434 3552 1201 
L 3552 774 
C 3552 63 2720 63 2522 63 
C 1862 63 781 511 781 2160 
C 781 3808 1843 4250 2464 4250 
C 3187 4250 3712 3626 3834 2741 
C 3846 2664 3846 2651 3904 2651 
C 3974 2651 3974 2664 3974 2779 
L 3974 4288 
C 3974 4402 3968 4409 3930 4409 
C 3904 4409 3898 4402 3853 4326 
L 3571 3791 
C 3258 4187 2874 4416 2381 4416 
C 1286 4416 294 3456 294 2148 
C 294 845 1267 -128 2394 -128 
C 2912 -128 3418 56 3616 417 
C 3725 158 3904 -20 3936 -20 
C 3968 -20 3974 -13 3974 100 
L 3974 1233 
C 3974 1473 3994 1505 4390 1505 
z
" transform="scale(0.015625)"/>
       <path id="LMRoman17-Regular-62" d="M 3053 1370 
C 3053 2188 2477 2790 1830 2790 
C 1434 2790 1152 2579 960 2330 
L 960 4396 
L 198 4326 
L 198 4160 
C 576 4160 634 4122 634 3817 
L 634 -13 
L 749 -13 
L 934 441 
C 1120 141 1395 -64 1766 -64 
C 2406 -64 3053 500 3053 1370 
z
M 2643 1376 
C 2643 108 1888 38 1734 38 
C 1536 38 1248 114 1043 486 
C 973 608 973 621 973 735 
L 973 2004 
C 973 2118 973 2138 1062 2272 
C 1312 2657 1670 2688 1792 2688 
C 1984 2688 2643 2585 2643 1376 
z
" transform="scale(0.015625)"/>
       <path id="LMMathItalic12-Regular-7e" d="M 3942 3956 
C 3942 4014 3891 4046 3853 4078 
C 3674 4200 3629 4372 3610 4449 
C 3590 4500 3571 4577 3482 4577 
C 3443 4577 3366 4552 3366 4456 
C 3366 4398 3405 4244 3526 4072 
L 1376 4072 
C 1267 4072 1158 4072 1158 3950 
C 1158 3835 1274 3835 1376 3835 
L 3424 3835 
C 3347 3764 3110 3540 3110 3451 
C 3110 3387 3168 3329 3232 3329 
C 3290 3329 3315 3368 3360 3432 
C 3514 3624 3686 3745 3834 3828 
C 3898 3867 3942 3886 3942 3956 
z
" transform="scale(0.015625)"/>
       <path id="LMRoman17-Regular-1" d="M 4698 32 
C 4698 32 4672 96 4666 109 
L 2598 4403 
C 2547 4512 2522 4512 2470 4512 
C 2394 4512 2387 4499 2342 4409 
L 269 109 
C 262 96 237 32 237 32 
C 237 6 243 0 358 0 
L 4576 0 
C 4691 0 4698 6 4698 32 
z
M 4083 358 
L 531 358 
L 2310 4027 
L 4083 358 
z
" transform="scale(0.015625)"/>
      </defs>
      <use xlink:href="#LMRoman17-Regular-47" transform="scale(0.996264)"/>
      <use xlink:href="#LMRoman17-Regular-6c" transform="translate(72.356015 0) scale(0.996264)"/>
      <use xlink:href="#LMRoman17-Regular-6f" transform="translate(97.228031 0) scale(0.996264)"/>
      <use xlink:href="#LMRoman17-Regular-62" transform="translate(142.918979 0) scale(0.996264)"/>
      <use xlink:href="#LMRoman17-Regular-61" transform="translate(193.816067 0) scale(0.996264)"/>
      <use xlink:href="#LMRoman17-Regular-6c" transform="translate(239.507015 0) scale(0.996264)"/>
      <use xlink:href="#LMMathItalic12-Regular-7e" transform="translate(300.866593 27.541267) scale(0.996264)"/>
      <use xlink:href="#LMRoman17-Regular-1" transform="translate(294.45518 0) scale(0.996264)"/>
     </g>
    </g>
    <g id="line2d_68">
     <path d="M 78.967861 231.135081 
L 94.967861 231.135081 
L 110.967861 231.135081 
" style="fill: none; stroke: #00b945; stroke-linecap: round"/>
     <g>
      <use xlink:href="#mf42421aec4" x="94.967861" y="231.135081" style="fill: #00b945; stroke: #00b945; stroke-linejoin: miter"/>
     </g>
    </g>
    <g id="text_16">
     <!-- Concept $\vec{\Delta}^{(c)}$ (K=20 protos) -->
     <g style="fill: #e6edf3" transform="translate(123.767861 236.735081) scale(0.16 -0.16)">
      <defs>
       <path id="LMRoman17-Regular-43" d="M 3974 1461 
C 3974 1524 3974 1550 3917 1550 
C 3866 1550 3866 1531 3859 1474 
C 3808 585 3168 38 2477 38 
C 1824 38 781 495 781 2147 
C 781 3805 1843 4250 2464 4250 
C 3187 4250 3712 3628 3834 2745 
C 3846 2668 3846 2655 3904 2655 
C 3974 2655 3974 2668 3974 2783 
L 3974 4289 
C 3974 4403 3968 4410 3930 4410 
C 3904 4410 3898 4403 3853 4327 
L 3571 3792 
C 3258 4187 2874 4416 2381 4416 
C 1286 4416 294 3456 294 2148 
C 294 826 1286 -128 2387 -128 
C 3366 -128 3974 730 3974 1461 
z
" transform="scale(0.015625)"/>
       <path id="LMRoman17-Regular-70" d="M 3053 1388 
C 3053 2191 2496 2802 1837 2802 
C 1453 2802 1139 2592 960 2338 
L 960 2802 
L 198 2732 
L 198 2567 
C 576 2567 634 2528 634 2223 
L 634 -789 
C 634 -1031 608 -1063 198 -1063 
L 198 -1228 
C 352 -1216 634 -1216 800 -1216 
C 966 -1216 1254 -1216 1408 -1228 
L 1408 -1063 
C 998 -1063 973 -1037 973 -789 
L 973 402 
C 1158 134 1427 -38 1766 -38 
C 2406 -38 3053 523 3053 1388 
z
M 2643 1382 
C 2643 656 2234 64 1728 64 
C 1498 64 1248 172 1056 472 
C 973 612 973 650 973 752 
L 973 2012 
C 973 2102 973 2235 1222 2471 
C 1254 2497 1472 2688 1792 2688 
C 2259 2688 2643 2108 2643 1382 
z
" transform="scale(0.015625)"/>
       <path id="LMMathItalic12-Regular-63" d="M 2675 706 
C 2675 744 2637 776 2611 776 
C 2592 776 2586 770 2528 713 
C 2118 162 1510 64 1267 64 
C 826 64 685 446 685 764 
C 685 988 794 1605 1024 2039 
C 1190 2338 1536 2682 1939 2682 
C 2022 2682 2374 2682 2502 2431 
C 2381 2431 2323 2431 2234 2355 
C 2195 2323 2125 2227 2125 2125 
C 2125 1997 2221 1920 2342 1920 
C 2496 1920 2669 2044 2669 2292 
C 2669 2588 2374 2816 1933 2816 
C 1094 2816 256 1903 256 996 
C 256 441 602 -64 1254 -64 
C 2125 -64 2675 622 2675 706 
z
" transform="scale(0.015625)"/>
       <path id="LMRoman17-Regular-4b" d="M 4384 -6 
L 4384 160 
C 4077 160 3981 198 3789 492 
L 2362 2671 
L 3469 3781 
C 3699 4006 3942 4186 4301 4186 
L 4301 4352 
L 3885 4352 
C 3712 4352 3411 4352 3245 4358 
L 3245 4192 
C 3411 4180 3437 4065 3437 4019 
C 3437 3975 3411 3905 3386 3867 
L 1261 1738 
L 1261 3900 
C 1261 4186 1331 4186 1773 4186 
L 1773 4352 
C 1587 4352 1248 4352 1050 4352 
C 851 4352 512 4352 326 4352 
L 326 4186 
C 768 4186 838 4186 838 3899 
L 838 446 
C 838 160 768 160 326 160 
L 326 0 
C 512 0 851 0 1050 0 
C 1248 0 1587 0 1773 0 
L 1773 160 
C 1331 160 1261 160 1261 447 
L 1261 1579 
L 2080 2390 
L 3290 537 
C 3328 473 3373 390 3373 326 
C 3373 160 3194 160 3110 160 
L 3110 0 
C 3315 0 3610 0 3821 0 
C 3974 0 4237 0 4384 -6 
z
" transform="scale(0.015625)"/>
       <path id="LMRoman17-Regular-3d" d="M 4307 2125 
C 4307 2240 4198 2240 4090 2240 
L 512 2240 
C 403 2240 294 2240 294 2125 
C 294 2017 390 2017 486 2017 
L 4115 2017 
C 4211 2017 4307 2017 4307 2125 
z
M 4307 1011 
C 4307 1119 4211 1119 4115 1119 
L 486 1119 
C 390 1119 294 1119 294 1011 
C 294 896 403 896 512 896 
L 4090 896 
C 4198 896 4307 896 4307 1011 
z
" transform="scale(0.015625)"/>
      </defs>
      <use xlink:href="#LMRoman17-Regular-43" transform="scale(0.996264)"/>
      <use xlink:href="#LMRoman17-Regular-6f" transform="translate(66.509789 0) scale(0.996264)"/>
      <use xlink:href="#LMRoman17-Regular-6e" transform="translate(112.200738 0) scale(0.996264)"/>
      <use xlink:href="#LMRoman17-Regular-63" transform="translate(163.097825 0) scale(0.996264)"/>
      <use xlink:href="#LMRoman17-Regular-65" transform="translate(203.582634 0) scale(0.996264)"/>
      <use xlink:href="#LMRoman17-Regular-70" transform="translate(244.067444 0) scale(0.996264)"/>
      <use xlink:href="#LMRoman17-Regular-74" transform="translate(294.964531 0) scale(0.996264)"/>
      <use xlink:href="#LMMathItalic12-Regular-7e" transform="translate(366.73362 27.541267) scale(0.996264)"/>
      <use xlink:href="#LMRoman17-Regular-1" transform="translate(360.322208 0) scale(0.996264)"/>
      <use xlink:href="#LMRoman17-Regular-28" transform="translate(437.244367 36.153639) scale(0.697382)"/>
      <use xlink:href="#LMMathItalic12-Regular-63" transform="translate(461.941319 36.153639) scale(0.697382)"/>
      <use xlink:href="#LMRoman17-Regular-29" transform="translate(491.329451 36.153639) scale(0.697382)"/>
      <use xlink:href="#LMRoman17-Regular-28" transform="translate(546.600684 0) scale(0.996264)"/>
      <use xlink:href="#LMRoman17-Regular-4b" transform="translate(581.882212 0) scale(0.996264)"/>
      <use xlink:href="#LMRoman17-Regular-3d" transform="translate(653.557947 0) scale(0.996264)"/>
      <use xlink:href="#LMRoman17-Regular-32" transform="translate(725.273967 0) scale(0.996264)"/>
      <use xlink:href="#LMRoman17-Regular-30" transform="translate(770.964915 0) scale(0.996264)"/>
      <use xlink:href="#LMRoman17-Regular-70" transform="translate(846.732012 0) scale(0.996264)"/>
      <use xlink:href="#LMRoman17-Regular-72" transform="translate(897.6291 0) scale(0.996264)"/>
      <use xlink:href="#LMRoman17-Regular-6f" transform="translate(932.910628 0) scale(0.996264)"/>
      <use xlink:href="#LMRoman17-Regular-74" transform="translate(978.601576 0) scale(0.996264)"/>
      <use xlink:href="#LMRoman17-Regular-6f" transform="translate(1013.883104 0) scale(0.996264)"/>
      <use xlink:href="#LMRoman17-Regular-73" transform="translate(1059.574052 0) scale(0.996264)"/>
      <use xlink:href="#LMRoman17-Regular-29" transform="translate(1095.37729 0) scale(0.996264)"/>
     </g>
    </g>
    <g id="line2d_69">
     <path d="M 78.967861 255.047167 
L 94.967861 255.047167 
L 110.967861 255.047167 
" style="fill: none; stroke-dasharray: 3.7,1.6; stroke-dashoffset: 0; stroke: #808080"/>
    </g>
    <g id="text_17">
     <!-- Baseline (0.2830) -->
     <g style="fill: #e6edf3" transform="translate(123.767861 260.647167) scale(0.16 -0.16)">
      <defs>
       <path id="LMRoman17-Regular-42" d="M 3885 1164 
C 3885 1741 3360 2233 2675 2233 
C 3290 2356 3718 2771 3718 3264 
C 3718 3802 3194 4352 2368 4352 
L 333 4352 
L 333 4186 
C 774 4186 845 4186 845 3900 
L 845 452 
C 845 166 774 166 333 166 
L 333 0 
L 2534 0 
C 3354 0 3885 583 3885 1164 
z
M 3251 3277 
C 3251 2791 2861 2304 2170 2304 
L 1248 2304 
L 1248 3937 
C 1248 4155 1261 4186 1517 4186 
L 2336 4186 
C 2970 4186 3251 3674 3251 3277 
z
M 3411 1162 
C 3411 699 3046 166 2349 166 
L 1517 166 
C 1261 166 1248 197 1248 413 
L 1248 2202 
L 2432 2202 
C 3091 2202 3411 1625 3411 1162 
z
" transform="scale(0.015625)"/>
       <path id="LMRoman17-Regular-2e" d="M 1062 261 
C 1062 420 934 522 800 522 
C 672 522 538 420 538 261 
C 538 102 666 0 800 0 
C 928 0 1062 102 1062 261 
z
" transform="scale(0.015625)"/>
       <path id="LMRoman17-Regular-33" d="M 2720 1085 
C 2720 1707 2208 2157 1600 2227 
C 2086 2328 2554 2756 2554 3329 
C 2554 3820 2048 4179 1472 4179 
C 890 4179 378 3829 378 3329 
C 378 3110 544 3072 627 3072 
C 762 3072 877 3155 877 3321 
C 877 3486 762 3569 627 3569 
C 602 3569 570 3569 544 3557 
C 730 3959 1235 4032 1459 4032 
C 1683 4032 2106 3925 2106 3320 
C 2106 3143 2080 2828 1862 2550 
C 1670 2304 1453 2304 1242 2284 
C 1210 2284 1062 2269 1037 2269 
C 992 2263 966 2257 966 2208 
C 966 2163 973 2157 1101 2157 
L 1414 2157 
C 1984 2157 2234 1662 2234 1090 
C 2234 320 1824 25 1453 25 
C 1114 25 563 194 390 693 
C 422 680 454 680 486 680 
C 640 680 755 782 755 948 
C 755 1133 614 1216 486 1216 
C 378 1216 211 1165 211 926 
C 211 335 787 -128 1466 -128 
C 2176 -128 2720 430 2720 1085 
z
" transform="scale(0.015625)"/>
      </defs>
      <use xlink:href="#LMRoman17-Regular-42" transform="scale(0.996264)"/>
      <use xlink:href="#LMRoman17-Regular-61" transform="translate(65.189606 0) scale(0.996264)"/>
      <use xlink:href="#LMRoman17-Regular-73" transform="translate(110.880554 0) scale(0.996264)"/>
      <use xlink:href="#LMRoman17-Regular-65" transform="translate(146.683792 0) scale(0.996264)"/>
      <use xlink:href="#LMRoman17-Regular-6c" transform="translate(187.168601 0) scale(0.996264)"/>
      <use xlink:href="#LMRoman17-Regular-69" transform="translate(212.040617 0) scale(0.996264)"/>
      <use xlink:href="#LMRoman17-Regular-6e" transform="translate(236.912634 0) scale(0.996264)"/>
      <use xlink:href="#LMRoman17-Regular-65" transform="translate(287.809721 0) scale(0.996264)"/>
      <use xlink:href="#LMRoman17-Regular-28" transform="translate(358.370679 0) scale(0.996264)"/>
      <use xlink:href="#LMRoman17-Regular-30" transform="translate(393.652207 0) scale(0.996264)"/>
      <use xlink:href="#LMRoman17-Regular-2e" transform="translate(439.343155 0) scale(0.996264)"/>
      <use xlink:href="#LMRoman17-Regular-32" transform="translate(464.215172 0) scale(0.996264)"/>
      <use xlink:href="#LMRoman17-Regular-38" transform="translate(509.90612 0) scale(0.996264)"/>
      <use xlink:href="#LMRoman17-Regular-33" transform="translate(555.597068 0) scale(0.996264)"/>
      <use xlink:href="#LMRoman17-Regular-30" transform="translate(601.288017 0) scale(0.996264)"/>
      <use xlink:href="#LMRoman17-Regular-29" transform="translate(646.978965 0) scale(0.996264)"/>
     </g>
    </g>
   </g>
  </g>
 </g>
 <defs>
  <clipPath id="p23a921889a">
   <rect x="64.567861" y="23.213303" width="551.142691" height="255.805543"/>
  </clipPath>
 </defs>
</svg>
